<svg id="Layer_1" data-name="Layer 1" xmlns="http://www.w3.org/2000/svg" viewBox="0 0 288.24 462.65"><defs><style>.cls-1{fill:none;stroke:#010101;stroke-width:4.54px;}</style></defs><title>All, PNG &amp;amp; SVG- pixelbones</title><path class="cls-1" d="M2.27,67.38V34.82H99.94V67.38Zm32.55,57v24.42h97.67v32.56H2.27V91.8H99.94V67.38h32.55v57Z"/><path class="cls-1" d="M286,2.27v146.5H253.41V67.38H188.3v81.39h65.11v32.56H155.74V34.82h97.67V2.27Z"/><path class="cls-1" d="M2.27,346.43V313.88H99.94v32.55Zm130.22,0v81.39H99.94V403.41H2.27V370.85H99.94V346.43ZM2.27,460.38V427.82H99.94v32.56Z"/><path class="cls-1" d="M286,281.32v146.5H253.41V346.43H188.3v81.39h65.11v32.56H155.74V313.88h97.67V281.32Z"/></svg>