<svg id="Layer_1" data-name="Layer 1" xmlns="http://www.w3.org/2000/svg" viewBox="0 0 160.59 130.45"><defs><style>.cls-1{fill:#fff;}.cls-2{fill:#265888;}.cls-3{fill:#e97824;}</style></defs><title>All, PNG &amp;amp; SVG- pixelbones</title><path class="cls-1" d="M63.14,72.41A36.92,36.92,0,0,1,76.55,46.26a45.47,45.47,0,0,1,57.69,0A37,37,0,0,1,147.65,72.4a36.35,36.35,0,0,1-11.29,28.08,45.35,45.35,0,0,1-61.94,0A36.27,36.27,0,0,1,63.14,72.41Z"/><path class="cls-2" d="M83.71,73.35a19,19,0,0,1,6.88-13.42,23.33,23.33,0,0,1,29.61,0,19,19,0,0,1,6.88,13.41,18.61,18.61,0,0,1-5.8,14.41,23.27,23.27,0,0,1-31.78,0A18.63,18.63,0,0,1,83.71,73.35Z"/><path class="cls-3" d="M49.19,84.17a39.32,39.32,0,0,0,1.7,9.35A49.45,49.45,0,0,0,61.55,112,54.94,54.94,0,0,0,80.2,125.36a61,61,0,0,0,49-.08,55.32,55.32,0,0,0,18.63-13.45,49.85,49.85,0,0,0,10.66-18.48,47,47,0,0,0,2-10.32,47.44,47.44,0,0,0-7.13-28.84,51.63,51.63,0,0,0-12.39-13.67h0L90.77,2l-.13-.1C87.35-.64,81.82-.63,78.2,1.9s-4.08,6.8-.82,9.47h0l20.92,17-63.77.07h-.08c-5.27,0-10.34,3.46-11.34,7.83s2.54,8.15,8,8.17v0l32.32-.06L5.75,88.7l-.22.16C.09,93-1.67,100,1.76,104.34s10.87,4.47,16.37,0L49.61,78.6A48.71,48.71,0,0,0,49.19,84.17Zm80.89,11.65a36.39,36.39,0,0,1-50.8.08,30.14,30.14,0,0,1-6.93-10.85,28.23,28.23,0,0,1-1.6-12.13A28.68,28.68,0,0,1,74.23,61.5a31.56,31.56,0,0,1,7.71-9.18,36.66,36.66,0,0,1,45.47-.06,31.47,31.47,0,0,1,7.71,9.15,28.71,28.71,0,0,1,3.49,11.41A28.34,28.34,0,0,1,137,84.94,30.38,30.38,0,0,1,130.08,95.82Z"/></svg>