<svg id="Layer_1" data-name="Layer 1" xmlns="http://www.w3.org/2000/svg" viewBox="0 0 109 109"><defs><style>.cls-1{fill:#010101;}.cls-2{fill:#fff;}</style></defs><title>All, PNG &amp;amp; SVG- pixelbones</title><circle class="cls-1" cx="54.5" cy="54.5" r="54.5"/><path class="cls-2" d="M80.79,30.08a61.6,61.6,0,0,0-15.63-4.91,45.32,45.32,0,0,0-2,4.15,57.73,57.73,0,0,0-17.31,0,45.54,45.54,0,0,0-2-4.15,61.57,61.57,0,0,0-15.64,4.92C18.3,45,15.62,59.63,17,74a62.41,62.41,0,0,0,19.16,9.83,47.26,47.26,0,0,0,4.1-6.77,39.35,39.35,0,0,1-6.46-3.14c.54-.41,1.07-.83,1.58-1.26a44.1,44.1,0,0,0,38.32,0c.51.43,1,.85,1.58,1.26a41.16,41.16,0,0,1-6.47,3.15,46.26,46.26,0,0,0,4.1,6.76A62,62,0,0,0,92,74,65.51,65.51,0,0,0,80.79,30.08ZM41.92,65.16c-3.74,0-6.81-3.49-6.81-7.75s3-7.76,6.81-7.76,6.87,3.5,6.81,7.76S45.73,65.16,41.92,65.16Zm25.16,0c-3.74,0-6.81-3.49-6.81-7.75s3-7.76,6.81-7.76,6.87,3.5,6.81,7.76S70.89,65.16,67.08,65.16Z"/></svg>