<svg id="Layer_1" data-name="Layer 1" xmlns="http://www.w3.org/2000/svg" viewBox="0 0 448.23 167.66"><defs><style>.cls-1{fill:#010101;}.cls-2{fill:#fff;}</style></defs><title>All, PNG &amp;amp; SVG- pixelbones</title><polygon class="cls-1" points="310.87 83.36 156.79 83.36 156.79 65.36 274.71 65.36 233.53 10.85 247.89 0 310.87 83.36"/><circle class="cls-1" cx="70.4" cy="97.26" r="70.4"/><path class="cls-2" d="M104.35,65.71a79.48,79.48,0,0,0-20.18-6.34,59,59,0,0,0-2.59,5.37,74.16,74.16,0,0,0-22.36,0,56.71,56.71,0,0,0-2.62-5.37,79.19,79.19,0,0,0-20.19,6.36C23.63,85.05,20.17,103.88,21.9,122.45a80.51,80.51,0,0,0,24.75,12.69A60.34,60.34,0,0,0,52,126.4a51.43,51.43,0,0,1-8.34-4.06q1.05-.78,2-1.62a57,57,0,0,0,49.49,0c.67.56,1.35,1.1,2,1.62a51.78,51.78,0,0,1-8.37,4.07,60.89,60.89,0,0,0,5.3,8.74,80.53,80.53,0,0,0,24.77-12.7C120.92,100.92,115.42,82.26,104.35,65.71ZM54.15,111c-4.83,0-8.8-4.51-8.8-10s3.88-10,8.8-10,8.88,4.51,8.79,10S59.06,111,54.15,111Zm32.5,0c-4.84,0-8.8-4.51-8.8-10s3.88-10,8.8-10,8.87,4.51,8.79,10S91.56,111,86.65,111Z"/><path class="cls-1" d="M164.24,123l-4.09-16.12h2.2l1.92,8.15c.48,2,.91,4,1.19,5.58h0c.27-1.6.77-3.52,1.32-5.6l2.15-8.13h2.18l2,8.18c.46,1.91.89,3.83,1.12,5.53h0c.34-1.77.79-3.57,1.29-5.58l2.13-8.13h2.13L175.27,123H173.1l-2-8.4a49.68,49.68,0,0,1-1.05-5.26h0a50.56,50.56,0,0,1-1.24,5.26l-2.3,8.4Z"/><path class="cls-1" d="M190.21,115.39h-6.27v5.82h7V123h-9.07V106.83h8.71v1.74h-6.63v5.1h6.27Z"/><path class="cls-1" d="M198.71,107a23.79,23.79,0,0,1,4-.31,6.66,6.66,0,0,1,4.53,1.34,4.33,4.33,0,0,1,1.41,3.37,4.7,4.7,0,0,1-1.25,3.44,6.65,6.65,0,0,1-4.93,1.78,7.1,7.1,0,0,1-1.67-.15V123h-2.08Zm2.08,7.77a6.92,6.92,0,0,0,1.72.17c2.51,0,4.05-1.22,4.05-3.44s-1.51-3.16-3.81-3.16a8.43,8.43,0,0,0-2,.17Z"/><path class="cls-1" d="M211.44,107a22.19,22.19,0,0,1,4-.33c2.22,0,3.66.4,4.66,1.31a4,4,0,0,1,1.27,3.06,4.24,4.24,0,0,1-3,4.12v.07c1.25.43,2,1.58,2.37,3.26a26.42,26.42,0,0,0,1.24,4.42h-2.15a21.36,21.36,0,0,1-1.08-3.85c-.47-2.23-1.34-3.06-3.23-3.13h-2v7h-2.08Zm2.08,7.35h2.13c2.23,0,3.64-1.22,3.64-3.07,0-2.08-1.51-3-3.71-3a8.45,8.45,0,0,0-2.06.19Z"/><path class="cls-1" d="M232.67,115.39H226.4v5.82h7V123h-9.06V106.83H233v1.74H226.4v5.1h6.27Z"/><path class="cls-1" d="M236.09,106.83h8.69v1.74h-6.61v5.36h6.1v1.72h-6.1V123h-2.08Z"/><path class="cls-1" d="M256.1,115.39h-6.27v5.82h7V123h-9.07V106.83h8.71v1.74h-6.63v5.1h6.27Z"/><path class="cls-1" d="M259.52,107a22.19,22.19,0,0,1,4-.33c2.22,0,3.66.4,4.66,1.31a4,4,0,0,1,1.27,3.06,4.24,4.24,0,0,1-3,4.12v.07c1.25.43,2,1.58,2.37,3.26A26.42,26.42,0,0,0,270,123h-2.15a21.36,21.36,0,0,1-1.08-3.85c-.47-2.23-1.34-3.06-3.22-3.13h-2v7h-2.08Zm2.08,7.35h2.13c2.23,0,3.64-1.22,3.64-3.07,0-2.08-1.51-3-3.71-3a8.45,8.45,0,0,0-2.06.19Z"/><path class="cls-1" d="M277.47,107a30.14,30.14,0,0,1,4.43-.33c3,0,5.12.69,6.53,2a7.4,7.4,0,0,1,2.27,5.79,8.53,8.53,0,0,1-2.32,6.27c-1.51,1.5-4,2.32-7.13,2.32a33.3,33.3,0,0,1-3.78-.2Zm2.08,14.26a12.69,12.69,0,0,0,2.11.12c4.45,0,6.87-2.49,6.87-6.84,0-3.81-2.13-6.22-6.54-6.22a11.92,11.92,0,0,0-2.44.21Z"/><path class="cls-1" d="M295.49,106.83V123h-2.08V106.83Z"/><path class="cls-1" d="M298.84,120.42a7.45,7.45,0,0,0,3.74,1c2.13,0,3.37-1.13,3.37-2.75s-.86-2.37-3-3.21c-2.63-.93-4.26-2.3-4.26-4.57,0-2.51,2.08-4.38,5.22-4.38a7.36,7.36,0,0,1,3.56.79l-.57,1.7a6.4,6.4,0,0,0-3.06-.76c-2.21,0-3,1.31-3,2.41,0,1.51,1,2.25,3.2,3.11,2.73,1,4.12,2.37,4.12,4.74s-1.84,4.64-5.65,4.64a8.26,8.26,0,0,1-4.11-1Z"/><path class="cls-1" d="M322.2,122.43a10.43,10.43,0,0,1-4.26.76c-4.55,0-8-2.87-8-8.16,0-5,3.42-8.47,8.42-8.47a8.6,8.6,0,0,1,3.83.72l-.5,1.7a7.61,7.61,0,0,0-3.25-.67c-3.78,0-6.3,2.42-6.3,6.65,0,4,2.28,6.48,6.2,6.48a8.47,8.47,0,0,0,3.4-.66Z"/><path class="cls-1" d="M338.09,114.72c0,5.55-3.37,8.5-7.49,8.5s-7.25-3.31-7.25-8.19c0-5.12,3.18-8.47,7.49-8.47S338.09,109.94,338.09,114.72Zm-12.51.26c0,3.45,1.86,6.54,5.14,6.54s5.17-3,5.17-6.7c0-3.21-1.68-6.56-5.15-6.56S325.58,111.44,325.58,115Z"/><path class="cls-1" d="M340.8,107a22.15,22.15,0,0,1,4-.33c2.23,0,3.66.4,4.67,1.31a4,4,0,0,1,1.27,3.06,4.24,4.24,0,0,1-3,4.12v.07c1.24.43,2,1.58,2.37,3.26A25.44,25.44,0,0,0,351.3,123h-2.15a20.51,20.51,0,0,1-1.08-3.85c-.48-2.23-1.34-3.06-3.23-3.13h-2v7H340.8Zm2.08,7.35H345c2.22,0,3.64-1.22,3.64-3.07,0-2.08-1.51-3-3.71-3a8.32,8.32,0,0,0-2.06.19Z"/><path class="cls-1" d="M353.67,107a30.14,30.14,0,0,1,4.43-.33c3,0,5.12.69,6.53,2a7.4,7.4,0,0,1,2.28,5.79,8.54,8.54,0,0,1-2.33,6.27c-1.5,1.5-4,2.32-7.13,2.32a33.43,33.43,0,0,1-3.78-.2Zm2.08,14.26a12.76,12.76,0,0,0,2.11.12c4.45,0,6.87-2.49,6.87-6.84,0-3.81-2.13-6.22-6.53-6.22a12,12,0,0,0-2.45.21Z"/><path class="cls-1" d="M161.61,135.55h8.69v1.74h-6.61v5.36h6.1v1.72h-6.1v7.3h-2.08Z"/><path class="cls-1" d="M187.05,143.44c0,5.55-3.38,8.5-7.49,8.5-4.26,0-7.25-3.31-7.25-8.19,0-5.12,3.18-8.47,7.49-8.47S187.05,138.66,187.05,143.44Zm-12.51.26c0,3.45,1.86,6.54,5.14,6.54s5.17-3,5.17-6.7c0-3.21-1.68-6.56-5.15-6.56S174.54,140.16,174.54,143.7Z"/><path class="cls-1" d="M189.76,135.76a22.15,22.15,0,0,1,4-.33c2.23,0,3.66.4,4.67,1.31a4,4,0,0,1,1.27,3.06,4.24,4.24,0,0,1-3,4.12V144c1.24.43,2,1.58,2.37,3.26a25.73,25.73,0,0,0,1.24,4.42h-2.15a20.51,20.51,0,0,1-1.08-3.85c-.48-2.22-1.34-3.06-3.23-3.13h-2v7h-2.08Zm2.08,7.35H194c2.22,0,3.64-1.22,3.64-3.07,0-2.08-1.51-3-3.71-3a8.32,8.32,0,0,0-2.06.19Z"/><path class="cls-1" d="M207.42,149.14a7.42,7.42,0,0,0,3.73,1.05c2.13,0,3.38-1.13,3.38-2.75s-.87-2.37-3-3.21c-2.63-.93-4.26-2.3-4.26-4.57,0-2.51,2.08-4.38,5.21-4.38a7.44,7.44,0,0,1,3.57.79l-.58,1.7a6.36,6.36,0,0,0-3.06-.76c-2.2,0-3,1.31-3,2.41,0,1.51,1,2.25,3.21,3.11,2.73,1.06,4.12,2.37,4.12,4.74s-1.85,4.64-5.65,4.64a8.27,8.27,0,0,1-4.12-1Z"/><path class="cls-1" d="M222.57,137.32h-4.91v-1.77H229.6v1.77h-4.93v14.35h-2.1Z"/><path class="cls-1" d="M233.48,135.55v9.54c0,3.61,1.61,5.15,3.76,5.15,2.39,0,3.92-1.58,3.92-5.15v-9.54h2.11V145c0,5-2.61,7-6.1,7-3.3,0-5.79-1.9-5.79-6.9v-9.49Z"/><path class="cls-1" d="M246.89,135.76a29.89,29.89,0,0,1,4.42-.33c3,0,5.12.69,6.53,2a7.4,7.4,0,0,1,2.28,5.79,8.53,8.53,0,0,1-2.32,6.26c-1.51,1.51-4,2.33-7.13,2.33a33.16,33.16,0,0,1-3.78-.2ZM249,150a12.56,12.56,0,0,0,2.1.12c4.45,0,6.87-2.49,6.87-6.84,0-3.81-2.13-6.22-6.53-6.22a11.84,11.84,0,0,0-2.44.21Z"/><path class="cls-1" d="M271.17,144.11h-6.26v5.82h7v1.74h-9.07V135.55h8.71v1.74h-6.62v5.1h6.26Z"/><path class="cls-1" d="M274.6,151.67V135.55h2.27L282,143.7a46.77,46.77,0,0,1,2.9,5.24l0,0c-.19-2.15-.24-4.11-.24-6.63v-6.74h2v16.12H284.6l-5.12-8.18a52.53,52.53,0,0,1-3-5.38l-.08,0c.12,2,.17,4,.17,6.65v6.89Z"/><path class="cls-1" d="M293.41,137.32H288.5v-1.77h11.94v1.77h-4.92v14.35h-2.11Z"/><path class="cls-1" d="M301.81,149.14a7.42,7.42,0,0,0,3.73,1.05c2.13,0,3.38-1.13,3.38-2.75s-.86-2.37-3-3.21c-2.63-.93-4.26-2.3-4.26-4.57,0-2.51,2.08-4.38,5.22-4.38a7.39,7.39,0,0,1,3.56.79l-.57,1.7a6.45,6.45,0,0,0-3.07-.76c-2.2,0-3,1.31-3,2.41,0,1.51,1,2.25,3.2,3.11,2.73,1.06,4.12,2.37,4.12,4.74s-1.85,4.64-5.65,4.64a8.23,8.23,0,0,1-4.11-1Z"/><path class="cls-1" d="M321.58,146.6l-1.68,5.07h-2.15l5.48-16.12h2.51l5.5,16.12H329l-1.72-5.07Zm5.29-1.63-1.58-4.64c-.36-1.05-.6-2-.84-2.94h-.05c-.24,1-.5,1.94-.81,2.92L322,145Z"/><path class="cls-1" d="M333.62,151.67V135.55h2.27l5.17,8.15a46.58,46.58,0,0,1,2.89,5.24l.05,0c-.19-2.15-.24-4.11-.24-6.63v-6.74h2v16.12h-2.1l-5.12-8.18a52.67,52.67,0,0,1-3-5.38l-.07,0c.12,2,.17,4,.17,6.65v6.89Z"/><path class="cls-1" d="M349.37,135.76a29.89,29.89,0,0,1,4.42-.33c3,0,5.12.69,6.53,2a7.4,7.4,0,0,1,2.28,5.79,8.53,8.53,0,0,1-2.32,6.26c-1.51,1.51-4,2.33-7.13,2.33a33.16,33.16,0,0,1-3.78-.2ZM351.45,150a12.56,12.56,0,0,0,2.1.12c4.45,0,6.87-2.49,6.87-6.84,0-3.81-2.13-6.22-6.53-6.22a11.84,11.84,0,0,0-2.44.21Z"/><path class="cls-1" d="M373,146.6l-1.68,5.07h-2.15l5.48-16.12h2.51l5.5,16.12h-2.22l-1.73-5.07Zm5.28-1.63-1.57-4.64c-.36-1.05-.6-2-.84-2.94h-.05c-.24,1-.5,1.94-.81,2.92L373.42,145Z"/><path class="cls-1" d="M385,135.76a22.15,22.15,0,0,1,4-.33c2.23,0,3.66.4,4.67,1.31A4,4,0,0,1,395,139.8a4.24,4.24,0,0,1-3,4.12V144c1.24.43,2,1.58,2.37,3.26a24.8,24.8,0,0,0,1.24,4.42h-2.15a19.72,19.72,0,0,1-1.08-3.85c-.48-2.22-1.34-3.06-3.23-3.13h-2v7H385Zm2.08,7.35h2.13c2.22,0,3.63-1.22,3.63-3.07,0-2.08-1.5-3-3.71-3a8.28,8.28,0,0,0-2.05.19Z"/><path class="cls-1" d="M401.18,137.32h-4.91v-1.77h11.94v1.77h-4.92v14.35h-2.11Z"/><path class="cls-1" d="M412.09,135.55v16.12H410V135.55Z"/><path class="cls-1" d="M415.44,149.14a7.45,7.45,0,0,0,3.74,1.05c2.13,0,3.37-1.13,3.37-2.75s-.86-2.37-3-3.21c-2.63-.93-4.26-2.3-4.26-4.57,0-2.51,2.08-4.38,5.22-4.38a7.36,7.36,0,0,1,3.56.79l-.57,1.7a6.4,6.4,0,0,0-3.06-.76c-2.2,0-3,1.31-3,2.41,0,1.51,1,2.25,3.2,3.11,2.73,1.06,4.12,2.37,4.12,4.74s-1.84,4.64-5.65,4.64a8.26,8.26,0,0,1-4.11-1Z"/><path class="cls-1" d="M430.59,137.32h-4.9v-1.77h11.94v1.77H432.7v14.35h-2.11Z"/><path class="cls-1" d="M439,149.14a7.45,7.45,0,0,0,3.74,1.05c2.13,0,3.37-1.13,3.37-2.75s-.86-2.37-3-3.21c-2.63-.93-4.26-2.3-4.26-4.57,0-2.51,2.09-4.38,5.22-4.38a7.36,7.36,0,0,1,3.56.79l-.57,1.7A6.4,6.4,0,0,0,444,137c-2.2,0-3,1.31-3,2.41,0,1.51,1,2.25,3.21,3.11,2.72,1.06,4.11,2.37,4.11,4.74s-1.84,4.64-5.65,4.64a8.26,8.26,0,0,1-4.11-1Z"/></svg>