<svg id="Layer_1" data-name="Layer 1" xmlns="http://www.w3.org/2000/svg" viewBox="0 0 109.45 109.45"><defs><style>.cls-1{fill:#010101;}.cls-2{fill:#fff;fill-rule:evenodd;}</style></defs><title>All, PNG &amp;amp; SVG- pixelbones</title><circle class="cls-1" cx="54.72" cy="54.72" r="54.72"/><path class="cls-2" d="M46.13,71.24c0-5.12,0-10.24,0-15.36,0-.87-.23-1.13-1.1-1.1-1.59.06-3.21,0-4.8,0-.63,0-.89-.17-.86-.84,0-3.21,0-6.39,0-9.6,0-.61.17-.81.8-.81,1.62,0,3.27-.06,4.89,0,1,.06,1.13-.29,1.13-1.16q-.09-3.65,0-7.29A14,14,0,0,1,48.85,27a11.35,11.35,0,0,1,9.09-4.63c3.76-.17,7.54-.09,11.33-.12.52,0,.7.18.7.7,0,3.24,0,6.45,0,9.69,0,.58-.18.75-.75.75-1.83,0-3.65,0-5.44,0-2.43,0-3.88,1.24-4,3.64-.12,1.91,0,3.85-.09,5.79,0,.69.41.63.84.63,2.75,0,5.52,0,8.27,0,.81,0,1.07.17,1,1-.35,3.21-.64,6.42-.93,9.63-.06.72-.4.87-1,.84-2.17,0-4.37,0-6.54,0-1.56,0-1.42-.23-1.42,1.36,0,10,0,20,0,30.08,0,1.07-.26,1.33-1.3,1.3-3.73-.06-7.49-.06-11.22,0-1,0-1.22-.35-1.22-1.27C46.16,81.34,46.13,76.27,46.13,71.24Z"/></svg>