<svg id="Layer_1" data-name="Layer 1" xmlns="http://www.w3.org/2000/svg" viewBox="0 0 109 109"><defs><style>.cls-1{fill:#fff;}</style></defs><title>All, PNG &amp;amp; SVG- pixelbones</title><circle cx="54.5" cy="54.5" r="54.5"/><path class="cls-1" d="M54.5,17.48c-10.06,0-11.32,0-15.27.22a27.26,27.26,0,0,0-9,1.72A18.9,18.9,0,0,0,19.4,30.25a26.74,26.74,0,0,0-1.72,9c-.18,4-.23,5.22-.23,15.27s.05,11.31.23,15.26a27.11,27.11,0,0,0,1.72,9,18,18,0,0,0,4.27,6.55,18.27,18.27,0,0,0,6.56,4.28,27.37,27.37,0,0,0,9,1.72c4,.18,5.22.22,15.28.22s11.32,0,15.27-.22a27.38,27.38,0,0,0,9-1.72A19,19,0,0,0,89.6,78.75a27.37,27.37,0,0,0,1.72-9c.18-4,.23-5.21.23-15.26s0-11.32-.23-15.26a27.26,27.26,0,0,0-1.72-9A18.92,18.92,0,0,0,78.77,19.42a27.49,27.49,0,0,0-9-1.72c-4-.18-5.21-.22-15.28-.22Zm-3.32,6.67H54.5c9.9,0,11.07,0,15,.21a20.46,20.46,0,0,1,6.88,1.28,12.27,12.27,0,0,1,7,7,20.58,20.58,0,0,1,1.28,6.88c.18,3.9.21,5.07.21,15s0,11.05-.21,15a20.44,20.44,0,0,1-1.28,6.87,11.31,11.31,0,0,1-2.77,4.25,11.43,11.43,0,0,1-4.26,2.77,20.46,20.46,0,0,1-6.88,1.28c-3.9.17-5.07.21-15,.21s-11.06,0-15-.21a20.58,20.58,0,0,1-6.88-1.28,11.43,11.43,0,0,1-4.26-2.77,11.6,11.6,0,0,1-2.77-4.25,20.58,20.58,0,0,1-1.28-6.88c-.17-3.9-.21-5.07-.21-15s0-11,.21-14.95a20.58,20.58,0,0,1,1.28-6.88,12.27,12.27,0,0,1,7-7,20.58,20.58,0,0,1,6.88-1.28c3.42-.15,4.75-.2,11.65-.21Zm23.1,6.15a4.44,4.44,0,1,0,4.45,4.44,4.45,4.45,0,0,0-4.45-4.44ZM54.5,35.49a19,19,0,1,0,19,19,19,19,0,0,0-19-19Zm0,6.67A12.34,12.34,0,1,1,42.15,54.5,12.34,12.34,0,0,1,54.5,42.16Z"/></svg>