<svg id="Layer_1" data-name="Layer 1" xmlns="http://www.w3.org/2000/svg" viewBox="0 0 109 109"><defs><style>.cls-1{fill:#010101;}.cls-2{fill:#fff;}</style></defs><title>All, PNG &amp;amp; SVG- pixelbones</title><circle class="cls-1" cx="54.5" cy="54.5" r="54.5"/><path class="cls-2" d="M76.94,80.34H32.06A10.14,10.14,0,0,1,21.93,70.21V38.79A10.14,10.14,0,0,1,32.06,28.66H76.94A10.14,10.14,0,0,1,87.07,38.79V70.21A10.14,10.14,0,0,1,76.94,80.34Zm-48.22-31V70.21a3.35,3.35,0,0,0,3.34,3.34H76.94a3.35,3.35,0,0,0,3.34-3.34V49.35L59.81,62a10.06,10.06,0,0,1-10.62,0Zm0-9.84a3.38,3.38,0,0,0,1.59,2.85l22.44,13.8a3.3,3.3,0,0,0,3.5,0L78.69,42.36a3.3,3.3,0,0,0,1.59-2.84v-.73a3.35,3.35,0,0,0-3.34-3.34H32.06a3.35,3.35,0,0,0-3.34,3.34Z"/></svg>