<svg id="Layer_1" data-name="Layer 1" xmlns="http://www.w3.org/2000/svg" viewBox="0 0 107.01 107"><defs><style>.cls-1{fill:#fff;}</style></defs><title>All, PNG &amp;amp; SVG- pixelbones</title><path d="M0,51.87c.07-1.59.09-3.17.23-4.75a50.36,50.36,0,0,1,27.33-41,53.79,53.79,0,0,1,13.3-4.78A45.47,45.47,0,0,1,45.93.5L49.25.14h.14c1.49,0,3-.13,4.48-.13a44.59,44.59,0,0,1,4.47.22c1.07.11,2.13.17,3.19.32,1.32.19,2.65.4,4,.68A54.89,54.89,0,0,1,77.82,5.33,50.93,50.93,0,0,1,92.26,15.47a49.72,49.72,0,0,1,13,22.67,51.9,51.9,0,0,1,1.36,7.22,53.94,53.94,0,0,1,.35,8.89,51.27,51.27,0,0,1-7.72,25.31,49.8,49.8,0,0,1-16,15.93,54,54,0,0,1-16.5,6.81c-1.73.4-3.49.71-5.25,1-1.06.15-2.13.22-3.2.32a47.68,47.68,0,0,1-5.21.22c-1.44,0-2.89-.06-4.34-.22-1.06-.11-2.13-.17-3.19-.32-1.39-.2-2.77-.45-4.14-.73-1.1-.21-2.18-.47-3.25-.77A4.58,4.58,0,0,0,35,102l-6.37,2.81-4,1.75A6.78,6.78,0,0,1,23,107a2.87,2.87,0,0,1-1.13-.12,4.11,4.11,0,0,1-3.25-3.62c-.1-1.25-.09-2.5-.13-3.74-.05-1.65-.09-3.3-.15-5,0-.52,0-1-.1-1.54a4.19,4.19,0,0,0-1.15-2.44c-.37-.38-.77-.74-1.16-1.11a48.2,48.2,0,0,1-6.71-7.7A50.54,50.54,0,0,1,.45,58.61,58.51,58.51,0,0,1,0,51.87ZM63.15,68.7a8.47,8.47,0,0,0,1.13-.07A8.05,8.05,0,0,0,70,64.87c.4-.62.78-1.24,1.18-1.87L85.58,40.18a4.94,4.94,0,0,0,.35-.64,2.33,2.33,0,0,0,0-1.95A2.6,2.6,0,0,0,82,36.43l-.43.32L65.67,48.84c-.25.19-.49.39-.75.56a3,3,0,0,1-2.42.48,3.59,3.59,0,0,1-1.43-.69l-7.23-5.42-5-3.77a8.11,8.11,0,0,0-10.64.68,10.21,10.21,0,0,0-1.49,2Q33.32,48,30,53.29,25.74,60,21.5,66.71a5.83,5.83,0,0,0-.39.69,2.62,2.62,0,0,0,3.6,3.39,4.65,4.65,0,0,0,.61-.41l2.34-1.78,12.42-9.43,1.86-1.42a3,3,0,0,1,1.46-.61,3.23,3.23,0,0,1,2.51.67c.89.69,1.79,1.34,2.68,2l9.64,7.23A7.87,7.87,0,0,0,63.15,68.7Z"/><path class="cls-1" d="M63.15,68.7a7.87,7.87,0,0,1-4.92-1.65l-9.64-7.23c-.89-.67-1.79-1.32-2.68-2a3.23,3.23,0,0,0-2.51-.67,3,3,0,0,0-1.46.61l-1.86,1.42L27.66,68.6l-2.34,1.78a4.65,4.65,0,0,1-.61.41,2.62,2.62,0,0,1-3.6-3.39,5.83,5.83,0,0,1,.39-.69Q25.73,60,30,53.29,33.32,48,36.68,42.65a10.21,10.21,0,0,1,1.49-2A8.11,8.11,0,0,1,48.81,40l5,3.77,7.23,5.42a3.59,3.59,0,0,0,1.43.69,3,3,0,0,0,2.42-.48c.26-.17.5-.37.75-.56L81.61,36.75l.43-.32A2.6,2.6,0,0,1,86,37.59a2.33,2.33,0,0,1,0,1.95,4.94,4.94,0,0,1-.35.64L71.21,63c-.4.63-.78,1.25-1.18,1.87a8.05,8.05,0,0,1-5.75,3.76A8.47,8.47,0,0,1,63.15,68.7Z"/></svg>