<svg id="Layer_1" data-name="Layer 1" xmlns="http://www.w3.org/2000/svg" viewBox="0 0 107.26 107"><defs><style>.cls-1{fill:#fff;}</style></defs><title>All, PNG &amp;amp; SVG- pixelbones</title><circle class="cls-1" cx="53.63" cy="53.5" r="53.5"/><path d="M38.43,104.67C44,97,45,87.69,47.58,78.94c5.39,6.59,12.32,7.4,19.91,5.47,7-1.77,12.16-6.07,15.87-12.09a40.84,40.84,0,0,0,5.8-28.14c-1.67-11-8.36-18.57-18.45-23.12-6.65-3-13.68-3.52-20.87-2.68a37.27,37.27,0,0,0-19.82,8c-8.82,7.23-13.31,16.5-12.51,28,.35,5,1.81,9.68,5.23,13.54a14.83,14.83,0,0,0,5.44,3.89c1.48.61,2.43.17,2.86-1.35a44.83,44.83,0,0,0,1.11-4.54,2.77,2.77,0,0,0-.36-2c-5-5.9-4.74-12.55-2.64-19.32A24.94,24.94,0,0,1,51.44,27.27a30.86,30.86,0,0,1,11.32,1.09C70.88,30.89,75.92,37.22,76.43,46a40.45,40.45,0,0,1-3.77,20.1,19.57,19.57,0,0,1-6.08,7.65A11.21,11.21,0,0,1,58.09,76c-5.24-.81-8.29-5.24-7-10.33,1.17-4.5,2.59-8.92,3.82-13.4A16.23,16.23,0,0,0,55.63,45c-.93-5.21-5.59-7.7-10.42-5.48-3.84,1.76-5.64,5.09-6.53,9a20.69,20.69,0,0,0,.88,11.7,3.59,3.59,0,0,1,.11,1.84C37.41,71.8,35,81.52,32.89,91.3c-.68,3.13-.58,6.44-.82,9.67,0,.43,0,.86,0,1.32C12.32,94.53-5.76,69.64,1.73,40.23A53.38,53.38,0,0,1,69.9,2.59a53.13,53.13,0,0,1,33.28,71.18C91.39,102.55,60.67,111.89,38.43,104.67Z"/></svg>