<svg id="Layer_1" data-name="Layer 1" xmlns="http://www.w3.org/2000/svg" xmlns:xlink="http://www.w3.org/1999/xlink" viewBox="0 0 143 132.79"><defs><style>.cls-1{fill:#ed6d48;}.cls-2{fill:#f68e6d;}.cls-3{fill:#d45330;}.cls-4,.cls-5{fill:#010101;isolation:isolate;}.cls-4{opacity:0.1;}.cls-5{opacity:0.2;}.cls-6{fill:url(#linear-gradient);}.cls-7{fill:#fff;}</style><linearGradient id="linear-gradient" x1="-743.49" y1="2235.95" x2="-741.58" y2="2232.65" gradientTransform="matrix(25, 0, 0, -25, 18600, 55923.84)" gradientUnits="userSpaceOnUse"><stop offset="0" stop-color="#cb4d28"/><stop offset="0.5" stop-color="#c54227"/><stop offset="1" stop-color="#b63325"/></linearGradient></defs><title>All, PNG &amp;amp; SVG- pixelbones</title><path class="cls-1" d="M86.46,73l-10-73h-.75A65.88,65.88,0,0,0,10,65.65v.74Z"/><path class="cls-2" d="M77.24,0h-.75V66.39l33.25,13.28L143,66.39v-.74A65.88,65.88,0,0,0,77.24,0Z"/><path class="cls-3" d="M143,66.39v.73a65.91,65.91,0,0,1-65.78,65.67H75.75A65.92,65.92,0,0,1,10,67.12v-.73Z"/><path class="cls-4" d="M79.81,32.63v70.84A6.12,6.12,0,0,1,76,109.09a5.78,5.78,0,0,1-2.29.46H25.67c-.93-1.06-1.82-2.19-2.66-3.32a65.09,65.09,0,0,1-13-39.1V65.67A64.94,64.94,0,0,1,20.68,29.88c.73-1.13,1.5-2.26,2.33-3.32H73.73A6.12,6.12,0,0,1,79.81,32.63Z"/><path class="cls-5" d="M76.49,36V106.8a5.78,5.78,0,0,1-.47,2.28,6.12,6.12,0,0,1-5.61,3.79H28.7q-1.57-1.61-3-3.32c-.93-1.06-1.82-2.19-2.66-3.32A65.12,65.12,0,0,1,10,67.12V65.66A64.91,64.91,0,0,1,20.68,29.88H70.4A6.13,6.13,0,0,1,76.49,36Z"/><path class="cls-5" d="M76.49,36v64.21a6.13,6.13,0,0,1-6.09,6.07H23A65.12,65.12,0,0,1,10,67.12V65.66A64.91,64.91,0,0,1,20.68,29.88H70.4A6.13,6.13,0,0,1,76.49,36Z"/><path class="cls-5" d="M73.16,36v64.21a6.13,6.13,0,0,1-6.08,6.07H23A65.12,65.12,0,0,1,10,67.12V65.66A64.91,64.91,0,0,1,20.68,29.88h46.4A6.11,6.11,0,0,1,73.16,36Z"/><path class="cls-6" d="M6.1,29.88h61A6.08,6.08,0,0,1,73.16,36V96.83a6.09,6.09,0,0,1-6.09,6.08H6.1A6.1,6.1,0,0,1,0,96.83H0V36a6.08,6.08,0,0,1,6.09-6.08Z"/><path class="cls-7" d="M37.25,46.11a16.73,16.73,0,0,1,11.1,3.25,11.6,11.6,0,0,1,3.86,9.4,13.2,13.2,0,0,1-1.9,7,12.81,12.81,0,0,1-5.41,4.77,18.57,18.57,0,0,1-8.13,1.71H29v14.3H21.15V46.11ZM29,66.09h6.8a8.91,8.91,0,0,0,6-1.8,6.62,6.62,0,0,0,2-5.23q0-6.69-7.79-6.69H29Z"/></svg>