<svg id="Layer_1" data-name="Layer 1" xmlns="http://www.w3.org/2000/svg" viewBox="0 0 107.04 107"><defs><style>.cls-1{fill:#fff;}</style></defs><title>All, PNG &amp;amp; SVG- pixelbones</title><path d="M53.54,0A53.5,53.5,0,1,1,0,53.44,53.56,53.56,0,0,1,53.54,0ZM19.4,32.65v1.43q0,9.68,0,19.35a22.75,22.75,0,0,0,.15,2.62,15.68,15.68,0,0,0,31.1.77c.29-1.89.25-3.83.36-5.66,1.81,2.88,3.66,5.78,5.46,8.72a1.89,1.89,0,0,1,.07,1.25Q55,68.42,53.36,75.69c-.59,2.71-1.16,5.42-1.78,8.27h6.21C60,84,60,84,60.46,81.77c1-5,2.11-9.94,3.18-15a8.56,8.56,0,0,1,.82.36,21.77,21.77,0,0,0,8.35,2.67C83.85,71,92,61.63,91.43,52.18,91,44.53,85.26,38.57,77.6,37.28,70.58,36.09,63.78,40,60.71,47c-.42,1-.75,2-1.21,3.16-.31-.5-.54-.85-.75-1.21A83.72,83.72,0,0,1,51.66,33.6c-.12-.37-.44-.93-.68-.94-2.57-.07-5.15,0-7.8,0V34.2c0,6.53,0,13.06,0,19.59a7.59,7.59,0,0,1-4.72,7.5,7.69,7.69,0,0,1-10.8-7.17c-.06-6.69,0-13.38,0-20.07v-1.4Z"/><path class="cls-1" d="M19.4,32.65h8.24v1.4c0,6.69-.05,13.38,0,20.07a7.69,7.69,0,0,0,10.8,7.17,7.59,7.59,0,0,0,4.72-7.5c0-6.53,0-13.06,0-19.59V32.62c2.65,0,5.23,0,7.8,0,.24,0,.56.57.68.94A83.72,83.72,0,0,0,58.75,49c.21.36.44.71.75,1.21C60,49,60.29,48,60.71,47c3.07-7,9.87-10.91,16.89-9.72,7.66,1.29,13.39,7.25,13.83,14.9C92,61.63,83.85,71,72.81,69.81a21.77,21.77,0,0,1-8.35-2.67,8.56,8.56,0,0,0-.82-.36c-1.07,5-2.14,10-3.18,15C60,84,60,84,57.79,84H51.58c.62-2.85,1.19-5.56,1.78-8.27Q55,68.42,56.55,61.13a1.89,1.89,0,0,0-.07-1.25C54.68,56.94,52.83,54,51,51.16c-.11,1.83-.07,3.77-.36,5.66a15.68,15.68,0,0,1-31.1-.77,22.75,22.75,0,0,1-.15-2.62q0-9.68,0-19.35ZM74.47,61.51a8.78,8.78,0,0,0,8.62-8.6,8.23,8.23,0,0,0-8.45-7.82c-3.47.09-6.2,2.28-7.44,6.19-.62,2-1,4-1.43,6a1.08,1.08,0,0,0,.32.9A14.36,14.36,0,0,0,74.47,61.51Z"/><path d="M74.47,61.51a14.36,14.36,0,0,1-8.38-3.32,1.08,1.08,0,0,1-.32-.9c.43-2,.81-4,1.43-6,1.24-3.91,4-6.1,7.44-6.19a8.23,8.23,0,0,1,8.45,7.82A8.78,8.78,0,0,1,74.47,61.51Z"/></svg>