<svg id="Layer_1" data-name="Layer 1" xmlns="http://www.w3.org/2000/svg" viewBox="0 0 109 76.8"><defs><style>.cls-1{fill:#010101;}.cls-2{fill:#fff;}</style></defs><title>All, PNG &amp;amp; SVG- pixelbones</title><path class="cls-1" d="M106.71,12a13.81,13.81,0,0,0-9.66-9.72C88.56,0,54.5,0,54.5,0S20.44,0,11.89,2.29A13.69,13.69,0,0,0,2.23,12C0,20.56,0,38.4,0,38.4S0,56.23,2.29,64.78A13.8,13.8,0,0,0,12,74.5c8.49,2.3,42.55,2.3,42.55,2.3s34.06,0,42.61-2.3a13.66,13.66,0,0,0,9.66-9.72C109,56.23,109,38.4,109,38.4S109,20.56,106.71,12Z"/><polygon class="cls-2" points="43.35 54.62 43.35 22.17 71.84 38.4 43.35 54.62"/></svg>