<?xml version="1.0" encoding="UTF-8"?>
<svg id="Layer_1" data-name="Layer 1" xmlns="http://www.w3.org/2000/svg" viewBox="0 0 337.55 355.42">
  <defs>
    <style>
      .cls-1 {
        stroke-width: 0px;
      }
    </style>
  </defs>
  <path class="cls-1" d="M0,141.98c3.62-.29,7.23-.58,9.4-.75,2.67-7.48,5.11-14.28,7.76-21.71-3.83-5.03-8.42-11.06-13-17.08,9.33-9.77,15.16-21.5,30.23-19.51,1.73-11.85,9.9-13.72,19.64-13.6,2.04.03,4.11-1.48,7.86-2.94-6.51-5.19-11.83-9.43-17.07-13.6.47-.41,1.39-1.21,2.7-2.36,2.1.14,4.69.31,8.38.55-2.78-2.35-4.79-4.05-6.8-5.76.13-.35.27-.7.4-1.05,6.24,2.23,12.48,4.45,19.04,6.8,4.42-9.64,13.42-13.25,23.14-15.88,5.28,8.31,9.92,15.62,13.74,21.64-5.87,8.74-11.12,16.55-16.55,24.64,4.47,1.99,7.42,3.31,11.06,4.93,2.79-6.84,5.59-13.72,8.52-20.93,1.65.94,4.74,2.69,7.82,4.44.94-.61,1.69-1.11,3.18-2.09,8.02,4.67,16.33,9.51,24.64,14.35,0,1.08,0,1.86,0,1.8,1.63,2.29,2.8,3.95,4.4,6.2-9.24,6.25-18.34,12.4-27.44,18.56,1.78,4,2.98,6.72,4.56,10.26,5.7-7.56,10.99-14.58,17.14-22.74,14.91,4.51,27.96,11.61,33.76,26.71,10.27-2.97,20.28-5.86,30.29-8.76.14.49.29.98.43,1.47-3.61,2.6-7.23,5.2-11.89,8.56h14.79c-.16.38-.33.76-.49,1.14,1.41.95,2.82,1.9,4.55,3.07-1.29.62-2.51,1.3-3.8,1.82-11.72,4.79-20.44,13.01-28.03,23-2.69,3.55-7.48,5.72-11.64,7.87-5.41,2.8-11.15,4.95-15.72,6.94-.67,8.34-1.27,15.87-1.79,22.31,8.27,3.04,17.24,6.33,27.34,10.04.13,1.01.4,3.19.7,5.6-13.92,6.98-27.62,13.86-41.62,20.88-1.17,4.79-2.43,9.91-3.69,15.06,1.3.96,2.31,1.7,3.91,2.88-1.2,6.24-2.45,12.71-3.82,19.81,10.26.74,20.62,1.49,31.18,2.25-1.73,5.85-3.25,10.99-4.83,16.33.34.55.77,1.23,1.32,2.11-4.74,8.71-9.49,17.45-14.68,27,8.92,7.69,19.47,9.42,30.87,8.45-.43,1.48-.76,2.6-1.2,4.12-1.87,1.01-4.1,2.21-7.46,4.02,3.57.51,6.05.86,8.52,1.21.08.41.17.81.25,1.22-6.41,1.44-12.82,2.87-18.2,4.08-1.84,6.4-3.63,12.65-5.36,18.7-2.39.15-3.52.22-4.38.27.7-5.93,1.97-11.6,1.86-17.24-.11-5.56-1.64-11.09-2.76-17.96-5.33,6.89-9.75,12.6-14.37,18.58-2.73-1.77-5.14-3.33-7.6-4.91-.97,5.5-1.89,10.75-2.86,16.29,3.2,1.51,6.62,3.12,10.03,4.73-.18.38-.36.76-.55,1.15-3.72-1.8-7.45-3.6-10.86-5.25.91-4.28,1.68-7.92,2.45-11.57-.37-.07-.75-.14-1.12-.22-.15.83-.3,1.66-.28,1.56-4.57,5.18-8.6,9.75-13.04,14.79h-4.7c1.26-11,6.48-19.77,14.36-28.19-11.44-4.61-22.12-8.92-32.41-13.07-3.2,5.33-6.62,9.74-8.6,14.72-1.84,4.62-1.45,9.45,3.81,12.65,6.74,4.1,13.23,8.61,19.14,14.01-8.04-5.22-16.08-10.44-24.71-16.04,1.85,5.2,3.46,9.71,5.07,14.21-.36.2-.71.39-1.07.59-1.93-2.32-3.86-4.64-5.79-6.96-.52.43-1.05.87-1.57,1.3,1.51,2.31,3.03,4.62,4.37,6.67-8.83,1.3-21.28-5.2-25.82-15.08.52,5.26.89,8.99,1.34,13.54-4.93-.96-9.2-1.74-13.44-2.63-4.19-.87-8.36-1.85-12.9-2.86-.91,2.44-1.74,4.7-3.07,8.28-5.75-1.63-11.49-3.25-17.23-4.87.1-.47.19-.93.29-1.4-.79.38-1.57.75-2.41,1.15C5.02,348.16,2.51,346.05,0,343.94c0-.55,0-1.1,0-1.65,2.57,2.1,5.15,4.19,8,6.52,1.45-1.66,2.86-3.26,3.93-4.49-.81-2.11-1.88-3.72-2.01-5.4-.7-8.53-.92-17.1-1.86-25.6-.28-2.54-2.33-4.88-3.52-7.22C1.94,307.34.97,307.8,0,308.27c0-.55,0-1.1,0-1.65,2.44-1.29,4.88-2.57,7.33-3.86.19-12.91,13.28-9.16,19.63-15.29.02-.27.1-1.29.29-3.9-7.51,3.49-14.08,6.53-21.13,9.81-.58.03-1.88.11-3.38.19-.29-.65-.67-1.52-1.09-2.48-.66.29-1.16.51-1.65.73,0-.55,0-1.1,0-1.65,6.03-3.07,12.06-6.14,17.92-9.12C12.16,282.74,6.08,284.53,0,286.32c0-1.28,0-2.56,0-3.84,8.86-1.93,17.72-3.86,27.34-5.96,0,.01.37-1.66-.06-3.1-2.23-7.32-4.66-14.59-7.03-21.87-2.58-7.95-5.74-10.31-14.24-10.64-2-.08-4.01-.1-6.02-.14C0,239.49,0,238.21,0,236.93c1.44.73,2.87,1.47,4.81,2.46,4.98-8.89,9.84-17.57,15.02-26.81-2.78.75-4.93,1.33-7.56,2.03-1-2.9-1.91-5.57-3.06-8.89C6.56,204.28,3.28,202.49,0,200.71c0-2.93,0-5.85,0-8.78h14.24c.43-.7.95-1.54.5-.81,4.1-2.51,6.76-4.14,9.89-6.06-2.68-1.06-4.17-1.65-5.83-2.3-.28-.63-.64-1.44-.53-1.19-2.3-1.03-3.72-1.66-5.13-2.29-1.01-7.42-2-14.63-3.03-22.2-3.43-.84-6.77-1.66-10.11-2.47,0-2.93,0-5.85,0-8.78,3.09,1.16,6.18,2.31,9.38,3.51.12-1.15.22-2.03.3-2.78.82-.67,1.51-1.22,2.2-1.78,0-.56,0-1.13,0-1.69H0C0,142.72,0,142.35,0,141.98ZM174.95,154.33c.7-19.38-17.07-49.58-32.33-55.22-7.69,10.28-15.38,20.57-23.04,30.8,11.58,10.16,18.73,22.76,22.69,37.4,11.05-4.39,21.81-8.66,32.68-12.98ZM152.18,168.9c-14.87,9.94-11.06-5.57-15.69-10.75-12.1,2.01-24.44,4.05-37.59,6.24,8.77,14.04,12.1,28.5,10.5,43.01,12.21-4.6,24.22-9.1,36.21-13.68,1.31-.5,2.83-1.22,3.56-2.3,4.53-6.66,4.24-14.03,3.01-22.51ZM128.99,146.9c-10.54-9.6-20.85-19-31.36-28.57-9.77,11.4-19.3,22.51-29.19,34.04,9.48,6.5,18.51,12.69,29.18,20.01-1.72-2.8-2.34-3.81-3.03-4.94,1.12-.54,1.91-.93,2.65-1.29v-3.4c13.83,1.37,22.34-7.92,31.74-15.85ZM13.06,296.3c.63,12.72,1.28,25.99,1.93,39.31,14.23-2.9,27.81-5.67,41.73-8.5-2.71-11.51-5.36-22.73-8.06-34.19-12.01-.59-23.93-5.45-35.6,3.39ZM37.58,281.37c14.9,2.7,30.66-3.56,44.34,9.62-2.74-10.17-4.79-18.15-7.09-26.05-.66-2.29-1.69-4.63-3.13-6.51-9.16-11.95-21.83-9.88-34.12-8.37v31.31ZM90.61,260.55c14.68-5.06,29.28,7.74,41.75-2.65,1.52-9.92,2.94-19.16,4.12-26.83-9.99-.94-20.11-1.89-30.51-2.87-5.02,10.58-9.94,20.94-15.35,32.35ZM25.97,209.1c2.4,11.99,4.51,22.49,6.72,33.53,7.77-1.83,15.15-3.56,22.68-5.33-.64-1.08-1.08-1.83-1.59-2.69,2.39-3.87,4.73-7.66,7.09-11.49-1.19-3.1-2.31-6.09-3.47-9.06-1.15-2.94-2.35-5.86-3.79-9.44-9.24,1.5-18.16,2.94-27.64,4.47ZM56.08,332.52c11.91-1.21,30.46-17.49,32.44-28.33-4-2.07-8.02-4.19-12.07-6.26-10.82-5.51-16.1-4.15-23.13,6.11,1.62,7.69,3.29,15.6,4.96,23.5-1.03.65-1.78,1.13-2.78,1.76.19,1.06.39,2.15.59,3.21ZM162.48,285.05c-9.22-4.84-18.14-9.51-27.46-14.4-3.16,9.63-6.21,18.88-9.04,27.49,8.4,4.2,15.35,7.68,22.71,11.36,4.14-7.34,8.86-15.72,13.79-24.46ZM63.23,94.65c0,7.91-.2,14.65.17,21.37.07,1.28,2.16,2.95,3.68,3.55,6.69,2.65,13.51,4.98,21.26,7.78,2.64-8.96,5.29-17.97,8.12-27.6-10.26-1.57-20.91-3.21-33.23-5.1ZM63.35,65.62c0,.71-.02,1.43-.03,2.14-4.72,1.02-9.56,1.67-14.13,3.16-4.02,1.31-8.03,3.15-11.41,5.63-1.17.86-1.38,5.75-.43,6.37,7.75,5.06,15.87,9.55,24.35,14.48.43-9.26,6.54-12.92,13.36-16.26,3.67-1.8,6.88-4.52,11.64-7.74-9.09-3.03-16.23-5.41-23.36-7.79ZM56.58,96.87c-17.67-17.68-37.4-16.6-47.69,2.81,5.96,5.67,12.01,11.42,18.98,18.05,5.3-7.18,10.26-13.89,15.75-21.33.99,1.64,1.69,2.81,2.21,3.67,3.93-1.17,7.22-2.14,10.75-3.19ZM104.33,57.24c-4.02-6.21-8.42-12.98-12.78-19.71-9.64,3.48-21.67,19.48-21.5,28.94,5.32,1.71,10.83,3.49,15.38,4.95,1.95,2.27,3.27,3.8,4.2,4.87,4.82-6.25,9.56-12.39,14.71-19.05ZM77.19,255.63c-.57,2.36-1.64,4.33-1.34,6.04.77,4.3,2.12,8.5,3.31,12.73,1.78,6.34,3.61,12.67,5.13,17.97,4.58-1.45,8.64-3.77,12.7-3.77,4.86,0,9.7,2.11,14.6,3.06,4.48.86,9.02,1.39,14.73,2.25-1.08-2.52-1.41-3.29-1.81-4.22-.78.93-1.34,1.6-2.58,3.08-14.6-12.12-29.1-24.16-44.73-37.13ZM114.98,206.65c9.27-1.84,17.23.05,24.37,5.99.73.6,2.1.98,2.99.75,8.39-2.18,16.81-4.31,25.08-6.9,3.13-.98,5.9-3.12,8.58-4.59-4.24-2.22-7.82-4.79-11.81-6-4.41-1.34-9.22-2.03-13.82-1.87-3.32.11-6.59,2.01-9.85,3.2-8.52,3.11-17.03,6.28-25.54,9.42ZM72.32,138.58c-5.4-9.45-10.62-18.59-16.02-28.05-8.91,5.42-17.52,10.65-26.41,16.05,2.31,2.63,4.37,4.97,6.94,7.9.6-2.6,1.02-4.4,1.5-6.45,1.36-.08,2.68-.16,4.08-.25,1.84,3.83,3.61,7.49,5.49,11.39,1.7-.61,3.13-1.12,4.69-1.68.68.35,1.47.75,2.55,1.3,2.85-1.84,5.77-3.72,8.87-5.72.34,3.1.62,5.68.96,8.81,2.89-1.3,4.93-2.22,7.34-3.31ZM41.91,171.52c-5.48-3.49-11.23-7.15-17.08-10.88,1.4-2.32,2.45-4.05,3.91-6.48,0,.17,0-.54,0-1.22,1.55-1.25,3.01-2.43,4.45-3.6-3.22-4.85-14.92-5.9-22.49-1.77,1.02,9.82,2.07,19.98,3.02,29.1,9.56-1.75,18.49-3.38,28.19-5.15ZM108.98,67.69c-2.76,6.7-5.46,13.24-8.29,20.11,6.05,5.44,12.07,10.84,18.12,16.27,1.24-3.58,2.11-6.44,3.22-9.21,1.59-3.95,3.84-7.72,4.87-11.8.59-2.35.23-6.63-1.23-7.51-5.48-3.3-11.59-5.56-16.68-7.86ZM62.31,136.29c-4.61,2.5-9.58,4.98-14.29,7.89-1.39.86-3.19,3.31-2.84,4.38,2.42,7.42,5.36,14.66,8.97,24.15,6.42-6.34,11.48-11.33,16.64-16.43-1.8-1.52-3.03-2.55-4.3-3.62.63-1.27,1.15-2.3,1.3-2.61-1.96-4.94-3.69-9.29-5.47-13.77ZM148.44,313.65c-14.2-17.51-22.57-11.22-35.5-.62,7.17,4.71,14.69,9.66,22.62,14.87,4.19-4.64,8.56-9.46,12.88-14.24ZM37.3,203.71c.61-8.02,1.17-15.44,1.71-22.56-4.74-3.63-8.89-2.36-13.22,2.91-2.4,2.92-5.53,5.23-8.33,7.81-.4-.34-.8-.68-1.2-1.02-1.64,5.65-3.28,11.3-5.06,17.44,9.41.27,15.96-10.9,26.09-4.58ZM39.29,200.09c8.44-5.86,16.64-11.55,24.94-17.32-.77-4.27-1.47-8.18-2.16-12.02-21.37.23-22.65,8.76-22.78,29.34ZM60.15,195.47c3.48,4.5,6.61,8.55,10.04,12.99,2.3-3.38,4.22-6.19,5.66-8.3,2.18-.51,3.44-.81,5-1.18,2.09.93,4.46,1.99,6.74,3.01,4.23-5.79-.36-15.68-9.8-21.49-5.59,4.74-11.28,9.57-17.63,14.96ZM80.47,200.39c-6.77,11.44-13.45,22.72-19.12,32.3,8.08,5.3,15.41,10.11,21.9,14.36-3.38-4.5-7.6-10.12-12.31-16.38,4.93-8.47,10.27-17.65,15.77-27.11-1.96-1-3.64-1.85-6.24-3.16ZM26.99,222.84c-1.74,3.1-3.41,5.79-4.8,8.62-1.27,2.56-3.6,5.55-3.12,7.87,2.12,10.17,5.09,20.15,7.76,30.21.31-.08.62-.15.93-.23.54-5.75,1.08-11.5,1.48-15.82,1.76-2.24,2.56-3.26,3.47-4.43.53-.15,1.3-.38,2.36-.68-.28-1.5-.55-2.89-.8-4.21-1.07-.4-1.9-.7-2.86-1.06-1.46-6.7-2.91-13.36-4.42-20.27ZM92.13,197.15c-6.75,11.78-13.1,22.86-19.1,33.32,4.86,6.83,9.22,12.94,13.57,19.05.18-.08.36-.16.54-.24-2.42-4.48-4.84-8.95-7.54-13.94,5.37-9.32,11-19.09,16.53-28.69-1.33-3.15-2.49-5.88-4.01-9.49ZM92.46,252.52c5.12-11.06,10.45-22.58,15.78-34.11-1.04-.13-2.08-.26-3.12-.39-.81-2.52-1.61-5.04-2.49-7.79-1.79,3.6-3.69,7.1-5.3,10.74-4.51,10.17-13.2,19.66-4.87,31.56ZM33.4,138.99c-1.2-7.64-14.06-10.11-6.14-19.99-1.16-.61-2.08-1.09-4.74-2.49-2.15,9.34-4.13,17.95-6.11,26.54,6.33.7,10.97,1.21,15.63,1.72.48-2.05,1.02-4.34,1.36-5.79ZM107.07,314.95c6.27-4.32,11.84-8.15,17.97-12.37-12.84-1.9-24.84-3.67-37.91-5.6,6.01,7.83,18.6,5.92,19.94,17.97ZM17.38,241.89c-1.01-11.11,12.67-18.73,6.09-32.71-5.95,10.61-11.29,20.15-16.65,29.72,3.77,1.07,6.98,1.98,10.57,2.99ZM109.27,216.27c-.67,3.44-1.3,6.7-1.94,9.95,9.06,1.39,17.73,2.72,26.4,4.05.08-.65.17-1.29.25-1.94-1.12.11-2.24.21-3.26.31-5.46-11.43-13.79-16.2-21.46-12.38ZM200.56,116.57c-7.81,2.79-15.62,5.58-22.93,8.18.48,8.82.88,16.27,1.37,25.32,3.66-14.53,11.61-24.31,21.55-33.51ZM134.21,258.8c-11.83,7.73-23.75,2.7-32.83,2.06,8.12,4.64,18.12,10.36,28.56,16.33,1.48-6.38,2.77-11.93,4.27-18.39ZM89.89,253.36c-.36-2.08-.37-5.31-1.5-8.09-2.06-5.07-.71-9.25,1.75-13.68,3.57-6.46,6.96-13.05,9.95-19.8,1.14-2.58.97-5.75,1.39-8.65-.55-.13-1.1-.26-1.64-.39-6.13,11.12-12.27,22.25-17.95,32.56,3,6.76,5.67,12.79,8.01,18.05ZM33.47,284.82c15.17,2.55,31.41-2.62,45.88,5.92-7.63-7.48-17.03-7.34-26.67-6.9-5.24.24-10.52-.4-16.01-.66-.54-11.6-1.02-21.97-1.5-32.33-.57.04-1.13.07-1.7.11v33.86ZM85.17,83.56c11.29,14.08,19.64,19.41,29.8,18.72-10.19-6.3-15.41-19.28-29.8-18.72ZM78.41,292.43c-16.08-8.51-31.84-3.75-46.83-6.16v-32.1c-.08,0-.16,0-.23,0-.52,10.97-1.03,21.94-1.57,33.3,15.9,1.62,31.27,3.19,48.63,4.96ZM100.8,198.3c-3.39-5.6-6.81-11.26-10.33-17.08.24-.42.61-1.1.99-1.77-.42-.36-.84-.72-1.25-1.07-1.8,2.33-3.61,4.65-5.17,6.67,2.31,3.97,4.3,7.4,6.36,10.95.21-.1.81-.4,1.49-.73,1.35,3.12,2.62,6.06,4.22,9.74,1.37-2.49,2.32-4.21,3.69-6.71ZM55.39,337.54c-.83-3.81-1.31-5.96-1.84-8.39-10.01,2.09-19.59,4.09-30.31,6.32,11.22.72,21.2,1.36,32.15,2.07ZM124.66,140.95c-5.76-8.88-11.66-17.99-17.95-27.7-2.32,2.78-3.75,4.48-5.41,6.46,8.05,7.32,15.83,14.39,23.36,21.24ZM100.81,265.1c7.55,7.89,12.34,19.04,24.42,22.02.28-1.48.51-2.69.68-3.6-8.57-6.29-16.83-12.36-25.09-18.42ZM116.87,209.81c6.32,4.11,12.5,8.14,19.97,13,5.16-2.17,12.22-5.13,19.28-8.09-3.46.3-6.74,1.05-9.96,1.97-5.41,1.54-9.98,1.33-15.05-2.37-3.9-2.84-9.64-3.16-14.23-4.5ZM59.66,335.85c6.63,3.25,14.37,7.05,22.36,10.96-2.56-4.58-5.28-9.45-7.88-14.09-6.04,1.3-11.18,2.41-14.48,3.12ZM124.15,95.17c3.8-3.37,9.3-8.24,15.23-13.49-4.07-2.38-7.39-4.34-9.74-5.72-2.04,7.13-4.05,14.18-5.49,19.21ZM33.15,151.95c5.78,4.45,11.1,8.54,15.27,11.75-1.69-5.19-3.76-11.55-5.82-17.86-2.37,1.53-5.4,3.49-9.45,6.11ZM12.1,296.85c-1.05,0-2.09,0-3.14,0,.89,13.58,1.78,27.15,2.68,40.73.15-.01.31-.02.46-.03v-40.7ZM63.39,119.78c2.77,4.76,4.93,8.45,6.66,11.42,5.08-1.44,9.55-2.71,14.21-4.04-6.53-2.31-13.09-4.63-20.87-7.38ZM130.42,279.37c-10.67-6.19-20.91-12.12-31.15-18.06-.21.4-.41.79-.62,1.19,10.04,6.77,20.08,13.53,30.63,20.64.62-2.04.89-2.95,1.14-3.77ZM32.8,147.12c.75.38,1.49.76,2.24,1.14,2.95-2.05,5.89-4.1,9.14-6.35-1.42-3.67-2.71-7-4.62-11.93-2.68,6.79-4.72,11.97-6.76,17.14ZM72.04,156.86c-3.74,4-7.19,7.68-10.7,11.43,5.88,2.68,11.99-.62,15.26-8.18-1.4-.99-2.84-2.03-4.56-3.25ZM203.68,125.8c-8.97-1.62-17.84,5.9-20.25,16.75,6.34-5.24,13.43-11.11,20.25-16.75ZM174.59,331.85c-6.92-3.37-13.58-6.62-19.5-9.51,1.4,2.95,3.3,6.95,5.48,11.57,4.73-.69,9.47-1.39,14.02-2.06ZM54.41,46.54c4.21,6.45,7.88,12.08,11.64,17.85.5-3.76,1.01-7.57,1.59-11.94-4.32-1.93-8.56-3.83-13.23-5.91ZM82.21,164.07c-3.27,3.87-6.34,7.51-9.24,10.94-1.56-.25-2.61-.41-3.65-.57-.04.23-.08.46-.12.69,2.91.82,5.82,1.64,8.82,2.48,2.94-3.51,5.76-6.88,8.68-10.37-1.68-1.19-2.92-2.07-4.49-3.17ZM77.45,255.1c-4.58-3.85-8.77-7.38-13.06-10.98-1.82,1.42-3.26,2.54-4.41,3.44,4.78,3.36,9.28,6.52,13.98,9.82.81-.53,1.86-1.21,3.49-2.27ZM56.67,239.32c-.07-.28-.14-.57-.22-.85-6.84,1.57-13.69,3.14-20.79,4.78.42,1.81.71,3.1,1.43,6.23,6.92-3.59,13.25-6.87,19.58-10.16ZM91.78,170.54c-1.55-.97-2.66-1.68-3.93-2.48-3.01,3.6-5.85,7-8.81,10.55,1.01,1.35,1.86,2.47,3.06,4.07,3.29-4.13,6.33-7.94,9.68-12.14ZM58.51,195.42c6.48-5.64,12.26-10.66,18.03-15.68l-.77-.93c-6.52,5.03-13.03,10.07-19.89,15.36,4.44,5.68,8.54,10.93,12.65,16.18.21-.16.42-.31.63-.47-3.49-4.74-6.98-9.48-10.65-14.47ZM158.81,108.95c2.36,3.37,5.05,6.73,7.19,10.41,2.15,3.69,3.96,7.61,5.53,11.58,1.53,3.85,2.57,7.9,3.95,12.26-.79-14.15-4.96-26.19-16.68-34.25ZM153.79,102.18c9.43,8.72,20,15.82,22.05,30.7.55-12.76-9.38-26.18-22.05-30.7ZM163.58,277.41c-6.8-1.47-13.09-2.83-19.37-4.19-.08.21-.16.43-.24.64,5.55,2.94,11.1,5.87,16.84,8.91.88-1.7,1.57-3.04,2.77-5.36ZM37.17,119.69c.19.19.39.39.58.58,5.17-3.15,10.33-6.3,15.74-9.6-1.09-1.68-1.9-2.92-3.24-5-4.62,4.96-8.85,9.49-13.08,14.02ZM174.79,157.74c-.16-.38-.32-.77-.47-1.15-10.45,4.09-20.89,8.18-31.34,12.27.28.68.56,1.37.84,2.05,10.32-4.39,20.65-8.78,30.97-13.17ZM84.1,85.61c-.59.77-1.18,1.55-1.77,2.32,4.64,3.9,9.29,7.8,13.93,11.7.57-.71,1.14-1.42,1.71-2.14-4.62-3.96-9.25-7.92-13.87-11.89ZM125.59,98.63c.22.33.44.65.66.98,6.35-3.69,12.7-7.37,19.95-11.57-2.16-1.49-2.77-1.91-3.32-2.29-5.91,4.4-11.6,8.64-17.29,12.88ZM71.95,173.76c3.03-3.51,5.91-6.84,8.97-10.38-1.07-.83-1.75-1.35-2.71-2.1-3.39,3.84-6.64,7.53-9.89,11.21.58.2,1.9.66,3.63,1.26ZM26.2,158.16c7.85,3.94,14.11,7.09,20.36,10.23.21-.37.42-.74.62-1.12-5.55-3.58-11.09-7.17-16.96-10.96-.42.19-1.11.51-4.02,1.85ZM106.01,195.9c.16-.02.32-.03.48-.05-2.51-7.72-5.01-15.44-7.58-23.36-2.01.54-2.96.79-3.23.86,3.53,7.7,6.93,15.12,10.33,22.55ZM119.31,213.36c3.8,3.47,8.59,7.85,14.35,13.12,5-2,11.56-4.62,18.12-7.25-.1-.26-.2-.51-.3-.77-5.87,2.36-11.75,4.71-17.77,7.13-4.45-5.81-8.08-12.4-14.4-12.23ZM89.2,98.16c-2.78-4.9-5.47-9.89-13.7-6.12,5.44,2.43,9.57,4.28,13.7,6.12ZM133.63,149.95c-3.36,2.83-6.27,5.27-10.36,8.71,5.34-.82,9.11-1.4,13.39-2.06-1.06-2.34-1.91-4.19-3.03-6.65ZM60.74,115.51v-13.95c-2.63,2.06-5.07,3.97-8.36,6.55,2.08.84,3.29,1.32,5.06,2.04.86,1.4,2.07,3.38,3.3,5.37ZM93.1,290.43c9.75,2,20.72,4.25,32.46,6.66-2.43-3.29-30.69-7.56-32.46-6.66ZM121.3,207.36c-.06.28-.12.55-.18.83,3.93,1.52,8.58,2.18,11.64,4.74,6.2,5.18,11.95,2.01,17.67,1.78-5.12-.57-10.01-1.82-14.86-3.17-4.77-1.33-9.51-2.78-14.26-4.17ZM93.55,291.77c-.14.62-.27,1.23-.41,1.85,9.92,1.94,19.83,3.87,29.75,5.81.05-.29.11-.57.16-.86-9.84-2.27-19.67-4.53-29.51-6.8ZM60.08,294.11c-3.24-.37-6.07-.69-9.41-1.07.67,3.04,1.25,5.63,1.97,8.91,2.66-2.81,4.84-5.11,7.43-7.85ZM53.12,341.95c.11-.77.23-1.55.34-2.32-8.31-.86-16.62-1.72-24.93-2.58-.04.32-.09.65-.13.97,8.24,1.31,16.48,2.62,24.73,3.93ZM103.63,316.79c.24-.39.49-.79.73-1.18-4.28-2.66-8.55-5.31-13.25-8.23-.57,1.62-.95,2.72-1.42,4.05,4.88,1.88,9.41,3.62,13.94,5.36ZM58.93,190.07c-.15-.19-.31-.38-.46-.58-1.66,1.28-3.32,2.55-5.25,4.04,4.42,6.88,8.69,13.51,12.96,20.15.61-.38,1.23-.77,1.84-1.15-4.57-6.17-9.13-12.34-13.82-18.67,1.85-1.48,3.3-2.63,4.74-3.79ZM143.37,83.18c-1.58-.73-2.16-1-2.43-1.12-6.09,5.47-11.89,10.68-17.69,15.89.22.23.44.46.66.7,6.27-4.98,12.54-9.96,19.46-15.46ZM75.95,350.94c.27-5.93-6.47-11.7-12.69-11.36,4.03,3.61,8.28,7.41,12.69,11.36ZM20.55,118c.9-.94,1.79-1.88,2.69-2.82-5.01-4.75-10.02-9.5-15.04-14.25-.32.34-.65.68-.97,1.02,4.44,5.35,8.87,10.7,13.31,16.05ZM132.53,148.91c-.37-.54-.74-1.07-1.11-1.61-5.17,3.98-10.34,7.97-15.51,11.95.38.51.76,1.02,1.14,1.54,5.16-3.96,10.32-7.92,15.48-11.88ZM48.17,166.67l.69-.89c-5.66-4.36-11.33-8.73-17.23-13.28-.25.22-.73.64-1.77,1.56,6.34,4.37,12.32,8.49,18.31,12.61ZM149.65,315.81l-.71-.68c-4.49,4.81-8.99,9.62-13.6,14.56-1.71-.85-3.12-1.55-4.52-2.26-.09.13-.18.27-.27.4,1.81,1.35,3.61,2.7,5.59,4.18,4.69-5.63,9.1-10.91,13.5-16.2ZM100.55,168.06c-.48.16-.96.33-1.44.49,3.24,10.14,6.49,20.28,9.73,30.43.21-.05.42-.11.64-.16-2.98-10.25-5.95-20.51-8.93-30.76ZM118.46,128.23c.44-.21.88-.42,1.32-.63-2.74-5.05-5.49-10.09-8.6-15.81-1.08,1.49-1.5,2.07-1.59,2.19,3.14,5.05,6.01,9.65,8.87,14.24ZM10.78,347.93c1.61,1.34,2.88,2.4,4.53,3.77,1.49-2.32,2.71-4.23,4.24-6.63-2.18-.46-3.73-.79-5.44-1.14-1.07,1.28-2.04,2.44-3.34,4ZM62.6,62.54c-2-7.51-6.24-11.35-11-10.07,3.62,3.31,7.29,6.68,11,10.07ZM61.32,220.97c.59-.22,1.18-.44,1.77-.66-1.9-5.06-3.8-10.13-5.7-15.19-.6.22-1.2.45-1.81.67,1.91,5.06,3.83,10.12,5.74,15.18ZM131.32,330.96c.21-.31.42-.63.63-.94-6.08-4.36-12.16-8.71-18.23-13.07-.3.43-.6.86-.91,1.29,6.17,4.24,12.34,8.48,18.51,12.72ZM159.43,322.64c5.47,5.27,11.16,6.4,14.16,2.75-4.69-.91-9.38-1.82-14.16-2.75ZM65.14,142.24c1.82,2.72,2.91,4.34,4.21,6.29,1.72-2.07,3.08-3.71,5.22-6.29h-9.44ZM93.92,178.02c3.42,6.26,6.91,12.65,9.85,18.03-2.05-9.43-7.06-18.48-9.85-18.03ZM88.62,315.27c-.32-.28-.64-.56-.96-.83-4.81,5.73-9.62,11.46-14.44,17.19l.77.68c4.88-5.68,9.75-11.36,14.63-17.04Z"/>
  <path class="cls-1" d="M190.24,105.6c-6.22-3.8-10.44-7.67-15.34-9.01-5.06-1.38-10.79-.31-15.59-.31-5.51-12.25-10.96-24.35-16.65-36.99,17.13-6.26,32.5-11.89,47.53-17.38,4.17,14.29,8.16,28,12.29,42.17,13.6-5.69,21.27,6.12,31.26,13.81-15.42,2.73-30.54,5.41-43.5,7.71ZM189.58,44.3c-15.08,5.38-29.31,10.45-44.95,16.02,5.5,11.66,10.72,22.71,16.21,34.33,11.92-2.72,24.43-5.57,37.27-8.49,4.01-15.37-8.51-26.95-8.53-41.86ZM176.08,93.9c3.66,2.46,8.66,5.82,15.06,10.12,11.32-2.03,24.49-4.39,37.09-6.64-2.05-2.49-3.81-4.82-5.77-6.97-4.48-4.91-10.2-6.52-16.46-4.91-10.65,2.73-21.18,5.93-29.92,8.41Z"/>
  <path class="cls-1" d="M213.52,30.18c8.92-5.77,17.86-11.55,26.81-17.33.73.93,1.47,1.86,2.2,2.79-.86.32-1.85.45-2.55.98-7.87,5.9-12.76,13.86-16.13,22.99-.93,2.53-2.77,4.94-4.75,6.81-4.01,3.8-8.4,7.19-12.42,10.57-3.26-18.64-13.96-33.58-32.45-42.81.35-.65.7-1.3,1.06-1.95,7.05,2.12,14.48,3.45,21.04,6.59,6.62,3.16,12.38,8.11,17.18,11.37ZM217.83,42.74c-1.86-11.69-19.9-25.7-35.35-26.98,4.77,4.95,11.18,10.06,15.55,16.55,4.45,6.6,6.9,14.56,9.78,20.95,2.67-2.8,5.91-6.2,10.02-10.52ZM236.32,15.18c-7.93,6.34-14.74,11.79-21.55,17.23.43.52.87,1.04,1.3,1.56,1.39,2.83,2.78,5.65,4.08,8.29,5.04-8.44,10.08-16.88,16.17-27.08Z"/>
  <path class="cls-1" d="M245.09,56.45c12.13-1.04,22.89,1.47,31.17,11.21-11.7-4.06-22.92-4.32-33.57,3.4-4.27-3.03-8.55-6.06-13.23-9.38,5.52-9.05,17.02-14.35,16.56-26.99.57,0,1.14,0,1.71,0,.55,3.6,1.85,7.29,1.43,10.76-.44,3.64-2.54,7.09-4.07,11ZM270.45,63.2c-6.47-6.21-28.5-7.64-36.94-.9,3.24,2.26,6.4,4.47,9.55,6.67-.03-.64-.05-1.28-.08-1.93,9.51-1.33,19.03-2.67,27.47-3.85ZM233.2,59.6c10.78-2.99,18.06-13.27,14.78-18.87-4.71,6.02-9.67,12.35-14.78,18.87Z"/>
  <path class="cls-1" d="M133.83,26.48c4.79,6.86,9.46,13.56,15.33,21.97-9,2.62-17.41,5.07-27.92,8.12-4.7-3.99-13.43-8.23-16.69-15.07-3.16-6.62-.68-15.93-.68-24.05.86-.27,1.73-.54,2.59-.8,3.94,3.88,7.92,7.72,11.81,11.66,2.93,2.97,10.59,2.17,15.57-1.83ZM106.65,43.79c5.36,3.84,10.94,7.84,14.82,10.62,9.48-2.39,17.29-4.36,25.75-6.49-5.24-7.53-9.39-13.49-12.7-18.25-5.04.58-9.32,1.25-13.62,1.51-6.99.42-12.63,5.07-14.26,12.61ZM116.64,29.43c-2.78-2.92-6.09-6.41-10.16-10.7-1.06,7.86-1.97,14.62-3.01,22.26,5.34-4.69,9.28-8.15,13.17-11.56Z"/>
  <path class="cls-1" d="M94.72,12.84c-14.1,3.92-24.08,12.44-30.68,27.58-5.58-13.85-10.49-26.02-15.4-38.19.21-.31.42-.61.63-.92,5.2,5.4,10.4,10.81,16.03,16.65,8.12-5.54,18.35-7.19,29.42-5.13ZM65.04,35.61c5.79-10.38,12.79-18.82,25.14-22.17-12.79-1.81-27.52,5.04-30.65,13.71,1.72,2.64,3.45,5.29,5.51,8.46ZM53.1,5.41l-.55.61c1.85,6.17,3.7,12.34,5.66,18.88,1.54-1.83,2.91-3.46,5.07-6.01-3.37-4.47-6.77-8.98-10.17-13.48Z"/>
  <path class="cls-1" d="M128.39,10.78c4.38-3.31,10.41-2.29,16.7,2.69,14.85-10.28,22.52-12.71,28.65-8.31-13.7.6-20.34,8.61-23.39,21.19-6.6-6.89-11.69-14.94-21.96-15.57ZM149.07,20.61c5.17-5.67,10.49-11.5,16.33-17.91-6.66,3.69-13.16,7.29-19.74,10.94,1.96,4.01,3.03,6.19,3.41,6.96Z"/>
  <path class="cls-1" d="M278.14,26.42c9.28-2.04,15.44-.47,17.68,3.6-4.4.33-9.37.09-14.02,1.21-4.79,1.15-9.26,3.6-13.4,5.29-.75-5.97-.29-12.53-2.61-17.9-2.29-5.31-7.38-9.42-11.06-13.83,4.79-2.32,13.51,5.11,23.41,21.64ZM268.86,33.79c2.89-2.48,5.02-4.3,7.01-6-.34-7.35-9.07-18.61-15.48-19.71,7.43,6.91,9.59,15.39,8.47,25.72ZM273.08,32.14c5.53-1.32,11.63-2.77,17.2-4.1-4.19-2.81-11.24-1.23-17.2,4.1Z"/>
  <path class="cls-1" d="M24.42,18.38c3.56-7.09,9.67-13.32,20.3-13.42-10.81,4.52-14.02,13.21-13.38,23.38-7.26-2.62-14.4-5.19-22.26-8.03,4.66-.59,9.46-1.19,15.34-1.93ZM37.48,5.36c-4.77,5.31-9.01,10.04-12.96,14.43,2.45,2.76,3.77,4.26,4.32,4.88,2.65-5.92,5.36-11.98,8.63-19.31Z"/>
  <path class="cls-1" d="M19.07,50.06c6.32-4.31,13.93-6.65,24.15-3.4-10.49,1.76-17.6,5.93-21.48,14.69-3.87-.3-7.65-.6-11.43-.9.59-7.91,1.15-15.58,1.82-24.64,2.38,4.9,4.59,9.44,6.93,14.24ZM35.9,46.04c-7.63-.79-20.47,6.01-22.87,13.24,2.75.15,5.41.3,6.07.33,6.67-5.39,12.06-9.74,16.8-13.58ZM16.45,52.11c-.54-3.87-1.07-7.73-1.61-11.59-.32.09-.64.18-.97.26-.72,5.12-1.45,10.24-2.31,16.34,1.96-2.01,3.2-3.28,4.89-5.01Z"/>
  <path class="cls-1" d="M303.79,19.75c6.67-5.86,14.25-6.68,22.46-4.64V0c3.64,7.29,6.96,13.92,10.4,20.81-3.19,1.61-6.49,3.28-9.87,4.99-6.61-6.18-14.28-7.88-22.99-6.04ZM333.89,20.51c-7.05-5.65-20.8-6.79-25.19-3.27,5.67,1.77,12.04,3.77,19.58,6.12.83-.42,3.08-1.56,5.61-2.85ZM326.29,4.68c-1.78,5.48,1.86,11.74,7.89,13.37-2.61-4.42-5.24-8.88-7.89-13.37Z"/>
  <path class="cls-1" d="M308.9,35.37c5.78,1.49,11.67,3,17.82,4.59,2.68-2.46,6.04-5.53,10.83-9.92-4.26,9.15-7.63,16.37-10.49,22.52-6.11-5.78-11.88-11.24-18.16-17.19ZM313.68,35.94c-.07.32-.13.65-.2.97,4.19,4.48,8.38,8.97,12.66,13.55.73-.99,1.79-2.41,3.97-5.34-5.76-3.22-11.1-6.2-16.43-9.18Z"/>
</svg>