<?xml version="1.0" encoding="UTF-8"?>
<svg id="Layer_1" data-name="Layer 1" xmlns="http://www.w3.org/2000/svg" viewBox="0 0 297.9 474.03">
  <defs>
    <style>
      .cls-1 {
        stroke-width: 0px;
      }
    </style>
  </defs>
  <path class="cls-1" d="M252.96,27.51c4.62,2.26,9.25,4.5,13.83,6.82.33.17.32.98.47,1.5-.87-.06-1.75-.06-2.61-.19-1.04-.15-2.17-.21-3.07-.67-1.15-.59-2.07-1.61-3.17-2.31-1.61-1.02-3.37-1.81-4.89-2.94-.47-.35-.36-1.48-.52-2.25l-.03.04Z"/>
  <path class="cls-1" d="M208.54,7.78c3.18,1.16,6.4,2.24,9.54,3.5,1.91.76,3.74,1.75,5.55,2.74.43.23.62.9.92,1.36-.6.2-1.38.74-1.78.54-4.45-2.26-8.85-4.62-13.24-7-.41-.22-.64-.78-.96-1.18l-.04.04Z"/>
  <path class="cls-1" d="M240.95,23.71c-3.18-1.41-6.42-2.81-9.62-4.3-1.33-.62-2.59-1.39-3.84-2.17-.37-.23-.58-.71-.86-1.07.46-.08,1.01-.37,1.37-.21,4.58,1.98,9.14,4.02,13.68,6.09.36.16.56.66.83,1.01-.46.19-.92.39-1.56.65Z"/>
  <path class="cls-1" d="M246.46,51.32c-3.28,7.14-6.57,14.27-9.85,21.41-.28-.13-.55-.25-.83-.38,3.26-7.15,6.52-14.29,9.78-21.44.3.14.6.27.9.41Z"/>
  <path class="cls-1" d="M220.14,57.29c-3.73,8.4-7.45,16.81-11.18,25.21,0,0,.03.03.03.03,3.26-7.7,6.5-15.41,9.79-23.09.33-.77.92-1.42,1.39-2.12l-.03-.03Z"/>
  <path class="cls-1" d="M176.28,66.56c2.53-6.47,5.05-12.93,7.58-19.4.37.15.74.31,1.12.46-1.7,4.01-3.42,8.01-5.1,12.03-.42,1.01-.75,2.07-1.12,3.11l.02-.04c-.68,1.29-1.36,2.58-2.04,3.87l.04-.05c-.18,0-.35,0-.53,0l.03.03Z"/>
  <path class="cls-1" d="M247.05,54.23c2.12-4.54,4.24-9.08,6.36-13.62l-.03-.03c-2.12,4.54-4.25,9.08-6.37,13.62l.04.03Z"/>
  <path class="cls-1" d="M211.86,45c1.96-5.87,3.91-11.75,5.87-17.62.33.12.65.24.98.36-2.29,5.74-4.59,11.48-6.88,17.23l.03.03Z"/>
  <path class="cls-1" d="M201.93,26.2c-2,4.37-4,8.74-6.01,13.11-.42-.23-.84-.45-1.26-.68,2.43-4.13,4.87-8.27,7.3-12.4l-.03-.03Z"/>
  <path class="cls-1" d="M159.47,76.03c1.46-3.16,2.93-6.32,4.39-9.48,0,0-.04-.03-.04-.03-1.46,3.16-2.93,6.32-4.39,9.48,0,0,.04.03.04.03Z"/>
  <path class="cls-1" d="M136.92,88.13c2.11-4.89,4.22-9.77,6.33-14.66,0,0-.04-.03-.04-.03-2.11,4.89-4.22,9.77-6.32,14.66l.03.03Z"/>
  <path class="cls-1" d="M169.23,43.43c-2.46,4.9-4.91,9.79-7.37,14.69,0,0,.03.03.03.03,2.46-4.9,4.92-9.79,7.38-14.69l-.04-.03Z"/>
  <path class="cls-1" d="M290.26,71c-1.81,3.01-3.62,6.02-5.43,9.03,0,0,.05-.05.05-.05-.52.37-1.04.74-1.56,1.11l.04.04c-.2-.18-.4-.37-.59-.55,0,0,.05.06.05.06-.01-.37-.03-.73-.04-1.1,0,0-.04.06-.04.06.18-.2.37-.39.55-.59,0,0-.05.04-.05.04,1.84-2.5,3.68-4.99,5.51-7.49l-.03.04c0-.2-.01-.39-.02-.59l.04.05c.33-.34.67-.69,1-1.03l-.04-.04.59,1.05-.04-.03Z"/>
  <path class="cls-1" d="M193.06,11.44c-1.65,3.91-3.29,7.82-4.94,11.73l-.66-.25c1.61-3.93,3.23-7.86,4.84-11.78.25.1.5.2.76.3Z"/>
  <path class="cls-1" d="M148.48,60.26c-1.45,3.65-2.91,7.31-4.36,10.96,0,0,.04.03.04.03,1.45-3.65,2.91-7.31,4.36-10.96,0,0-.04-.03-.04-.03Z"/>
  <path class="cls-1" d="M230.24,64.74c1.27-2.07,2.55-4.15,4.37-7.12-.47,1.82-.67,2.62-.88,3.42,0,0,.04-.05.04-.05-1.81,3-3.62,5.99-5.43,8.99,0,0,.04.02.04.02-.01-.36-.03-.72-.04-1.08,0,0-.03.06-.03.06.17-.37.34-.74.51-1.12l-.03.06c.17-.37.34-.75.51-1.12,0,0-.03.06-.03.06.33-.72.67-1.45,1-2.17l-.04.05Z"/>
  <path class="cls-1" d="M253,27.47c-.95-.17-1.92-.28-2.85-.52-1.41-.36-2.79-.8-4.18-1.21.71-1.92,2.57-1.67,7,1.77,0,0,.03-.04.03-.04Z"/>
  <path class="cls-1" d="M226.28,52.83c-.26-.12-.74-.31-.74-.33.95-2.71,1.93-5.4,3.82-7.75-1.04,2.71-2.08,5.42-3.13,8.12,0,0,.04-.03.04-.03Z"/>
  <path class="cls-1" d="M208.69,86.83c1.63-3.17,3.26-6.34,4.89-9.51,0,0-.04-.04-.04-.04-1.63,3.17-3.26,6.34-4.89,9.51,0,0,.04.03.04.03Z"/>
  <path class="cls-1" d="M240.86,54.48c1.23-3.16,2.45-6.31,3.68-9.47.28.12.56.24.84.36-1.51,3.02-3.03,6.05-4.54,9.07,0,0,.03.03.03.03Z"/>
  <path class="cls-1" d="M225.42,40.36c-.83,2.43-1.67,4.85-2.5,7.28-.21-.07-.41-.14-.62-.2.82-2.45,1.64-4.9,2.46-7.35l.66.27Z"/>
  <path class="cls-1" d="M151.32,52.8c.81-2.58,1.62-5.16,2.43-7.74l.88.33c-1.11,2.46-2.23,4.92-3.34,7.37l.04.03Z"/>
  <path class="cls-1" d="M174.35,42.13c1-2.23,2-4.46,3-6.69.28.15.56.3.84.46-1.29,2.07-2.58,4.13-3.87,6.2,0,0,.03.03.03.03Z"/>
  <path class="cls-1" d="M177.37,25.51c-.63.79-1.26,1.58-1.9,2.36-.2-.1-.4-.19-.6-.29,1.01-1.74,2.02-3.47,3.04-5.21,0,0-.03-.03-.03-.03-.18,1.06-.36,2.13-.55,3.19l.04-.02Z"/>
  <path class="cls-1" d="M220.89,34.32c.62-2.38,1.24-4.76,1.86-7.14.29.09.58.18.88.27-.92,2.28-1.85,4.56-2.77,6.84l.04.03Z"/>
  <path class="cls-1" d="M237.49,48.82c1-2.07,2-4.14,2.99-6.2,0,0-.03-.03-.03-.03-1,2.07-2,4.14-2.99,6.2,0,0,.03.03.03.03Z"/>
  <path class="cls-1" d="M268.31,37.44c.33-.72.67-1.44,1-2.16.52.3,1.04.59,1.56.89-.62.54-1.23,1.08-1.85,1.62-.24-.11-.47-.23-.71-.34Z"/>
  <path class="cls-1" d="M224.63,66.48c.75-1.95,1.5-3.89,2.25-5.84l.63.25c-.64,1.68-1.28,3.36-1.91,5.04l.04-.04c-.35.19-.7.38-1.05.57l.04.02Z"/>
  <path class="cls-1" d="M247.87,62.53c1.33-2.43,2.66-4.86,3.98-7.29,0,0-.04-.03-.04-.03-1.33,2.43-2.66,4.86-3.99,7.29,0,0,.04.03.04.03Z"/>
  <path class="cls-1" d="M183.73,12.17c1.15-2.6,2.3-5.19,3.46-7.79l-.04-.03c-1.15,2.6-2.3,5.19-3.45,7.79l.03.03Z"/>
  <path class="cls-1" d="M220.02,24.46c.5-2.01,1-4.02,1.5-6.04l.92.32c-.82,1.9-1.64,3.79-2.46,5.69l.04.03Z"/>
  <path class="cls-1" d="M224.79,26.9c.47-1.85.93-3.7,1.4-5.54.32.12.65.24.97.36-.8,1.72-1.6,3.44-2.4,5.16l.04.03Z"/>
  <path class="cls-1" d="M208.47,52.54c.71-.89,1.41-1.78,2.12-2.67,0,0-.03-.03-.03-.03-.5,1.5-1,3-1.5,4.5-.21-.04-.43-.08-.64-.12.03-.57.06-1.15.09-1.72,0,0-.03.03-.03.03Z"/>
  <path class="cls-1" d="M170.98,49.58c-.41,1.41-.81,2.82-1.22,4.23-.36-.16-.71-.33-1.07-.49.78-1.24,1.55-2.47,2.33-3.71l-.04-.03Z"/>
  <path class="cls-1" d="M224.76,26.87c-.78,2.45-1.57,4.9-2.35,7.35l.04.03c.78-2.45,1.57-4.9,2.35-7.35,0,0-.04-.03-.04-.03Z"/>
  <path class="cls-1" d="M206.44,14.07c-.64,1.35-1.28,2.69-1.92,4.04-.21-.1-.42-.19-.62-.29.65-1.35,1.31-2.7,1.96-4.05.19.1.39.2.58.3Z"/>
  <path class="cls-1" d="M187.13,18.81c-.65,2.09-1.3,4.19-1.95,6.28,0,0,.03.03.03.03.65-2.12,1.29-4.25,1.94-6.37,0,0-.03.05-.03.05Z"/>
  <path class="cls-1" d="M242.99,72.05c.99-1.9,1.98-3.81,2.98-5.71l-.03-.03c-.99,1.9-1.99,3.81-2.98,5.71l.04.03Z"/>
  <path class="cls-1" d="M229.26,65.3c.23-1.39.46-2.79.69-4.18.29.05.59.09.88.14-.2,1.16-.39,2.32-.59,3.48,0,0,.04-.05.04-.05-.35.19-.71.38-1.06.57l.04.04Z"/>
  <path class="cls-1" d="M186.24,53.79c-.55,1.49-1.11,2.99-1.66,4.48-.25-.12-.51-.24-.76-.37.82-1.36,1.64-2.72,2.45-4.08l-.03-.03Z"/>
  <path class="cls-1" d="M187.89,42.72c.54-1.84,1.08-3.67,1.62-5.51.28.11.56.22.84.32-.83,1.72-1.67,3.44-2.5,5.16l.04.03Z"/>
  <path class="cls-1" d="M227.99,82.48c-.65,1.17-1.3,2.34-1.95,3.51-.19-.1-.38-.2-.56-.3.65-1.21,1.31-2.42,1.96-3.63.18.14.37.28.55.41Z"/>
  <path class="cls-1" d="M191.52,71.29c-.83,1.89-1.66,3.79-2.49,5.68,0,0,.04.03.04.03.83-1.89,1.66-3.79,2.49-5.68l-.03-.03Z"/>
  <path class="cls-1" d="M233.73,61.03c.83-1.17,1.65-2.34,2.48-3.51l.37.2c-.93,1.58-1.87,3.15-2.8,4.73l.04.03c-.02-.5-.03-1-.05-1.51,0,0-.04.05-.04.05Z"/>
  <path class="cls-1" d="M189.78,66.14c-.81,1.93-1.61,3.86-2.42,5.79,0,0,.04.03.04.03.81-1.93,1.61-3.86,2.42-5.79,0,0-.03-.03-.03-.03Z"/>
  <path class="cls-1" d="M231.33,79.82c.45-1.4.9-2.81,1.34-4.21.3.13.61.26.91.39-.77,1.26-1.53,2.53-2.3,3.79,0,0,.04.03.04.03Z"/>
  <path class="cls-1" d="M295.1,59.89c.68-1.39,1.37-2.77,2.05-4.16.25.16.51.32.76.48-.95,1.22-1.9,2.43-2.84,3.65,0,0,.04.03.04.03Z"/>
  <path class="cls-1" d="M239.16,81.59c.06-1.32.12-2.63.18-3.95.29.04.59.08.88.12-.37,1.29-.74,2.58-1.11,3.87,0,0,.04-.04.04-.04Z"/>
  <path class="cls-1" d="M220.6,56.17c.46-1.53.92-3.06,1.38-4.59l.81.3c-.74,1.42-1.48,2.84-2.22,4.26,0,0,.03.03.03.03Z"/>
  <path class="cls-1" d="M223.2,71.71c-.81,1.58-1.62,3.16-2.44,4.73,0,0,.03.04.03.04.47-1.59.93-3.18,1.4-4.77,0,0-.03.05-.03.05.36-.01.72-.03,1.08-.04l-.04-.02Z"/>
  <path class="cls-1" d="M225.77,55.02c-.55,1.18-1.1,2.35-1.65,3.53-.25-.16-.51-.32-.76-.48.82-1.01,1.63-2.01,2.45-3.02l-.04-.03Z"/>
  <path class="cls-1" d="M179.05,42.5c.65-1.55,1.31-3.1,1.96-4.65l-.04-.03c-.65,1.55-1.31,3.1-1.96,4.66,0,0,.04.03.04.03Z"/>
  <path class="cls-1" d="M232.68,30.25c.42-1.44.84-2.88,1.26-4.32.21.08.42.15.63.23-.64,1.35-1.28,2.7-1.92,4.05,0,0,.03.03.03.03Z"/>
  <path class="cls-1" d="M151.29,52.77c-.49,1.22-.97,2.45-1.46,3.67l.03.03c.49-1.22.98-2.45,1.46-3.67,0,0-.04-.03-.04-.03Z"/>
  <path class="cls-1" d="M179.27,18.57c.4-1.3.8-2.59,1.2-3.89.22.09.44.17.65.26-.63,1.2-1.26,2.4-1.89,3.6,0,0,.04.03.04.03Z"/>
  <path class="cls-1" d="M187.31,39.7c-.45,1.36-.89,2.71-1.34,4.07-.24-.1-.48-.19-.72-.29.7-1.25,1.4-2.5,2.1-3.75l-.04-.03Z"/>
  <path class="cls-1" d="M164.67,63.31c-.29,1.07-.57,2.14-.86,3.21,0,0,.04.03.04.03.28-1.07.57-2.14.85-3.21l-.04-.03Z"/>
  <path class="cls-1" d="M254.18,49.82c.4-1.02.8-2.05,1.2-3.07.23.14.46.28.69.41-.64.87-1.29,1.75-1.93,2.62,0,0,.03.03.03.03Z"/>
  <path class="cls-1" d="M197.45,18.46c.35-1.34.7-2.68,1.04-4.03.25.09.5.18.75.27-.61,1.24-1.22,2.49-1.83,3.73,0,0,.03.03.03.03Z"/>
  <path class="cls-1" d="M231.84,39.27c-.3.83-.59,1.66-.89,2.49-.18-.06-.35-.12-.53-.19.31-.86.61-1.72.92-2.58.17.09.34.18.5.28Z"/>
  <path class="cls-1" d="M196.08,69.98c.38-.99.77-1.99,1.15-2.98.22.14.45.27.67.41-.62.85-1.24,1.69-1.86,2.54,0,0,.03.03.03.03Z"/>
  <path class="cls-1" d="M168.59,70.49c-.36.99-.72,1.99-1.08,2.98-.22-.11-.45-.23-.67-.34.6-.87,1.19-1.74,1.79-2.61,0,0-.04-.03-.04-.03Z"/>
  <path class="cls-1" d="M174.45,29.7c-.4.99-.79,1.99-1.19,2.98-.2-.1-.39-.21-.59-.31.61-.88,1.21-1.76,1.82-2.64l-.04-.03Z"/>
  <path class="cls-1" d="M206.04,41.06c.39-1.14.78-2.28,1.18-3.42.21.1.42.2.62.3-.61,1.03-1.22,2.06-1.83,3.09l.03.03Z"/>
  <path class="cls-1" d="M220.14,73.41c.67-.89,1.34-1.78,2.02-2.66,0,0-.03-.04-.03-.04.01.36.02.71.03,1.07,0,0,.03-.05.03-.05-.67,1.08-1.34,2.16-2.01,3.23,0-.53-.01-1.07-.02-1.6l-.03.06Z"/>
  <path class="cls-1" d="M191.15,45.3c-.19.83-.38,1.67-.57,2.5-.23-.09-.47-.19-.7-.28.43-.73.87-1.45,1.3-2.18l-.03-.03Z"/>
  <path class="cls-1" d="M225.15,68c-.65,1.24-1.3,2.47-1.95,3.71,0,0,.04.02.04.02.65-1.24,1.3-2.48,1.95-3.71l-.04-.02Z"/>
  <path class="cls-1" d="M139.83,97.96c.21.41.43.63.38.77-.12.37-.36.71-.55,1.06-.16-.19-.48-.42-.44-.57.09-.37.33-.71.62-1.26Z"/>
  <path class="cls-1" d="M160.54,77.55c-.67,1.21-1.34,2.43-2.01,3.64,0,0,.04.02.04.02-.01-.36-.03-.72-.04-1.08,0,0-.03.06-.03.06.17-.37.34-.75.51-1.12,0,0-.03.06-.03.06.53-.52,1.06-1.03,1.59-1.55l-.03-.03Z"/>
  <path class="cls-1" d="M203.9,6.47c-.2-.4-.33-.67-.47-.94.21-.08.46-.27.64-.22.27.08.5.32.75.49-.26.19-.52.37-.92.67Z"/>
  <path class="cls-1" d="M198.79,3.18l-1.67.06c-.01-.15-.02-.31-.03-.46.57-.07,1.13-.13,1.7-.2,0,.2,0,.4,0,.6Z"/>
  <path class="cls-1" d="M248.11,55.27c-.65,1.05-1.3,2.1-1.96,3.16l.04.03c.65-1.05,1.3-2.1,1.96-3.16l-.04-.03Z"/>
  <path class="cls-1" d="M232.91,50.12c-.25.79-.51,1.59-.76,2.38-.22-.11-.43-.22-.65-.33.48-.67.96-1.35,1.44-2.02,0,0-.04-.03-.04-.03Z"/>
  <path class="cls-1" d="M244.63,37.56c-.32.72-.63,1.43-.95,2.15-.16-.07-.32-.14-.48-.21.33-.71.66-1.42.98-2.13.15.07.3.13.45.2Z"/>
  <path class="cls-1" d="M182.54,22.63c.4-.99.8-1.98,1.2-2.97.2.11.41.21.61.32-.61.87-1.23,1.75-1.84,2.62,0,0,.03.03.03.03Z"/>
  <path class="cls-1" d="M149.83,56.44c-.45,1.27-.9,2.54-1.35,3.81,0,0,.04.03.04.03.45-1.27.9-2.54,1.34-3.81,0,0-.03-.03-.03-.03Z"/>
  <path class="cls-1" d="M156.12,39.73c-.23.95-.47,1.9-.7,2.84-.19-.07-.38-.15-.57-.22.43-.86.87-1.72,1.3-2.59,0,0-.03-.03-.03-.03Z"/>
  <path class="cls-1" d="M222.4,34.22c-.18.96-.36,1.93-.55,2.89-.17-.05-.34-.1-.51-.16.37-.9.73-1.8,1.09-2.7,0,0-.04-.03-.04-.03Z"/>
  <path class="cls-1" d="M173.91,43.28c-.51,1.02-1.02,2.03-1.53,3.05l.03.03c.51-1.02,1.02-2.03,1.53-3.05l-.03-.03Z"/>
  <path class="cls-1" d="M126.35,111.99c.01.86.03,1.71.04,2.57,0,0,.04-.04.04-.04-.36.01-.73.02-1.09.03,0,0,.04.04.04.04.34-.86.67-1.71,1.01-2.57,0,0-.03-.03-.03-.03Z"/>
  <path class="cls-1" d="M160.57,77.58c.47-1.23.95-2.46,1.42-3.69,0,0-.03-.04-.03-.04-.48,1.23-.95,2.46-1.43,3.69,0,0,.04.03.04.03Z"/>
  <path class="cls-1" d="M182.3,29.44c.48-1.21.97-2.42,1.45-3.63l-.04-.03c-.48,1.21-.97,2.42-1.45,3.63l.04.04Z"/>
  <path class="cls-1" d="M168.63,70.52c.47-1.06.95-2.13,1.42-3.19l-.03-.03c-.48,1.06-.95,2.13-1.43,3.19,0,0,.04.03.04.03Z"/>
  <path class="cls-1" d="M251.85,55.24c.48-1.06.95-2.12,1.43-3.18l-.03-.03c-.48,1.06-.96,2.12-1.44,3.18,0,0,.04.04.04.04Z"/>
  <path class="cls-1" d="M244.95,23.66c-.25.34-.5.67-.75,1.01-.14-.18-.29-.37-.43-.55.41-.14.81-.28,1.22-.42,0,0-.03-.03-.03-.03Z"/>
  <path class="cls-1" d="M170.18,41.25c.49-1.04.98-2.07,1.47-3.11l-.03-.03c-.49,1.03-.99,2.07-1.48,3.1,0,0,.04.03.04.03Z"/>
  <path class="cls-1" d="M202,42.86c-.22.79-.45,1.58-.67,2.37-.18-.07-.35-.14-.53-.21.41-.71.82-1.42,1.24-2.13l-.03-.03Z"/>
  <path class="cls-1" d="M172.09,81.75c.2-.8.4-1.6.6-2.41.19.08.38.16.57.23-.4.71-.81,1.43-1.21,2.14,0,0,.04.03.04.03Z"/>
  <path class="cls-1" d="M233.11,56.3c.16-.68.33-1.37.49-2.05.19.08.39.17.58.25-.37.59-.74,1.18-1.11,1.77l.03.03Z"/>
  <path class="cls-1" d="M170.61,84.91c.49-1.05.98-2.1,1.47-3.15,0,0-.04-.03-.04-.03-.49,1.05-.98,2.1-1.47,3.15,0,0,.03.03.03.03Z"/>
  <path class="cls-1" d="M161.46,59.31c-.28.64-.56,1.28-.84,1.92-.39-.31-.78-.63-1.17-.94.68-.31,1.36-.63,2.04-.94,0,0-.03-.03-.03-.03Z"/>
  <path class="cls-1" d="M211.83,44.97c-.31,1.05-.61,2.11-.92,3.16,0,0,.03.03.03.03.31-1.05.61-2.11.92-3.16,0,0-.03-.03-.03-.03Z"/>
  <path class="cls-1" d="M233.78,62.45c-.5.88-1,1.75-1.5,2.63,0,0,.04.03.04.03.5-.88,1-1.75,1.5-2.63,0,0-.04-.03-.04-.03Z"/>
  <path class="cls-1" d="M234.23,43.76c.24-.62.48-1.24.72-1.85.14.08.29.17.43.25-.4.52-.79,1.05-1.19,1.57l.04.03Z"/>
  <path class="cls-1" d="M192.28,47.87c.5-.88.99-1.75,1.49-2.63,0,0-.03-.03-.03-.03-.5.88-1,1.75-1.49,2.63,0,0,.04.03.04.03Z"/>
  <path class="cls-1" d="M187.16,18.76c-.35.33-.71.66-1.06.98-.03-.21-.12-.58-.07-.6.35-.15.73-.23,1.1-.33,0,0,.03-.05.03-.05Z"/>
  <path class="cls-1" d="M171.02,49.62c.33-.69.66-1.39.99-2.08,0,0-.03-.03-.03-.03-.33.69-.67,1.39-1,2.08,0,0,.04.03.04.03Z"/>
  <path class="cls-1" d="M242.95,72.02c-.23.66-.46,1.32-.68,1.98-.16-.09-.32-.18-.48-.27.4-.56.8-1.12,1.21-1.67,0,0-.04-.03-.04-.03Z"/>
  <path class="cls-1" d="M176.73,66.59c.37-.17.75-.34,1.12-.51l-.03-.03c-.5.87-1.01,1.74-1.51,2.62,0,0,.04.03.04.03.14-.72.28-1.44.42-2.15,0,0-.04.05-.04.05Z"/>
  <path class="cls-1" d="M232.95,50.15c.17-.68.34-1.36.51-2.04.16.06.32.12.49.18-.34.61-.69,1.21-1.03,1.82,0,0,.04.03.04.03Z"/>
  <path class="cls-1" d="M247.83,62.5c-.5.88-.99,1.76-1.49,2.64,0,0,.03.03.03.03.5-.88.99-1.76,1.49-2.64,0,0-.04-.03-.04-.03Z"/>
  <path class="cls-1" d="M181.01,37.85c.5-.87,1.01-1.75,1.51-2.62l-.03-.03c-.5.87-1.01,1.74-1.51,2.62,0,0,.04.04.04.04Z"/>
  <path class="cls-1" d="M193.74.95c-.23.16-.45.34-.69.48-.03.02-.19-.2-.29-.31.34-.05.67-.09,1.01-.14l-.03-.03Z"/>
  <path class="cls-1" d="M157.56,35.2c.1.21.22.35.21.46-.02.16-.14.3-.21.45-.11-.06-.32-.16-.31-.18.07-.23.18-.44.31-.74Z"/>
  <path class="cls-1" d="M183.07,68.88c.31-.88.63-1.75.94-2.63,0,0-.04-.03-.04-.03-.31.88-.63,1.75-.94,2.63l.03.03Z"/>
  <path class="cls-1" d="M203.94,69.32c.33-.7.66-1.39.99-2.09,0,0-.03-.03-.03-.03-.33.69-.67,1.39-1,2.09,0,0,.04.03.04.03Z"/>
  <path class="cls-1" d="M183.67,70.95l.39-1.74c.17.07.33.14.5.2-.31.5-.61,1-.92,1.5l.03.03Z"/>
  <path class="cls-1" d="M143.25,73.47c.3-.74.6-1.48.91-2.22,0,0-.04-.03-.04-.03-.3.74-.6,1.48-.9,2.22,0,0,.04.03.04.03Z"/>
  <path class="cls-1" d="M178.32,21.2c.32-.88.63-1.75.95-2.63,0,0-.04-.03-.04-.03-.31.88-.63,1.76-.94,2.64l.03.03Z"/>
  <path class="cls-1" d="M211.72,70.55c-.16.44-.32.87-.47,1.31-.07-.03-.14-.07-.21-.1.24-.39.47-.79.71-1.18l-.03-.03Z"/>
  <path class="cls-1" d="M169.27,43.46c.3-.74.6-1.47.91-2.21,0,0-.04-.03-.04-.03-.3.74-.6,1.47-.91,2.21,0,0,.04.03.04.03Z"/>
  <path class="cls-1" d="M136,90.33c-.17.42-.34.85-.52,1.27-.07-.04-.13-.07-.2-.11.25-.38.5-.75.75-1.13l-.03-.03Z"/>
  <path class="cls-1" d="M289.74,70.02c.49-.72.98-1.44,1.47-2.16l-.03-.04c.01.36.02.72.04,1.08l.03-.05c-.18.19-.36.39-.54.58v-.03c-.33.2-.66.39-1,.59,0,0,.04.04.04.04Z"/>
  <path class="cls-1" d="M214.47,75.13c-.31.72-.62,1.43-.93,2.15,0,0,.04.03.04.04.31-.72.62-1.44.92-2.16,0,0-.03-.03-.03-.03Z"/>
  <path class="cls-1" d="M231.83,58.51c.08-.15.15-.28.23-.42.11.08.32.15.32.23,0,.13-.12.27-.19.41-.12-.07-.23-.14-.35-.22Z"/>
  <path class="cls-1" d="M199.89,59c-.32.87-.63,1.73-.95,2.6l.03.04c-.02-.54-.04-1.07-.07-1.61,0,0-.02.06-.02.06.17-.37.34-.75.51-1.12,0,0-.04.05-.04.05.19,0,.38-.01.56-.02h-.04Z"/>
  <path class="cls-1" d="M191.16,62.36c.13-.55.27-1.09.4-1.64.13.05.26.11.39.16-.28.48-.55.96-.83,1.44,0,0,.03.03.03.03Z"/>
  <path class="cls-1" d="M225.81,55.05c.16-.74.31-1.48.47-2.22,0,0-.04.03-.04.03-.15.72-.31,1.43-.46,2.15,0,0,.04.03.04.03Z"/>
  <path class="cls-1" d="M205.59,42.2c-.34.84-.69,1.67-1.03,2.51l.03.03c.34-.83.69-1.67,1.03-2.51,0,0-.03-.03-.03-.03Z"/>
  <path class="cls-1" d="M178.15,45.17c.3-.89.6-1.78.9-2.67,0,0-.04-.03-.04-.03-.3.89-.6,1.78-.89,2.68,0,0,.03.03.03.03Z"/>
  <path class="cls-1" d="M117.99,129.93c-.17.14-.33.28-.5.42-.09-.12-.27-.29-.24-.34.1-.19.28-.33.43-.49.09.12.18.23.32.42Z"/>
  <path class="cls-1" d="M189.81,66.18c.31-.88.62-1.76.94-2.64l-.03-.03c-.31.88-.63,1.76-.94,2.64,0,0,.04.03.04.03Z"/>
  <path class="cls-1" d="M295.06,59.85c-.23.51-.47,1.03-.7,1.54-.35-.3-.71-.61-1.06-.91.6-.2,1.2-.4,1.8-.6,0,0-.04-.03-.04-.03Z"/>
  <path class="cls-1" d="M200.87,4.65c-.08-.1-.17-.2-.25-.3.06-.04.16-.13.17-.12.1.08.18.18.27.28-.06.04-.12.08-.19.14Z"/>
  <path class="cls-1" d="M222.65,69.66c.32-.69.63-1.39.95-2.08,0,0-.02-.04-.02-.04-.32.7-.64,1.41-.97,2.11,0,0,.04.01.04.01Z"/>
  <path class="cls-1" d="M208.58,7.74c-.26-.18-.52-.35-.77-.53.09-.08.18-.17.28-.25.15.27.31.55.46.82,0,0,.04-.04.04-.04Z"/>
  <path class="cls-1" d="M231.39,67.31c-.1.45-.2.9-.03.15-.4.65-.17.27.07-.11l-.04-.03Z"/>
  <path class="cls-1" d="M228.82,80.38c-.07-.02-.18-.03-.21-.08-.04-.06,0-.16,0-.24.11.04.23.08.34.11-.04.07-.09.13-.13.2Z"/>
  <path class="cls-1" d="M227.7,34.69c-.11.44-.22.88-.04.14-.42.64-.18.27.07-.11l-.04-.03Z"/>
  <path class="cls-1" d="M208.92,77.48c.33-.7.66-1.39.99-2.09,0,0-.03-.03-.03-.03-.33.7-.66,1.39-1,2.09,0,0,.04.03.04.03Z"/>
  <path class="cls-1" d="M190.5,27.61c-.09.45-.19.9-.03.16-.38.65-.16.27.07-.12,0,0-.04-.04-.04-.04Z"/>
  <path class="cls-1" d="M156.52,53.13c.11-.43.21-.87.04-.14.39-.64.16-.27-.07.11l.03.03Z"/>
  <path class="cls-1" d="M191.09,29.65c-.09.45-.17.9-.26,1.35-.13-.05-.25-.11-.38-.16l.67-1.16s-.03-.03-.03-.03Z"/>
  <path class="cls-1" d="M231.43,67.34c.3-.74.6-1.48.9-2.23,0,0-.04-.03-.04-.04-.3.74-.6,1.48-.9,2.23,0,0,.04.03.04.03Z"/>
  <path class="cls-1" d="M188.15,79.21c.3-.73.61-1.47.91-2.2,0,0-.04-.03-.04-.03-.3.73-.61,1.47-.91,2.2,0,0,.04.03.04.03Z"/>
  <path class="cls-1" d="M237.62,83.51c-.13.07-.25.13-.36.19,0-.14,0-.28.03-.42.01-.05.11-.08.17-.12.05.11.11.22.16.35Z"/>
  <path class="cls-1" d="M233.72,69.1c-.14.03-.22.05-.29.07v-.22c.07.04.16.09.29.15Z"/>
  <path class="cls-1" d="M193.05,87.3c-.04.33-.08.66-.11.99-.06-.01-.12-.03-.18-.04.11-.31.22-.61.33-.92,0,0-.03-.03-.03-.03Z"/>
  <path class="cls-1" d="M159.28,71.35c-.37.48-.74.96-1.11,1.44,0,0,.03.04.03.04.37-.48.74-.96,1.1-1.44l-.03-.03Z"/>
  <path class="cls-1" d="M180.61,26.36c.14-.27.27-.55.41-.82.05.03.11.07.16.1-.2.23-.4.46-.6.69l.03.03Z"/>
  <path class="cls-1" d="M231.81,48.09c.34-.53.67-1.05,1.01-1.58l-.03-.03c-.34.52-.67,1.05-1.01,1.57,0,0,.04.03.04.03Z"/>
  <path class="cls-1" d="M255.92,32.92c-.15.08-.22.12-.29.16-.02-.07-.04-.14-.06-.21.09.01.18.02.35.05Z"/>
  <path class="cls-1" d="M172.01,34.46c-.12.28-.25.56-.37.83-.06-.03-.11-.06-.17-.09.19-.24.38-.48.57-.71l-.03-.03Z"/>
  <path class="cls-1" d="M234.19,43.73c-.34.53-.67,1.05-1.01,1.58,0,0,.03.03.03.03.34-.52.67-1.05,1.01-1.58,0,0-.04-.03-.04-.03Z"/>
  <path class="cls-1" d="M179.9,65.97c-.14.27-.29.54-.43.81-.05-.04-.11-.07-.16-.11.21-.22.42-.45.63-.67,0,0-.03-.03-.03-.03Z"/>
  <path class="cls-1" d="M191.54,26.06c-.35.52-.69,1.03-1.04,1.55,0,0,.04.04.04.04.34-.52.69-1.03,1.03-1.55l-.03-.03Z"/>
  <path class="cls-1" d="M126.74,110.34c-.13.55-.26,1.09-.39,1.64,0,0,.03.03.03.03.13-.55.26-1.1.39-1.64l-.03-.03Z"/>
  <path class="cls-1" d="M204.67,61.91c.18-.49.36-.97.54-1.46l-.04-.03c-.18.49-.36.97-.54,1.46,0,0,.04.03.04.03Z"/>
  <path class="cls-1" d="M210.59,49.87c.12-.57.24-1.14.36-1.71,0,0-.03-.03-.04-.03-.12.57-.24,1.14-.36,1.71,0,0,.03.03.03.03Z"/>
  <path class="cls-1" d="M194.58,23.87c-.05.22-.09.44-.14.66l.17-.63-.03-.03Z"/>
  <path class="cls-1" d="M157.82,74.46c.13-.55.26-1.09.39-1.64,0,0-.03-.04-.04-.04-.13.55-.26,1.1-.39,1.65l.04.03Z"/>
  <path class="cls-1" d="M219.99,24.43c-.02.22-.04.45-.06.67.03-.21.06-.43.09-.64,0,0-.04-.03-.04-.03Z"/>
  <polygon class="cls-1" points="206.92 55.89 206.8 55.97 206.8 55.81 206.92 55.89"/>
  <path class="cls-1" d="M168.11,55.96c-.07.19-.14.39-.21.58-.01-.06-.05-.14-.03-.18.08-.13.18-.25.27-.37l-.03-.03Z"/>
  <path class="cls-1" d="M209.91,75.39c.02-.24.05-.47.07-.71.03.06.08.13.07.18-.05.17-.12.32-.18.49,0,0,.04.03.04.03Z"/>
  <path class="cls-1" d="M232.28,31.88c.13-.54.27-1.09.4-1.63,0,0-.03-.03-.03-.04-.13.55-.26,1.09-.4,1.64l.03.03Z"/>
  <path class="cls-1" d="M150.21,64.88c-.18.48-.36.97-.55,1.45,0,0,.03.03.03.03.18-.48.36-.97.55-1.45l-.03-.03Z"/>
  <path class="cls-1" d="M187.85,42.69c-.01.23-.02.46-.03.69.02-.22.05-.44.07-.66,0,0-.04-.03-.04-.03Z"/>
  <path class="cls-1" d="M197.99,64.72c.02-.54.03-1.07.05-1.61,0,0-.03.03-.03.03-.02.51-.04,1.03-.06,1.54l.03.03Z"/>
  <polygon class="cls-1" points="189.51 .12 189.33 0 189.48 .15 189.51 .12"/>
  <path class="cls-1" d="M189.48.15c.08,0,.15,0,.23,0-.06,0-.13-.02-.19-.02,0,0-.04.03-.04.03Z"/>
  <path class="cls-1" d="M176.24,4.67c.02-.05.04-.11.06-.16l-.09.13.03.03Z"/>
  <path class="cls-1" d="M187.18,4.38c0-.08,0-.16,0-.24-.02.07-.03.14-.05.21,0,0,.04.03.04.03Z"/>
  <path class="cls-1" d="M183.69,12.14c0,.07,0,.14,0,.21.01-.06.03-.12.04-.18,0,0-.03-.03-.03-.03Z"/>
  <path class="cls-1" d="M203.09,14.17c.01-.07.02-.13.03-.2-.02.06-.04.11-.07.17l.03.03Z"/>
  <path class="cls-1" d="M197.42,18.43s.02.02.03.03c0,0-.03-.03-.03-.03Z"/>
  <path class="cls-1" d="M178.29,21.17c-.14.39-.28.78-.41,1.17,0,0,.03.03.03.03.14-.39.28-.78.41-1.17,0,0-.03-.03-.03-.03Z"/>
  <path class="cls-1" d="M182.09,23.72c.15-.36.3-.73.44-1.09,0,0-.03-.03-.03-.03-.15.36-.3.73-.45,1.09l.04.03Z"/>
  <path class="cls-1" d="M194.61,23.9c0-.06.02-.13.03-.19-.02.05-.04.1-.06.15,0,0,.03.03.03.03Z"/>
  <path class="cls-1" d="M183.75,25.81c.03-.12.05-.24.08-.36,0,.05.02.11,0,.16-.03.06-.08.12-.12.18,0,0,.04.03.04.03Z"/>
  <path class="cls-1" d="M184.72,26.17c.17-.35.34-.69.5-1.04,0,0-.03-.03-.03-.03-.17.35-.33.69-.5,1.04l.03.03Z"/>
  <path class="cls-1" d="M191.57,26.09c.14-.37.28-.75.42-1.12l-.03-.03c-.14.37-.28.74-.42,1.12,0,0,.03.04.03.04Z"/>
  <path class="cls-1" d="M201.96,26.23c.15-.37.29-.73.44-1.1l-.03-.03c-.15.36-.29.73-.44,1.09,0,0,.03.03.03.03Z"/>
  <path class="cls-1" d="M184.69,26.14c0,.07,0,.13-.01.2,0,0-.01.02-.02.02.02-.06.05-.12.07-.18,0,0-.03-.03-.03-.03Z"/>
  <path class="cls-1" d="M187.94,28.67c.02-.06.04-.12.06-.18-.03.05-.06.1-.1.15l.04.03Z"/>
  <path class="cls-1" d="M187.9,28.64c0,.08-.01.17-.02.25.02-.07.04-.14.06-.21,0,0-.04-.03-.04-.03Z"/>
  <path class="cls-1" d="M182.52,35.23c0-.07,0-.15,0-.22-.01.06-.03.12-.04.19,0,0,.04.03.04.03Z"/>
  <path class="cls-1" d="M227.74,34.72c0-.08,0-.17,0-.25-.01.07-.02.14-.04.22,0,0,.04.03.04.03Z"/>
  <path class="cls-1" d="M220.85,34.28c0,.08,0,.16,0,.25.02-.07.03-.14.05-.21,0,0-.04-.03-.04-.03Z"/>
  <path class="cls-1" d="M156.55,38.58c.02-.07.04-.13.06-.2-.03.05-.06.11-.09.16l.03.03Z"/>
  <path class="cls-1" d="M198.64,37.67c.02-.07.04-.15.06-.22-.03.06-.06.13-.09.19,0,0,.03.03.03.03Z"/>
  <path class="cls-1" d="M156.52,38.54c-.13.4-.27.79-.4,1.19,0,0,.03.03.03.04.13-.4.27-.79.4-1.19,0,0-.03-.03-.03-.03Z"/>
  <path class="cls-1" d="M198.16,38.73c.16-.35.32-.71.48-1.06,0,0-.03-.03-.03-.03-.16.35-.32.71-.48,1.06l.03.03Z"/>
  <path class="cls-1" d="M187.35,39.73c0-.08,0-.16,0-.24-.01.07-.02.14-.03.21,0,0,.04.03.04.03Z"/>
  <path class="cls-1" d="M219.45,38.51c.02-.06.05-.11.07-.17-.03.05-.07.09-.1.14l.03.03Z"/>
  <path class="cls-1" d="M198.13,38.7c-.17.35-.33.7-.5,1.04l.03.03c.17-.35.33-.69.5-1.04,0,0-.03-.03-.03-.03Z"/>
  <path class="cls-1" d="M219.42,38.47c0,.07,0,.14,0,.21,0,0-.02.01-.04.02.03-.07.05-.13.08-.2,0,0-.03-.03-.03-.03Z"/>
  <path class="cls-1" d="M197.63,39.74c0,.07,0,.14,0,.21.01-.06.03-.12.04-.17,0,0-.03-.03-.03-.03Z"/>
  <path class="cls-1" d="M253.81,39.42c.03-.06.05-.13.08-.19-.04.05-.07.1-.11.15,0,0,.03.04.03.04Z"/>
  <path class="cls-1" d="M173.94,43.31c.14-.39.27-.79.41-1.18,0,0-.03-.03-.03-.03-.14.39-.27.79-.41,1.18,0,0,.03.03.03.03Z"/>
  <path class="cls-1" d="M206.01,41.03c-.14.39-.28.78-.42,1.17,0,0,.03.03.03.03.14-.39.28-.78.42-1.17,0,0-.03-.03-.03-.03Z"/>
  <path class="cls-1" d="M253.41,40.61c.14-.39.27-.79.4-1.18,0,0-.03-.04-.03-.04-.13.39-.27.79-.4,1.19,0,0,.03.03.03.03Z"/>
  <path class="cls-1" d="M192.07,43.09c.02-.07.05-.13.07-.2-.03.05-.07.11-.1.16,0,0,.03.03.03.03Z"/>
  <path class="cls-1" d="M193.67,43.09c.01-.07.03-.13.04-.2-.02.06-.05.11-.07.17l.03.03Z"/>
  <path class="cls-1" d="M202.03,42.89s-.02-.02-.03-.03c0,0,.03.03.03.03Z"/>
  <path class="cls-1" d="M159.87,44.7c.02-.06.04-.13.07-.19l-.1.16.03.03Z"/>
  <path class="cls-1" d="M191.58,44.15c.16-.35.33-.7.49-1.05,0,0-.03-.03-.04-.04-.16.35-.33.7-.49,1.06,0,0,.03.03.03.03Z"/>
  <path class="cls-1" d="M240.48,42.61c.15-.37.29-.74.44-1.11l-.03-.03c-.15.37-.29.73-.44,1.1,0,0,.03.03.03.03Z"/>
  <path class="cls-1" d="M159.84,44.67c0,.07,0,.15,0,.22.01-.06.03-.12.04-.19,0,0-.03-.03-.03-.03Z"/>
  <path class="cls-1" d="M195.22,44.53c.18-.32.35-.65.53-.97l-.03-.03c-.18.32-.35.64-.53.97l.03.03Z"/>
  <path class="cls-1" d="M191.18,45.33c.13-.4.27-.79.4-1.19,0,0-.03-.03-.03-.03-.13.39-.27.79-.4,1.19,0,0,.03.03.03.03Z"/>
  <path class="cls-1" d="M194.18,44.11c-.15.37-.29.73-.44,1.1,0,0,.03.03.03.03.15-.37.29-.74.44-1.11l-.03-.03Z"/>
  <path class="cls-1" d="M195.19,44.5c0,.07,0,.15,0,.22,0,0-.03.01-.05.02.03-.07.06-.14.09-.21,0,0-.03-.03-.03-.03Z"/>
  <path class="cls-1" d="M204.56,44.71c0,.07,0,.15,0,.22,0,0-.04,0-.06.01.03-.07.06-.13.1-.2,0,0-.04-.03-.04-.03Z"/>
  <path class="cls-1" d="M172.39,46.33c-.14.39-.28.78-.41,1.17,0,0,.03.03.03.03.14-.39.27-.78.41-1.17,0,0-.03-.03-.03-.03Z"/>
  <path class="cls-1" d="M200.02,47.5c.02-.07.05-.14.07-.21-.04.06-.07.12-.11.18,0,0,.03.03.03.03Z"/>
  <path class="cls-1" d="M232.81,46.51c.14-.39.27-.78.41-1.17,0,0-.03-.03-.03-.03-.14.39-.27.78-.41,1.17,0,0,.03.03.03.03Z"/>
  <path class="cls-1" d="M262.34,45.38c.02-.07.04-.13.06-.2-.03.05-.06.11-.1.17,0,0,.03.03.03.03Z"/>
  <path class="cls-1" d="M199.51,48.53c.17-.34.34-.69.51-1.03,0,0-.03-.03-.03-.04-.17.34-.34.69-.51,1.04l.03.03Z"/>
  <path class="cls-1" d="M261.93,46.56c.14-.39.27-.78.41-1.18,0,0-.03-.03-.03-.03-.14.39-.27.79-.41,1.18,0,0,.03.03.03.03Z"/>
  <path class="cls-1" d="M264.48,46.42c.17,0,.34-.01.51-.02,0,0,.03-.04.03-.04-.19,0-.38.01-.57.02l.03.04Z"/>
  <path class="cls-1" d="M199.48,48.5s.02.03.03.04c0,0-.03-.04-.03-.04Z"/>
  <path class="cls-1" d="M237.46,48.78c0,.07,0,.14,0,.21.01-.06.03-.11.04-.17,0,0-.03-.03-.03-.03Z"/>
  <path class="cls-1" d="M216.77,51.08l.07-.19c-.03.05-.07.1-.1.16l.03.03Z"/>
  <path class="cls-1" d="M156.49,53.1c0,.07,0,.14-.01.21.02-.06.03-.12.05-.18,0,0-.03-.03-.03-.03Z"/>
  <path class="cls-1" d="M208.5,52.51s-.02.02-.03.03c0,0,.03-.03.03-.03Z"/>
  <path class="cls-1" d="M216.73,51.05s.02.02.04.03c0,0-.04-.03-.04-.03Z"/>
  <path class="cls-1" d="M253.68,50.87c.16-.35.33-.7.49-1.05,0,0-.03-.03-.03-.03-.16.35-.33.7-.49,1.05,0,0,.03.03.03.03Z"/>
  <path class="cls-1" d="M186.27,53.82c0-.07.01-.14.02-.21-.02.06-.03.11-.05.17,0,0,.03.03.03.03Z"/>
  <path class="cls-1" d="M200.79,53.76c.01-.07.03-.13.04-.2-.03.05-.05.11-.08.16l.03.03Z"/>
  <path class="cls-1" d="M253.28,52.06c.13-.39.27-.79.4-1.19,0,0-.03-.03-.03-.03-.13.39-.27.79-.4,1.19,0,0,.03.03.03.03Z"/>
  <path class="cls-1" d="M168.15,56c0-.07,0-.15,0-.22-.01.06-.03.13-.04.19,0,0,.04.03.04.03Z"/>
  <path class="cls-1" d="M247.01,54.19c-.03.12-.06.24-.09.35,0-.05-.02-.11,0-.15.03-.06.08-.11.12-.17,0,0-.04-.03-.04-.03Z"/>
  <path class="cls-1" d="M161.5,59.34c.13-.4.27-.79.4-1.19,0,0-.03-.03-.03-.04-.13.39-.27.79-.4,1.19,0,0,.03.03.03.03Z"/>
  <path class="cls-1" d="M220.17,57.32c.14-.38.28-.77.42-1.15,0,0-.03-.03-.04-.03-.14.38-.28.77-.42,1.15,0,0,.03.03.03.03Z"/>
  <path class="cls-1" d="M166.7,60.13c.01-.08.02-.15.03-.23-.02.07-.04.13-.07.2,0,0,.03.03.03.03Z"/>
  <path class="cls-1" d="M199.85,57.94c.02.35.03.71.05,1.06,0,0,.04.01.04.01-.02-.36-.03-.73-.05-1.09l-.04.02Z"/>
  <path class="cls-1" d="M169.32,61.07c.02-.06.03-.11.05-.17-.03.05-.05.09-.08.14l.03.03Z"/>
  <path class="cls-1" d="M205.21,60.44c0-.08,0-.17,0-.25-.01.07-.03.14-.04.22,0,0,.04.03.04.03Z"/>
  <path class="cls-1" d="M150.64,63.73c.03-.07.06-.14.08-.2-.04.06-.08.11-.12.17,0,0,.03.03.03.03Z"/>
  <path class="cls-1" d="M174.08,63c.01-.07.02-.15.03-.22-.02.06-.04.13-.07.19,0,0,.03.03.03.03Z"/>
  <path class="cls-1" d="M208.86,61.8c.02-.06.03-.12.05-.19-.03.05-.05.1-.08.16,0,0,.03.03.03.03Z"/>
  <path class="cls-1" d="M198.94,61.6c-.17,0-.33.01-.5.02,0,0-.03.05-.03.05.19,0,.38-.01.56-.02l-.03-.04Z"/>
  <path class="cls-1" d="M150.24,64.92c.14-.39.27-.79.4-1.18,0,0-.03-.03-.04-.04-.13.39-.27.79-.4,1.18,0,0,.03.03.03.03Z"/>
  <path class="cls-1" d="M178.76,62.76s.01-.02.02-.04c0,0-.02.04-.02.04Z"/>
  <path class="cls-1" d="M188.68,63.61c0-.08,0-.15,0-.23-.01.07-.03.13-.04.2,0,0,.04.03.04.03Z"/>
  <path class="cls-1" d="M190.75,63.53c.14-.39.27-.78.41-1.17,0,0-.03-.03-.04-.04-.14.39-.27.78-.41,1.18,0,0,.03.03.03.03Z"/>
  <path class="cls-1" d="M204.25,63.07c.14-.39.28-.78.42-1.16,0,0-.04-.03-.04-.03-.14.39-.28.78-.41,1.17,0,0,.03.03.03.03Z"/>
  <path class="cls-1" d="M177.86,66.08s-.02-.02-.03-.04c0,0,.03.04.03.04Z"/>
  <path class="cls-1" d="M179.93,66c0-.07,0-.14,0-.22,0,0,.03-.01.04-.02-.03.07-.06.13-.08.2,0,0,.03.03.03.03Z"/>
  <path class="cls-1" d="M149.66,66.34c0,.08,0,.15,0,.23.01-.06.03-.13.04-.19,0,0-.04-.03-.04-.03Z"/>
  <path class="cls-1" d="M197.96,64.69c0,.08,0,.15,0,.23,0,0-.04,0-.06.01.03-.07.07-.14.1-.21,0,0-.04-.03-.04-.03Z"/>
  <path class="cls-1" d="M204.94,67.23s-.02-.02-.03-.03c0,0,.03.03.03.03Z"/>
  <path class="cls-1" d="M225.59,65.93c.18,0,.36,0,.54,0,0,0-.03-.03-.03-.03-.15.34-.31.68-.46,1.01,0,0,.04.04.04.04-.01-.36-.02-.72-.04-1.07l-.04.04Z"/>
  <path class="cls-1" d="M245.96,66.34c.14-.39.28-.78.42-1.17,0,0-.03-.03-.03-.03-.14.39-.28.78-.41,1.17,0,0,.03.03.03.03Z"/>
  <path class="cls-1" d="M294.13,63.58c-.14.34-.29.68-.43,1.02,0,0,.03.03.03.03.15-.34.29-.68.44-1.02l-.03-.03Z"/>
  <path class="cls-1" d="M163.85,69.53c.02-.06.04-.12.06-.18-.03.05-.06.1-.1.15,0,0,.03.03.03.03Z"/>
  <path class="cls-1" d="M225.64,66.92c-.16.36-.32.72-.49,1.09,0,0,.04.02.04.02.16-.35.32-.71.49-1.06l-.04-.04Z"/>
  <path class="cls-1" d="M163.36,70.58c.16-.35.32-.7.49-1.05,0,0-.03-.03-.03-.04-.16.35-.32.7-.48,1.06,0,0,.03.03.03.03Z"/>
  <path class="cls-1" d="M183.03,68.84c-.17.35-.33.7-.5,1.05l.03.03c.17-.35.33-.7.5-1.05,0,0-.03-.03-.03-.03Z"/>
  <path class="cls-1" d="M159.31,71.38c0-.07,0-.14,0-.21-.01.06-.03.12-.04.18,0,0,.03.03.03.03Z"/>
  <path class="cls-1" d="M292.65,65.71c.02.34.05.68.07,1.03,0,0,.03-.01.03-.01-.19,0-.37.01-.56.02l.04.02c.15-.34.3-.68.45-1.03,0,0-.03-.03-.03-.03Z"/>
  <path class="cls-1" d="M163.33,70.55c-.16.35-.32.7-.48,1.05l.03.03c.16-.35.32-.7.48-1.05,0,0-.03-.03-.03-.03Z"/>
  <path class="cls-1" d="M182.54,69.89v.21c0-.06.02-.11.03-.17,0,0-.03-.03-.03-.03Z"/>
  <path class="cls-1" d="M191.55,71.32c0-.07,0-.15,0-.22,0,0,.03-.01.05-.02-.03.07-.06.13-.09.2,0,0,.03.03.03.03Z"/>
  <path class="cls-1" d="M162.84,71.6c-.16.35-.33.7-.49,1.05l.03.03c.16-.35.33-.7.49-1.05,0,0-.03-.03-.03-.03Z"/>
  <path class="cls-1" d="M183.63,70.92c-.14.38-.29.76-.43,1.14,0,0,.03.03.03.03.14-.38.29-.76.43-1.14,0,0-.03-.03-.03-.03Z"/>
  <path class="cls-1" d="M196.25,71.68c-.05-.36-.1-.71-.15-1.07l-.03.03c.05.33.1.67.15,1,0,0,.03.03.03.03Z"/>
  <path class="cls-1" d="M222.16,70.75c.16-.36.33-.73.49-1.09,0,0-.04-.01-.04-.01-.16.35-.32.71-.49,1.06l.03.04Z"/>
  <path class="cls-1" d="M292.22,67.81c-.15.34-.31.69-.46,1.03,0,0,.02.04.02.04-.01-.36-.02-.72-.04-1.08,0,0-.04.04-.04.04.19,0,.37-.01.56-.02l-.04-.02Z"/>
  <path class="cls-1" d="M162.35,72.65c-.13.4-.26.8-.39,1.2,0,0,.03.04.03.04.13-.4.26-.8.39-1.2,0,0-.03-.04-.03-.04Z"/>
  <path class="cls-1" d="M162.62,76.97c.02-.11.05-.23.07-.34,0,.05.02.1,0,.14-.02.06-.07.11-.11.17,0,0,.04.03.04.03Z"/>
  <path class="cls-1" d="M155.76,78.07s.02.02.03.04c0,0-.03-.04-.03-.04Z"/>
  <path class="cls-1" d="M220.76,76.45c-.16.36-.32.72-.49,1.08,0,0,.04.02.04.02.16-.35.32-.71.48-1.06,0,0-.03-.04-.03-.04Z"/>
  <path class="cls-1" d="M174.64,79.61c.16,0,.33,0,.49,0,0,0,.04-.04.04-.04-.19,0-.37,0-.56.01l.03.03Z"/>
  <path class="cls-1" d="M208.96,82.51c0,.07,0,.15,0,.22,0,0-.03.01-.05.02.03-.07.06-.14.09-.2,0,0-.03-.03-.03-.03Z"/>
  <path class="cls-1" d="M170.2,86.07c.14-.39.28-.78.42-1.16,0,0-.03-.03-.03-.03-.14.39-.28.78-.42,1.16,0,0,.03.03.03.03Z"/>
  <path class="cls-1" d="M136.89,88.1c-.16.35-.33.7-.49,1.05,0,0,.03.03.03.03.16-.35.33-.7.49-1.05,0,0-.03-.03-.03-.03Z"/>
  <path class="cls-1" d="M236.24,85.91c0-.07,0-.14.01-.21-.02.06-.03.11-.05.17,0,0,.03.03.03.03Z"/>
  <path class="cls-1" d="M136.03,90.37c.14-.39.27-.79.4-1.18,0,0-.03-.03-.03-.03-.14.39-.27.79-.4,1.18,0,0,.03.03.03.03Z"/>
  <path class="cls-1" d="M193.77.98s-.03-.03-.03-.03c0,0,.03.03.03.03Z"/>
  <path class="cls-1" d="M176.21,4.65s.03.03.03.03c0,0-.03-.03-.03-.03Z"/>
  <path class="cls-1" d="M187.29,8.46l-.03-.03.03.03Z"/>
  <path class="cls-1" d="M187.26,8.43s.03.03.03.03c0,0-.03-.03-.03-.03Z"/>
  <path class="cls-1" d="M203.06,14.14s.03.03.03.03-.03-.03-.03-.03Z"/>
  <path class="cls-1" d="M182.06,23.69s.04.03.04.03-.04-.03-.04-.03Z"/>
  <path class="cls-1" d="M178.08,25.5s-.03-.02-.04-.02c0,0,.04.02.04.02Z"/>
  <path class="cls-1" d="M191.99,24.97s-.03-.03-.03-.03.03.03.03.03Z"/>
  <path class="cls-1" d="M235.65,23.46l-.03-.03.03.03Z"/>
  <path class="cls-1" d="M177.33,25.53c.25-.01.5-.02.75-.03,0,0-.04-.02-.03-.02-.22,0-.45.02-.68.02,0,0-.04.02-.04.02Z"/>
  <path class="cls-1" d="M202.39,25.13s-.03-.03-.03-.03.03.03.03.03Z"/>
  <path class="cls-1" d="M235.62,23.43s.03.03.03.03c0,0-.03-.03-.03-.03Z"/>
  <path class="cls-1" d="M214.5,75.16s-.03-.03-.03-.03c0,0,.03.03.03.03Z"/>
  <path class="cls-1" d="M288.16,71.08c.19,0,.39-.02.58-.03,0,0-.04-.05-.04-.05,0,.2.01.39.02.59,0,0,.03-.04.03-.04-.19-.17-.37-.35-.56-.52l-.04.05Z"/>
  <path class="cls-1" d="M237.86,73.29s-.03.03-.03.03c0,0,.03-.03.03-.03Z"/>
  <path class="cls-1" d="M290.29,71.03s-.04-.03-.04-.03c0,0,.04.03.04.03Z"/>
  <path class="cls-1" d="M193.08,87.33s-.03-.03-.03-.03c0,0,.03.03.03.03Z"/>
  <path class="cls-1" d="M157.78,74.43s.04.03.04.03c0,0-.04-.03-.04-.03Z"/>
  <path class="cls-1" d="M291.24,69.4c-.17,0-.34,0-.52,0,0,0-.01.03-.01.03.19,0,.38,0,.57-.01l-.04-.02Z"/>
  <path class="cls-1" d="M291.75,68.84c-.17.19-.35.37-.52.56,0,0,.04.02.04.02,0-.19-.02-.38-.03-.57,0,0-.03.05-.03.05.19,0,.37-.01.56-.02l-.02-.04Z"/>
  <path class="cls-1" d="M292.74,67.28c-.17.18-.35.35-.52.53,0,0,.04.02.04.02,0-.19-.01-.37-.02-.56l-.04.04c.19,0,.37-.01.56-.02h-.03Z"/>
  <path class="cls-1" d="M291.21,67.86c.17-.18.33-.36.5-.54l-.03-.04c0,.19.01.37.02.56l.04-.04c-.19,0-.37.01-.56.02l.03.04Z"/>
  <path class="cls-1" d="M211.75,70.58s-.03-.03-.03-.03.03.03.03.03Z"/>
  <path class="cls-1" d="M179.57,71.63s-.03.03-.03.03c0,0,.03-.03.03-.03Z"/>
  <path class="cls-1" d="M292.72,66.74c0,.18.01.36.02.54,0,0,.03,0,.03,0,0-.19-.01-.37-.02-.56h-.03Z"/>
  <path class="cls-1" d="M291.71,67.33c.17-.18.35-.37.52-.55,0,0-.04-.02-.04-.02,0,.19.01.37.02.56,0,0,.04-.04.04-.04-.19,0-.37.01-.56.02l.03.04Z"/>
  <path class="cls-1" d="M196.1,70.61c0-.21-.01-.42-.02-.63,0,0-.03-.03-.03-.03,0,.23.02.46.03.69,0,0,.03-.03.03-.03Z"/>
  <path class="cls-1" d="M293.16,65.18c-.17.18-.34.36-.51.53,0,0,.03.03.03.03.17-.18.34-.36.51-.53,0,0-.03-.03-.03-.03Z"/>
  <path class="cls-1" d="M293.19,65.21c.18-.19.36-.39.54-.58,0,0-.03-.03-.03-.03-.18.19-.36.39-.54.58,0,0,.03.03.03.03Z"/>
  <path class="cls-1" d="M223.6,67.57c.17-.18.34-.35.52-.53,0,0-.02-.04-.02-.04-.17.18-.34.36-.52.53,0,0,.02.04.02.04Z"/>
  <path class="cls-1" d="M170.17,87.57s.03-.03.03-.03c0,0-.03.03-.03.03Z"/>
  <path class="cls-1" d="M224.11,67.04c.17-.19.34-.38.52-.57,0,0-.04-.02-.04-.02-.17.18-.33.36-.5.54l.02.04Z"/>
  <path class="cls-1" d="M292.58,63.64l.03.03-.03-.03Z"/>
  <path class="cls-1" d="M291.08,64.23s-.03-.03-.03-.03.03.03.03.03Z"/>
  <path class="cls-1" d="M294.17,63.61c.17-.18.34-.36.5-.54l-.03-.03c-.17.18-.33.36-.5.54,0,0,.03.03.03.03Z"/>
  <path class="cls-1" d="M292.61,63.67c.18-.18.36-.35.53-.53,0,0-.03-.03-.03-.03-.18.18-.36.35-.54.53,0,0,.03.03.03.03Z"/>
  <path class="cls-1" d="M226.62,65.36c-.17.18-.35.36-.52.54,0,0,.03.03.03.03.17-.18.35-.36.52-.54l-.03-.03Z"/>
  <path class="cls-1" d="M294.67,63.08c.17-.18.33-.36.5-.54l-.03-.03c-.17.18-.33.36-.5.54,0,0,.03.03.03.03Z"/>
  <path class="cls-1" d="M293.15,63.14s-.03-.03-.03-.03c0,0,.03.03.03.03Z"/>
  <path class="cls-1" d="M226.65,65.39s-.03-.03-.03-.03.03.03.03.03Z"/>
  <path class="cls-1" d="M176.25,66.53s.03.03.03.03c0,0-.03-.03-.03-.03Z"/>
  <path class="cls-1" d="M170.05,67.33s-.03-.03-.03-.03c0,0,.03.03.03.03Z"/>
  <path class="cls-1" d="M295.17,62.54c.17-.18.35-.36.52-.54l-.03-.03c-.17.18-.35.36-.52.54,0,0,.03.03.03.03Z"/>
  <path class="cls-1" d="M295.69,62s-.03-.03-.03-.03.03.03.03.03Z"/>
  <path class="cls-1" d="M245.72,60.56c0,.17,0,.34,0,.51,0,0,.03.01.03.01,0-.19-.01-.37-.02-.56v.03Z"/>
  <path class="cls-1" d="M245.23,61.09c-.01-.17-.03-.34-.04-.51v-.03c0,.19,0,.37,0,.56l.03-.02Z"/>
  <path class="cls-1" d="M208.83,61.77s.03.03.03.03c0,0-.03-.03-.03-.03Z"/>
  <path class="cls-1" d="M174.05,62.97s.03.03.03.03c0,0-.03-.03-.03-.03Z"/>
  <path class="cls-1" d="M245.19,60.58c.18,0,.36-.01.53-.02,0,0,.01-.03.01-.03-.19,0-.37.01-.56.02v.03Z"/>
  <path class="cls-1" d="M164.71,63.34s-.04-.03-.04-.03c0,0,.04.03.04.03Z"/>
  <path class="cls-1" d="M246.16,58.42s.04.03.04.03-.04-.03-.04-.03Z"/>
  <path class="cls-1" d="M169.29,61.04s.03.03.03.03c0,0-.03-.03-.03-.03Z"/>
  <path class="cls-1" d="M166.66,60.1s.03.03.03.03c0,0-.03-.03-.03-.03Z"/>
  <path class="cls-1" d="M206.07,57.73l.03.03-.03-.03Z"/>
  <path class="cls-1" d="M170.25,58.96l.03.03-.03-.03Z"/>
  <path class="cls-1" d="M233.08,56.27s.03.03.03.03c0,0-.03-.03-.03-.03Z"/>
  <path class="cls-1" d="M206.1,57.76s-.03-.03-.03-.03c0,0,.03.03.03.03Z"/>
  <path class="cls-1" d="M170.28,58.99s-.03-.03-.03-.03c0,0,.03.03.03.03Z"/>
  <path class="cls-1" d="M248.15,55.3s-.04-.03-.04-.03c0,0,.04.03.04.03Z"/>
  <path class="cls-1" d="M174.61,79.58s.03.03.03.03c0,0-.03-.03-.03-.03Z"/>
  <path class="cls-1" d="M240.83,54.45s.03.03.03.03c0,0-.03-.03-.03-.03Z"/>
  <path class="cls-1" d="M200.76,53.73s.04.03.04.03c0,0-.04-.03-.04-.03Z"/>
  <path class="cls-1" d="M189.17,49.99l.04.03-.04-.03Z"/>
  <path class="cls-1" d="M178.12,45.14s.03.03.03.03c0,0-.03-.03-.03-.03Z"/>
  <path class="cls-1" d="M189.21,50.03s-.04-.03-.04-.03c0,0,.04.03.04.03Z"/>
  <path class="cls-1" d="M156.48,80.74s-.03.04-.03.04c0,0,.03-.04.03-.04Z"/>
  <path class="cls-1" d="M154.85,80.28l.04.03-.04-.03Z"/>
  <path class="cls-1" d="M261.21,42.87s.03-.03.03-.03-.03.03-.03.03Z"/>
  <path class="cls-1" d="M194.21,44.14s-.03-.03-.03-.03c0,0,.03.03.03.03Z"/>
  <path class="cls-1" d="M195.75,43.56s-.03-.03-.03-.03c0,0,.03.03.03.03Z"/>
  <path class="cls-1" d="M193.64,43.06s.03.03.03.03c0,0-.03-.03-.03-.03Z"/>
  <path class="cls-1" d="M240.92,41.51s-.03-.03-.03-.03c0,0,.03.03.03.03Z"/>
  <path class="cls-1" d="M168.12,42.39l.03.03-.03-.03Z"/>
  <path class="cls-1" d="M168.15,42.42s-.03-.03-.03-.03c0,0,.03.03.03.03Z"/>
  <path class="cls-1" d="M154.88,80.31s-.04-.03-.04-.03.04.03.04.03Z"/>
  <path class="cls-1" d="M171.65,38.14s-.03-.03-.03-.03.03.03.03.03Z"/>
  <path class="cls-1" d="M231.33,81.84s.03-.03.03-.03c0,0-.03.03-.03.03Z"/>
  <path class="cls-1" d="M232.26,31.86s.03.03.03.03c0,0-.03-.03-.03-.03Z"/>
  <path class="cls-1" d="M172.04,34.49s-.03-.03-.03-.03c0,0,.03.03.03.03Z"/>
  <path class="cls-1" d="M126.78,110.37s-.03-.03-.03-.03.03.03.03.03Z"/>
  <path class="cls-1" d="M191.12,29.68s-.03-.03-.03-.03c0,0,.03.03.03.03Z"/>
  <path class="cls-1" d="M182.26,29.41s.04.03.04.03c0,0-.04-.03-.04-.03Z"/>
  <path class="cls-1" d="M174.48,29.73s-.04-.03-.04-.03c0,0,.04.03.04.03Z"/>
  <path class="cls-1" d="M180.58,26.33s.03.03.03.03c0,0-.03-.03-.03-.03Z"/>
  <path class="cls-1" d="M244.99,23.69s-.04-.03-.04-.03.04.03.04.03Z"/>
  <path class="cls-1" d="M145.65,168.41c-.92.31-1.87.55-2.74.95-.61.28-1.11.78-1.67,1.18.2-.99.18-2.67.65-2.82,1.21-.39,2.64-.1,3.98-.08-.07.26-.15.51-.22.77Z"/>
  <path class="cls-1" d="M136.61,170.86c-.24-.81-.49-1.63-.9-3,.17-.06,1.14-.38,2.1-.71.2,1.12.51,2.24.53,3.36,0,.41-.7.84-1.07,1.25-.23-.31-.46-.63-.69-.94.18-.11.35-.22.53-.34-.06,0-.15-.02-.19.01-.11.11-.21.24-.31.36Z"/>
  <path class="cls-1" d="M140.84,183.53c-.57-.17-1.15-.35-1.72-.52.04-.21.09-.41.13-.62.6.13,1.21.26,1.81.39l-.22.75Z"/>
  <path class="cls-1" d="M142.54,178.9c-.13.55-.26,1.1-.39,1.66l.04-.04c-.6.05-1.21.1-1.81.15.73-.58,1.46-1.15,2.2-1.73l-.03-.03Z"/>
  <path class="cls-1" d="M140.03,174.17c.32.52.54.77.62,1.06.04.15-.17.37-.26.56-.18-.25-.41-.48-.52-.76-.06-.15.06-.38.17-.86Z"/>
  <path class="cls-1" d="M141.16,166.06c-.55.18-1.1.37-1.65.55-.05-.31-.1-.62-.16-.93.61.14,1.23.28,1.84.41l-.04-.04Z"/>
  <path class="cls-1" d="M140.4,158.55c-.49.32-.8.57-1.15.72-.11.05-.34-.19-.51-.3.28-.26.54-.57.86-.77.11-.06.39.16.8.35Z"/>
  <path class="cls-1" d="M184.76,177.49l-1.61-1.47h-.03c.54.49,1.07,1,1.61,1.51,0,0,.03-.04.03-.04Z"/>
  <path class="cls-1" d="M158.4,152.45c.44-.51.87-1.02,1.31-1.52.06.5.12,1,.18,1.5,0,0,.04-.04.04-.04-.52.01-1.04.02-1.57.03l.04.04Z"/>
  <path class="cls-1" d="M182.85,189.65c-.4.28-.62.5-.68.46-.19-.13-.4-.32-.47-.53-.05-.16.09-.38.14-.57.28.18.55.35,1.01.64Z"/>
  <path class="cls-1" d="M142.15,180.56c.33.24.66.48.99.72-.17.16-.33.33-.5.49-.15-.42-.3-.83-.45-1.25,0,0-.04.04-.04.04Z"/>
  <path class="cls-1" d="M130.03,189.82c-.71-.15-1.43-.3-2.14-.45.71.15,1.43.3,2.14.45Z"/>
  <path class="cls-1" d="M135.71,166.53c-.1.13-.2.35-.27.34-.17-.02-.33-.15-.49-.24.12-.09.23-.23.35-.25.12-.02.27.09.41.15Z"/>
  <path class="cls-1" d="M182.69,163.58c-.17.18-.34.37-.51.55-.16-.23-.5-.53-.45-.68.09-.24.45-.38.69-.56.09.23.18.46.27.69Z"/>
  <path class="cls-1" d="M140.24,172c-.13.1-.25.19-.37.28-.1-.17-.19-.34-.29-.5.14-.05.3-.16.42-.13.1.03.16.22.24.35Z"/>
  <path class="cls-1" d="M134.08,172.46c-.1.12-.17.29-.27.31-.1.02-.23-.13-.35-.2.08-.11.15-.28.25-.3.1-.02.23.12.37.19Z"/>
  <path class="cls-1" d="M162.03,153.89c.3-.34.61-.67.91-1.01.06.33.11.65.17.98-.36.01-.72.02-1.09.03Z"/>
  <path class="cls-1" d="M147.77,192.81c.55.34,1.09.68,1.64,1.03-.55-.34-1.09-.68-1.64-1.03Z"/>
  <path class="cls-1" d="M199.1,171.85c-.17.19-.35.38-.52.56-.53,0-1.06-.01-1.59-.02,0,0,.02.03.02.03.7-.19,1.4-.38,2.09-.58Z"/>
  <path class="cls-1" d="M135.1,125.65c-.43-.15-.86-.29-.14-.05-.6-.48-.25-.2.1.08l.03-.04Z"/>
  <path class="cls-1" d="M138.82,142.71c.51-.35,1.03-.7,1.54-1.04l-.04-.03c-.51.35-1.03.69-1.54,1.04l.03.03Z"/>
  <path class="cls-1" d="M142.64,175.33c.11.06.22.13.33.19-.13.07-.26.15-.39.19-.05.02-.14-.05-.2-.09.09-.1.18-.19.27-.29Z"/>
  <path class="cls-1" d="M168.39,157.31c.34-.32.68-.63,1.02-.95.02.3.04.61.07.91-.36.01-.72.02-1.08.03Z"/>
  <path class="cls-1" d="M145.57,171.67c-.3.02-.6.04-.9.05,0-.07.02-.14.02-.21.3.06.6.12.9.19,0,0-.03-.03-.03-.03Z"/>
  <path class="cls-1" d="M140.09,168.84c-.06.03-.12.06-.17.09-.03-.13-.08-.26-.09-.4,0-.02.11-.06.16-.09.04.13.07.26.11.39Z"/>
  <polygon class="cls-1" points="144.38 187.77 144.5 187.64 144.56 187.8 144.38 187.77"/>
  <path class="cls-1" d="M142.58,178.93c.35-.14.7-.29.09-.04.65-.02.27,0-.12,0,0,0,.03.03.03.03Z"/>
  <polygon class="cls-1" points="184.01 191.64 184.13 191.5 184.2 191.67 184.01 191.64"/>
  <path class="cls-1" d="M201.75,173.85c-.17.19-.34.37-.51.56-.19-.36-.39-.72-.58-1.08.38.03.76.06,1.13.09l-.03-.03c-.02.16-.02.31,0,.47Z"/>
  <path class="cls-1" d="M167.05,163.09c.14-.19.29-.37.43-.56-.16.17-.31.35-.47.52,0,0,.04.03.04.03Z"/>
  <path class="cls-1" d="M137.11,163.78c-.02.08-.03.15-.05.22-.13-.04-.26-.08-.38-.14-.01,0,.03-.13.04-.2.13.04.26.08.38.11Z"/>
  <polygon class="cls-1" points="176.58 180.39 176.47 180.52 176.41 180.37 176.58 180.39"/>
  <polygon class="cls-1" points="143.44 160.25 143.56 160.11 143.63 160.28 143.44 160.25"/>
  <path class="cls-1" d="M171.02,158.75c.37.17.74.35,1.11.52-.37-.17-.74-.35-1.11-.52Z"/>
  <polygon class="cls-1" points="143.53 173.14 143.54 173.3 143.4 173.23 143.53 173.14"/>
  <path class="cls-1" d="M146.73,145.09c.02-.33.05-.66.07-.99.06.01.12.02.17.04-.09.31-.19.61-.28.92,0,0,.03.03.03.03Z"/>
  <path class="cls-1" d="M209.87,169.36c-.02.08-.03.19-.08.22-.06.03-.15-.01-.24-.03.04-.12.08-.23.12-.35.06.05.13.11.19.16Z"/>
  <path class="cls-1" d="M188,167.03c.34,0,.68,0,1.02-.01,0,0,.04-.05.04-.05-.36,0-.73.02-1.09.02l.04.03Z"/>
  <path class="cls-1" d="M129.8,137.29l.47-.47c-.17.14-.34.29-.51.43l.04.03Z"/>
  <path class="cls-1" d="M183.45,186.4l-.42-.23c.13.09.26.18.39.27l.03-.03Z"/>
  <polygon class="cls-1" points="136.26 187 136.14 186.89 136.28 186.85 136.26 187"/>
  <path class="cls-1" d="M157.11,157.77l-.06-.61c.05.04.16.1.16.13-.03.15-.09.3-.14.46,0,0,.04.03.04.03Z"/>
  <polygon class="cls-1" points="131.81 166.3 131.61 166.32 131.69 166.14 131.81 166.3"/>
  <path class="cls-1" d="M145.89,165.82c-.22-.08-.43-.15-.65-.23.2.09.41.18.61.27,0,0,.04-.04.04-.04Z"/>
  <path class="cls-1" d="M141.2,166.1c.09-.19.18-.38.27-.57,0,.06.03.14,0,.18-.09.13-.21.24-.31.35,0,0,.04.04.04.04Z"/>
  <path class="cls-1" d="M137.69,127.18c-.06-.03-.12-.05-.18-.08.05.04.1.07.15.11l.03-.03Z"/>
  <path class="cls-1" d="M137.65,127.21c.07,0,.14.02.21.03-.06-.02-.12-.04-.18-.06,0,0-.04.03-.04.03Z"/>
  <path class="cls-1" d="M133.44,138.73c-.33.17-.67.34-1,.51v.02c.35-.17.7-.33,1.04-.5l-.04-.03Z"/>
  <path class="cls-1" d="M140.37,141.67c0-.08,0-.17,0-.25-.01.08-.02.15-.04.23,0,0,.04.03.04.03Z"/>
  <path class="cls-1" d="M160.98,153.9c.37-.01.74-.03,1.11-.04-.37.01-.74.03-1.11.04Z"/>
  <path class="cls-1" d="M136.66,157.28c.02-.34.03-.68.05-1.02l-.03.03c-.02.32-.03.63-.05.95,0,0,.03.03.03.03Z"/>
  <path class="cls-1" d="M165.76,155.3c-.11.07-.22.14-.32.21.04-.05.06-.14.12-.16.07-.03.16-.01.24-.02,0,0-.03-.04-.03-.04Z"/>
  <path class="cls-1" d="M136.63,157.24c0,.07-.01.14-.02.21.02-.06.04-.11.05-.17,0,0-.03-.04-.03-.04Z"/>
  <path class="cls-1" d="M167.34,157.32c.37-.01.74-.03,1.11-.04-.37.01-.74.03-1.11.04Z"/>
  <path class="cls-1" d="M145.13,162.17c0,.08-.02.16-.02.24.02-.07.04-.14.06-.21,0,0-.04-.03-.04-.03Z"/>
  <path class="cls-1" d="M142.58,162.86c-.02.06-.03.11-.05.17.03-.05.06-.09.08-.14l-.03-.03Z"/>
  <path class="cls-1" d="M166.56,165.15c.37-.02.73-.03,1.1-.05-.01.18-.03.37-.04.55,0,0,.03-.03.03-.03-.36-.16-.73-.32-1.09-.48Z"/>
  <path class="cls-1" d="M173.98,169.06c.37-.01.74-.03,1.11-.04-.37.01-.74.03-1.11.04Z"/>
  <path class="cls-1" d="M183.97,171.85c.06-.06.13-.11.19-.17-.07.05-.15.09-.22.14,0,0,.03.04.03.04Z"/>
  <path class="cls-1" d="M180.86,172.46c.36-.02.73-.03,1.09-.05,0,.19.01.38.02.57-.37-.17-.74-.35-1.11-.52Z"/>
  <path class="cls-1" d="M204.35,175.32c.37-.01.74-.02,1.11-.04-.37.01-.74.02-1.11.04Z"/>
  <path class="cls-1" d="M203.31,175.33c.37-.01.74-.03,1.11-.04-.37.01-.74.03-1.11.04Z"/>
  <path class="cls-1" d="M208.1,176.75c.02-.07.03-.14.05-.21-.03.06-.06.12-.1.18,0,0,.04.04.04.04Z"/>
  <path class="cls-1" d="M207.08,177.3c.34-.18.68-.36,1.02-.55,0,0-.04-.04-.04-.04,0,.19.01.39.02.58,0,0,.04-.04.04-.04-.35,0-.71.01-1.06.02,0,0,.03.03.03.03Z"/>
  <path class="cls-1" d="M209.67,178.76c.37-.01.74-.03,1.1-.04-.37.01-.74.03-1.1.04Z"/>
  <path class="cls-1" d="M124.22,186.89c-.37.01-.74.03-1.11.04.37-.01.74-.03,1.11-.04Z"/>
  <path class="cls-1" d="M124.72,187.93c0-.19-.02-.38-.02-.57,0,.19.02.38.02.57Z"/>
  <path class="cls-1" d="M95.2,190.44c0,.19.01.38.02.57,0-.19-.01-.38-.02-.57Z"/>
  <polygon class="cls-1" points="138.84 189.52 139.04 189.61 138.86 189.5 138.84 189.52"/>
  <path class="cls-1" d="M205.51,190.81c-.12-.02-.23-.04-.35-.07.05,0,.1-.02.15,0,.06.02.12.07.18.1,0,0,.03-.04.03-.04Z"/>
  <path class="cls-1" d="M135.07,125.68s.03-.04.03-.04-.03.04-.03.04Z"/>
  <polygon class="cls-1" points="127.13 135.31 127.19 135.21 127.09 135.27 127.13 135.31"/>
  <path class="cls-1" d="M127.09,135.27s.04.04.04.04c0,0-.04-.04-.04-.04Z"/>
  <path class="cls-1" d="M129.76,137.26s.04.03.04.03c0,0-.04-.03-.04-.03Z"/>
  <path class="cls-1" d="M133.48,138.77s-.04-.04-.04-.04c0,0,.04.04.04.04Z"/>
  <path class="cls-1" d="M132.44,139.24s.01.02.01.02c0,0-.01-.02-.01-.02Z"/>
  <path class="cls-1" d="M136.1,140.66s.04.03.04.03c0,0-.04-.03-.04-.03Z"/>
  <path class="cls-1" d="M138.79,142.68s.03.03.03.03c0,0-.03-.03-.03-.03Z"/>
  <path class="cls-1" d="M149.33,146.99s.04.04.04.04c0,0-.04-.04-.04-.04Z"/>
  <polygon class="cls-1" points="155.69 150.42 155.63 150.53 155.73 150.46 155.69 150.42"/>
  <path class="cls-1" d="M158.37,152.41s.04.04.04.04-.04-.04-.04-.04Z"/>
  <path class="cls-1" d="M186.47,153.01c0,.2.01.39.02.59,0-.2-.01-.39-.02-.59Z"/>
  <path class="cls-1" d="M136.71,156.26s-.03.03-.03.03.03-.03.03-.03Z"/>
  <path class="cls-1" d="M160.7,159.67s-.03-.03-.03-.03c0,0,.03.03.03.03Z"/>
  <path class="cls-1" d="M161.76,160.15s-.03-.03-.03-.03c0,0,.03.03.03.03Z"/>
  <path class="cls-1" d="M142.61,162.88s-.03-.03-.03-.03c0,0,.03.03.03.03Z"/>
  <path class="cls-1" d="M203.43,161.8c0,.19,0,.38.01.57-.19-.18-.39-.36-.58-.55.19,0,.38-.02.57-.03Z"/>
  <path class="cls-1" d="M166.59,164.6c0,.2.01.4.02.59,0-.2-.01-.4-.02-.59Z"/>
  <path class="cls-1" d="M167.62,165.65s.03-.03.03-.03c0,0-.03.03-.03.03Z"/>
  <path class="cls-1" d="M169.22,166.07s.03.03.03.03c0,0-.03-.03-.03-.03Z"/>
  <path class="cls-1" d="M170.28,166.56s.02.03.02.03c0,0-.02-.03-.02-.03Z"/>
  <path class="cls-1" d="M175.01,166.96c-.19,0-.38.02-.57.03,0-.19,0-.38-.01-.57.19.18.39.36.58.55Z"/>
  <polygon class="cls-1" points="187.97 166.99 187.92 167.11 188 167.03 187.97 166.99"/>
  <path class="cls-1" d="M176.12,169.48c0,.2.01.39.02.59,0-.2-.01-.39-.02-.59Z"/>
  <path class="cls-1" d="M181.92,172.93c.2.18.39.37.59.55-.2-.18-.39-.37-.59-.55Z"/>
  <path class="cls-1" d="M196.99,172.39s.02.03.02.03c0,0-.02-.03-.02-.03Z"/>
  <polygon class="cls-1" points="183.16 176.02 183.06 175.98 183.12 176.01 183.16 176.02"/>
  <path class="cls-1" d="M207.05,177.27s.03.03.03.03c0,0-.03-.03-.03-.03Z"/>
  <path class="cls-1" d="M179.07,179.84s-.03-.03-.03-.03c0,0,.03.03.03.03Z"/>
  <path class="cls-1" d="M212.85,180.74c.2,0,.4-.01.59-.02-.2,0-.4.01-.59.02Z"/>
  <path class="cls-1" d="M124.75,187.41l-.59-.56.59.56Z"/>
  <path class="cls-1" d="M183.42,186.43s.03-.03.03-.03c0,0-.03.03-.03.03Z"/>
  <path class="cls-1" d="M175.72,187.72s-.03.04-.03.04.03-.04.03-.04Z"/>
  <path class="cls-1" d="M138.86,189.5s-.03.03-.03.03c0,0,.03-.03.03-.03Z"/>
  <path class="cls-1" d="M136.77,190.61s.02-.03.02-.03c0,0-.02.03-.02.03Z"/>
  <path class="cls-1" d="M135.92,195.81s.03.03.03.03c0,0-.03-.03-.03-.03Z"/>
  <path class="cls-1" d="M223.23,179.34c.16-.36.32-.71.48-1.07.33.48,1.04,1.11.92,1.42-.38,1-1.06,1.89-2.23,2.6.28-.98.56-1.97.83-2.95Z"/>
  <path class="cls-1" d="M219.25,188.42c.15.12.36.23.34.28-.06.23-.19.44-.29.65-.14-.1-.4-.23-.39-.29.06-.22.21-.42.33-.64Z"/>
  <path class="cls-1" d="M204.56,210.62s.02-.02.03-.03c0,0-.03.03-.03.03Z"/>
  <path class="cls-1" d="M206.47,206.96s.03-.04.03-.04c0,0-.03.04-.03.04Z"/>
  <path class="cls-1" d="M203.06,213.84s.03-.04.03-.04c0,0-.03.04-.03.04Z"/>
  <path class="cls-1" d="M200.15,219.66s.03-.03.03-.03c0,0-.03.03-.03.03Z"/>
  <path class="cls-1" d="M268.74,49.92c-.02-.53-.04-1.07-.06-1.6.35-.17.7-.34,1.05-.51,0,0-.03-.03-.03-.03-.32.71-.64,1.43-.96,2.14Z"/>
  <path class="cls-1" d="M272.77,44.11l.02-.23c-.02.06-.04.13-.06.19,0,0,.03.03.03.03Z"/>
  <path class="cls-1" d="M269.73,47.8s-.03-.03-.03-.03c0,0,.03.03.03.03Z"/>
  <path class="cls-1" d="M111.57,199.28s.03-.04.03-.04-.03.04-.03.04Z"/>
  <path class="cls-1" d="M162.35,182.84c0-.08.02-.16.02-.24.12.03.23.07.35.1-.05.07-.08.16-.15.19-.06.02-.15-.03-.22-.05Z"/>
  <path class="cls-1" d="M283.81,63.91c0,.36.02.73.03,1.09-.2-.36-.4-.71-.59-1.07.19,0,.38-.01.57-.02Z"/>
  <path class="cls-1" d="M284.35,63.92c-.2,0-.39.01-.59.02.2,0,.39-.01.59-.02Z"/>
  <path class="cls-1" d="M258.82,93.38s-.03.04-.03.04.03-.04.03-.04Z"/>
  <path class="cls-1" d="M152.17,196.78c-.07,0-.14,0-.2,0,.06.01.11.03.17.04,0,0,.03-.03.03-.03Z"/>
  <path class="cls-1" d="M173.53,154.51c-.19.24-.39.48-.58.71-.07-.1-.13-.2-.2-.3.27-.13.54-.25.81-.38,0,0-.03-.03-.03-.03Z"/>
  <path class="cls-1" d="M179.48,158.4c-.08.16-.16.29-.23.43-.08-.09-.18-.17-.23-.28-.02-.04.05-.19.09-.2.11-.01.23.03.36.05Z"/>
  <path class="cls-1" d="M257.96,83.54c-.51.54-1.03,1.09-1.54,1.63.34-.81.69-1.63,1.03-2.44.17.27.34.54.51.81Z"/>
  <path class="cls-1" d="M201.79,173.42s-.02-.02-.03-.04c0,0,.03.04.03.04Z"/>
  <path class="cls-1" d="M219.2,76.56c.34-.55.68-1.1,1.02-1.65-.34.55-.68,1.1-1.02,1.65Z"/>
  <path class="cls-1" d="M263.91,105.67c0,.19.01.37.02.56-.19,0-.37.01-.56.02,0-.19-.01-.37-.02-.56.19,0,.37-.01.56-.02Z"/>
  <path class="cls-1" d="M264.41,105.12c0,.19.02.38.03.57-.19,0-.38,0-.57.01.18-.19.36-.39.54-.58Z"/>
  <path class="cls-1" d="M289.01,48.7c-.37-.35-.75-.7-1.12-1.05.37.35.75.7,1.12,1.05Z"/>
  <path class="cls-1" d="M289.43,46.55s.04.03.04.03c0,0-.04-.03-.04-.03Z"/>
  <g>
    <path class="cls-1" d="M208.88,77.45s-.02.07-.04.1c.02-.02.05-.04.07-.07,0,0-.04-.03-.04-.03Z"/>
    <path class="cls-1" d="M188.65,63.58c-.04.1-.08.21-.12.31.05-.09.1-.19.15-.28l-.03-.03Z"/>
    <path class="cls-1" d="M187.36,71.93c-.02.06-.04.12-.06.18.03-.05.06-.1.09-.15,0,0-.04-.03-.04-.03Z"/>
    <path class="cls-1" d="M204.22,63.04c-.09.26-.17.52-.26.78.1-.25.19-.5.29-.74l-.03-.03Z"/>
    <path class="cls-1" d="M196.22,71.65c-.02.09-.05.18-.08.27.04-.08.07-.16.11-.24l-.03-.03Z"/>
    <path class="cls-1" d="M188.11,79.17c-.02.07-.04.14-.06.21.03-.06.06-.12.1-.18l-.04-.03Z"/>
    <path class="cls-1" d="M203.91,69.28c-.05.14-.1.28-.15.42.06-.13.13-.26.19-.39l-.04-.03Z"/>
    <path class="cls-1" d="M208.65,86.79s-.01.07-.02.1c.02-.02.04-.04.05-.07l-.04-.03Z"/>
    <path class="cls-1" d="M183.2,72.07c-.03.08-.06.16-.09.25.04-.07.08-.15.12-.22,0,0-.03-.03-.03-.03Z"/>
    <path class="cls-1" d="M158.52,81.18s-.02.06-.03.09c.03-.02.05-.05.08-.07,0,0-.04-.02-.04-.02Z"/>
    <path class="cls-1" d="M170.17,86.04s0,.04,0,.06c.01-.01.02-.02.03-.03l-.03-.03Z"/>
    <path class="cls-1" d="M162.58,76.94c-.07.17-.14.34-.2.51.08-.16.16-.32.24-.48,0,0-.04-.03-.04-.03Z"/>
    <path class="cls-1" d="M176.32,68.66c-.12.27-.23.54-.35.82.13-.26.26-.52.38-.78,0,0-.04-.03-.04-.03Z"/>
    <path class="cls-1" d="M192.25,47.84c-.04.09-.08.19-.12.28.05-.08.11-.17.16-.25l-.04-.03Z"/>
    <path class="cls-1" d="M184.01,66.25s0-.07,0-.11c-.01.03-.02.05-.04.08,0,0,.04.03.04.03Z"/>
    <path class="cls-1" d="M231.77,48.05c-.18.37-.36.74-.54,1.12.19-.36.38-.72.57-1.08l-.04-.03Z"/>
    <path class="cls-1" d="M155.79,78.1s0,0,0,0c-.01,0-.03-.02-.04-.03l.03.03Z"/>
    <path class="cls-1" d="M158.52,80.13s-.02.04-.03.06c0,0,0,0,0,0l.03-.06Z"/>
    <path class="cls-1" d="M159.42,76s0,.04,0,.06c.02,0,.03-.02.05-.03l-.04-.03Z"/>
    <path class="cls-1" d="M136.14,140.7s.02-.08.03-.13c-.02.03-.05.06-.07.09l.04.03Z"/>
    <path class="cls-1" d="M145.85,165.86s.03-.02.05-.03c0,0,0,0-.01-.01l-.03.04Z"/>
    <path class="cls-1" d="M179.04,179.81s0,.04,0,.06c0,0,.02-.02.03-.03,0,0-.03-.03-.03-.03Z"/>
    <path class="cls-1" d="M145.17,162.2s.05,0,.07,0c-.03-.01-.07-.03-.1-.04l.03.03Z"/>
    <path class="cls-1" d="M272.73,44.08c-.01.07-.03.13-.04.2.03-.05.05-.11.08-.16l-.03-.03Z"/>
    <path class="cls-1" d="M17.94,473.65c6.84-1.92,12.41-5.43,16.71-10.73,7.88-9.73,15.64-19.59,22.9-29.79,6.11-8.57,11.82-17.48,17-26.64,5.48-9.69,10.45-19.7,15.09-29.83,9.35-20.44,18.15-41.12,27.5-61.56,4.73-10.35,9.36-20.88,15.43-30.44,12.01-18.92,29.9-29.52,51.88-33.35,2.12-.37,4.46-.44,6.26-1.45,5.15-2.88,8.86-7.23,11.58-12.5,6.42-12.44,13-24.8,19.44-37.22,5.13-9.89,10.05-19.89,15.25-29.74,6.61-12.52,13.27-25.03,20.17-37.39,4.59-8.22,9.65-16.17,14.47-24.26,4.26-7.15,8.56-14.29,12.71-21.5,3.29-5.72,6.37-11.55,9.55-17.34-.27-.16-.54-.31-.81-.47-2.74,3.53-5.48,7.06-8.23,10.6l.05-.05c-2.49,3.66-4.98,7.33-7.47,10.99,1.97-3.3,3.94-6.59,5.91-9.89l.04.04c-.18-.17-.36-.34-.55-.51-.01-.36-.03-.71-.04-1.07.17-.18.34-.37.51-.55l-.05.04c1.65-2.67,3.3-5.34,4.96-8.01l-.04.05c.94-2.25,1.89-4.5,2.83-6.74-1.72,2.12-3.44,4.23-5.15,6.35,3-4.65,6.02-9.28,8.98-13.95,2.46-3.89,1.92-6.9-2.04-9.27-5.58-3.33-11.34-6.36-17.01-9.55-2.14-1.2-3.64-.98-4.91,1.39-.77,1.43-2.18,2.52-3.33,3.76.21-1.07.42-2.13.63-3.2-.2-.06-.39-.12-.59-.18-.86,2.22-1.71,4.43-2.57,6.65-.19,0-.37.01-.56.02l.03.04c-.62,1.68-1.15,3.41-1.89,5.03-1.16,2.54-2.44,5.04-3.73,7.51-1.59,3.05-3.24,6.06-4.87,9.09.83-1.93,1.71-3.84,2.42-5.81.2-.57-.16-1.34-.29-2.03,0,0,.01-.01.02-.02,1.86-4.42,3.73-8.84,5.59-13.26-1.22,2.26-2.44,4.52-3.65,6.78-.26-.09-.52-.18-.79-.27,1.32-3.53,2.63-7.06,3.95-10.6l-.03.03c.81-2.13,1.62-4.27,2.43-6.4-3.02,4.61-5.67,9.32-8.16,14.12-2.58,4.97-5,10.02-7.48,15.04.01-.01.02-.02.03-.03-1.32,2.68-2.65,5.35-3.97,8.03,0,0,0,0,0,0-1.65,2.67-3.3,5.33-4.94,8l.04-.04c-.98,1.43-1.97,2.86-2.95,4.3l.03.03c-1.62,2.52-3.23,5.04-4.85,7.56,2.02-4.52,4.05-9.03,6.05-13.56,2.77-6.27,5.52-12.55,8.28-18.83-.17,0-.33.01-.5.02-2.46,4.07-4.93,8.14-7.39,12.21l.03-.03c-1.91,3.74-3.73,7.52-5.8,11.16-.36.63-1.72.7-2.65,1,.65-1.21,1.3-2.43,1.95-3.64l-.03.03c-.01-.66-.02-1.31-.03-1.97-4.02,7.02-8.04,14.04-12.07,21.06.54-3.35,1.97-6.24,3.35-9.15.44-.92.78-1.88,1.17-2.82-.69.72-1.37,1.44-2.06,2.15-.45.46-.92.91-1.38,1.36.31-1.04.51-2.13.96-3.1,2.58-5.57,5.24-11.1,7.8-16.68.11-.24-.42-.78-.68-1.19,0,0,0,0,0-.01-.02-.5-.04-.99-.06-1.49l-1.41,1.38c.47-.83.94-1.66,1.41-2.49.16-.35.33-.71.49-1.06l-.03.06c.16-.35.32-.7.48-1.06-.02-.51-.04-1.02-.06-1.53-.66.54-1.54.97-1.92,1.67-1.79,3.2-3.39,6.5-5.15,9.71-.64,1.17-1.5,2.21-2.27,3.31.13-.8.26-1.61.39-2.41-.65.81-1.29,1.63-1.94,2.44.31-1.18.61-2.36.92-3.54-.33.16-.67.33-1,.49.64-1.21,1.28-2.42,1.93-3.64,1-2.45,1.89-4.94,3.01-7.33,2.64-5.64,5.36-11.24,8.06-16.86-2.58,4.86-5.13,9.75-7.8,14.57-.98,1.77-2.3,3.35-3.47,5.02,0,0,.01,0,.02,0-2.27,4.57-4.54,9.13-6.81,13.7v.05c-1.13,2.46-2.26,4.91-3.4,7.37,0,0,0,0,.01,0-.6.87-1.2,1.76-2.21,3.24.44-2.61.74-4.41,1.05-6.21-.46.58-.98,1.12-1.34,1.76-2.02,3.53-4,7.09-6,10.64.21-.87.37-1.75.67-2.58,2.28-6.39,4.58-12.77,6.88-19.16-.69.68-1.58,1.26-1.98,2.08-1.27,2.63-2.18,5.44-3.57,7.99-.5.91-1.97,1.29-2.99,1.91-.08-.7-.42-1.49-.21-2.08,1.3-3.57,2.79-7.07,4.08-10.64,1.16-3.19,2.15-6.45,3.21-9.67-2.78,5.25-4.88,10.73-7.08,16.16-2.65,6.52-5.37,13.01-8.07,19.52,1.29-3.88,2.55-7.77,3.9-11.63,2.5-7.17,5.07-14.32,7.61-21.48-1.18,2.46-2.36,4.92-3.55,7.38-.19-.08-.37-.16-.56-.24,1.44-4.34,2.87-8.69,4.31-13.03-2.5,6.43-5.01,12.86-7.51,19.29,0,0,.02,0,.03,0-1.74,4.13-3.47,8.27-5.21,12.4.16-2.62,0-5.3.59-7.82,1.22-5.3,2.83-10.52,4.28-15.76-2.01,4.42-4.03,8.84-6.04,13.26-.19-.08-.38-.16-.57-.24,2.84-7.28,5.67-14.55,8.51-21.83,0,0-.03.04-.03.03.14-.51.28-1.02.43-1.53l-.03.05c.16-.53.32-1.06.49-1.59.17-.36.33-.73.5-1.09l-.04.05c.17-.37.35-.74.52-1.11l-.04.02c.07-.72.14-1.45.31-3.27-4.88,12.19-9.35,23.35-13.82,34.52l-.93-.32c.88-3.16,1.77-6.32,2.65-9.48-2.15,4.02-4.29,8.03-6.44,12.05-.09-.04-.18-.09-.26-.13,1.98-6.4,3.97-12.8,5.95-19.19-.45.74-.94,1.46-1.33,2.23-1.49,2.98-2.93,5.99-4.4,8.98.23-.91.42-1.84.75-2.72,2.05-5.58,4.13-11.14,6.2-16.7-.98,1.86-2.03,3.68-2.9,5.59-2.38,5.21-4.68,10.47-7.01,15.7,1.5-4.29,3-8.58,4.5-12.87-1.04,1.87-2.06,3.74-3.13,5.59-.23.39-.66.67-1,1-.14-.52-.53-1.15-.37-1.54,1.74-4.18,3.58-8.33,5.39-12.49,0,.42,0,.84.01,1.26.99-2.08,1.97-4.17,2.96-6.25,0,.01-.02.03-.03.04,1.73-3.94,3.46-7.87,5.19-11.81-2.21,3.49-4.62,6.89-6.55,10.53-2.24,4.22-4.04,8.67-6.03,13.02l.03-.03c-1.48,2.66-2.96,5.32-4.44,7.98,0,0,.04-.04.04-.04-1.65,4.25-3.29,8.51-4.96,12.74-.13.34-.54.57-.82.85-.16-.27-.5-.58-.45-.8.38-1.62.84-3.22,1.27-4.83l-.03.03c0-.49,0-.98,0-1.47-.5.46-1,.93-1.5,1.39.38-1.2.7-2.42,1.18-3.57,2.01-4.82,4.07-9.63,6.12-14.44-2.46,4.98-4.92,9.96-7.36,14.95-1.9,3.88-3.76,7.77-5.64,11.65-.2-.08-.4-.17-.6-.25.63-1.9,1.25-3.81,1.97-5.98-.77.64-1.3,1.09-2.08,1.74.84-4.7,1.61-9.02,2.39-13.35-.27-.1-.54-.19-.81-.29-.87,2.09-1.73,4.18-2.6,6.27,0,0,0,0,.01.01-1.6,2.72-3.2,5.43-4.8,8.15,1.98-4.98,3.96-9.95,5.94-14.93-3.14,6.3-6.28,12.59-9.42,18.89-.04-.02-.08-.03-.12-.05,1.88-5.01,3.77-10.01,5.65-15.02-.3.28-.61.56-.91.84.31-.64.61-1.29.92-1.93.17-.37.34-.74.51-1.12l-.03.06c.15-1.03.29-2.05.44-3.07-1.2.68-2.41,1.36-3.61,2.04.55.37,1.1.74,1.65,1.11-.34.52-.67,1.05-1.01,1.57l.03-.04c-.68,1.25-1.36,2.49-2.04,3.74-.32,0-.63-.01-.95-.02.09-.66.18-1.31.27-1.97-.14-.03-.29-.06-.43-.09-3.5,7.48-7.01,14.97-10.51,22.45-.31-.15-.63-.3-.94-.44,3.99-9.64,7.98-19.28,11.97-28.93-.09-.04-.18-.08-.27-.11-4.77,9.39-9.54,18.79-14.68,28.91-.15-1.38-.21-1.89-.37-3.31-2.2,4.71-4.03,8.63-5.86,12.55-.45-1.01-.18-1.8-.16-2.6.04-1.21-.1-2.43-.16-3.65-.78.8-1.64,1.53-2.33,2.4-1.25,1.58-2.4,3.23-3.59,4.85-.36.01-.72.02-1.09.03,0,0,.04.04.04.04-.35,1.09-.71,2.18-1.03,3.28-.11.37.03.84-.14,1.17-1.67,3.34-2.95,7-5.19,9.9-2.22,2.87-1.1,8-6.04,8.97-.13.02-.16.54-.23.83-.57,2.15-.79,4.47-1.76,6.42-5.21,10.48-10.67,20.84-15.92,31.3-1.77,3.53-3.16,7.25-4.85,10.83-.27.58-1.15,1.04-1.83,1.24-1.08.31-3.03.06-3.23.57-.88,2.32-2.36,5.23-1.63,7.17,2.31,6.08,5.96,11.65,8.24,17.74,1.54,4.1,1.67,8.74,2.38,13.14,2.33,14.35,2.29,28.68-3.84,42.06-5.11,11.14-11.31,21.8-17.37,32.48-5.16,9.09-10.82,17.91-16.25,26.84,0,0,.03-.03.03-.03-.65,1.07-1.3,2.13-1.95,3.2l-.04-.02c.01.36.02.71.04,1.07-.18,0-.37.01-.55.02l.04.04c-4.64,7.59-9.23,15.21-13.93,22.76-11.03,17.72-19.42,36.68-26.76,56.16-5.59,14.83-11.07,29.68-13.46,45.48-1.34,8.89,9.01,18.92,17.82,16.45ZM187.05,58.25s-.05.07-.08.1c.02-.09.04-.18.07-.27,0,.06.03.13.01.17ZM186.91,58.54c0,.47.02.93.02,1.39-.62.82-1.23,1.64-1.85,2.46.61-1.28,1.22-2.57,1.82-3.85ZM184.13,64.59s-.04.06-.07.08c.02-.08.05-.16.07-.24,0,.05.02.12,0,.16ZM161.88,84.89c-.06.05-.12.1-.19.15-.11-.23-.23-.46-.34-.69.18.18.35.36.53.55ZM114.73,200.7s.01,0,.02,0c2.13,1.16,4.27,2.32,6.4,3.49,0-.01,0-.02,0-.03,1.13.18,2.31.21,3.35.6,1.05.39,1.95,1.17,2.92,1.77l.04-.04c-.12.26-.35.75-.34.76,3.11,1.6,6.23,3.16,9.36,4.72l-.04-.03c1,.78,2,1.57,3,2.36-7.92-3.94-15.85-7.84-23.74-11.82-3.4-1.72-6.72-3.61-10.07-5.43,1.99.74,3.98,1.47,5.96,2.21l-.03.04c1.05.47,2.11.95,3.16,1.42ZM114.83,200.66c.07-.03.14-.06.22-.09-.05.03-.09.07-.14.09-.02,0-.05,0-.07,0ZM116.06,197.42c0-.08.01-.15.02-.23.11.03.22.06.32.1-.04.06-.08.15-.13.18-.05.02-.14-.03-.21-.05ZM167.48,217.29s-.06-.04-.09-.06c.08.02.17.04.25.06-.06,0-.12.02-.17,0ZM169.86,230.05l-.09-.06.08.05s.16.08.16.08l-.16-.07ZM162.9,188.06c-1.49-.04-2.98-.98-4.42-1.67-.17-.08-.2-1.04.03-1.26,1.5-1.43,3.08-2.77,4.64-4.13.45,1.17.9,2.34,1.52,3.93-.56,1.04-1.19,3.14-1.77,3.13ZM166.1,187.25s-.13.05-.19.07c-.04-.06-.08-.13-.13-.19.1-.03.2-.07.3-.1,0,.07.04.16.01.22ZM176.69,233.49s-.03-.02-.03-.02l.09.05-.06-.03ZM179.16,192.6l.09-.15.06.16-.15-.02ZM183.75,220.09c2.17,1.65,4.34,3.3,6.5,4.95-2.42-1.26-4.85-2.52-7.27-3.78.26-.39.51-.78.77-1.17ZM180.26,193.83c.05-.18.35-.37.55-.39.17-.01.36.22.54.35-.18.15-.36.31-.84.72-.1-.24-.31-.49-.26-.67ZM188.18,228.39c.6.14,1.19.29,1.79.43-.11.22-.22.43-.32.65-.49-.36-.97-.72-1.46-1.08ZM231.26,128.91s-.01-.1,0-.15c.01-.02.03-.04.05-.07-.02.07-.03.14-.05.21ZM230.52,98.51v.18s-.14-.07-.14-.07l.14-.11ZM242.44,147.98l.04.03s-.04-.03-.04-.03ZM238.13,115.63c.18-.19.35-.37.53-.56-.12.23-.24.45-.36.68l-.17-.12ZM244.7,112.82c.2.2.6.57.59.58-.95,1.08-1.94,2.14-2.92,3.2.01-.03.02-.06.04-.09.76-1.23,1.53-2.47,2.29-3.7ZM252.75,72.86s-.54-.09-.83-.15c.59-1.32,1.17-2.64,1.76-3.96-.3,1.37-.59,2.74-.93,4.1ZM272.52,57.73c-.55,1.27-1.11,2.53-1.66,3.8-.24-.14-.47-.28-.71-.42.79-1.13,1.58-2.25,2.37-3.38ZM249.79,103.09c-.1.16-.36.22-.56.32-.04-.14-.07-.29-.13-.49.17-.12.36-.26.55-.39.05.19.21.45.14.57ZM259.39,80.95c-.49.85-.98,1.7-1.47,2.56-.62,1.19-1.25,2.38-1.87,3.57.14-.65.27-1.29.41-1.94-.5.44-1,.88-2.17,1.89,1.43-2.97,1.31-6.1,5.09-6.08ZM259.94,79.65c.07.03.13.06.2.09-.2.32-.4.64-.6.96.13-.35.26-.7.4-1.05ZM259.05,76.35c.37-.55.73-1.11,1.1-1.66-.13.65-.27,1.3-.4,1.95-.23-.1-.47-.19-.7-.29ZM258.05,115.19c-.14.18-.33.33-.5.48-.06-.12-.19-.26-.16-.35.07-.22.22-.42.4-.76.17.4.3.58.26.63ZM254.49,102.69c.2-.76.4-1.52.59-2.28.2.09.41.18.61.27-.4.67-.8,1.34-1.21,2.01ZM252.7,96.49c-.1-.18-.33-.41-.28-.53.11-.28.35-.52.54-.77.13.16.25.31.43.53-.27.3-.47.53-.68.77ZM254.33,103.01c-.1.24-.19.48-.29.72-.06-.03-.13-.06-.19-.09.16-.21.32-.42.48-.63ZM252.34,106.51c.06-.12.12-.24.17-.36.13.14.27.27.4.41-.19-.01-.38-.03-.58-.04ZM256.38,117.59c.06.02.13.05.19.07-.15.22-.3.44-.45.66.09-.24.18-.49.26-.73ZM250.25,95.34c1.1-2.29,2.2-4.59,3.61-7.54q.6,2.76-3.61,7.54ZM261.53,108.71c.06-.11.22-.18.33-.26.06.11.18.26.15.32-.06.12-.21.18-.35.28-.06-.12-.17-.27-.14-.34ZM274.13,88.37c-.1.23-.2.46-.31.69-.06-.03-.12-.06-.18-.1.16-.2.33-.39.49-.59ZM267.64,74.24s-.03.05-.05.07c.02-.07.03-.14.05-.22,0,.05.02.11,0,.15ZM266.64,68.41s0-.1,0-.14c0-.02.02-.04.03-.05-.01.06-.02.13-.04.19ZM267.12,99.73c-.76,1.46-1.51,2.92-2.27,4.38l.03-.04c-.17.36-.33.71-.5,1.07,0,.18.02.36.03.55-.17.17-.34.35-.51.52-.12.36-.24.72-.36,1.07-.04-.35-.08-.7-.13-1.05,0-.18-.01-.35-.02-.53.98-2.12,1.95-4.23,2.93-6.35.27.12.53.25.8.37ZM268.78,64.41c.03-.13.06-.26.09-.39.07.04.15.08.22.12-.1.09-.21.18-.31.27ZM266.6,62.4l.06-.14.11.13-.16.02ZM263.78,68.02c.58-1.5,1.17-3.01,1.75-4.51.29.15.57.3.86.45-.87,1.35-1.74,2.71-2.61,4.06ZM263.27,69.08c-.1-.07-.19-.15-.29-.22.21-.17.41-.35.62-.52-.11.25-.22.5-.32.75ZM262.89,74.89c-.06-.04-.12-.09-.18-.13.19-.19.37-.38.56-.57-.13.23-.25.47-.38.7ZM264.06,82.02c-1.75,3.8-3.51,7.6-5.27,11.39l.03-.04c-.27.79-.53,1.59-.8,2.38.59-5.23,2.69-9.77,6.03-13.74ZM260.25,74.48c0-.05.01-.1.04-.15.47-.9.94-1.79,1.41-2.68.21.21.61.6.6.62-.66.76-1.35,1.48-2.04,2.21ZM246.54,89.85c-.07.08-.15.16-.23.23.07-.14.14-.28.21-.43,0,.07.04.16.01.19ZM244.6,106.5c-.22.59-.45,1.18-.67,1.77-.17-.1-.34-.2-.5-.3.39-.49.79-.98,1.18-1.48ZM242.32,116.85c.23.43.46.85.69,1.28-.14.05-.28.11-.43.16-.09-.48-.18-.96-.27-1.43ZM246.02,109.47c.62-1.37,1.23-2.74,1.85-4.11.21.08.41.16.62.24-.53,1.44-1.06,2.87-1.59,4.31-.29-.15-.59-.29-.88-.44ZM283.17,74.83c.13-.31.26-.61.39-.92.02.31.04.61.05.92-.15,0-.3,0-.44,0ZM294.07,56.17c-.19.2-.38.41-.56.61.09-.26.18-.52.27-.78.1.05.2.11.3.16ZM291.75,52.05c-2.42,3.98-4.95,7.9-7.44,11.83-.17.37-.34.74-.51,1.11-1.54,3.15-3.07,6.29-4.61,9.44,1.36-3.49,2.72-6.98,4.09-10.47,2.21-4.4,4.37-8.83,6.67-13.18.25-.47,1.3-.5,1.98-.74-.05.68.13,1.5-.18,2.02ZM284.7,49.34l.03-.21.16.13-.19.08ZM287.93,47.67c.5-.35.99-.7,1.49-1.05-.15.68-.29,1.36-.44,2.04-.21.84-.43,1.68-.64,2.51-.23-.04-.47-.07-.7-.11.1-1.13.19-2.27.29-3.4ZM286.84,46.76s.08.12.12.18c-.04.06-.1.19-.11.18-.12-.05-.23-.11-.34-.17.11-.07.21-.14.33-.19ZM283.69,43.63s.6.24.59.28c-.26,1.04-.48,2.11-.9,3.09-.21.5-.76.86-1.17,1.28.02-.67-.07-1.37.13-1.98.32-.94.87-1.8,1.35-2.67ZM280.62,44.34c.56,1.45,0,3.34-.1,5.05-.35-.04-.69-.08-1.04-.12.14-.68.28-1.35.46-2.27-1.55,1.84-2.91,3.46-4.27,5.07.95-2.11,1.9-4.21,2.85-6.32-.11-.08-.21-.17-.32-.25-1.13,1.74-2.25,3.49-3.38,5.23-.15-.09-.3-.18-.45-.26.82-2.52,1.64-5.04,2.46-7.56,1.33.45,3.46.59,3.78,1.42ZM268.72,48.33c.92-2.66,1.82-5.33,2.77-7.98.13-.35.71-.89.74-.87,1.55,1.11,3.07,2.27,4.59,3.42,0,0,0,0,0,0-1.96,3.11-3.93,6.22-5.89,9.33.58-2.66,1.17-5.31,1.76-7.97-2.06,4.39-4.13,8.78-6.19,13.16.75-2.53,1.51-5.05,2.26-7.58-.79,1.21-1.58,2.41-2.37,3.62-.2-.11-.39-.23-.59-.34.97-1.6,1.94-3.2,2.91-4.8ZM265.89,59.02c-.24.58-.49,1.16-.73,1.74-.15-.1-.31-.19-.46-.29.4-.48.8-.97,1.2-1.45ZM264.29,63c-1.01,1.99-2.03,3.97-3.04,5.96.77-2.09,1.55-4.18,2.32-6.26l.72.31ZM263.43,58.68c-.17.19-.34.38-.51.56.11-.23.23-.45.34-.68.06.04.11.07.17.11ZM260.36,64.95c-.11.21-.22.42-.33.63-.05-.03-.1-.07-.16-.1.16-.18.32-.35.49-.53ZM257.47,49.38c.14-.22.1-.16,0,0h0ZM257.35,49.59h0s.04-.07.06-.1c-.02.03-.04.07-.06.1ZM255.79,52.58c-.23.6-.45,1.19-.68,1.79-.17-.1-.34-.21-.5-.31.39-.49.79-.99,1.18-1.48ZM253.69,56.24c.15.06.3.12.44.18-.3.71-.59,1.42-.89,2.14-.16-.07-.32-.13-.48-.2.31-.71.61-1.41.92-2.12ZM253,60.33l-.04-.03s.04.03.04.03ZM252.24,62.29c-.38.53-.76,1.05-1.14,1.58.16-.62.33-1.24.49-1.85.22.09.43.18.65.28ZM252.54,66.3c-.97,1.74-1.93,3.48-2.9,5.22l-.94-.66c1.28-1.52,2.56-3.04,3.84-4.55ZM249.85,78.4s.3.2.46.31c-.2.24-.4.48-.69.84-.18-.22-.41-.43-.38-.48.17-.25.38-.49.62-.68ZM246.05,77.7l-1.23.56c.16-.38.33-.77.49-1.15.25.2.49.4.74.6ZM241.31,91.42c.17.1.34.21.51.31-.4.52-.8,1.04-1.2,1.55.23-.62.46-1.24.69-1.86ZM237.52,95.73c-.79,1.13-1.58,2.26-2.37,3.39.54-1.27,1.08-2.54,1.62-3.81.25.14.5.28.75.42ZM237.52,118.02c-.55.64-1.11,1.29-1.66,1.93.39-.76.77-1.53,1.16-2.29.17.12.34.24.5.36ZM229.33,85.62c-.04.46-.09.93-.13,1.39l-.43-.13c.19-.42.38-.84.56-1.27ZM228.84,89.15c-.89,1.7-1.78,3.41-2.66,5.11.54-1.83,1.08-3.66,1.63-5.48.35.13.69.25,1.04.38ZM224.29,98.34c-.01.07-.03.15-.04.22-.07.03-.15.09-.21.07-.05-.01-.07-.12-.1-.18.12-.04.23-.07.35-.11ZM220.16,92.77c-.5,1.29-1.01,2.57-1.51,3.86-.26-.13-.53-.27-.79-.4.77-1.15,1.54-2.3,2.31-3.46ZM217.92,89.17s.03-.2.08-.22c.12-.05.25-.04.38-.05-.04.16-.09.31-.13.47-.12-.06-.24-.11-.33-.19ZM227.37,73.83c-.62,1.14-1.24,2.28-1.86,3.42-.01-.49-.02-.98-.03-1.46.63-.65,1.26-1.31,1.9-1.96ZM225.42,77.4c-.29.51-.58,1.01-.87,1.52-.01-.33-.03-.67-.04-1,.3-.17.61-.34.91-.52ZM219.79,80.23c-.15.64-.3,1.28-.45,1.92-.23-.1-.45-.2-.68-.3.38-.54.75-1.08,1.13-1.63ZM221.18,68s-.05.07-.08.1c.03-.09.05-.18.08-.27,0,.06.03.13,0,.17ZM220.99,68.24c-.32.63-.63,1.26-.95,1.89-.01-.47-.03-.93-.04-1.4.33-.17.66-.33.99-.5ZM217.14,79.56c-1.12,3.26-2.24,6.52-3.36,9.77-.43-.17-.85-.35-1.28-.52,1.55-3.08,3.1-6.17,4.64-9.25ZM224.83,175.03c.27-.66.83-1.22,1.05-1.89.25-.76.26-1.59.38-2.39.37.49.71,1,1.12,1.46.14.15.47.29.65.23,5.21-1.64,2.35,1.55,1.64,2.95-11.1,21.99-22.25,43.95-33.48,65.87-.31.61-1.97,1.23-2.35.96-1.1-.81-2.86-2.58-2.61-3.08,1.84-3.62,1.91-8.36,6.21-10.53.25-.13.54-.6.49-.85-.61-3.09.9-5.59,2.23-8.14l-.03.03c.98-1.95,1.97-3.9,2.95-5.85l-.03.04c.51-1.08,1.02-2.17,1.53-3.25l-.03.03c.65-1.23,1.29-2.46,1.94-3.69,0,0-.03.04-.03.04,2.53-4.47,4.94-9.01,7.62-13.39,2.93-4.81,6.11-9.47,9.17-14.19.16-.36.32-.73.48-1.09.36-1.09.66-2.2,1.09-3.26ZM215.78,178.19c-.62.78-1.54,1.32-2.36,1.94.08-.4.11-.81.27-1.17.38-.87.83-1.71,1.25-2.56.31.62,1.02,1.57.84,1.79ZM216.57,182.74c-.1.07-.2.14-.3.21.03-.06.04-.14.09-.16.06-.03.14-.04.21-.05ZM217.8,178.55s.17-.13.2-.1c.11.07.2.18.3.29-.15.08-.29.16-.42.23-.03-.14-.08-.28-.08-.42ZM217.63,183.54c.15-.1.3-.19.45-.29-.1.14-.2.28-.3.43-.05-.05-.1-.09-.15-.14ZM211.44,88.6c-.18.38-.36.76-.53,1.14.04-.43.09-.85.13-1.28.13.05.27.09.4.14ZM209.81,89.86c.34,0,.69,0,1.03.01-.42,1.1-.84,2.19-1.26,3.29-.14-.04-.28-.07-.42-.11.22-1.06.43-2.13.65-3.19ZM220.26,166.75l-.53.99c-1.01-.72-2.02-1.43-3.03-2.15,1.19.39,2.37.77,3.56,1.16ZM204.45,100.57c.09.08.18.16.25.26.01.02-.08.11-.12.17-.09-.08-.19-.15-.28-.23.06-.08.11-.14.15-.2ZM199.24,103.83c-.04.26-.07.52-.11.78,0,0-.13-.01-.19-.02.1-.25.21-.5.31-.75ZM197.36,108.67c-.13.21-.26.41-.38.62.07-.23.14-.46.22-.7l.17.07ZM191.19,95.75c-.16.67-.32,1.34-.47,2.01-.23-.1-.46-.2-.69-.31.39-.57.78-1.14,1.17-1.71ZM191.99,103.52c-.05.27-.1.53-.15.8-.1-.04-.2-.07-.31-.11.15-.23.31-.46.46-.69ZM177.96,86.96c-.06.09-.1.16-.13.21.04-.06.08-.13.13-.21h0ZM177.76,87.27s-.03.04,0,0h0ZM164.41,96.88c-.19.19-.38.38-.57.57.13-.23.26-.47.39-.7.06.04.12.09.18.13ZM161.46,99.33c.04-.06.03-.05,0,0h0ZM161.38,99.46c-.03.05-.07.11-.11.17h0c.04-.07.08-.13.11-.17ZM151.93,87.5c.13-.27.38-.48.58-.71.09.18.3.41.25.54-.1.28-.33.51-.67.98-.1-.45-.23-.68-.16-.81ZM151.51,89.67c.08-.06.38.16.76.33-.35.32-.56.59-.83.72-.1.05-.35-.2-.53-.31.19-.25.35-.55.6-.74ZM137.44,106.05c-.12.37-.25.74-.37,1.11-.07-.03-.15-.06-.22-.09.2-.34.39-.68.59-1.02ZM128.16,119.93l.17.13c-.03.07-.04.16-.09.19-.05.03-.13,0-.2,0,.04-.1.08-.21.13-.31ZM93.18,188.72c5.86-12.02,11.79-24,17.77-35.96,2.67-5.33,5.49-10.58,8.28-15.84,2.58-4.86,5.11-9.76,7.95-14.47.49-.81,2.8-1.42,3.68-.97,16.01,8.17,31.94,16.52,47.88,24.84.28.15.48.44.71.68-.63-.04-1.26-.09-1.89-.13-.09.2-.18.4-.27.61,3.05,1.85,6.1,3.7,9.15,5.56,0,.19.02.37.02.56.36.16.72.32,1.08.49l-.03-.03c5.12,2.61,10.24,5.22,15.36,7.83.18-.02.35-.03.53-.05,0,.18,0,.37.01.55,4.32,2.28,8.63,4.56,12.95,6.85-.1.24-.21.47-.31.71-1.97-.67-3.95-1.34-5.92-2-.17.2-.33.4-.5.6,2.68,2.08,5.37,4.16,8.05,6.24-9.82-4.72-19.71-9.3-29.44-14.19-14.82-7.46-29.54-15.11-44.27-22.73-5.53-2.86-10.96-5.91-16.45-8.83-1.03-.55-2.65-2.11-1.93,1.08.33,1.48-.21,3.16.08,4.99.26-.81.46-1.64.8-2.42.19-.43.62-.76.94-1.14.41.38,1.18.78,1.17,1.15-.04,1.38-.34,2.75-.23,4.5.45-.95.78-1.99,1.41-2.81.44-.58,1.27-.86,1.93-1.27l.03.02c-.09,1.87-.18,3.75-.29,6.05.52-.91,1-1.68,1.41-2.48.36-.69.64-1.42.95-2.14.11.53.18,1.08.33,1.6.35,1.23.74,2.46,1.18,3.9.36-1.1.81-2.53,1.27-3.95.25.06.51.12.76.19-.39,1.44-.78,2.87-1.16,4.31.62-.82,1.25-1.66,2.18-2.9-.21,1.54-.38,2.82-.64,4.79.71-1.07,1.18-1.68,1.55-2.35.41-.73.73-1.51,1.09-2.27.38.72,1.08,1.45,1.08,2.17,0,1.24-.42,2.49-.23,4.06.64-1.32,1.28-2.63,2.27-4.68-.06,1.89-.1,3.05-.17,5.18.4-1.78.59-2.62.77-3.46.23.03.47.06.7.09-.18.94-.33,1.89-.54,2.83-.11.51-.31,1-.47,1.5.54-.31,1.21-.51,1.57-.96.34-.43.27-1.15.51-1.69.28-.64.69-1.21,1.04-1.82.32.75.88,1.51.88,2.26,0,.58-.7,1.15-1.08,1.73,0,0,.03.03.03.03-.05.67-.09,1.33-.14,2,.52-.07,1.38.03,1.51-.23.59-1.2.98-2.49,1.71-4.48.59,1.51,1.11,2.6,1.37,3.74.04.15-1.18.6-1.81.91l-.04-.04c.4.65.79,1.31,1.19,1.96.8-1.12,1.59-2.25,2.58-3.63-.15.97-.38,1.92-.39,2.86,0,.27.56.55.9.83-.1.57-.2,1.14-.3,1.71.66-.55,1.43-1,1.96-1.66.69-.85,1.2-1.86,1.79-2.79l.03-.03c-.1.34-.17.69-.29,1.03-.17.5,2.12,1.63-.41,1.59-.21,0-.43,1.04-.65,1.59l-.04-.04c.44.63.88,1.26,1.32,1.88.8-1.29,1.59-2.58,2.51-4.06,1.86.85,2.16,2.28.37,4.17l.04-.04c.36.52.72,1.04,1.08,1.56.47-1.5.94-3,1.42-4.55,1.46,1.26,2.99,2.52.63,4.44.01.55.03,1.11.04,1.66.54-.31,1.39-.51,1.56-.97.44-1.17.58-2.45.84-3.68,2.55,2.92,2.59,3.43.28,4.5l-.03-.04c.54.69,1.07,1.37,1.61,2.06.5-1.49,1-2.98,1.56-4.63,1.53,1.3,3.12,2.56.5,4.51-.14.53-.28,1.07-.41,1.6.68-.02,1.37-.03,2.05-.05,1.36-1.1-.99-4.38,2.45-4.25-.48,1.57-.95,3.13-1.43,4.69.17.51.33,1.02.5,1.52.51-.25,1.29-.37,1.49-.78.55-1.12.87-2.35,1.74-3.53-.16,1.32-.29,2.63-.48,3.94-.25,1.74.11,2.7,2.1,1.83,0,0,0-.01,0-.02.33.16.67.31,1,.47.09.53.18,1.06.26,1.59.61-.25,1.36-.36,1.79-.79.45-.46.63-1.21.86-1.85.27-.75.48-1.53.71-2.29.49,1.12,1.02,2.23,1.41,3.38.05.16-.54.54-.83.82-.18.19-.35.38-.53.56-.15.53-.29,1.07-.44,1.6.7-.02,1.4-.04,2.1-.06v-.03c.7,0,1.39,0,2.08.01-.24.59-.48,1.17-.72,1.76.7-.31,1.8-.45,2.03-.98.57-1.26.73-2.69,1.06-4.06.38.01.77.03,1.15.04-.13,1.54-.25,3.08-.38,4.63l.04-.05c-.26.71-.51,1.41-.77,2.12.77,0,1.54-.02,2.3-.02,0,.01,0,.02,0,.03.6,2.49,2.56,1.89,4.26,1.9.01.52.02,1.03.03,1.55.88-.82,2.05-1.49,2.57-2.5.52-1.02.24-2.57,2.12-1.75-.16,1.17-.33,2.35-.5,3.52-.18.19-.36.38-.54.58-.26.49-.53.98-.79,1.47.99-.16,1.98-.32,2.96-.48.13-1.25.25-2.51.41-4.01,2.14,1.46,2.69,2.81.61,4.44-.17.19-.35.38-.52.56-.58,3.11,1.48.54,2.14,1,.41-1.56.82-3.12,1.23-4.68.31,0,.61-.02.92-.03-.02,1.53-.04,3.07-.06,4.6-.44.68-.88,1.36-1.32,2.03.2.13.5.41.59.36.76-.5,1.76-.9,2.14-1.62.53-1.01.58-2.27.83-3.38,2.31,1.91,2.44,3.03.45,4.61-.26.67-.51,1.34-.77,2.01.79-.16,1.58-.32,2.37-.48.25-.54.51-1.07.74-1.62.35-.83.67-1.68,1-2.52.38.61,1.21,1.38,1.06,1.78-.33.87-1.16,1.55-1.79,2.3-.27,1.74-.41,3.35,2.17,2.03.16-.18.32-.35.48-.53.01.17.03.34.04.51-.83,1.05-1.66,2.1-2.49,3.14-1.05-.14-2.09-.27-3.14-.41l.04.04c-5.83-2.93-11.66-5.87-17.5-8.8l.04.04c-2.14-.98-4.28-1.97-6.42-2.95l.03.04c-1.94-1.16-3.88-2.31-5.82-3.47l.03.03c-.36-.17-.73-.35-1.09-.52l.04.04c-.37-.17-.73-.35-1.1-.52l.04.04c-.36-.17-.72-.34-1.07-.51-.18,0-.36.02-.54.02,0-.17,0-.35.01-.52-.36-.17-.73-.34-1.09-.51l.04.04c-.37-.17-.73-.35-1.1-.52l.04.03c-.9-.5-1.79-1-2.68-1.5l.04.03c-.9-.32-1.8-.64-2.69-.96l.04.03c-.89-.49-1.79-.98-2.68-1.48l.1.03-.06-.08c-.89-.48-1.78-.97-2.68-1.45l.03.03c-.36-.17-.73-.34-1.09-.51l.03.03c-1.21-.64-2.43-1.28-3.64-1.93l.04.03c-10.11-5.1-20.21-10.2-30.32-15.3-.75-.38-1.52-.73-2.67-.35,14.14,7.51,28.28,15.01,42.43,22.52.37.17.73.33,1.1.5.54.32,1.07.64,1.6.96l-.03-.03c.36.17.73.34,1.09.51l-.02-.03c1.24.84,2.47,1.69,3.71,2.53.36-.01.72-.02,1.07-.03.34.15.68.29,1.01.44,0,.19.02.37.02.56.36.16.72.33,1.09.49l-.04-.03c.36.17.73.35,1.09.52l-.04-.03c.9.5,1.79,1.01,2.69,1.51.01-.18.03-.37.04-.55.33.17.66.33,1,.5.18.33.36.67.54,1,7.95,4.19,15.91,8.36,23.84,12.57.91.48,1.72,1.16,2.1,2.6-3.58-1.75-7.13-3.55-10.74-5.23-4.18-1.95-8.39-3.81-12.59-5.71,3.89,2.39,7.73,4.85,11.68,7.14,3.85,2.23,7.81,4.27,11.73,6.39-1-.12-2-.25-3-.37-.86,1.99-2.38,3.74-.87,6.28.58.99.1,2.93-.44,4.2-2.63,6.18-5.54,12.25-8.15,18.44-1.18,2.79-2.54,4.06-5.37,2.04-.14-.1-.3-.17-.45-.25q-7.01-3.62-5.97-11.21s-.02.02-.03.03c-.18-2.25.33-4.92-.7-6.66-1.37-2.32-.19-3.17,1.26-3.59,3.55-1.02-.84-2.82.54-3.92-.74.05-1.48.1-2.22.14-.29.02-.79.1-.84-.01-.19-.39-.45-.98-.28-1.26,1.27-2.19.3-3.08-1.8-3.68-2.37-.67-3.11-1.72-1.04-3.92.52-.55-.59-2.63-.95-4l-.03.03c.32-.72.64-1.45.97-2.17l.04.03c-.03-.5-.07-1-.1-1.5-1.01,1.12-2.12,2.17-2.96,3.41-.25.37.16,1.33.48,1.91.32.59.88,1.04,1.34,1.55-.74.34-1.47.68-2.21,1.02l.03-.04c-1.01.79-1.98,1.66-3.07,2.33-.24.15-.98-.32-1.36-.66-.47-.4-.72-1.14-1.23-1.4-.66-.34-1.48-.37-2.24-.53.34-.46.68-1.31,1.03-1.31.8-.01,1.61.39,2.32.59.08-2.71,6.08-3.12,3.21-7.29,0,0,0,0-.01-.01,2.23-3.73.12-6.27-5.46-6.56l.03-.04c-1.01-.12-2.03-.25-2.43-.3-.78-1.08-1.25-2.4-2.16-2.87-4.77-2.49-9.66-4.76-14.5-7.11l.04.04c-1.56-.13-3.11-.27-4.67-.4,2.24.82,3.92,1.74.66,3.63,2.12,2.07.58,3.96-.3,5.88l-.03-.04c.03,1.03.07,2.05.09,2.59,1.42.1,3.02.2,4.62.31.8,1.02,1.93,1.94,2.26,3.09.2.72-.85,1.79-1.34,2.7-.35-.32-.71-.65-1.06-.97.36-.89.71-1.79,1.07-2.68-.13-.09-.27-.19-.4-.28-.49.57-1.12,1.07-1.46,1.72-.77,1.46-1.38,2.92-3.29,1.13-.19-.18-.99.29-1.51.46.45,1.1.9,2.2,1.35,3.3l-.04-.04c-.96,3.59-.4,6.88,1.88,9.85,1.38-.87,2.45-1.02,2.99.97.14.52,1.02.8,1.3,1.33.23.45.09,1.09.11,1.65-.39.17-1.06.49-1.08.46-.6-1.14-1.13-2.32-1.67-3.49-1.66.98-3.28,2.05-5,2.89-.61.3-1.48.04-2.24.03l.03-.04c-.89-.67-1.78-1.33-2.68-2-1.12-1.01-2.24-2.01-3.31-3.07-.07-.07.38-.66.59-1,0,0-.02.03-.02.03-1.09-2.02-2.1-1.08-3.1.08l.03.03c-1.24-.31-2.48-.62-3.72-.93.15.34.31.68.46,1.02-.85-.49-1.69-.98-2.53-1.47-1.05-.48-2.1-.96-3.15-1.44-.54-.34-1.09-.67-1.63-1.01-4.81-2.16-9.61-4.33-14.42-6.49-.1.18-.2.37-.29.55,3.81,2.06,7.62,4.12,11.43,6.19,5.37,2.9,10.73,5.81,16.1,8.71l-.03-.03c3.01,1.65,6.01,3.3,9.02,4.95l-.04-.03c.36.17.73.34,1.09.51l-.04-.03c4.83,2.65,9.65,5.31,14.48,7.96,2.4,1.32,4.81,2.62,6.87,4.65-4.72-2.26-9.44-4.52-14.17-6.76-1-.47-2.03-.9-3.07-1.27-.77-.28-1.59-.43-2.38-.64.72.76,1.31,1.72,2.17,2.23,5.25,3.08,10.57,6.05,15.86,9.06-4.37-2.02-8.77-3.99-13.1-6.11-9.35-4.57-18.62-9.32-28.02-13.81-3.28-1.56-7.03-2.19-10.21-3.9-3.04-1.63-5.6-4.14-8.41-6.2-.61-.45-1.42-.62-2.15-.91l.03-.04c-1.02-.6-1.97-1.48-3.07-1.76-4.03-1.03-5.86,1.23-5.62,6.75,0,.18.01.36.02.54.89.32,1.78.65,2.66.97l-.04-.03c1.53,1.12,3.05,2.24,4.58,3.36-2.98-1.36-6-2.66-8.9-4.18-.43-.23-.63-1.77-.32-2.4ZM199.59,168.17c-.03-.17-.07-.33-.1-.5.05.04.14.08.14.13,0,.12-.02.25-.04.37ZM195.38,170.37s0,0-.01.01c-.51-.28-1.43-.62-1.4-.8.19-1.04.61-2.04.95-3.05.44.22,1.28.51,1.26.65-.17,1.08-.52,2.13-.81,3.19ZM193.05,167c-.25.68-1.54.97-2.4,1.42.1-.4.18-.8.31-1.19.3-.93.63-1.86.94-2.78.43.87,1.38,1.93,1.15,2.55ZM185.8,161.86l1.19.16c-.36,1.15-.71,2.3-1.07,3.45-.04-1.2-.08-2.41-.12-3.61ZM183.86,165.41c.39-1.45.79-2.89,1.18-4.34.27.1.54.2.8.3-.66,1.35-1.33,2.69-1.99,4.04ZM177.46,162.17c.25-.88.48-1.76.78-2.62.24-.71.57-1.38.86-2.07.4.65,1.15,1.31,1.12,1.94-.03.66-.73,1.36-1.28,1.91-.39.39-.97.58-1.48.85ZM177.03,159.53c-.25-.01-.5-.03-.75-.04.02-.85.05-1.7.07-2.56.26.03.52.06.79.09-.04.84-.07,1.67-.11,2.51ZM154.28,146.37c-.22.83-.43,1.67-.65,2.5-.03-.87-.06-1.74-.09-2.61.24.04.49.07.73.11ZM144.73,139.52l-.15-.02.09-.13.05.15ZM187.66,175.28c-.07-.03-.15-.05-.22-.08.05,0,.11-.02.15,0,.03.02.05.05.07.08ZM183.68,198.91c.11-.14.2-.33.34-.41.06-.03.25.15.39.25-.1.12-.18.31-.28.33-.14.02-.3-.11-.45-.17ZM167.56,174.01c.02-.12.08-.23.13-.34.11.07.22.14.34.22-.11.09-.2.18-.31.23-.03.02-.17-.08-.16-.11ZM169.29,175.43l.5-.44c.24.47.48.94.71,1.42-.4-.32-.81-.65-1.21-.98ZM173.64,178.64c.06-.05.13-.09.19-.14.14.27.28.54.42.8-.2-.22-.4-.44-.61-.67ZM152.09,166.74c0,.2,0,.4.01.59-.53-.03-1.07-.04-1.6-.13-.08-.01-.1-.42-.14-.65.58.06,1.15.12,1.73.18ZM150.99,165.1s.04-.11.06-.17c.06.02.14.03.16.07.02.04-.04.11-.06.17-.06-.02-.14-.04-.16-.08ZM150.27,168.93l-.14.06.02-.16.12.09ZM148.58,164.36c.14-.07.28-.2.41-.18.13.02.23.19.36.3-.12.11-.31.33-.34.31-.16-.11-.29-.28-.42-.42ZM150.51,174.12c.06.06.13.13.19.19-.13.06-.25.13-.38.19.06-.13.13-.26.19-.39ZM147.89,171.2l-.05.16-.1-.13.15-.04ZM148.7,185.49c-.03.06-.05.12-.08.18-.06-.03-.15-.04-.17-.08-.02-.04.04-.12.07-.18.06.03.12.05.18.08ZM146.76,184.83c.03.05,0,.13,0,.2-.09-.03-.17-.05-.26-.08.03-.06.06-.12.1-.18.06.02.15.02.17.06ZM139.45,194.77c-.03.18-.06.36-.09.53-.07-.03-.14-.07-.21-.1l.3-.43ZM27.23,406.99c2.75-5.78,5.21-11.75,8.54-17.18,5.23-8.54,11-16.74,16.7-24.98,1.55-2.24,3.18-4.42,4.87-6.56,4.69-8.85,8.91-16.96,11.57-22.4,8.88-18.12,31.22-66.98,36.83-88.75.12-.62.23-1.25.36-1.87.17-.81.39-1.61.59-2.41.18-1.05.32-2.07.42-3.06-.02-.81-.15-1.62-.52-2.46-.17-.38.28-1.04.45-1.57.1.05.21.09.31.13.19-14.16-7.13-21.18-7.13-21.18l59.53,30.42s-33.78,26.68-46.21,54.57c-12.43,27.88-31.42,74.79-54.1,109.08-17.51,26.47-25.43,11.99-28.13,4.01-.05.02-.1.04-.14.07-4.73.12-5.92-1.67-3.94-5.83ZM25.83,425.72c.02-.67-.45-1.36-.71-2.04,4.3-1.36,9.36-.34,11.36,2.59,1.99,2.91,2.04,6.28,0,9.01-1.29,1.74-3.83,3.75-5.62,3.59-1.97-.18-4.77-2.4-5.32-4.29-.79-2.69.18-5.88.28-8.86Z"/>
    <path class="cls-1" d="M208.07,177.3s.02-.02.04-.03h0s-.04.03-.04.03Z"/>
    <path class="cls-1" d="M205.48,190.85s0,0,.01,0c0-.01.01-.03.02-.04l-.03.04Z"/>
    <path class="cls-1" d="M291.05,64.2l-.06.14s.06-.07.09-.11l-.03-.03Z"/>
    <path class="cls-1" d="M184.73,177.53c.12.05.24.11.35.16-.11-.07-.21-.13-.32-.2l-.03.04Z"/>
    <path class="cls-1" d="M245.2,61.11s.02,0,.02,0c0,0,0-.01,0-.02l-.03.02Z"/>
    <path class="cls-1" d="M228.34,68.91s0,0,0,0c0,.02-.02.04-.03.05l.03-.06Z"/>
    <path class="cls-1" d="M229.31,66.8s-.02.04-.03.06c0,0,0,0,0,0l.03-.06Z"/>
    <path class="cls-1" d="M229.22,65.26s0,.05,0,.07c.01,0,.03-.02.04-.03l-.04-.04Z"/>
    <path class="cls-1" d="M220.28,77.53s0,.05-.01.08c.02-.02.03-.04.05-.06l-.04-.02Z"/>
    <path class="cls-1" d="M220.17,73.35s0,0,0,.01c0,.02-.01.03-.02.05l.03-.06Z"/>
    <path class="cls-1" d="M261.9,46.52c-.06.14-.11.27-.17.41.07-.13.14-.25.2-.38l-.03-.03Z"/>
    <path class="cls-1" d="M245.72,61.08s0,0,0,.01c.01,0,.03,0,.04,0h-.03Z"/>
    <path class="cls-1" d="M228.34,69.97s0,.04,0,.06c.01-.01.03-.02.04-.04l-.04-.02Z"/>
    <path class="cls-1" d="M231.3,79.78s0,.06,0,.09c.01-.02.02-.04.04-.06l-.04-.03Z"/>
  </g>
</svg>