<?xml version="1.0" encoding="UTF-8"?>
<svg xmlns="http://www.w3.org/2000/svg" viewBox="0 0 5237.82 8776.79">
  <defs>
    <style>
      .cls-1 {
        fill: #38363a;
      }

      .cls-1, .cls-2, .cls-3, .cls-4, .cls-5 {
        stroke-width: 0px;
      }

      .cls-6 {
        font-family: MyriadPro-Bold, 'MyriadPro Bold';
        font-size: 48.25px;
        font-weight: 700;
      }

      .cls-6, .cls-7, .cls-4, .cls-8 {
        fill: #fff;
      }

      .cls-7 {
        stroke: #231f20;
      }

      .cls-7, .cls-8 {
        stroke-miterlimit: 10;
        stroke-width: 9px;
      }

      .cls-9 {
        isolation: isolate;
      }

      .cls-2, .cls-3 {
        fill: #f05435;
      }

      .cls-10 {
        font-size: 50.45px;
      }

      .cls-10, .cls-11, .cls-12, .cls-13, .cls-14, .cls-15 {
        fill: #231f20;
        font-family: MyriadPro-Regular, 'Myriad Pro';
      }

      .cls-3 {
        mix-blend-mode: overlay;
      }

      .cls-8 {
        stroke: #010101;
      }

      .cls-5 {
        fill: #d3d3d3;
      }

      .cls-11 {
        font-size: 110.38px;
      }

      .cls-12 {
        font-size: 69.82px;
      }

      .cls-13 {
        font-size: 85.88px;
      }

      .cls-14 {
        font-size: 103.32px;
      }

      .cls-15 {
        font-size: 179.39px;
      }
    </style>
  </defs>
  <g class="cls-9">
    <g id="Layer_1" data-name="Layer 1">
      <path class="cls-2" d="M.18,6579.47h701.41v724.01h-32.2C300.04,7303.48.18,7003.62.18,6634.27v-54.8H.18Z"/>
      <path class="cls-2" d="M1511.59,6579.47h0v724.01h-701.41v-22.6c0-387.12,314.29-701.41,701.41-701.41Z"/>
      <rect class="cls-1" x="2870.35" y="2508.18" width="171.09" height="160.84"/>
      <rect class="cls-2" x="2870.35" y="2722.67" width="171.09" height="160.84"/>
      <rect class="cls-4" x="2870.35" y="2293.69" width="171.09" height="160.84"/>
      <rect class="cls-2" x="3503.63" y="2450.03" width="64.51" height="512.5" transform="translate(829.61 6242.16) rotate(-90)"/>
      <rect class="cls-1" x="798.58" y="2633.85" width="1538.2" height="485"/>
      <rect class="cls-2" x="1128.27" y="3780.54" width="540.16" height="190.33"/>
      <text class="cls-12" transform="translate(1165.13 3684.11)"><tspan x="0" y="0">contact button</tspan></text>
      <path class="cls-2" d="M1908.36,4372.98h-849.79v-154.14h849.79v154.14Z"/>
      <text class="cls-6" transform="translate(1121.09 4168.24)"><tspan x="0" y="0">&lt; READ TERMS OF SERVICES &gt;</tspan></text>
      <rect class="cls-8" x="863.03" y="2212.6" width="1348" height="376"/>
      <path class="cls-2" d="M2462.24,107.15h869v225h-1094c0-124.18,100.82-225,225-225Z"/>
      <path class="cls-2" d="M2784.24,944.14h243.13v549.77h0c-134.18,0-243.13-108.94-243.13-243.13v-306.65h0Z"/>
      <rect class="cls-8" x="1567.68" y="845.14" width="409" height="649"/>
      <g>
        <path class="cls-5" d="M3695.05,6016.07c.72-2.37,1.75-4.39,3.09-6.09,1.34-1.69,2.96-3,4.85-3.93,1.9-.93,4.01-1.4,6.34-1.4,1.72,0,3.24.32,4.56.96s2.52,1.43,3.59,2.39,2.02,1.99,2.85,3.09c.83,1.1,1.6,2.13,2.3,3.09.7.96,1.37,1.75,2,2.39.64.64,1.29.96,1.95.96h1.58v12.87h-3.75c-.91,0-1.77-.24-2.57-.72-.81-.48-1.59-1.08-2.35-1.82s-1.51-1.52-2.24-2.35c-.74-.83-1.5-1.62-2.3-2.35-.8-.74-1.62-1.34-2.48-1.82-.86-.48-1.8-.72-2.83-.72-.69,0-1.35.11-1.99.33-.64.22-1.2.55-1.67.97-.48.43-.86.95-1.16,1.56-.29.61-.44,1.31-.44,2.1,0,1.03.18,1.86.55,2.5.37.64.85,1.13,1.43,1.49.59.36,1.26.59,2.02.72.76.12,1.53.18,2.32.18h1.01c.33,0,.67-.02,1.01-.07v13.86c-.49.05-.96.1-1.42.15-.45.05-.92.07-1.42.07-2.45,0-4.66-.51-6.62-1.54-1.96-1.03-3.63-2.46-5.02-4.28-1.38-1.83-2.45-4-3.18-6.51-.74-2.51-1.1-5.25-1.1-8.22s.36-5.49,1.08-7.85ZM3746.7,6016.39v14.93h-13.94v-14.93h13.94Z"/>
        <path class="cls-5" d="M3695.05,5854.58c.72-2.37,1.75-4.39,3.09-6.09,1.34-1.69,2.96-3,4.85-3.93,1.9-.93,4.01-1.4,6.34-1.4,1.72,0,3.24.32,4.56.96s2.52,1.43,3.59,2.39,2.02,1.99,2.85,3.09c.83,1.1,1.6,2.13,2.3,3.09.7.96,1.37,1.75,2,2.39.64.64,1.29.96,1.95.96h1.58v12.87h-3.75c-.91,0-1.77-.24-2.57-.72-.81-.48-1.59-1.08-2.35-1.82s-1.51-1.52-2.24-2.35c-.74-.83-1.5-1.62-2.3-2.35-.8-.74-1.62-1.34-2.48-1.82-.86-.48-1.8-.72-2.83-.72-.69,0-1.35.11-1.99.33-.64.22-1.2.55-1.67.97-.48.43-.86.95-1.16,1.56-.29.61-.44,1.31-.44,2.1,0,1.03.18,1.86.55,2.5.37.64.85,1.13,1.43,1.49.59.36,1.26.59,2.02.72.76.12,1.53.18,2.32.18h1.01c.33,0,.67-.02,1.01-.07v13.86c-.49.05-.96.1-1.42.15-.45.05-.92.07-1.42.07-2.45,0-4.66-.51-6.62-1.54-1.96-1.03-3.63-2.46-5.02-4.28-1.38-1.83-2.45-4-3.18-6.51-.74-2.51-1.1-5.25-1.1-8.22s.36-5.49,1.08-7.85ZM3746.7,5854.89v14.93h-13.94v-14.93h13.94Z"/>
        <path class="cls-5" d="M3695.05,5693.08c.72-2.37,1.75-4.39,3.09-6.09,1.34-1.69,2.96-3,4.85-3.93,1.9-.93,4.01-1.4,6.34-1.4,1.72,0,3.24.32,4.56.96s2.52,1.43,3.59,2.39,2.02,1.99,2.85,3.09c.83,1.1,1.6,2.13,2.3,3.09.7.96,1.37,1.75,2,2.39.64.64,1.29.96,1.95.96h1.58v12.87h-3.75c-.91,0-1.77-.24-2.57-.72-.81-.48-1.59-1.08-2.35-1.82s-1.51-1.52-2.24-2.35c-.74-.83-1.5-1.62-2.3-2.35-.8-.74-1.62-1.34-2.48-1.82-.86-.48-1.8-.72-2.83-.72-.69,0-1.35.11-1.99.33-.64.22-1.2.55-1.67.97-.48.43-.86.95-1.16,1.56-.29.61-.44,1.31-.44,2.1,0,1.03.18,1.86.55,2.5.37.64.85,1.13,1.43,1.49.59.36,1.26.59,2.02.72.76.12,1.53.18,2.32.18h1.01c.33,0,.67-.02,1.01-.07v13.86c-.49.05-.96.1-1.42.15-.45.05-.92.07-1.42.07-2.45,0-4.66-.51-6.62-1.54-1.96-1.03-3.63-2.46-5.02-4.28-1.38-1.83-2.45-4-3.18-6.51-.74-2.51-1.1-5.25-1.1-8.22s.36-5.49,1.08-7.85ZM3746.7,5693.39v14.93h-13.94v-14.93h13.94Z"/>
        <path class="cls-5" d="M3695.05,5531.58c.72-2.37,1.75-4.39,3.09-6.09,1.34-1.69,2.96-3,4.85-3.93,1.9-.93,4.01-1.4,6.34-1.4,1.72,0,3.24.32,4.56.96s2.52,1.43,3.59,2.39,2.02,1.99,2.85,3.09c.83,1.1,1.6,2.13,2.3,3.09.7.96,1.37,1.75,2,2.39.64.64,1.29.96,1.95.96h1.58v12.87h-3.75c-.91,0-1.77-.24-2.57-.72-.81-.48-1.59-1.08-2.35-1.82s-1.51-1.52-2.24-2.35c-.74-.83-1.5-1.62-2.3-2.35-.8-.74-1.62-1.34-2.48-1.82-.86-.48-1.8-.72-2.83-.72-.69,0-1.35.11-1.99.33-.64.22-1.2.55-1.67.97-.48.43-.86.95-1.16,1.56-.29.61-.44,1.31-.44,2.1,0,1.03.18,1.86.55,2.5.37.64.85,1.13,1.43,1.49.59.36,1.26.59,2.02.72.76.12,1.53.18,2.32.18h1.01c.33,0,.67-.02,1.01-.07v13.86c-.49.05-.96.1-1.42.15-.45.05-.92.07-1.42.07-2.45,0-4.66-.51-6.62-1.54-1.96-1.03-3.63-2.46-5.02-4.28-1.38-1.83-2.45-4-3.18-6.51-.74-2.51-1.1-5.25-1.1-8.22s.36-5.49,1.08-7.85ZM3746.7,5531.89v14.93h-13.94v-14.93h13.94Z"/>
        <path class="cls-5" d="M3695.05,5370.08c.72-2.37,1.75-4.39,3.09-6.09,1.34-1.69,2.96-3,4.85-3.93,1.9-.93,4.01-1.4,6.34-1.4,1.72,0,3.24.32,4.56.96s2.52,1.43,3.59,2.39,2.02,1.99,2.85,3.09c.83,1.1,1.6,2.13,2.3,3.09.7.96,1.37,1.75,2,2.39.64.64,1.29.96,1.95.96h1.58v12.87h-3.75c-.91,0-1.77-.24-2.57-.72-.81-.48-1.59-1.08-2.35-1.82s-1.51-1.52-2.24-2.35c-.74-.83-1.5-1.62-2.3-2.35-.8-.74-1.62-1.34-2.48-1.82-.86-.48-1.8-.72-2.83-.72-.69,0-1.35.11-1.99.33-.64.22-1.2.55-1.67.97-.48.43-.86.95-1.16,1.56-.29.61-.44,1.31-.44,2.1,0,1.03.18,1.86.55,2.5.37.64.85,1.13,1.43,1.49.59.36,1.26.59,2.02.72.76.12,1.53.18,2.32.18h1.01c.33,0,.67-.02,1.01-.07v13.86c-.49.05-.96.1-1.42.15-.45.05-.92.07-1.42.07-2.45,0-4.66-.51-6.62-1.54-1.96-1.03-3.63-2.46-5.02-4.28-1.38-1.83-2.45-4-3.18-6.51-.74-2.51-1.1-5.25-1.1-8.22s.36-5.49,1.08-7.85ZM3746.7,5370.39v14.93h-13.94v-14.93h13.94Z"/>
        <path class="cls-5" d="M3695.05,5208.58c.72-2.37,1.75-4.39,3.09-6.09,1.34-1.69,2.96-3,4.85-3.93,1.9-.93,4.01-1.4,6.34-1.4,1.72,0,3.24.32,4.56.96s2.52,1.43,3.59,2.39,2.02,1.99,2.85,3.09c.83,1.1,1.6,2.13,2.3,3.09.7.96,1.37,1.75,2,2.39.64.64,1.29.96,1.95.96h1.58v12.87h-3.75c-.91,0-1.77-.24-2.57-.72-.81-.48-1.59-1.08-2.35-1.82s-1.51-1.52-2.24-2.35c-.74-.83-1.5-1.62-2.3-2.35-.8-.74-1.62-1.34-2.48-1.82-.86-.48-1.8-.72-2.83-.72-.69,0-1.35.11-1.99.33-.64.22-1.2.55-1.67.97-.48.43-.86.95-1.16,1.56-.29.61-.44,1.31-.44,2.1,0,1.03.18,1.86.55,2.5.37.64.85,1.13,1.43,1.49.59.36,1.26.59,2.02.72.76.12,1.53.18,2.32.18h1.01c.33,0,.67-.02,1.01-.07v13.86c-.49.05-.96.1-1.42.15-.45.05-.92.07-1.42.07-2.45,0-4.66-.51-6.62-1.54-1.96-1.03-3.63-2.46-5.02-4.28-1.38-1.83-2.45-4-3.18-6.51-.74-2.51-1.1-5.25-1.1-8.22s.36-5.49,1.08-7.85ZM3746.7,5208.9v14.93h-13.94v-14.93h13.94Z"/>
      </g>
      <rect class="cls-2" x="194.88" y="8106.16" width="1531" height="334"/>
      <rect class="cls-7" x="269.24" y="8504.79" width="1409.14" height="267.5"/>
      <g>
        <path class="cls-5" d="M3442.13,5703.92c1.84-6.03,4.43-11.17,7.78-15.42,3.35-4.25,7.37-7.52,12.07-9.81,4.7-2.29,9.95-3.44,15.73-3.44,4.58,0,8.82.72,12.7,2.17,3.89,1.45,7.54,3.45,10.94,6.01,3.41,2.56,6.62,5.58,9.63,9.04,3.01,3.47,5.98,7.22,8.91,11.26,2.92,4.04,5.85,8.24,8.77,12.61,2.92,4.37,5.95,8.76,9.09,13.16v-55.79h31.28v105.61h-8.86c-3.5,0-6.74-.44-9.72-1.31-2.98-.87-5.82-2.11-8.5-3.71-2.68-1.6-5.23-3.48-7.64-5.65-2.41-2.17-4.79-4.55-7.14-7.14-6.45-7.23-12.01-13.88-16.68-19.94-4.67-6.06-8.84-11.29-12.52-15.69-3.68-4.4-6.99-7.84-9.95-10.31-2.95-2.47-5.94-3.71-8.95-3.71-1.75,0-3.44.3-5.06.9-1.63.6-3.07,1.54-4.34,2.8s-2.27,2.91-3.03,4.93c-.75,2.02-1.13,4.45-1.13,7.28s.44,5.46,1.31,7.69c.88,2.23,2.1,4.11,3.66,5.65,1.57,1.54,3.41,2.7,5.52,3.48,2.11.78,4.43,1.18,6.96,1.18h3.71v33c-.78.12-1.49.18-2.12.18h-1.94c-6.51,0-12.43-1.13-17.77-3.39-5.33-2.26-9.88-5.68-13.65-10.26-3.77-4.58-6.68-10.28-8.73-17.09-2.05-6.81-3.07-14.8-3.07-23.96,0-7.53.92-14.32,2.76-20.34Z"/>
        <path class="cls-5" d="M3444.12,5576.75c3.16-6.96,7.64-12.49,13.43-16.59,5.79-4.1,12.74-6.99,20.84-8.68,8.11-1.69,17.07-2.53,26.9-2.53s18.88.84,26.99,2.53c8.11,1.69,15.05,4.58,20.84,8.68,5.79,4.1,10.26,9.63,13.43,16.59,3.16,6.96,4.75,15.72,4.75,26.27s-1.58,19.3-4.75,26.27c-3.17,6.96-7.64,12.52-13.43,16.68-5.79,4.16-12.73,7.08-20.84,8.77-8.11,1.69-17.1,2.53-26.99,2.53s-18.79-.84-26.9-2.53c-8.11-1.69-15.05-4.61-20.84-8.77-5.79-4.16-10.26-9.72-13.43-16.68-3.17-6.96-4.75-15.72-4.75-26.27s1.58-19.3,4.75-26.27ZM3466.23,5611.29c1.21,2.26,3.07,4.1,5.61,5.52,2.53,1.42,5.8,2.44,9.81,3.07,4.01.63,8.82.95,14.42.95h18.35c5.61,0,10.41-.32,14.42-.95,4.01-.63,7.31-1.66,9.9-3.07,2.59-1.42,4.49-3.26,5.7-5.52,1.21-2.26,1.81-5.02,1.81-8.27s-.6-5.98-1.81-8.18c-1.21-2.2-3.1-3.99-5.7-5.38-2.59-1.39-5.89-2.38-9.9-2.98-4.01-.6-8.82-.9-14.42-.9h-18.35c-5.61,0-10.41.3-14.42.9-4.01.6-7.28,1.6-9.81,2.98-2.53,1.39-4.4,3.18-5.61,5.38-1.21,2.2-1.81,4.93-1.81,8.18s.6,6.01,1.81,8.27Z"/>
        <path class="cls-5" d="M3442.13,5456.9c1.84-6.03,4.43-11.17,7.78-15.42,3.35-4.25,7.37-7.52,12.07-9.81,4.7-2.29,9.95-3.44,15.73-3.44,4.58,0,8.82.72,12.7,2.17,3.89,1.45,7.54,3.45,10.94,6.01,3.41,2.56,6.62,5.58,9.63,9.04,3.01,3.47,5.98,7.22,8.91,11.26,2.92,4.04,5.85,8.24,8.77,12.61,2.92,4.37,5.95,8.76,9.09,13.16v-55.79h31.28v105.61h-8.86c-3.5,0-6.74-.44-9.72-1.31-2.98-.87-5.82-2.11-8.5-3.71-2.68-1.6-5.23-3.48-7.64-5.65-2.41-2.17-4.79-4.55-7.14-7.14-6.45-7.23-12.01-13.88-16.68-19.94-4.67-6.06-8.84-11.29-12.52-15.69-3.68-4.4-6.99-7.84-9.95-10.31-2.95-2.47-5.94-3.71-8.95-3.71-1.75,0-3.44.3-5.06.9-1.63.6-3.07,1.54-4.34,2.8s-2.27,2.91-3.03,4.93c-.75,2.02-1.13,4.45-1.13,7.28s.44,5.46,1.31,7.69c.88,2.23,2.1,4.11,3.66,5.65,1.57,1.54,3.41,2.7,5.52,3.48,2.11.78,4.43,1.18,6.96,1.18h3.71v33c-.78.12-1.49.18-2.12.18h-1.94c-6.51,0-12.43-1.13-17.77-3.39-5.33-2.26-9.88-5.68-13.65-10.26-3.77-4.58-6.68-10.28-8.73-17.09-2.05-6.81-3.07-14.8-3.07-23.96,0-7.53.92-14.32,2.76-20.34Z"/>
        <path class="cls-5" d="M3473.1,5311.5v60.58l19.26,1.54c-1.57-1.99-2.95-4.37-4.16-7.14-1.02-2.35-1.97-5.21-2.85-8.59-.87-3.38-1.31-7.23-1.31-11.57,0-6.75,1-12.85,2.98-18.31,1.99-5.46,4.84-10.1,8.54-13.92,3.71-3.83,8.24-6.78,13.61-8.86,5.37-2.08,11.42-3.12,18.17-3.12,6.09,0,11.8,1.22,17.13,3.66,5.33,2.44,9.99,5.92,13.97,10.44,3.98,4.52,7.11,10.01,9.4,16.46,2.29,6.45,3.44,13.68,3.44,21.7,0,9.22-1.04,17.35-3.12,24.37-2.08,7.02-5.02,12.9-8.82,17.63-3.8,4.73-8.36,8.29-13.7,10.67-5.33,2.38-11.26,3.57-17.77,3.57v-32.55c2.41,0,4.7-.42,6.87-1.27,2.17-.84,4.07-2.09,5.7-3.75,1.63-1.66,2.91-3.72,3.84-6.19.94-2.47,1.4-5.33,1.4-8.59s-.48-6.12-1.45-8.59c-.96-2.47-2.29-4.52-3.98-6.15-1.69-1.63-3.68-2.86-5.97-3.71-2.29-.84-4.79-1.27-7.5-1.27s-5.24.42-7.59,1.27c-2.35.84-4.37,2.09-6.06,3.75-1.69,1.66-3.01,3.69-3.98,6.1-.96,2.41-1.45,5.18-1.45,8.32s.38,5.73,1.13,7.78c.75,2.05,1.63,3.74,2.62,5.06.99,1.33,2.02,2.37,3.07,3.12,1.05.75,1.88,1.37,2.49,1.85l-4.16,29.29-71.25-5.42v-88.16h31.46Z"/>
      </g>
      <rect class="cls-2" x="1083.18" y="849.64" width="400" height="640"/>
      <path class="cls-4" d="M947.14,1197.92h0v261.94h-217.07v-44.87c0-119.81,97.27-217.07,217.07-217.07Z"/>
      <path class="cls-3" d="M3441.88,3867.05h302.3v391.49h-693.79c0-216.07,175.42-391.49,391.49-391.49Z" transform="translate(-665.5 7460.09) rotate(-90)"/>
      <path class="cls-3" d="M2663.75,3935.08h438.35v255.44h-693.79c0-140.98,114.46-255.44,255.44-255.44Z" transform="translate(6818 1307.59) rotate(90)"/>
      <text class="cls-14" transform="translate(2521.94 3629.35)"><tspan x="0" y="0">ACADEMY LANDING PAGE</tspan></text>
      <text class="cls-14" transform="translate(2633.13 845.37)"><tspan x="0" y="0">What we do</tspan></text>
      <text class="cls-15" transform="translate(.18 6464.13)"><tspan x="0" y="0">Team</tspan></text>
      <text class="cls-13" transform="translate(2729.98 71.88)"><tspan x="0" y="0">Landing page</tspan></text>
      <text class="cls-13" transform="translate(722.09 8080.57)"><tspan x="0" y="0">Our Fav Clients</tspan></text>
      <text class="cls-13" transform="translate(3488.12 5142.56)"><tspan x="0" y="0">FAQ</tspan></text>
      <text class="cls-14" transform="translate(1119.24 728.7)"><tspan x="0" y="0">2D 3D Buttons</tspan></text>
      <text class="cls-10" transform="translate(1083.18 71.88)"><tspan x="0" y="0">Commission us button</tspan></text>
      <text class="cls-10" transform="translate(1670.76 71.88)"><tspan x="0" y="0">join us button</tspan></text>
      <text class="cls-14" transform="translate(937.55 2107.45)"><tspan x="0" y="0">Pixelbones About us button</tspan></text>
      <rect class="cls-1" x="4403.82" y="7439.45" width="834" height="477"/>
      <rect class="cls-2" x="3571.28" y="7275.27" width="757" height="372"/>
      <rect class="cls-8" x="2679.28" y="7275.27" width="757" height="372"/>
      <text class="cls-11" transform="translate(3182.32 7141.21)"><tspan x="0" y="0">CHOOSE YOUR PATH</tspan></text>
      <text class="cls-11" transform="translate(2059.78 5413.08)"><tspan x="0" y="0">Payment box</tspan></text>
      <path class="cls-1" d="M1255.9,5171h661v155h-816c0-85.55,69.45-155,155-155Z"/>
      <rect class="cls-2" x="821.65" y="5167.56" width="161.88" height="161.88" rx="80.94" ry="80.94"/>
      <g>
        <rect class="cls-4" x="1105.19" y="5395.53" width="807" height="395.99"/>
        <path class="cls-1" d="M1907.69,5400.03v386.99h-798v-386.99h798M1916.69,5391.03h-816v404.99h816v-404.99h0Z"/>
      </g>
      <polygon class="cls-2" points="1341.19 4951.23 1366.33 5002.17 1422.54 5010.33 1381.86 5049.98 1391.47 5105.96 1341.19 5079.53 1290.91 5105.96 1300.52 5049.98 1259.84 5010.33 1316.05 5002.17 1341.19 4951.23"/>
      <path class="cls-2" d="M1638.01,294.18v82.67h-208.34c-46.07,0-83.69-36.88-84.87-82.67h293.21M1640.24,291.95h-297.7c0,48.12,39.01,87.14,87.14,87.14h210.57v-87.14h0Z"/>
      <path class="cls-2" d="M1342.53,158.45h0c0,48.12,39.01,87.14,87.14,87.14h210.57s0-87.14,0-87.14h-297.7Z"/>
      <path class="cls-2" d="M1970.18,158.45h0c0,48.12-39.01,87.14-87.14,87.14h-210.57s0-87.14,0-87.14h297.7Z"/>
      <path class="cls-2" d="M1967.42,294.15c-1.19,45.82-38.83,82.73-84.94,82.73h-208.37v-82.73h293.31M1969.68,291.92h-297.8v87.2h210.61c48.16,0,87.2-39.04,87.2-87.2h0Z"/>
    </g>
  </g>
</svg>