<?xml version="1.0" encoding="UTF-8"?>
<svg id="Layer_1" data-name="Layer 1" xmlns="http://www.w3.org/2000/svg" viewBox="0 0 308.24 324.05">
  <defs>
    <style>
      .cls-1 {
        stroke-width: 0px;
      }
    </style>
  </defs>
  <path class="cls-1" d="M86.16,118.1c1.7.84,3.27,1.34,4.51,2.28,10.05,7.59,20.05,15.25,30.04,22.92,3.19,2.45,3.31,4.6.42,7.33-11.17,10.54-22.37,21.05-33.58,31.55-2.96,2.77-5.59,2.9-8.77.39-10.13-8-20.23-16.03-30.31-24.08-3.11-2.49-3.22-4.65-.26-7.35,11.19-10.22,22.41-20.41,33.68-30.54,1.14-1.03,2.7-1.59,4.26-2.49Z"/>
  <path class="cls-1" d="M43.56,84.28c1.58.75,2.98,1.16,4.08,1.99,9.51,7.12,18.98,14.29,28.43,21.5,2.69,2.05,2.86,4.46.42,6.74-11.37,10.64-22.77,21.23-34.2,31.8-2.38,2.2-5.24,2.4-7.87.47-10.24-7.51-20.45-15.06-30.62-22.68-2.54-1.91-2.55-4.33-.12-6.47,11.84-10.42,23.7-20.82,35.62-31.14,1.16-1.01,2.79-1.47,4.25-2.21Z"/>
  <path class="cls-1" d="M184.78,29.49c1.67.74,3.15,1.19,4.42,1.98,10.43,6.5,20.83,13.06,31.23,19.62,3.66,2.31,3.93,4.31.78,7.27-10.84,10.16-21.73,20.27-32.63,30.36-2.76,2.55-5.51,2.72-8.65.53-10.43-7.25-20.84-14.53-31.23-21.86-3.01-2.13-3.16-4.3-.43-6.79,10.62-9.65,21.26-19.27,31.98-28.8,1.22-1.08,2.98-1.55,4.53-2.32Z"/>
  <path class="cls-1" d="M87.56,103.12c-1.52-.74-2.8-1.15-3.83-1.9-9.83-7.21-19.64-14.46-29.42-21.75-3.13-2.33-3.27-4.48-.4-7.01,10.62-9.34,21.27-18.64,31.95-27.92,2.61-2.27,5.3-2.5,8.17-.56,10.02,6.77,19.99,13.61,29.93,20.5,2.71,1.88,2.8,4.11.35,6.39-10.82,10.03-21.66,20.04-32.57,29.98-1.12,1.02-2.74,1.51-4.18,2.27Z"/>
  <path class="cls-1" d="M160.1,224.55c-.44,1.78-.87,3.57-1.31,5.35-2.93,11.81-5.85,23.63-8.81,35.44-1.22,4.86-2.79,5.44-6.72,2.46-10.52-7.98-20.98-16.05-31.54-23.97-3.54-2.65-4.78-5.78-3.7-10.14,3-12.11,5.8-24.27,8.71-36.4.85-3.54,2.78-4.32,5.81-2.25,11.32,7.74,22.67,15.45,33.84,23.4,1.82,1.29,2.85,3.69,4.24,5.58-.17.18-.35.36-.52.54Z"/>
  <path class="cls-1" d="M137.73,58.25c-1.81-.73-3.24-1.06-4.39-1.82-10.01-6.61-19.98-13.27-29.93-19.97-4.21-2.83-4.31-4.52-.54-7.83,9.95-8.71,19.91-17.41,29.9-26.08,3.68-3.2,6.03-3.35,10.23-.68,9.79,6.19,19.56,12.41,29.33,18.63,3.98,2.53,4.14,4.48.62,7.64-10.06,9.05-20.11,18.11-30.24,27.07-1.45,1.29-3.36,2.07-4.99,3.04Z"/>
  <path class="cls-1" d="M146.04,281.23c-.89,3.76-1.51,6.55-2.21,9.33-2.44,9.62-4.9,19.23-7.36,28.84-1.07,4.19-2.84,4.8-6.26,2.11-10.15-7.97-20.25-15.98-30.42-23.92-3.25-2.54-4.44-5.58-3.43-9.69,2.81-11.53,5.44-23.1,8.18-34.64.86-3.63,2.69-4.3,5.71-2.01,10.76,8.17,21.54,16.32,32.15,24.69,1.75,1.38,2.67,3.83,3.65,5.29Z"/>
  <path class="cls-1" d="M182.57,155.56c-1.68-.67-3.63-1.1-5.2-2.11-12.28-7.99-24.51-16.07-36.69-24.2-.98-.65-2.22-2.03-2.1-2.91.12-.94,1.59-1.99,2.69-2.45,11.53-4.81,23.1-9.53,34.66-14.25,3.29-1.34,6.41-.99,9.32,1.08,11.45,8.13,22.91,16.24,34.33,24.39,3.23,2.3,3.02,4.05-.65,5.64-10.43,4.52-20.88,9-31.34,13.44-1.48.62-3.11.88-5.01,1.39Z"/>
  <path class="cls-1" d="M225.78,91.61c1.49.6,3.55,1.06,5.17,2.16,11.26,7.66,22.44,15.44,33.61,23.23,2.9,2.02,2.72,3.9-.5,5.34-8.87,3.99-17.76,7.92-26.66,11.85-3.46,1.53-6.75,1.2-9.9-.94-11.77-8.01-23.57-15.97-35.31-24.02-.91-.63-2.15-1.99-1.98-2.71.25-1.01,1.52-2.09,2.61-2.54,9.57-3.91,19.18-7.71,28.81-11.49,1.12-.44,2.38-.52,4.15-.9Z"/>
  <path class="cls-1" d="M205.05,210.18c-.11.49-.24,1.19-.41,1.89-2.94,11.81-5.9,23.62-8.81,35.44-.87,3.52-2.9,6.07-6.12,7.62-10.34,4.96-20.68,9.9-31.07,14.74-1.08.5-2.48.33-3.73.47-.05-1.26-.4-2.6-.11-3.77,2.89-11.72,5.91-23.41,8.82-35.12.93-3.72,2.98-6.49,6.42-8.14,10.24-4.92,20.49-9.8,30.76-14.66,2.97-1.41,4.21-.98,4.26,1.54Z"/>
  <path class="cls-1" d="M219.1,189.64c1.97-6.34,3.78-12.21,5.63-18.06,2.25-7.12,4.55-14.22,6.79-21.35,1.11-3.55,3.31-6.06,6.77-7.45,8.55-3.42,17.08-6.88,25.67-10.22,1.12-.43,2.49-.2,3.75-.28,0,1.25.28,2.59-.08,3.73-3.62,11.73-7.35,23.43-11.03,35.14-1.14,3.64-3.4,6.23-6.88,7.79-8.87,3.98-17.72,8-26.62,11.93-.94.42-2.15.55-3.16.37-.44-.08-.68-1.26-.86-1.61Z"/>
  <path class="cls-1" d="M276.84,116.73c-1.74-.71-3.77-1.2-5.43-2.27-11.36-7.31-22.66-14.71-33.92-22.17-1-.66-2.3-2.02-2.18-2.89.12-.91,1.66-1.91,2.78-2.36,7.39-2.99,14.85-5.83,22.28-8.73,3.61-1.41,6.99-1.01,10.25,1.07,10.77,6.9,21.58,13.74,32.31,20.7,1.17.76,2.44,2.1,2.62,3.32.1.71-1.74,2.01-2.94,2.56-6.88,3.16-13.81,6.2-20.76,9.21-1.47.64-3.08.97-5.01,1.55Z"/>
  <path class="cls-1" d="M235.76,241.72c-.1.42-.22,1.02-.39,1.61-2.81,9.85-5.61,19.7-8.44,29.54-1.03,3.59-3.1,6.37-6.38,8.31-9.08,5.38-18.09,10.86-27.18,16.22-1.06.62-2.42.73-3.65,1.07-.04-1.33-.4-2.75-.07-3.98,2.77-10.39,5.75-20.72,8.49-31.12,1.21-4.59,3.82-7.72,8.05-9.84,8.7-4.35,17.29-8.93,25.96-13.36,2.62-1.34,3.65-.87,3.6,1.54Z"/>
  <path class="cls-1" d="M291.36,168.23c-1.26,4.2-2.65,8.81-4.03,13.42-2.24,7.44-4.53,14.87-6.69,22.34-1.1,3.81-3.43,6.41-6.94,8.11-7.37,3.56-14.7,7.21-22.09,10.73-1.02.48-2.28.43-3.44.63-.08-1.23-.49-2.56-.18-3.68,3.32-12.03,6.56-24.09,10.31-35.98.84-2.65,3.13-5.58,5.56-6.84,7.8-4.04,15.97-7.38,24.02-10.93,2.44-1.08,3.66-.38,3.49,2.21Z"/>
  <path class="cls-1" d="M.89,130.29c3.25,2.42,6.52,4.82,9.75,7.28,6.85,5.21,13.8,10.32,20.46,15.76,2.4,1.96,4.66,4.49,6,7.24,3.85,7.92,7.19,16.08,10.71,24.16.35.8.51,1.69,1.01,3.4-1.63-.73-2.65-1-3.45-1.56-8.11-5.76-16.31-11.39-24.19-17.45-2.67-2.05-5-4.94-6.58-7.93-4.69-8.87-8.94-17.98-13.34-27-.51-1.04-.85-2.16-1.27-3.25.3-.22.6-.43.89-.65Z"/>
  <path class="cls-1" d="M43.81,164.78c1.69.94,2.59,1.31,3.34,1.88,9.96,7.54,20.01,14.95,29.75,22.76,2.68,2.15,4.97,5.22,6.48,8.33,3.21,6.62,5.8,13.53,8.6,20.34.35.85.39,1.83.77,3.7-1.74-1.04-2.71-1.5-3.55-2.13-8.92-6.69-17.78-13.47-26.75-20.1-3.9-2.88-6.76-6.42-8.66-10.89-2.85-6.68-5.91-13.27-8.84-19.92-.42-.96-.59-2.02-1.14-3.97Z"/>
  <path class="cls-1" d="M62.72,220.97c-.85-.48-1.75-.89-2.54-1.45-8.08-5.77-16.21-11.47-24.17-17.41-2.08-1.55-4.13-3.57-5.31-5.83-3.96-7.62-7.53-15.45-11.22-23.21-.24-.51-.26-1.13-.54-2.46,1.45.71,2.43,1.05,3.25,1.62,8.31,5.8,16.67,11.52,24.81,17.56,2.31,1.71,4.46,4.09,5.76,6.64,3.61,7.11,6.75,14.46,10.04,21.72.31.69.39,1.49.58,2.23-.22.19-.44.39-.66.58Z"/>
  <path class="cls-1" d="M99.51,268.24c-13.19-5.83-19.6-16.48-22.6-30.64,1.37.76,2.24,1.12,2.97,1.68,6.85,5.22,13.71,10.41,20.45,15.77.77.61,1.25,2.21,1.11,3.24-.45,3.34-1.26,6.62-1.93,9.95Z"/>
  <path class="cls-1" d="M221.25,147.94c-10.88,4.46-21.75,8.95-32.6,13.51-2.99,1.26-4.94,3.6-5.75,6.78-3.43,13.37-6.87,26.74-10.22,40.14-.27,1.06.12,2.29.21,3.44,1.16-.1,2.47.11,3.47-.34,10.25-4.64,20.47-9.36,30.67-14.1,3.36-1.56,5.39-4.23,6.41-7.79,2.42-8.46,4.93-16.88,7.39-25.33,1.4-4.81,2.77-9.63,4.04-14.06.03-2.56-1.16-3.24-3.62-2.23ZM204.85,183.89c-3.64,6.31-9.43,9.78-12.94,7.76-3.5-2.02-3.39-8.77.25-15.08,3.64-6.31,9.43-9.78,12.94-7.76,3.5,2.02,3.39,8.78-.25,15.08Z"/>
  <path class="cls-1" d="M248.67,187.72c-1.35.21-2.84.12-4.04.67-8.37,3.83-16.64,7.88-25.02,11.68-3.96,1.8-6.28,4.65-7.32,8.83-2.17,8.73-4.47,17.42-6.71,26.14-.79,3.07-1.52,6.16-2.21,8.92.01,2.55,1.08,3,3.65,1.66,8.6-4.53,17.15-9.14,25.76-13.66,3.47-1.82,5.66-4.55,6.72-8.32,3.01-10.62,6.12-21.22,9.08-31.85.35-1.26.07-2.7.08-4.06ZM232.85,220.89c-3.64,6.31-9.43,9.78-12.94,7.76-3.5-2.02-3.39-8.77.25-15.08,3.64-6.31,9.43-9.78,12.94-7.76,3.5,2.02,3.39,8.78-.25,15.08Z"/>
  <path class="cls-1" d="M275.03,218.5c-1.15.17-2.44.06-3.42.56-8.37,4.3-16.68,8.72-25.02,13.08-3.37,1.76-5.52,4.44-6.58,8.08-1.57,5.4-3.22,10.77-4.79,16.17-1.52,5.2-2.98,10.42-4.57,15.97.15.37.43,1.53.66,1.53,1.04-.04,2.21-.18,3.09-.7,8.66-5.06,17.42-9.97,25.8-15.45,2.62-1.71,5.01-4.74,6.06-7.69,3.3-9.23,5.93-18.7,8.73-28.11.32-1.06.05-2.29.05-3.45ZM258.73,250.09c-3.91,6.15-9.1,9.84-11.6,8.25-2.5-1.59-1.36-7.86,2.54-14.01,3.91-6.15,9.1-9.84,11.6-8.25,2.5,1.59,1.36,7.86-2.54,14.01Z"/>
  <path class="cls-1" d="M304.61,114.12c-7.91,3.13-15.82,6.24-23.67,9.5-3.21,1.33-5.08,3.96-6.04,7.32-3.2,11.22-6.5,22.42-9.69,33.65-.31,1.09-.07,2.32-.09,3.49,1.25-.04,2.64.29,3.72-.16,7.56-3.16,15.05-6.5,22.57-9.73,3.64-1.56,5.89-4.21,6.97-8.03,2.57-9.06,5.27-18.09,7.91-27.13.69-2.35,1.33-4.72,1.93-6.85-.1-3.11-1.86-2.76-3.63-2.06ZM292.85,145.89c-3.64,6.31-9.43,9.78-12.94,7.76-3.5-2.02-3.39-8.77.25-15.08,3.64-6.31,9.43-9.78,12.94-7.76,3.5,2.02,3.39,8.78-.25,15.08Z"/>
  <path class="cls-1" d="M185.58,264.94c-9.32,4.47-18.6,9.04-27.96,13.43-4.03,1.89-6.37,4.88-7.41,9.16-2.66,10.94-5.47,21.85-8.12,32.79-.28,1.17.01,2.48.04,3.72,1.23-.27,2.62-.25,3.66-.84,9.88-5.62,19.72-11.32,29.55-17.03,3.16-1.84,5.17-4.56,6.1-8.12,2.28-8.72,4.6-17.43,6.91-26.14.5-1.88,1.01-3.75,1.43-5.31,0-2.66-1.25-3.09-4.2-1.67ZM171.85,297.89c-3.64,6.31-9.43,9.78-12.94,7.76-3.5-2.02-3.39-8.77.25-15.08,3.64-6.31,9.43-9.78,12.94-7.76,3.5,2.02,3.39,8.78-.25,15.08Z"/>
  <path class="cls-1" d="M172.99,96.54c-9.58-6.5-19.17-13-28.73-19.53-7.38-5.05-8.23-5.01-15.03,1.01-.38.34-.77.67-1.16,1.01-9.75,8.62-19.52,17.23-29.25,25.88-2.81,2.49-3,4.7-.36,6.63,9.43,6.87,18.97,13.6,28.79,20.62,1.67-5.14,6.02-6.73,10.16-8.5,5.93-2.53,11.79-5.39,17.93-7.24,7.47-2.24,13.26-6.55,18.47-12.05,3.17-3.36,3.06-5.2-.82-7.83ZM135.86,114.85c-6.9,0-12.5-5.6-12.5-12.5s5.6-12.5,12.5-12.5,12.5,5.6,12.5,12.5-5.6,12.5-12.5,12.5Z"/>
  <path class="cls-1" d="M102.86,243.59c-1.02-2.2-1.58-4.63-2.27-6.98-1.2-4.06-3.48-7.29-6.9-9.85-9.66-7.23-19.24-14.57-28.87-21.85-.91-.68-1.95-1.19-2.92-1.79-.21.17-.42.34-.63.52.32,1.01.54,2.07.97,3.03,2.08,4.67,4.46,9.22,6.27,13.99,2.59,6.85,6.85,12.13,12.77,16.42,7.18,5.21,14.03,10.89,21.08,16.4,1.67-3.41,2.07-6.53.51-9.89ZM91.14,237.25c-1.16,1.33-5.14-.23-8.89-3.5-3.75-3.26-5.85-6.99-4.69-8.32,1.16-1.33,5.14.23,8.89,3.5,3.75,3.26,5.85,6.99,4.69,8.32Z"/>
  <path class="cls-1" d="M77.08,247.76c-1.88-4.53-3.85-9.03-5.67-13.58-1.57-3.92-4.04-7.05-7.46-9.51-8.14-5.85-16.23-11.76-24.36-17.62-1.03-.74-2.17-1.33-3.26-1.98-.2.2-.4.39-.6.59.14.56.19,1.16.43,1.67,2.98,6.28,5.79,12.65,9.09,18.76,1.36,2.52,3.5,4.85,5.8,6.61,7.71,5.91,15.63,11.54,23.51,17.23.89.64,2,.98,3,1.46.22-1.59-.06-2.63-.47-3.62ZM62.14,235.25c-1.16,1.33-5.14-.23-8.89-3.5-3.75-3.26-5.85-6.99-4.69-8.32,1.16-1.33,5.14.23,8.89,3.5,3.75,3.26,5.85,6.99,4.69,8.32Z"/>
  <path class="cls-1" d="M172.24,160.59c-11.73-8.42-23.42-16.9-35.14-25.33-3.67-2.64-5.53-1.99-6.5,2.32-3.03,13.48-5.98,26.97-9.04,40.45-.88,3.87.26,6.77,3.49,9.04,11.55,8.14,23.06,16.35,34.61,24.5,3.32,2.35,5.13,1.63,6.11-2.37,2.56-10.43,5.09-20.87,7.61-31.31.84-3.48,1.6-6.97,2.18-9.5.23-3.91-.96-6.09-3.32-7.79ZM152.38,185.87c-5.45,2.65-12.31-.23-15.33-6.44-3.02-6.21-1.05-13.39,4.4-16.04,5.45-2.65,12.31.23,15.33,6.44,3.02,6.21,1.05,13.39-4.4,16.04Z"/>
</svg>