<svg xmlns="http://www.w3.org/2000/svg" viewBox="0 0 464.94 465.36"><defs><style>.cls-1{isolation:isolate;}.cls-2{mix-blend-mode:multiply;}.cls-3{fill:#fff;}.cls-4{fill:#010101;}.cls-5{fill:#f05435;mix-blend-mode:darken;}</style></defs><title>All, PNG &amp;amp; SVG- pixelbones</title><g class="cls-1"><g id="Layer_1" data-name="Layer 1"><g class="cls-2"><rect class="cls-3" x="120.7" y="120.7" width="131.29" height="131.29" transform="translate(-77.19 186.06) rotate(-44.94)"/><path class="cls-4" d="M186.25,278.9,93.8,186.25,186.45,93.8l92.45,92.65Zm93.22-92.45-93-93.22-93.22,93,93,93.22Z"/><rect class="cls-3" x="213.15" y="213.36" width="131.29" height="131.29" transform="translate(-115.63 278.42) rotate(-44.94)"/><path class="cls-4" d="M278.7,371.56,186.25,278.9l92.65-92.45,92.45,92.66Zm93.22-92.45-93-93.23-93.22,93,93,93.23Z"/><rect class="cls-3" x="27.68" y="27.48" width="131.29" height="131.29" transform="translate(-38.51 93.12) rotate(-44.94)"/><path class="cls-4" d="M93.23,185.68.78,93,93.43.57l92.45,92.66Zm93.22-92.45L93.43,0,.21,93l93,93.23Z"/><rect class="cls-3" x="213.36" y="28.26" width="131.29" height="131.29" transform="translate(15.18 224.5) rotate(-44.94)"/><path class="cls-4" d="M278.9,186.45,186.45,93.8,279.11,1.35,371.56,94ZM372.13,94,279.11.78l-93.23,93,93,93.22Z"/><rect class="cls-3" x="27.48" y="213.72" width="131.29" height="131.29" transform="translate(-170.12 147.38) rotate(-44.94)"/><path class="cls-4" d="M93,371.92.57,279.27l92.66-92.45,92.45,92.65Zm93.23-92.45-93-93.22L0,279.27l93,93.22Z"/><rect class="cls-3" x="306.17" y="306.59" width="131.29" height="131.29" transform="translate(-154.3 371.35) rotate(-44.94)"/><path class="cls-4" d="M371.72,464.78l-92.45-92.65,92.65-92.45,92.45,92.66Zm93.22-92.44-93-93.23-93.22,93,93,93.23Z"/><path class="cls-4" d="M61.56,153.93,32.45,124.76l92.66-92.45,29.1,29.17Zm93.22-92.45L125.11,31.74l-93.23,93L61.55,154.5Z"/><path class="cls-4" d="M247,339.81l-29.1-29.16,92.65-92.45,29.11,29.17Zm93.23-92.44-29.67-29.75-93.23,93L247,340.39Z"/><path class="cls-4" d="M340,433l-29.1-29.17,92.65-92.45,29.11,29.17Zm93.23-92.45-29.68-29.74-93.22,93L340,433.61Z"/><path class="cls-4" d="M61.06,339.89,32,310.72,310.5,32.81,339.6,62ZM340.17,62,310.5,32.23,31.39,310.72l29.67,29.74Z"/><path class="cls-4" d="M403.46,433.11,32.52,61.35,61.69,32.24,432.63,404ZM433.2,404,61.69,31.67,32,61.35,403.46,433.68Z"/><path class="cls-4" d="M124.76,340.25,32.31,247.59l29.17-29.1,92.45,92.66Zm29.74-29.1-93-93.23L31.74,247.59l93,93.23Z"/><path class="cls-4" d="M311.22,154.21,218.77,61.56l29.17-29.11,92.45,92.66ZM341,125.11l-93-93.23L218.2,61.55l93,93.23Z"/><rect class="cls-5" x="172.82" y="172.82" width="27.07" height="27.07" rx="13.53" transform="translate(-77.19 186.06) rotate(-44.94)"/><rect class="cls-5" x="264.19" y="206.05" width="27.07" height="27.07" rx="13.53" transform="translate(-73.97 260.3) rotate(-44.94)"/><rect class="cls-5" x="264.98" y="265.76" width="27.07" height="27.07" rx="13.53" transform="translate(-115.91 278.3) rotate(-44.94)"/><rect class="cls-5" x="49.34" y="235.52" width="27.07" height="27.07" rx="13.53" transform="translate(-157.55 117.16) rotate(-44.94)"/><rect class="cls-5" x="108.69" y="295.01" width="27.07" height="27.07" rx="13.53" transform="translate(-182.22 176.46) rotate(-44.94)"/><rect class="cls-5" x="265.48" y="326.89" width="27.07" height="27.07" rx="13.53" transform="translate(-158.94 296.51) rotate(-44.94)"/><rect class="cls-5" x="327.4" y="389.52" width="27.07" height="27.07" rx="13.53" transform="translate(-185.09 358.54) rotate(-44.94)"/><rect class="cls-5" x="388.88" y="328.17" width="27.07" height="27.07" rx="13.53" transform="translate(-123.8 384.05) rotate(-44.94)"/><rect class="cls-5" x="19.24" y="80.38" width="27.07" height="27.07" rx="13.53" transform="translate(-56.76 50.58) rotate(-44.94)"/><rect class="cls-5" x="79.37" y="204.42" width="27.07" height="27.07" rx="13.53" transform="translate(-126.81 129.29) rotate(-44.94)"/><rect class="cls-5" x="139.87" y="263.9" width="27.07" height="27.07" rx="13.53" transform="translate(-151.15 189.39) rotate(-44.94)"/><rect class="cls-5" x="388.25" y="388.73" width="27.07" height="27.07" rx="13.53" transform="translate(-166.76 401.29) rotate(-44.94)"/><rect class="cls-5" x="327.18" y="328.1" width="27.07" height="27.07" rx="13.53" transform="translate(-141.78 340.45) rotate(-44.94)"/><rect class="cls-5" x="78.24" y="325.39" width="27.07" height="27.07" rx="13.53" transform="translate(-212.58 163.82) rotate(-44.94)"/><rect class="cls-5" x="19.03" y="265.2" width="27.07" height="27.07" rx="13.53" transform="translate(-187.36 104.42) rotate(-44.94)"/></g><rect class="cls-3" x="265.25" y="20.09" width="27.07" height="27.07" rx="13.53" transform="translate(57.68 206.74) rotate(-44.94)"/><rect class="cls-3" x="266.04" y="79.8" width="27.07" height="27.07" rx="13.53" transform="translate(15.75 224.73) rotate(-44.94)"/><rect class="cls-3" x="266.55" y="140.93" width="27.07" height="27.07" rx="13.53" transform="translate(-27.29 242.95) rotate(-44.94)"/><rect class="cls-3" x="140.07" y="79.09" width="27.07" height="27.07" rx="13.53" transform="translate(-20.55 135.55) rotate(-44.94)"/><rect class="cls-3" x="325.75" y="79.58" width="27.07" height="27.07" rx="13.53" transform="translate(33.34 266.84) rotate(-44.94)"/><rect class="cls-3" x="204.91" y="80.87" width="27.07" height="27.07" rx="13.53" transform="translate(-2.87 181.87) rotate(-44.94)"/></g></g></svg>