<svg id="Layer_1" data-name="Layer 1" xmlns="http://www.w3.org/2000/svg" viewBox="0 0 605.57 554"><defs><style>.cls-1{fill:#010101;}</style></defs><title>All, PNG &amp;amp; SVG- pixelbones</title><path class="cls-1" d="M605.57,355.5c-12.88-4.78-28.86-12.93-38.77-21.57l7,19.3H535.84c-.12,1.53-.28,3-.5,4.54h38.44l-7,19.3C576.71,368.43,592.69,360.28,605.57,355.5Z"/><path class="cls-1" d="M179.14,528.74l-152.07-171h77.48c-.31-1.51-.59-3-.84-4.54H23.84V31.79l19.3,7C34.5,28.86,26.35,12.88,21.57,0,16.79,12.88,8.64,28.86,0,38.77l19.3-7V355a2.28,2.28,0,0,0,.58,1.51L175.75,531.75l-19.06,7.62c13,1.66,29.75,8.18,41.88,14.63-5-12.8-9.52-30.16-9.65-43.3Z"/><path d="M194.53,202c2.9,1.43,5.59,2.28,7.71,3.88Q228,225.33,253.53,245c5.44,4.19,5.66,7.86.72,12.51q-28.62,27-57.34,53.87c-5,4.72-9.55,5-15,.66Q156,291.59,130.19,270.94c-5.32-4.25-5.49-7.94-.45-12.55q28.66-26.19,57.51-52.14C189.2,204.49,191.86,203.53,194.53,202Z"/><path d="M121.79,144.25c2.7,1.29,5.1,2,7,3.39q24.36,18.24,48.54,36.71c4.58,3.5,4.88,7.62.72,11.51q-29.11,27.24-58.4,54.3c-4.06,3.75-9,4.09-13.44.8q-26.24-19.23-52.27-38.72c-4.35-3.26-4.35-7.39-.2-11Q84,174.52,114.53,148C116.51,146.3,119.29,145.51,121.79,144.25Z"/><path d="M362.92,50.7c2.86,1.26,5.38,2,7.55,3.38q26.71,16.65,53.32,33.5c6.25,4,6.71,7.37,1.33,12.41q-27.78,26-55.73,51.84c-4.71,4.36-9.4,4.64-14.77.91q-26.73-18.56-53.32-37.32c-5.15-3.63-5.4-7.35-.73-11.59q27.19-24.7,54.61-49.18C357.26,52.81,360.27,52,362.92,50.7Z"/><path d="M196.92,176.42c-2.59-1.27-4.78-2-6.53-3.25Q165.21,154.71,140.16,136c-5.34-4-5.59-7.65-.69-12Q166.67,100.15,194,76.4c4.46-3.87,9-4.27,13.95-1q25.67,17.34,51.1,35c4.62,3.2,4.79,7,.6,10.9Q232,147,204.06,172.54C202.14,174.29,199.38,175.12,196.92,176.42Z"/><path d="M320.78,383.76q-1.11,4.58-2.23,9.13-7.51,30.25-15,60.51c-2.08,8.3-4.78,9.29-11.48,4.2-18-13.63-35.82-27.4-53.86-40.93-6-4.53-8.16-9.86-6.31-17.31,5.12-20.67,9.9-41.43,14.87-62.15,1.45-6,4.74-7.37,9.91-3.84,19.34,13.22,38.71,26.39,57.79,40,3.11,2.2,4.86,6.3,7.24,9.52Z"/><path d="M282.58,99.8c-3.09-1.25-5.53-1.82-7.49-3.11Q249.46,79.76,224,62.59c-7.18-4.83-7.35-7.72-.91-13.36q25.49-22.32,51.05-44.54C280.4-.77,284.41-1,291.59,3.52q25.07,15.87,50.08,31.82c6.78,4.32,7.06,7.64,1.06,13C325.55,63.83,308.39,79.3,291.09,94.6,288.61,96.8,285.36,98.14,282.58,99.8Z"/><path d="M296.78,480.55c-1.52,6.42-2.58,11.19-3.78,15.93q-6.24,24.63-12.57,49.23c-1.83,7.17-4.84,8.21-10.69,3.61-17.32-13.6-34.58-27.28-51.93-40.84-5.56-4.34-7.58-9.53-5.87-16.55,4.8-19.68,9.3-39.43,14-59.15,1.48-6.2,4.59-7.34,9.75-3.42,18.38,13.95,36.78,27.87,54.89,42.16C293.55,473.89,295.11,478.06,296.78,480.55Z"/><path d="M359.14,266c-2.87-1.14-6.2-1.87-8.87-3.61Q318.8,241.89,287.61,221c-1.67-1.12-3.79-3.48-3.59-5s2.71-3.4,4.59-4.18c19.69-8.23,39.44-16.28,59.19-24.34a15.7,15.7,0,0,1,15.91,1.84Q393,210.19,422.34,231c5.51,3.93,5.16,6.91-1.12,9.62q-26.72,11.58-53.52,22.95C365.18,264.65,362.39,265.08,359.14,266Z"/><path d="M432.94,156.77c2.54,1,6.06,1.81,8.83,3.69,19.22,13.08,38.31,26.37,57.4,39.66,4.95,3.45,4.64,6.66-.86,9.12q-22.71,10.22-45.51,20.24a16.44,16.44,0,0,1-16.92-1.61c-20.09-13.67-40.24-27.26-60.29-41-1.56-1.07-3.67-3.4-3.37-4.62.42-1.73,2.59-3.57,4.44-4.33,16.34-6.68,32.76-13.17,49.19-19.61C427.76,157.55,429.91,157.4,432.94,156.77Z"/><path d="M397.53,359.23c-.18.84-.41,2-.7,3.22-5,20.17-10.08,40.34-15.05,60.52a18.69,18.69,0,0,1-10.46,13c-17.65,8.46-35.31,16.9-53.05,25.18-1.85.86-4.24.56-6.37.79-.09-2.15-.69-4.43-.19-6.44,4.93-20,10.08-40,15.06-60,1.59-6.35,5.09-11.07,11-13.89q26.22-12.6,52.51-25C395.32,354.21,397.44,354.94,397.53,359.23Z"/><path d="M421.52,324.16c3.37-10.82,6.45-20.85,9.61-30.85,3.83-12.16,7.77-24.28,11.59-36.45a19.11,19.11,0,0,1,11.57-12.72c14.6-5.84,29.17-11.75,43.83-17.44,1.91-.74,4.26-.35,6.4-.48,0,2.13.48,4.42-.12,6.37-6.18,20-12.56,40-18.83,60a20.67,20.67,0,0,1-11.75,13.31c-15.15,6.79-30.26,13.66-45.45,20.37a9.75,9.75,0,0,1-5.39.64C422.24,326.78,421.82,324.76,421.52,324.16Z"/><path d="M520.12,199.65c-3-1.21-6.44-2.05-9.27-3.87q-29.09-18.72-57.91-37.86c-1.71-1.13-3.92-3.45-3.73-4.93s2.83-3.26,4.75-4c12.62-5.09,25.35-9.94,38-14.9a18.34,18.34,0,0,1,17.5,1.82c18.4,11.78,36.85,23.46,55.18,35.35,2,1.29,4.17,3.59,4.47,5.68.18,1.22-3,3.44-5,4.37-11.74,5.4-23.58,10.59-35.45,15.73A84,84,0,0,1,520.12,199.65Z"/><path d="M450,413.08c-.17.72-.38,1.75-.67,2.75q-7.19,25.23-14.4,50.44A23.34,23.34,0,0,1,424,480.45c-15.5,9.18-30.89,18.55-46.41,27.71-1.81,1.06-4.14,1.24-6.23,1.83-.07-2.28-.68-4.69-.12-6.8,4.74-17.74,9.82-35.39,14.5-53.14a24.81,24.81,0,0,1,13.76-16.79c14.85-7.44,29.52-15.26,44.32-22.81C448.3,408.17,450.07,409,450,413.08Z"/><path d="M544.91,287.59c-2.16,7.18-4.52,15-6.89,22.91-3.82,12.71-7.73,25.39-11.42,38.14a21.24,21.24,0,0,1-11.86,13.84c-12.59,6.08-25.1,12.31-37.72,18.32-1.73.83-3.9.74-5.87,1.08-.13-2.1-.84-4.37-.31-6.29,5.67-20.54,11.19-41.13,17.6-61.44,1.43-4.52,5.35-9.53,9.5-11.68,13.32-6.89,27.26-12.6,41-18.66C543.12,282,545.2,283.16,544.91,287.59Z"/><path d="M48.93,222.8c5.55,4.14,11.14,8.24,16.65,12.43,11.7,8.91,23.56,17.62,34.94,26.92a38.46,38.46,0,0,1,10.25,12.37c6.57,13.52,12.28,27.46,18.29,41.25.59,1.37.87,2.88,1.72,5.8-2.79-1.24-4.52-1.7-5.89-2.67-13.84-9.82-27.85-19.44-41.3-29.79a42.47,42.47,0,0,1-11.23-13.53c-8-15.15-15.27-30.7-22.78-46.11-.87-1.78-1.46-3.7-2.17-5.55Z"/><path d="M122.22,281.7a60.39,60.39,0,0,1,5.71,3.2c17,12.87,34.17,25.54,50.8,38.87A42.07,42.07,0,0,1,189.79,338c5.48,11.3,9.91,23.1,14.69,34.74.6,1.45.67,3.13,1.3,6.31-3-1.77-4.62-2.56-6.06-3.64-15.23-11.43-30.36-23-45.68-34.33a44,44,0,0,1-14.79-18.58c-4.87-11.41-10.1-22.66-15.09-34A61.06,61.06,0,0,1,122.22,281.7Z"/><path d="M154.5,377.64a46.34,46.34,0,0,1-4.34-2.48c-13.8-9.85-27.68-19.59-41.26-29.72a31.11,31.11,0,0,1-9.07-10c-6.77-13-12.86-26.38-19.16-39.63-.42-.87-.44-1.92-.93-4.19a46.69,46.69,0,0,1,5.56,2.77c14.18,9.91,28.47,19.68,42.37,30a33.84,33.84,0,0,1,9.83,11.33c6.17,12.13,11.52,24.68,17.14,37.09a21.85,21.85,0,0,1,1,3.82Z"/><path d="M217.33,458.36c-22.52-9.95-33.48-28.13-38.59-52.32a48.48,48.48,0,0,1,5.07,2.87c11.69,8.9,23.41,17.78,34.91,26.92,1.32,1.05,2.14,3.77,1.9,5.54C219.85,447.07,218.47,452.68,217.33,458.36Z"/><path d="M425.2,253Q397.32,264.37,369.54,276a16.42,16.42,0,0,0-9.83,11.57c-5.86,22.83-11.73,45.66-17.45,68.53-.46,1.82.2,3.91.35,5.88,2-.17,4.21.19,5.92-.59,17.51-7.91,35-16,52.38-24.08,5.74-2.66,9.21-7.22,10.95-13.3,4.13-14.44,8.42-28.83,12.61-43.25,2.4-8.22,4.74-16.45,6.91-24C431.43,252.38,429.4,251.22,425.2,253Zm-28,61.39C391,325.11,381.08,331,375.1,327.58s-5.79-15,.43-25.75,16.1-16.7,22.08-13.25S403.4,303.57,397.19,314.34Z"/><path d="M472,320.87c-2.31.35-4.85.2-6.89,1.14-14.29,6.54-28.41,13.45-42.72,19.94A21.06,21.06,0,0,0,409.91,357c-3.7,14.91-7.64,29.75-11.45,44.63-1.35,5.24-2.6,10.51-3.77,15.23,0,4.35,1.85,5.13,6.23,2.83,14.69-7.73,29.29-15.62,44-23.33a22,22,0,0,0,11.48-14.2c5.14-18.14,10.45-36.23,15.51-54.39C472.49,325.65,472,323.19,472,320.87Zm-27,56.65c-6.22,10.77-16.11,16.7-22.09,13.24s-5.79-15,.43-25.75,16.1-16.7,22.09-13.25S451.22,366.75,445,377.52Z"/><path d="M517,373.43c-2,.3-4.17.1-5.84,1-14.3,7.34-28.49,14.89-42.73,22.33a21.71,21.71,0,0,0-11.24,13.8c-2.68,9.21-5.49,18.39-8.18,27.6-2.59,8.89-5.09,17.8-7.8,27.28.26.64.73,2.62,1.12,2.61a11.58,11.58,0,0,0,5.27-1.19c14.78-8.64,29.74-17,44.05-26.39A28,28,0,0,0,502,427.31c5.63-15.77,10.13-31.94,14.91-48C517.48,377.51,517,375.4,517,373.43Zm-27.84,53.94c-6.67,10.49-15.54,16.8-19.81,14.09s-2.33-13.43,4.34-23.92,15.54-16.81,19.81-14.09S495.86,416.87,489.19,427.37Z"/><path d="M567.54,195.19c-13.5,5.34-27,10.65-40.41,16.23-5.48,2.28-8.67,6.75-10.31,12.5-5.47,19.17-11.1,38.28-16.54,57.46-.53,1.85-.13,4-.16,6,2.13-.06,4.52.49,6.35-.28,12.91-5.39,25.69-11.09,38.55-16.62a20,20,0,0,0,11.9-13.71c4.4-15.47,9-30.88,13.51-46.32,1.18-4,2.28-8.06,3.31-11.7C573.57,193.4,570.56,194,567.54,195.19Zm-20.09,54.26c-6.22,10.77-16.11,16.7-22.09,13.25s-5.79-15,.43-25.76,16.11-16.7,22.09-13.24S553.67,238.68,547.45,249.45Z"/><path d="M364.29,452.73c-15.92,7.63-31.76,15.43-47.75,22.93-6.88,3.23-10.87,8.33-12.64,15.65-4.54,18.68-9.34,37.31-13.88,56-.48,2,0,4.24.07,6.36,2.1-.45,4.48-.42,6.26-1.43,16.88-9.59,33.67-19.34,50.46-29.09a21.73,21.73,0,0,0,10.42-13.86q5.83-22.33,11.79-44.63c.85-3.21,1.73-6.41,2.45-9.07C371.46,451,369.33,450.31,364.29,452.73ZM340.84,509c-6.22,10.77-16.11,16.7-22.09,13.24s-5.79-15,.43-25.75,16.1-16.7,22.09-13.25S347.06,498.23,340.84,509Z"/><path d="M342.79,165.18q-24.54-16.65-49.06-33.35c-12.6-8.61-14-8.56-25.67,1.73l-2,1.73q-25,22.08-49.95,44.19c-4.79,4.26-5.13,8-.62,11.32C231.63,202.53,247.91,214,264.68,226c2.85-8.78,10.28-11.5,17.35-14.51,10.13-4.33,20.13-9.21,30.63-12.36,12.74-3.83,22.64-11.18,31.53-20.58C349.61,172.83,349.41,169.68,342.79,165.18Zm-63.4,31.27a21.34,21.34,0,1,1,21.34-21.34A21.34,21.34,0,0,1,279.39,196.45Z"/><path d="M223,416.27c-1.74-3.77-2.69-7.91-3.88-11.92a31.61,31.61,0,0,0-11.78-16.82c-16.5-12.35-32.86-24.88-49.3-37.3a57.3,57.3,0,0,0-5-3.05l-1.08.88a45.09,45.09,0,0,0,1.65,5.17c3.55,8,7.62,15.74,10.7,23.88,4.43,11.69,11.7,20.71,21.8,28.05,12.27,8.9,24,18.58,36,28C225,427.34,225.7,422,223,416.27Zm-20-10.82c-2,2.27-8.77-.4-15.17-6s-10-11.93-8-14.2,8.77.4,15.18,6S205,403.17,203,405.45Z"/><path d="M179,423.4c-3.21-7.74-6.57-15.41-9.69-23.19A36,36,0,0,0,156.6,384c-13.9-10-27.72-20.08-41.6-30.09-1.76-1.27-3.71-2.26-5.57-3.39l-1,1a15.56,15.56,0,0,0,.73,2.84c5.09,10.72,9.89,21.6,15.52,32a37,37,0,0,0,9.9,11.29c13.16,10.09,26.7,19.71,40.15,29.43a32.35,32.35,0,0,0,5.12,2.49A10.9,10.9,0,0,0,179,423.4ZM153.52,402c-2,2.28-8.78-.4-15.18-6s-10-11.92-8-14.2,8.78.4,15.18,6S155.49,399.76,153.52,402Z"/><path d="M341.52,274.55q-30-21.57-60-43.26c-6.27-4.51-9.44-3.39-11.1,4-5.17,23-10.22,46.06-15.43,69.07-1.49,6.61.45,11.56,6,15.44,19.73,13.9,39.38,27.91,59.1,41.83,5.67,4,8.75,2.79,10.43-4.05q6.56-26.71,13-53.47c1.43-5.93,2.73-11.9,3.71-16.22C347.58,281.18,345.56,277.45,341.52,274.55ZM307.6,317.72c-9.3,4.52-21-.4-26.18-11s-1.79-22.87,7.51-27.39,21,.4,26.18,11S316.9,313.19,307.6,317.72Z"/></svg>