<svg id="Layer_1" data-name="Layer 1" xmlns="http://www.w3.org/2000/svg" viewBox="0 0 109 108.92"><defs><style>.cls-1{fill:#fff;}</style></defs><title>All, PNG &amp;amp; SVG- pixelbones</title><path d="M57.6,0c1.66.2,3.32.37,5,.62A53.07,53.07,0,0,1,88,11.54a52.76,52.76,0,0,1,19.83,31.88c3.26,16.37-.22,31.37-10.5,44.59a53.06,53.06,0,0,1-31.76,19.74,52.79,52.79,0,0,1-21.21.18A53.61,53.61,0,0,1,16.05,93,52.35,52.35,0,0,1,1.28,66c-3.42-16.63,0-31.82,10.44-45.25A53.22,53.22,0,0,1,43.43,1.13C45.68.65,48,.5,50.28.19c.36,0,.73-.13,1.1-.19ZM14.72,78.62H39.81a21.27,21.27,0,0,0,6.72-1c3.88-1.29,6.89-3.58,8.4-7.5a18,18,0,0,0,.15-12.35,8,8,0,0,0-4.81-5.34,27.9,27.9,0,0,0-2.8-.72l.78-.24a7.69,7.69,0,0,0,5.56-5.63A16.24,16.24,0,0,0,54.25,41c-.34-4.79-2.59-8.39-7.08-10.42a17.63,17.63,0,0,0-7.34-1.32c-8,0-16.09,0-24.13,0h-1Zm54-15.4H69.8c7.84,0,15.68,0,23.51,0,.68,0,1-.15,1-.89A27.85,27.85,0,0,0,93.23,53c-1.39-4.33-3.9-7.73-8.17-9.62a20.74,20.74,0,0,0-10.24-1.44c-5.24.43-9.74,2.41-12.83,6.82a21.47,21.47,0,0,0-3.34,17.85c1.29,5.54,4.49,9.67,9.92,11.65a24.83,24.83,0,0,0,17,.07c4.2-1.45,7.07-4.25,8-8.74.19-1,.24-2,.36-3-2.87,0-5.55,0-8.22,0a.74.74,0,0,0-.55.46,5.09,5.09,0,0,1-3.68,4.16,12.18,12.18,0,0,1-6.74.38C70,70.52,68.45,66.57,68.72,63.22Zm18-31H66.45v6H86c.38,0,.76,0,.76-.54C86.76,35.87,86.77,34.07,86.77,32.19Z"/><path class="cls-1" d="M14.72,78.62V29.22h1c8,0,16.08,0,24.13,0a17.63,17.63,0,0,1,7.34,1.32c4.49,2,6.74,5.63,7.08,10.42a16.24,16.24,0,0,1-.44,4.86,7.69,7.69,0,0,1-5.56,5.63l-.78.24a27.9,27.9,0,0,1,2.8.72,8,8,0,0,1,4.81,5.34,18,18,0,0,1-.15,12.35c-1.51,3.92-4.52,6.21-8.4,7.5a21.27,21.27,0,0,1-6.72,1H14.72ZM26,69.84h10.3c1.38,0,2.77,0,4.15-.06a5,5,0,0,0,4.89-4.42,12.47,12.47,0,0,0,.13-3.17c-.34-3.69-2.46-5.55-6.15-5.55H26ZM26,38V49H38.85c.55,0,1.1,0,1.64-.09a3.12,3.12,0,0,0,2.77-2.15,9.59,9.59,0,0,0,.18-6.17A3.44,3.44,0,0,0,39.91,38c-4.18,0-8.35,0-12.52,0Z"/><path class="cls-1" d="M68.72,63.22c-.27,3.35,1.28,7.3,6,8.33a12.18,12.18,0,0,0,6.74-.38A5.09,5.09,0,0,0,85.17,67a.74.74,0,0,1,.55-.46c2.67,0,5.35,0,8.22,0-.12,1-.17,2-.36,3-.92,4.49-3.79,7.29-8,8.74a24.83,24.83,0,0,1-17-.07c-5.43-2-8.63-6.11-9.92-11.65A21.47,21.47,0,0,1,62,48.71c3.09-4.41,7.59-6.39,12.83-6.82a20.74,20.74,0,0,1,10.24,1.44c4.27,1.89,6.78,5.29,8.17,9.62a27.85,27.85,0,0,1,1.07,9.39c0,.74-.31.9-1,.89-7.83,0-15.67,0-23.51,0Zm16-6.65a4.07,4.07,0,0,0,0-.46c-.4-3.81-2.59-6.83-7-7.06a8.54,8.54,0,0,0-9.12,7.52Z"/><path class="cls-1" d="M86.77,32.19c0,1.88,0,3.68,0,5.49,0,.58-.38.54-.76.54H66.45v-6Z"/><path d="M26,69.84V56.63H39.33c3.69,0,5.81,1.86,6.15,5.55a12.47,12.47,0,0,1-.13,3.17,5,5,0,0,1-4.89,4.42c-1.38.1-2.77.06-4.15.06H26Z"/><path d="M26,38h1.36c4.17,0,8.34,0,12.52,0a3.44,3.44,0,0,1,3.53,2.6,9.59,9.59,0,0,1-.18,6.17,3.12,3.12,0,0,1-2.77,2.15C40,49,39.4,49,38.85,49H26Z"/><path d="M84.67,56.57H68.6a8.54,8.54,0,0,1,9.12-7.52c4.39.23,6.58,3.25,7,7.06A4.07,4.07,0,0,1,84.67,56.57Z"/></svg>