<svg id="Layer_1" data-name="Layer 1" xmlns="http://www.w3.org/2000/svg" viewBox="0 0 337.55 355.42"><title>All, PNG &amp;amp; SVG- pixelbones</title><path d="M0,142l9.4-.75c2.67-7.48,5.11-14.28,7.77-21.71l-13-17.08c9.33-9.77,15.16-21.5,30.24-19.51C36.13,71.08,44.3,69.2,54,69.33c2,0,4.1-1.48,7.86-2.94L44.83,52.79l2.7-2.36,8.38.55L49.1,45.23l.4-1,19,6.79C73,41.33,82,37.72,91.69,35.09,97,43.4,101.6,50.71,105.43,56.73L88.87,81.37l11.06,4.92,8.53-20.92,7.82,4.44,3.18-2.09,24.63,14.35v1.81l4.4,6.2-27.44,18.56,4.55,10.26,17.15-22.75c14.91,4.52,27.95,11.62,33.76,26.72l30.29-8.76.43,1.47-11.88,8.55h14.78l-.49,1.15,4.56,3.06c-1.29.62-2.52,1.3-3.81,1.83-11.71,4.79-20.43,13-28,23-2.7,3.55-7.48,5.72-11.65,7.87-5.4,2.8-11.14,5-15.72,6.94-.66,8.35-1.27,15.87-1.78,22.31l27.34,10.05c.12,1,.39,3.19.7,5.6l-41.62,20.89c-1.17,4.79-2.43,9.91-3.69,15.06l3.92,2.88c-1.21,6.24-2.46,12.71-3.82,19.8l31.17,2.25c-1.73,5.85-3.25,11-4.83,16.33l1.32,2.1-14.69,27c8.92,7.69,19.48,9.42,30.88,8.45l-1.2,4.12-7.47,4,8.52,1.22.26,1.22-18.2,4.08-5.37,18.7-4.37.27c.7-5.93,2-11.6,1.85-17.24s-1.63-11.09-2.75-18l-14.38,18.58-7.6-4.92c-1,5.51-1.88,10.75-2.86,16.29l10,4.73-.54,1.15L125,349.71c.91-4.27,1.68-7.92,2.45-11.57l-1.12-.21c-.15.82-.3,1.65-.28,1.56l-13,14.79h-4.71c1.27-11,6.48-19.78,14.36-28.19L90.2,313c-3.2,5.33-6.62,9.74-8.6,14.72-1.84,4.61-1.45,9.44,3.81,12.64a124.37,124.37,0,0,1,19.14,14l-24.72-16,5.07,14.22-1.07.59-5.79-7-1.57,1.3,4.37,6.67C72,355.47,59.56,349,55,339.09l1.34,13.54c-4.94-1-9.2-1.74-13.44-2.62s-8.36-1.85-12.9-2.86c-.91,2.44-1.75,4.7-3.07,8.27L9.71,350.55l.29-1.39-2.41,1.15L0,343.94V342.3l8,6.51,3.94-4.49c-.82-2.1-1.88-3.71-2-5.4-.7-8.53-.92-17.1-1.86-25.6-.28-2.54-2.33-4.88-3.52-7.22L0,308.27v-1.65l7.33-3.86c.19-12.91,13.28-9.16,19.63-15.29l.29-3.9-21.13,9.8-3.38.19-1.09-2.48L0,291.81v-1.65L17.92,281,0,286.32v-3.84l27.34-6a6.92,6.92,0,0,0-.06-3.1c-2.23-7.33-4.66-14.59-7-21.87-2.58-8-5.74-10.32-14.23-10.64-2-.08-4-.1-6-.14v-3.84l4.81,2.45,15-26.81-7.55,2-3.06-8.88-9.21-5v-8.79H14.24c.44-.7.95-1.53.5-.8l9.89-6.06-5.83-2.3c-.28-.64-.64-1.44-.53-1.19l-5.13-2.29c-1-7.42-2-14.63-3-22.2L0,154.61v-8.78l9.38,3.51.3-2.79,2.2-1.78v-1.69H0Zm175,12.35c.7-19.38-17.06-49.58-32.33-55.22l-23,30.8c11.59,10.17,18.74,22.76,22.69,37.4ZM152.18,168.9c-14.87,9.94-11.06-5.57-15.69-10.75L98.9,164.39c8.77,14,12.1,28.5,10.5,43,12.21-4.59,24.22-9.09,36.2-13.68a7.54,7.54,0,0,0,3.57-2.3C153.7,184.75,153.4,177.38,152.18,168.9ZM129,146.9,97.63,118.33l-29.19,34,29.18,20-3-4.94,2.65-1.29v-3.39C111.08,164.13,119.59,154.84,129,146.9ZM13.06,296.3c.62,12.72,1.27,26,1.93,39.3l41.73-8.5c-2.72-11.52-5.36-22.73-8.06-34.19C36.65,292.31,24.73,287.46,13.06,296.3Zm24.52-14.93c14.9,2.71,30.66-3.56,44.34,9.62-2.74-10.17-4.79-18.14-7.09-26.05a19.91,19.91,0,0,0-3.13-6.51c-9.16-12-21.83-9.89-34.12-8.37Zm53-20.82c14.68-5.06,29.28,7.75,41.75-2.65l4.12-26.83L106,228.2C100.94,238.78,96,249.14,90.61,260.55ZM26,209.1l6.72,33.52,22.67-5.33-1.58-2.68,7.09-11.49c-1.19-3.11-2.31-6.09-3.47-9.06s-2.35-5.86-3.79-9.44ZM56.08,332.52C68,331.31,86.54,315,88.52,304.19c-4-2.07-8-4.19-12.08-6.25-10.82-5.51-16.09-4.15-23.13,6.11,1.62,7.7,3.29,15.6,5,23.5l-2.78,1.76Zm106.4-47.47L135,270.65l-9,27.49,22.71,11.37C152.82,302.17,157.55,293.79,162.48,285.05ZM63.23,94.65c0,7.91-.19,14.66.17,21.37.07,1.28,2.17,3,3.68,3.55,6.69,2.66,13.51,5,21.27,7.78l8.11-27.6Zm.12-29,0,2.14c-4.72,1-9.56,1.68-14.12,3.17a40.75,40.75,0,0,0-11.41,5.63c-1.18.85-1.38,5.75-.44,6.36C45.1,88,53.22,92.47,61.71,97.41c.43-9.27,6.54-12.93,13.36-16.26,3.67-1.8,6.88-4.53,11.64-7.74ZM56.58,96.87c-17.67-17.68-37.4-16.61-47.69,2.8,6,5.68,12,11.43,19,18L43.62,96.39l2.21,3.67Zm47.75-39.63L91.55,37.53C81.91,41,69.87,57,70.05,66.47l15.38,5,4.19,4.87C94.45,70.05,99.19,63.9,104.33,57.24ZM77.19,255.63c-.57,2.36-1.65,4.32-1.34,6,.76,4.3,2.12,8.5,3.3,12.72,1.78,6.35,3.62,12.68,5.13,18,4.58-1.46,8.64-3.77,12.7-3.77,4.87,0,9.71,2.11,14.6,3.06,4.48.86,9,1.39,14.73,2.25l-1.81-4.23-2.58,3.08Zm37.79-49c9.26-1.84,17.23.06,24.37,6a3.93,3.93,0,0,0,3,.75c8.39-2.17,16.8-4.31,25.07-6.89,3.14-1,5.91-3.12,8.59-4.59-4.24-2.22-7.82-4.79-11.82-6A43.44,43.44,0,0,0,150.37,194c-3.32.11-6.59,2-9.85,3.21C132,200.35,123.49,203.51,115,206.65ZM72.32,138.58l-16-28.05L29.89,126.59l6.94,7.89,1.5-6.45,4.08-.25,5.49,11.39,4.69-1.68,2.55,1.3L64,133.08l1,8.8ZM41.91,171.52,24.83,160.63l3.91-6.48v-1.21l4.45-3.6c-3.22-4.85-14.91-5.9-22.49-1.77l3,29.09ZM109,67.69c-2.76,6.69-5.46,13.23-8.29,20.11l18.11,16.27c1.24-3.58,2.11-6.45,3.23-9.22,1.59-3.95,3.83-7.71,4.86-11.79.6-2.35.23-6.63-1.22-7.51C120.18,72.24,114.07,70,109,67.69Zm-46.67,68.6c-4.61,2.51-9.58,5-14.29,7.89-1.39.87-3.19,3.31-2.84,4.39,2.42,7.41,5.36,14.66,9,24.15L70.78,156.3l-4.3-3.62,1.31-2.62C65.82,145.12,64.09,140.77,62.31,136.29Zm86.13,177.36c-14.2-17.51-22.57-11.22-35.5-.63l22.62,14.87ZM37.3,203.71c.61-8,1.17-15.45,1.71-22.57-4.74-3.63-8.89-2.35-13.22,2.91-2.4,2.92-5.53,5.23-8.33,7.82l-1.2-1c-1.64,5.65-3.27,11.3-5.05,17.44C20.62,208.55,27.16,197.38,37.3,203.71Zm2-3.62,24.94-17.31c-.76-4.28-1.47-8.18-2.16-12C40.71,171,39.42,179.51,39.29,200.09Zm20.86-4.62,10,13,5.66-8.29,5-1.18,6.74,3c4.23-5.79-.36-15.68-9.8-21.49Zm20.32,4.92-19.12,32.3,21.89,14.36L70.93,230.66C75.86,222.2,81.2,213,86.7,203.55ZM27,222.84c-1.74,3.1-3.41,5.8-4.81,8.63-1.26,2.56-3.59,5.55-3.11,7.86,2.12,10.17,5.09,20.16,7.76,30.21l.92-.23,1.48-15.81,3.47-4.43,2.36-.68-.79-4.21-2.86-1.06C30,236.42,28.49,229.76,27,222.84Zm65.14-25.69L73,230.47,86.6,249.52l.54-.24-7.53-13.95,16.53-28.69C94.81,203.49,93.65,200.76,92.13,197.15Zm.33,55.37,15.78-34.11-3.12-.39c-.81-2.52-1.61-5-2.49-7.79-1.79,3.6-3.69,7.1-5.3,10.74C92.81,231.13,84.12,240.63,92.46,252.52ZM33.4,139c-1.2-7.64-14.06-10.11-6.14-20l-4.74-2.49-6.11,26.55L32,144.78Zm73.67,176,18-12.38L87.14,297C93.14,304.81,105.73,302.89,107.07,315ZM17.38,241.89c-1-11.11,12.67-18.72,6.08-32.71L6.81,238.9Zm91.89-25.62c-.67,3.43-1.3,6.7-1.93,9.95l26.4,4.05.25-1.94-3.26.31C125.26,217.22,116.94,212.44,109.27,216.27Zm91.29-99.7-22.92,8.18c.47,8.82.88,16.27,1.37,25.33C182.67,135.55,190.62,125.76,200.56,116.57ZM134.21,258.8c-11.83,7.73-23.75,2.71-32.83,2.06l28.56,16.33Zm-44.32-5.44c-.35-2.08-.37-5.32-1.5-8.1-2.06-5.07-.7-9.25,1.75-13.68,3.57-6.46,7-13.05,10-19.8,1.15-2.58,1-5.74,1.39-8.64l-1.64-.39-18,32.56ZM33.47,284.82c15.17,2.55,31.4-2.62,45.88,5.92-7.62-7.48-17-7.34-26.67-6.9-5.24.24-10.52-.4-16-.65-.54-11.61-1-22-1.5-32.34l-1.7.11ZM85.17,83.56C96.46,97.64,104.82,103,115,102.28,104.79,96,99.57,83,85.17,83.56ZM78.41,292.43c-16.07-8.51-31.84-3.75-46.82-6.16v-32.1h-.24c-.51,11-1,21.94-1.56,33.3ZM100.8,198.3,90.47,181.23l1-1.77-1.25-1.08C88.4,180.71,86.6,183,85,185.05L91.39,196l1.5-.73c1.35,3.12,2.62,6.06,4.22,9.74ZM55.39,337.54c-.83-3.81-1.31-6-1.84-8.39l-30.31,6.32ZM124.66,141l-18-27.71-5.4,6.47ZM100.81,265.1c7.55,7.88,12.34,19,24.42,22l.68-3.6Zm16.06-55.29,20,13,19.28-8.09a52.58,52.58,0,0,0-10,2c-5.41,1.54-10,1.33-15.06-2.36C127.2,211.48,121.46,211.16,116.87,209.81Zm-57.21,126,22.36,11c-2.56-4.57-5.29-9.44-7.88-14.08ZM124.15,95.17l15.24-13.49L129.64,76C127.61,83.09,125.59,90.14,124.15,95.17ZM33.15,152,48.42,163.7c-1.69-5.19-3.76-11.55-5.82-17.86Zm-21,144.9H9l2.67,40.73.46,0ZM63.39,119.78c2.77,4.76,4.93,8.45,6.66,11.42l14.21-4Zm67,159.59L99.27,261.31l-.62,1.19,30.63,20.64C129.9,281.1,130.17,280.2,130.42,279.37ZM32.8,147.12,35,148.26l9.14-6.36c-1.43-3.67-2.71-7-4.62-11.92C36.88,136.76,34.84,141.94,32.8,147.12ZM72,156.86c-3.75,4-7.19,7.67-10.7,11.42,5.88,2.68,12-.62,15.25-8.18ZM203.68,125.8c-9-1.63-17.83,5.9-20.25,16.75ZM174.59,331.85l-19.5-9.51,5.48,11.57ZM54.41,46.54,66.06,64.39l1.59-11.93Zm27.8,117.53L73,175l-3.66-.58-.12.7L78,177.62l8.68-10.37Zm-4.76,91-13.06-11L60,247.55l14,9.82ZM56.67,239.32l-.22-.86-20.79,4.78,1.43,6.23Zm35.11-68.78-3.93-2.48L79,178.61l3.06,4.07ZM58.51,195.42c6.48-5.63,12.26-10.65,18-15.68l-.77-.93c-6.51,5-13,10.07-19.89,15.36l12.65,16.19.62-.47C65.66,205.15,62.17,200.41,58.51,195.42ZM158.81,109c2.36,3.37,5.05,6.73,7.2,10.41a87.81,87.81,0,0,1,5.53,11.58c1.53,3.86,2.57,7.9,4,12.26C174.7,129.05,170.53,117,158.81,109Zm-5-6.77c9.43,8.71,20,15.81,22.05,30.7C176.4,120.11,166.46,106.69,153.79,102.18Zm9.79,175.23-19.37-4.19-.24.64,16.84,8.91C161.69,281.07,162.39,279.73,163.58,277.41ZM37.17,119.69l.58.58,15.75-9.61-3.25-5Zm137.62,38.05-.47-1.15L143,168.86l.84,2ZM84.1,85.61l-1.76,2.32L96.27,99.64,98,97.5Zm41.49,13,.67,1L146.2,88l-3.31-2.28ZM72,173.76l9-10.37-2.71-2.1-9.89,11.22ZM26.2,158.16l20.37,10.23.62-1.12-17-11ZM106,195.9l.47-.05L98.9,172.49l-3.23.86Zm13.3,17.46,14.35,13.11,18.12-7.24-.3-.77-17.77,7.13C129.26,219.78,125.63,213.19,119.31,213.36ZM89.2,98.16c-2.78-4.9-5.47-9.89-13.69-6.12ZM133.63,150l-10.36,8.72,13.39-2.07C135.6,154.27,134.76,152.42,133.63,150ZM60.74,115.51v-14l-8.36,6.55,5.06,2ZM93.1,290.43l32.46,6.66C123.13,293.79,94.87,289.53,93.1,290.43Zm28.2-83.07-.18.83c3.93,1.52,8.58,2.18,11.64,4.74,6.2,5.18,12,2,17.67,1.78a93.24,93.24,0,0,1-14.86-3.18C130.8,210.2,126.06,208.76,121.3,207.36ZM93.55,291.77l-.41,1.85,29.75,5.81.17-.86Zm-33.47,2.34-9.4-1.06c.67,3,1.24,5.63,2,8.91C55.31,299.15,57.49,296.86,60.08,294.11Zm-7,47.84.34-2.32-24.93-2.58-.14,1Zm50.51-25.16.73-1.18-13.25-8.23c-.56,1.62-1,2.73-1.42,4.05ZM58.93,190.07l-.46-.58-5.25,4c4.42,6.88,8.69,13.51,13,20.15L68,212.53,54.19,193.86ZM143.37,83.18l-2.43-1.13L123.25,97.94l.66.7ZM76,350.94c.26-5.93-6.47-11.7-12.7-11.36ZM20.55,118l2.69-2.82-15-14.25-1,1Zm112,30.91-1.12-1.6-15.5,11.94,1.14,1.54ZM48.17,166.67l.69-.89L31.63,152.5l-1.77,1.56ZM149.65,315.81l-.71-.68-13.6,14.56-4.52-2.26-.27.4,5.6,4.18C140.83,326.38,145.24,321.09,149.65,315.81Zm-49.1-147.75-1.44.49Q104,183.76,108.84,199l.64-.16Q105,183.45,100.55,168.06Zm17.91-39.83,1.32-.63-8.6-15.8L109.59,114ZM10.78,347.93l4.53,3.78,4.24-6.63-5.44-1.14ZM62.6,62.54c-2-7.5-6.24-11.35-11-10.07ZM61.32,221l1.77-.66-5.7-15.19-1.81.67Q58.46,213.38,61.32,221Zm70,110L132,330,113.71,317l-.9,1.28Zm28.11-8.32c5.47,5.27,11.17,6.4,14.16,2.76ZM65.14,142.24l4.21,6.29,5.23-6.29ZM93.92,178l9.85,18C101.72,186.62,96.71,177.57,93.92,178Zm-5.3,137.25-1-.83L73.22,331.63l.77.68Z"/><path d="M190.24,105.6c-6.22-3.8-10.43-7.67-15.34-9-5.06-1.38-10.79-.3-15.59-.3-5.51-12.26-10.95-24.36-16.64-37l47.52-17.38c4.17,14.29,8.16,28,12.29,42.16,13.6-5.69,21.27,6.12,31.26,13.82Zm-.66-61.3-45,16C150.14,72,155.36,83,160.84,94.66l37.27-8.5C202.11,70.8,189.6,59.21,189.58,44.3Zm-13.5,49.6L191.14,104l37.09-6.64c-2-2.49-3.81-4.82-5.77-7A15.84,15.84,0,0,0,206,85.49C195.35,88.23,184.82,91.42,176.08,93.9Z"/><path d="M213.52,30.18l26.81-17.33,2.21,2.79a10.31,10.31,0,0,0-2.56,1c-7.87,5.91-12.76,13.86-16.13,23a18.76,18.76,0,0,1-4.74,6.81c-4,3.8-8.4,7.19-12.42,10.57-3.26-18.64-14-33.57-32.45-42.81.36-.65.71-1.3,1.06-1.95,7,2.12,14.48,3.45,21,6.59S208.72,26.92,213.52,30.18Zm4.31,12.56c-1.87-11.69-19.9-25.69-35.35-27,4.77,4.94,11.18,10.06,15.55,16.55s6.89,14.56,9.78,20.95Zm18.49-27.56L214.77,32.41l1.3,1.56c1.39,2.83,2.78,5.66,4.08,8.29Z"/><path d="M245.09,56.45c12.13-1.05,22.88,1.46,31.16,11.2-11.7-4.06-22.92-4.32-33.57,3.4l-13.23-9.38c5.52-9.06,17-14.35,16.56-27h1.71c.55,3.6,1.86,7.28,1.43,10.76C248.71,49.09,246.61,52.53,245.09,56.45Zm25.36,6.75C264,57,242,55.56,233.51,62.31L243.07,69,243,67.06ZM233.2,59.6C244,56.6,251.26,46.33,248,40.73Z"/><path d="M133.83,26.48l15.33,22-27.92,8.13c-4.7-4-13.43-8.23-16.69-15.07-3.15-6.62-.68-15.93-.68-24l2.59-.81c3.94,3.89,7.92,7.73,11.81,11.66C121.19,31.28,128.86,30.48,133.83,26.48ZM106.65,43.79l14.82,10.62,25.75-6.49c-5.24-7.54-9.39-13.49-12.7-18.25-5,.57-9.32,1.25-13.62,1.51C113.91,31.6,108.27,36.25,106.65,43.79Zm10-14.36-10.16-10.7c-1.06,7.86-2,14.63-3,22.27Z"/><path d="M94.72,12.84C80.62,16.77,70.64,25.28,64,40.43c-5.58-13.85-10.49-26-15.4-38.19l.63-.92L65.3,18C73.42,12.44,83.65,10.78,94.72,12.84ZM65,35.61c5.8-10.38,12.8-18.82,25.14-22.17-12.79-1.82-27.52,5-30.65,13.71ZM53.1,5.41,52.55,6c1.84,6.16,3.69,12.33,5.65,18.88l5.07-6Z"/><path d="M128.39,10.78c4.38-3.31,10.41-2.29,16.7,2.69C159.94,3.19,167.61.75,173.74,5.15c-13.7.61-20.34,8.62-23.39,21.2C143.75,19.45,138.65,11.4,128.39,10.78Zm20.68,9.83L165.4,2.71,145.66,13.65Z"/><path d="M278.14,26.42c9.28-2,15.44-.47,17.68,3.6-4.4.33-9.37.1-14,1.21s-9.26,3.6-13.39,5.29c-.75-6-.3-12.53-2.61-17.9S258.41,9.2,254.73,4.79C259.52,2.46,268.24,9.9,278.14,26.42Zm-9.28,7.37,7-6c-.34-7.35-9.07-18.61-15.48-19.71C267.82,15,270,23.47,268.86,33.79Zm4.22-1.65,17.2-4.1C286.08,25.24,279,26.81,273.08,32.14Z"/><path d="M24.42,18.38C28,11.29,34.09,5.06,44.72,5c-10.81,4.52-14,13.21-13.38,23.38l-22.26-8Zm13.06-13L24.53,19.79l4.32,4.88C31.49,18.76,34.21,12.69,37.48,5.36Z"/><path d="M19.07,50.06c6.31-4.31,13.92-6.65,24.15-3.4-10.49,1.76-17.6,5.93-21.48,14.69l-11.43-.9,1.83-24.63ZM35.9,46c-7.62-.8-20.47,6-22.86,13.24l6.06.33ZM16.45,52.11,14.84,40.52l-1,.26L11.56,57.12Z"/><path d="M303.79,19.75c6.68-5.86,14.25-6.68,22.46-4.63V0l10.4,20.81-9.87,5C320.17,19.61,312.5,17.91,303.79,19.75Zm30.1.76c-7-5.64-20.8-6.78-25.19-3.27l19.58,6.12Zm-7.6-15.83c-1.78,5.48,1.86,11.75,7.89,13.38Z"/><path d="M308.9,35.37,326.73,40,337.55,30c-4.26,9.15-7.62,16.38-10.49,22.53Zm4.78.57c-.07.33-.13.65-.2,1l12.66,13.55,4-5.34Z"/></svg>