<svg id="Layer_1" data-name="Layer 1" xmlns="http://www.w3.org/2000/svg" viewBox="0 0 308.24 324.05"><title>All, PNG &amp;amp; SVG- pixelbones</title><path d="M86.16,118.1a29.23,29.23,0,0,1,4.52,2.28q15.07,11.38,30,22.92c3.19,2.45,3.32,4.6.43,7.33q-16.77,15.8-33.58,31.54c-3,2.77-5.59,2.9-8.77.39q-15.2-12-30.31-24.08c-3.11-2.49-3.22-4.65-.26-7.36Q65,135.79,81.9,120.59A25,25,0,0,1,86.16,118.1Z"/><path d="M43.56,84.28a25.49,25.49,0,0,1,4.08,2Q61.91,97,76.07,107.77c2.68,2,2.86,4.46.42,6.74q-17,15.94-34.2,31.8a5.8,5.8,0,0,1-7.87.47Q19.06,135.52,3.81,124.1c-2.55-1.91-2.55-4.33-.12-6.47Q21.45,102,39.31,86.49C40.47,85.48,42.1,85,43.56,84.28Z"/><path d="M184.78,29.49a37.32,37.32,0,0,1,4.42,2q15.65,9.77,31.23,19.62c3.66,2.31,3.92,4.32.77,7.27Q204.94,73.6,188.57,88.72c-2.76,2.55-5.51,2.72-8.65.53Q164.26,78.39,148.69,67.4c-3-2.13-3.16-4.31-.43-6.79q15.93-14.47,32-28.8C181.46,30.73,183.23,30.26,184.78,29.49Z"/><path d="M87.56,103.12a26.08,26.08,0,0,1-3.82-1.9Q69,90.41,54.32,79.47c-3.13-2.32-3.27-4.48-.4-7q15.92-14,32-27.91c2.61-2.27,5.3-2.5,8.17-.56q15,10.15,29.93,20.5c2.7,1.87,2.8,4.11.34,6.38q-16.23,15.06-32.57,30C90.62,101.87,89,102.36,87.56,103.12Z"/><path d="M160.1,224.55c-.44,1.78-.87,3.57-1.31,5.35q-4.39,17.72-8.81,35.43c-1.21,4.86-2.79,5.44-6.72,2.46-10.52-8-21-16-31.54-24-3.54-2.65-4.78-5.77-3.7-10.13,3-12.11,5.8-24.27,8.71-36.4.85-3.54,2.78-4.32,5.81-2.25,11.32,7.74,22.66,15.46,33.84,23.4,1.82,1.29,2.85,3.69,4.24,5.57Z"/><path d="M137.73,58.25a26.66,26.66,0,0,1-4.39-1.82q-15-9.91-29.93-20c-4.21-2.83-4.31-4.52-.53-7.83q14.91-13.06,29.89-26.08c3.68-3.2,6-3.35,10.23-.68q14.69,9.29,29.33,18.63c4,2.53,4.14,4.47.62,7.63-10.06,9.05-20.11,18.11-30.24,27.08A33,33,0,0,1,137.73,58.25Z"/><path d="M146,281.23c-.89,3.76-1.51,6.56-2.21,9.33q-3.66,14.43-7.36,28.84c-1.07,4.19-2.84,4.8-6.26,2.11-10.15-8-20.25-16-30.42-23.92-3.25-2.54-4.44-5.58-3.43-9.69,2.81-11.53,5.44-23.1,8.18-34.64.86-3.63,2.69-4.3,5.71-2,10.76,8.18,21.54,16.33,32.15,24.7C144.15,277.33,145.07,279.77,146,281.23Z"/><path d="M182.57,155.56a28.91,28.91,0,0,1-5.2-2.11q-18.44-12-36.7-24.21c-1-.65-2.22-2-2.1-2.91s1.59-2,2.69-2.45c11.53-4.81,23.1-9.53,34.66-14.25a9.2,9.2,0,0,1,9.32,1.08q17.17,12.18,34.33,24.39c3.23,2.3,3,4-.65,5.63q-15.64,6.78-31.34,13.44A43.66,43.66,0,0,1,182.57,155.56Z"/><path d="M225.78,91.61c1.49.61,3.55,1.06,5.17,2.16,11.26,7.67,22.44,15.45,33.62,23.23,2.9,2,2.72,3.9-.5,5.35q-13.31,6-26.66,11.85a9.62,9.62,0,0,1-9.9-.95c-11.77-8-23.57-16-35.31-24-.92-.63-2.15-2-2-2.71a4.66,4.66,0,0,1,2.61-2.54c9.56-3.91,19.18-7.71,28.8-11.48A28.84,28.84,0,0,1,225.78,91.61Z"/><path d="M205.05,210.18c-.11.49-.24,1.2-.42,1.89-2.93,11.81-5.9,23.62-8.81,35.44a11,11,0,0,1-6.12,7.62c-10.34,5-20.68,9.9-31.07,14.74-1.08.51-2.48.33-3.73.47a13.71,13.71,0,0,1-.11-3.77c2.88-11.72,5.9-23.41,8.82-35.12a11.62,11.62,0,0,1,6.42-8.14q15.36-7.37,30.75-14.66C203.75,207.24,205,207.67,205.05,210.18Z"/><path d="M219.1,189.64c2-6.33,3.77-12.21,5.62-18.06,2.25-7.12,4.56-14.22,6.79-21.35a11.2,11.2,0,0,1,6.78-7.45c8.55-3.42,17.08-6.88,25.67-10.21,1.11-.44,2.49-.21,3.75-.28a13.61,13.61,0,0,1-.08,3.73c-3.62,11.73-7.35,23.42-11,35.14a12.1,12.1,0,0,1-6.87,7.79c-8.88,4-17.73,8-26.62,11.93a5.7,5.7,0,0,1-3.16.37C219.52,191.18,219.27,190,219.1,189.64Z"/><path d="M276.84,116.73a31.87,31.87,0,0,1-5.43-2.27q-17-11-33.92-22.17c-1-.66-2.29-2-2.18-2.89S237,87.49,238.09,87c7.4-3,14.85-5.83,22.28-8.73a10.73,10.73,0,0,1,10.24,1.07c10.78,6.89,21.59,13.73,32.32,20.7a5.81,5.81,0,0,1,2.62,3.32c.1.72-1.75,2-2.94,2.56-6.88,3.16-13.81,6.21-20.76,9.21A49.6,49.6,0,0,1,276.84,116.73Z"/><path d="M235.76,241.72c-.1.42-.22,1-.39,1.61q-4.2,14.78-8.44,29.54a13.66,13.66,0,0,1-6.37,8.31c-9.08,5.37-18.1,10.86-27.19,16.22a14.77,14.77,0,0,1-3.64,1.07c0-1.33-.4-2.75-.07-4,2.77-10.39,5.74-20.72,8.49-31.12a14.5,14.5,0,0,1,8-9.83c8.71-4.36,17.29-8.94,26-13.36C234.78,238.84,235.81,239.31,235.76,241.72Z"/><path d="M291.36,168.23c-1.27,4.2-2.65,8.81-4,13.41-2.24,7.45-4.54,14.87-6.7,22.34a12.43,12.43,0,0,1-6.94,8.11c-7.37,3.56-14.7,7.21-22.09,10.73a13.69,13.69,0,0,1-3.44.63c-.08-1.24-.49-2.56-.18-3.69,3.32-12,6.55-24.08,10.31-36a12.62,12.62,0,0,1,5.56-6.84c7.8-4,16-7.38,24-10.93C290.31,164.94,291.53,165.63,291.36,168.23Z"/><path d="M.89,130.29c3.25,2.42,6.53,4.82,9.75,7.28,6.86,5.21,13.8,10.31,20.47,15.76a22.7,22.7,0,0,1,6,7.24c3.84,7.92,7.19,16.08,10.71,24.16a35,35,0,0,1,1,3.4,23.07,23.07,0,0,1-3.45-1.57c-8.11-5.75-16.31-11.38-24.19-17.44a25,25,0,0,1-6.58-7.93c-4.69-8.87-8.94-18-13.34-27C.76,133.14.42,132,0,130.94Z"/><path d="M43.81,164.78a34,34,0,0,1,3.35,1.87c10,7.54,20,15,29.75,22.76a24.82,24.82,0,0,1,6.48,8.33c3.2,6.62,5.8,13.53,8.6,20.35a24.72,24.72,0,0,1,.76,3.69c-1.74-1-2.71-1.5-3.55-2.13-8.92-6.69-17.78-13.47-26.75-20.1a25.77,25.77,0,0,1-8.66-10.88C50.94,182,47.87,175.4,45,168.75A37.87,37.87,0,0,1,43.81,164.78Z"/><path d="M62.72,221a26.53,26.53,0,0,1-2.54-1.46C52.1,213.75,44,208,36,202.11a18.37,18.37,0,0,1-5.31-5.84c-4-7.62-7.53-15.44-11.22-23.2a14.59,14.59,0,0,1-.54-2.46,28.61,28.61,0,0,1,3.25,1.62C30.5,178,38.87,183.76,47,189.79a19.75,19.75,0,0,1,5.76,6.64c3.62,7.1,6.75,14.45,10,21.72a13.77,13.77,0,0,1,.58,2.23Z"/><path d="M99.51,268.24c-13.18-5.83-19.6-16.48-22.6-30.64a26.05,26.05,0,0,1,3,1.68c6.85,5.21,13.71,10.41,20.45,15.76a4.13,4.13,0,0,1,1.11,3.25C101,261.63,100.18,264.91,99.51,268.24Z"/><path d="M221.25,147.94q-16.32,6.69-32.6,13.5a9.61,9.61,0,0,0-5.75,6.78c-3.43,13.37-6.87,26.74-10.22,40.14a11.56,11.56,0,0,0,.2,3.44c1.17-.1,2.47.11,3.47-.34,10.26-4.64,20.47-9.37,30.68-14.11a11.6,11.6,0,0,0,6.41-7.79c2.42-8.45,4.93-16.88,7.39-25.33,1.4-4.81,2.77-9.63,4-14.06C224.9,147.61,223.71,146.93,221.25,147.94Zm-16.4,35.95c-3.65,6.31-9.44,9.78-12.94,7.76s-3.39-8.78.25-15.08,9.43-9.78,12.94-7.76S208.49,177.58,204.85,183.89Z"/><path d="M248.67,187.72c-1.35.21-2.84.12-4,.66-8.37,3.84-16.64,7.88-25,11.68a12.32,12.32,0,0,0-7.32,8.83c-2.17,8.73-4.48,17.43-6.71,26.14-.79,3.07-1.52,6.16-2.21,8.92,0,2.55,1.09,3,3.65,1.66,8.6-4.53,17.15-9.15,25.76-13.67a12.89,12.89,0,0,0,6.72-8.31c3-10.62,6.12-21.22,9.09-31.85A16.15,16.15,0,0,0,248.67,187.72Zm-15.82,33.17c-3.65,6.31-9.44,9.78-12.94,7.76s-3.39-8.78.25-15.08,9.43-9.78,12.94-7.76S236.49,214.58,232.85,220.89Z"/><path d="M275,218.5a11.4,11.4,0,0,0-3.42.56c-8.37,4.3-16.68,8.72-25,13.08a12.74,12.74,0,0,0-6.58,8.08c-1.57,5.4-3.21,10.77-4.79,16.17-1.51,5.2-3,10.42-4.57,16,.16.37.43,1.54.66,1.53a6.74,6.74,0,0,0,3.09-.7c8.66-5.06,17.41-10,25.8-15.45a16.46,16.46,0,0,0,6.06-7.69c3.29-9.23,5.93-18.7,8.73-28.11A12.72,12.72,0,0,0,275,218.5Zm-16.3,31.59c-3.91,6.14-9.1,9.84-11.6,8.25s-1.37-7.86,2.54-14,9.1-9.84,11.6-8.25S262.63,243.94,258.73,250.09Z"/><path d="M304.61,114.12c-7.9,3.12-15.82,6.23-23.66,9.5-3.21,1.33-5.08,3.95-6,7.32-3.2,11.22-6.51,22.42-9.69,33.65a14,14,0,0,0-.09,3.49c1.25,0,2.64.29,3.72-.16,7.56-3.16,15-6.5,22.57-9.74a11.66,11.66,0,0,0,7-8c2.58-9.06,5.28-18.08,7.92-27.12.68-2.36,1.33-4.72,1.93-6.85C308.14,113.06,306.38,113.42,304.61,114.12Zm-11.76,31.77c-3.65,6.31-9.44,9.78-12.94,7.76s-3.39-8.78.25-15.08,9.43-9.78,12.94-7.76S296.49,139.58,292.85,145.89Z"/><path d="M185.58,264.94c-9.33,4.47-18.6,9-28,13.43a12.78,12.78,0,0,0-7.41,9.16c-2.66,11-5.46,21.85-8.12,32.8a14.51,14.51,0,0,0,0,3.72,13,13,0,0,0,3.66-.84q14.84-8.43,29.55-17a12.7,12.7,0,0,0,6.1-8.12q3.44-13.08,6.91-26.14c.5-1.88,1-3.75,1.43-5.31C189.78,264,188.53,263.52,185.58,264.94Zm-13.73,32.95c-3.65,6.31-9.44,9.78-12.94,7.76s-3.39-8.78.25-15.08,9.43-9.78,12.94-7.76S175.49,291.58,171.85,297.89Z"/><path d="M173,96.54Q158.62,86.79,144.26,77c-7.38-5.05-8.23-5-15,1l-1.16,1Q113.43,92,98.82,104.92c-2.81,2.49-3,4.7-.36,6.62,9.43,6.87,19,13.6,28.79,20.62,1.66-5.14,6-6.73,10.16-8.5,5.93-2.53,11.78-5.39,17.93-7.23,7.47-2.25,13.26-6.55,18.47-12.06C177,101,176.87,99.17,173,96.54Zm-37.13,18.31a12.5,12.5,0,1,1,12.5-12.5A12.49,12.49,0,0,1,135.86,114.85Z"/><path d="M102.86,243.59a50.79,50.79,0,0,1-2.27-7,18.57,18.57,0,0,0-6.9-9.85c-9.66-7.24-19.25-14.58-28.88-21.85-.9-.68-1.94-1.19-2.92-1.79l-.63.52a28.09,28.09,0,0,0,1,3c2.08,4.67,4.47,9.22,6.27,14a35.29,35.29,0,0,0,12.77,16.42c7.19,5.21,14,10.88,21.08,16.4C104,250.07,104.42,247,102.86,243.59Zm-11.72-6.34c-1.16,1.33-5.14-.23-8.89-3.5s-5.85-7-4.69-8.31,5.14.23,8.89,3.49S92.3,235.92,91.14,237.25Z"/><path d="M77.08,247.76c-1.88-4.53-3.85-9-5.67-13.58a21.13,21.13,0,0,0-7.46-9.5c-8.14-5.85-16.24-11.76-24.37-17.62-1-.75-2.17-1.33-3.26-2l-.6.59a8.78,8.78,0,0,0,.43,1.66c3,6.28,5.79,12.66,9.09,18.77a21.42,21.42,0,0,0,5.8,6.6c7.7,5.92,15.63,11.55,23.51,17.24a18.52,18.52,0,0,0,3,1.46A6.41,6.41,0,0,0,77.08,247.76ZM62.14,235.25c-1.16,1.33-5.14-.23-8.89-3.5s-5.85-7-4.69-8.31,5.14.23,8.89,3.49S63.3,233.92,62.14,235.25Z"/><path d="M172.24,160.59c-11.72-8.42-23.41-16.9-35.13-25.33-3.68-2.65-5.53-2-6.5,2.32-3,13.48-6,27-9,40.45a8,8,0,0,0,3.49,9c11.55,8.14,23.06,16.35,34.61,24.5,3.32,2.35,5.13,1.63,6.11-2.37q3.84-15.64,7.61-31.31c.84-3.48,1.6-7,2.18-9.51C175.8,164.47,174.61,162.29,172.24,160.59Zm-19.86,25.28c-5.45,2.65-12.31-.23-15.33-6.44s-1.05-13.39,4.4-16,12.31.23,15.33,6.44S157.83,183.22,152.38,185.87Z"/></svg>