<svg id="Layer_1" data-name="Layer 1" xmlns="http://www.w3.org/2000/svg" viewBox="0 0 107.37 107.38"><defs><style>.cls-1{fill:#fff;}</style></defs><title>All, PNG &amp;amp; SVG- pixelbones</title><path d="M54.75,107.38H52.86a2,2,0,0,0-.35-.09l-2-.14c-.63,0-1.26-.06-1.88-.13-1-.11-2-.25-3-.39a43.87,43.87,0,0,1-4.57-.88A53.69,53.69,0,0,1,.63,60.59C.43,59,.28,57.36.23,55.74c0-.23,0-.46-.05-.68A.88.88,0,0,0,0,54.52V52.74a1.82,1.82,0,0,0,.21-.91c0-.7.07-1.4.12-2.09C.4,48.83.46,47.92.58,47c.2-1.57.46-3.14.79-4.69A52.46,52.46,0,0,1,5.31,30.7,53.62,53.62,0,0,1,44.27.82C46,.51,47.75.29,49.51.14,50.53.06,51.56,0,52.6,0,53.8,0,55,0,56.21,0c.68,0,1.37.05,2,.11,1.08.11,2.15.25,3.23.38a42.36,42.36,0,0,1,4.73.89A53.71,53.71,0,0,1,101,28a52.15,52.15,0,0,1,5.19,13.78c.34,1.53.64,3.07.83,4.63.08.7.17,1.39.24,2.08s.14,1.29.14,1.94c0,2.13,0,4.26,0,6.39a3,3,0,0,1,0,.42L107.08,60c-.15,1.44-.39,2.87-.68,4.29a52.2,52.2,0,0,1-3.07,10,53.53,53.53,0,0,1-39.54,32c-1.27.24-2.55.43-3.83.58-1,.12-2.05.17-3.08.25l-1.78.13A2.58,2.58,0,0,0,54.75,107.38ZM75.63,70.92a1.39,1.39,0,0,1-.06-.67q0-14.7,0-29.42c0-.19,0-.38,0-.57s0-.2,0-.31a2.13,2.13,0,0,0-.7-.05H45.4a.23.23,0,0,1-.25-.22v-.16c0-.84,0-1.68,0-2.52a3.27,3.27,0,0,1,1-2.29,4.48,4.48,0,0,1,3.16-1.32c1.4,0,2.8,0,4.2,0a.76.76,0,0,0,.54-.09c0-.2,0-.42,0-.65V23.87a1.17,1.17,0,0,0-.1-.66,1.45,1.45,0,0,0-.62-.06H47.56a22.88,22.88,0,0,0-3.09.18,17.16,17.16,0,0,0-4.73,1.27,14,14,0,0,0-5.37,4,10.6,10.6,0,0,0-2.53,7c0,1.22,0,2.45,0,3.67a.72.72,0,0,1-.1.54c-.12,0-.25,0-.39,0H26.75c-.17,0-.35,0-.53.12,0,.18,0,.38,0,.59v8.18c0,.12,0,.24,0,.37a2.14,2.14,0,0,0,.06.27,1.37,1.37,0,0,0,.65.08h4.3a1.45,1.45,0,0,1,.58.05,1.24,1.24,0,0,1,.06.57V70.37a1.11,1.11,0,0,1,0,.26c0,.1,0,.2-.06.33H26.89l-.47,0a.23.23,0,0,0-.21.21c0,.15,0,.31,0,.47v6.39c0,.79,0,1.58,0,2.36a.61.61,0,0,0,.1.48,1.87,1.87,0,0,0,.75.06H50.54c.1,0,.2-.06.3-.08a1.15,1.15,0,0,0,0-.22q0-4.68,0-9.34a1,1,0,0,0,0-.22,1.67,1.67,0,0,0-.3-.08,3.65,3.65,0,0,0-.47,0H45.88a1.31,1.31,0,0,1-.62-.07,1.74,1.74,0,0,1-.07-.78q0-9.89,0-19.77c0-.18,0-.35,0-.53a1.82,1.82,0,0,1,.1-.31H61.87l.3,0a1.46,1.46,0,0,1,.08.74V70.18c0,.14,0,.28,0,.42a3.11,3.11,0,0,1-.08.37l-.59,0h-4.2a1,1,0,0,0-.61.09,1.11,1.11,0,0,0-.06.57v8.65a1,1,0,0,0,.07.57,1.67,1.67,0,0,0,.77.08h23A3.65,3.65,0,0,0,81,81a1.59,1.59,0,0,0,.33-.08c.08-.53.11-6,0-9.36,0-.14,0-.27,0-.39a1,1,0,0,0-.68-.12H76.25A1.21,1.21,0,0,1,75.63,70.92ZM68.94,35.16a6.54,6.54,0,1,0-6.58-6.49A6.52,6.52,0,0,0,68.94,35.16Z"/><path class="cls-1" d="M75.63,70.92a1.21,1.21,0,0,0,.62.07h4.46a1,1,0,0,1,.68.12c0,.12,0,.25,0,.39.06,3.4,0,8.83,0,9.36A1.59,1.59,0,0,1,81,81a3.65,3.65,0,0,1-.47,0h-23a1.67,1.67,0,0,1-.77-.08,1,1,0,0,1-.07-.57V71.66a1.11,1.11,0,0,1,.06-.57,1,1,0,0,1,.61-.09h4.2l.59,0a3.11,3.11,0,0,0,.08-.37c0-.14,0-.28,0-.42V50.31a1.46,1.46,0,0,0-.08-.74l-.3,0H45.29a1.82,1.82,0,0,0-.1.31c0,.18,0,.35,0,.53q0,9.89,0,19.77a1.74,1.74,0,0,0,.07.78,1.31,1.31,0,0,0,.62.07h4.19a3.65,3.65,0,0,1,.47,0,1.67,1.67,0,0,1,.3.08,1,1,0,0,1,0,.22q0,4.66,0,9.34a1.15,1.15,0,0,1,0,.22c-.1,0-.2.07-.3.08H27.05a1.87,1.87,0,0,1-.75-.06.61.61,0,0,1-.1-.48c0-.78,0-1.57,0-2.36V71.67c0-.16,0-.32,0-.47a.23.23,0,0,1,.21-.21l.47,0h4.89c0-.13,0-.23.06-.33a1.11,1.11,0,0,0,0-.26V50.13a1.24,1.24,0,0,0-.06-.57,1.45,1.45,0,0,0-.58-.05h-4.3a1.37,1.37,0,0,1-.65-.08,2.14,2.14,0,0,1-.06-.27c0-.13,0-.25,0-.37V40.61c0-.21,0-.41,0-.59.18-.17.36-.12.53-.12h4.61c.14,0,.27,0,.39,0a.72.72,0,0,0,.1-.54c0-1.22,0-2.45,0-3.67a10.6,10.6,0,0,1,2.53-7,14,14,0,0,1,5.37-4,17.16,17.16,0,0,1,4.73-1.27,22.88,22.88,0,0,1,3.09-.18h5.82a1.45,1.45,0,0,1,.62.06,1.17,1.17,0,0,1,.1.66v8.76c0,.23,0,.45,0,.65a.76.76,0,0,1-.54.09c-1.4,0-2.8,0-4.2,0a4.48,4.48,0,0,0-3.16,1.32,3.27,3.27,0,0,0-1,2.29c0,.84,0,1.68,0,2.52v.16a.23.23,0,0,0,.25.22H74.82a2.13,2.13,0,0,1,.7.05c0,.11,0,.21,0,.31s0,.38,0,.57q0,14.72,0,29.42A1.39,1.39,0,0,0,75.63,70.92Z"/><path class="cls-1" d="M68.94,35.16a6.54,6.54,0,1,1,6.51-6.49A6.55,6.55,0,0,1,68.94,35.16Z"/></svg>