<svg id="Layer_1" data-name="Layer 1" xmlns="http://www.w3.org/2000/svg" viewBox="0 0 293.34 372"><title>All, PNG &amp;amp; SVG- pixelbones</title><path d="M209.09,298.91c-.82,1.88-1.36,3.95-2.51,5.59-4,5.7-4.52,12.34-5.67,18.88a85,85,0,0,1-2.9,10.78,12,12,0,0,1-2.21,3.75c-1.28,1.58-3,1.88-4.51.4s-1.73-.59-2.23.76c-1.45,3.92-2.15,8.55-4.73,11.53-4.87,5.63-8.18,12.84-15.22,16.47a35.65,35.65,0,0,1-4.48,2.19,81,81,0,0,1-8,2.23,22.06,22.06,0,0,1-4.31.33,75.69,75.69,0,0,1-8.78.06c-4.59-.42-9.31-.64-13.67-1.95-7.5-2.26-13.67-6.61-17.37-13.91a15.06,15.06,0,0,0-3.35-4c-2.58-2.37-3.56-5.45-4.4-8.67-.48-1.87-1.19-3.67-1.84-5.62-3.87,2.26-6,2.18-7.6-1.34-1.85-4-2.76-8.45-3.75-12.78-.59-2.56-.47-5.27-.78-7.9a21.07,21.07,0,0,0-3.13-8.7c-2.42-3.91-4-8.37-5.76-12.65-4.2-10-8.43-20-12.39-30.12-1.38-3.5-2.14-7.23-4.88-10.05a1.92,1.92,0,0,1-.4-.88c-1.31-5.36-2.59-10.73-3.91-16.09a4.62,4.62,0,0,0-.94-2.16c-5.18-4.95-7.24-11.24-7.45-18.13-.16-5.09-2.28-8.79-6.71-11-6.43-3.17-10.63-8.62-14.69-14.13-5.77-7.83-11.19-15.92-16.87-23.82a11.35,11.35,0,0,0-3.94-3.55c-5.89-2.91-8.33-7.91-9-14.06a80.9,80.9,0,0,1-.7-8.06,15.43,15.43,0,0,1,3.27-9.43A46.13,46.13,0,0,0,8.7,122.11a15.19,15.19,0,0,1,7.35-8.66,3.79,3.79,0,0,1,5.67,3.37,14.37,14.37,0,0,1-.15,4.2,2.91,2.91,0,0,0,1.53,3.54,21.36,21.36,0,0,0,14.07,2.72c2.32-.3,2.42-2.6,1.92-4.3-.81-2.73-2.16-5.29-3.12-8-1.89-5.32-3.1-10.78.21-15.91a35.76,35.76,0,0,1,6.2-6.77,6.11,6.11,0,0,0,2.15-5.41c-.12-4.35.76-8.74,1.17-13.11.22-2.21.77-4.5.41-6.62-1-5.57-2.35-11.07-3.57-16.6a23.83,23.83,0,0,1,2.23-17,11.48,11.48,0,0,0,1.07-3.47,6.39,6.39,0,0,0,1.08-1.92c.73-4.86,1.52-9.71,2-14.59,1-10.33,6.63-14.78,17-13.37,6.75.92,12.27,4.64,18.16,7.57,4.16,2.07,8.28,4.75,12.72,5.59,7.27,1.4,14.58,3.21,22.23-.18,4.1-1.82,9.29-1.45,14-1.58,9.11-.25,18.25.06,27.36-.28,4.88-.17,9.62-.17,14.18,1.71,9.82,4,19.23,1.63,28.37-2.14,7.33-3,14.3-6.9,21.64-9.89a20.29,20.29,0,0,1,8.93-.93c5.91.47,10.26,5.28,11,11.46.48,4.25.76,8.52,1.41,12.73A22.63,22.63,0,0,0,248,31.59c4.15,7.6,4.12,15.33,1.86,23.43A100.6,100.6,0,0,0,247,69.31c-.23,1.84.75,3.88,1.33,5.77A27,27,0,0,1,249,87.91a4.52,4.52,0,0,0,.87,3A22.08,22.08,0,0,0,253,94c6.64,6,8,14.47,3.69,22.73a35.75,35.75,0,0,0-2.37,6c-.76,2.5.62,4.43,3.23,4.7a22.36,22.36,0,0,0,12.53-2.64,4.24,4.24,0,0,0,1.59-2.79c.26-1.41-.23-3,.11-4.35s1-3.46,2.15-4.09,3.19-.16,4.47.53a12.31,12.31,0,0,1,6,8,36.51,36.51,0,0,0,6.76,13.86c2.66,3.32,2.28,7.49,1.95,11.42a32.36,32.36,0,0,1-1.78,8.86c-.88,2.31-2.31,5-4.3,6.19-5.92,3.5-9.89,8.63-13.68,14.06-4.92,7-9.92,14-14.78,21.11-2.8,4.08-7,6.43-10.95,9a11.72,11.72,0,0,0-5.75,9.39c-.63,6.78-1.89,13.43-7.2,18.46a5.1,5.1,0,0,0-1.36,2.18c-1,3.62-1.67,7.35-2.9,10.88s-2.94,6.76-4.47,10.11a17.3,17.3,0,0,0-1.23,2.27c-3.58,12.36-9.75,23.67-14.48,35.57-.45,1.14-.76,2.35-1.14,3.53ZM75.31,145.65l-.32-.32-.33-.33-.32-.32-.65-1-.32-.66h0l.33.65.65,1,.32.32.33.33.32.32ZM199,101.82h0ZM157.14,342.11v0ZM55.83,82.66h.33l.64-2,.65-1.95,1-2.27,0-.13,0,.13c-.33.76-.65,1.52-1,2.27l-.65,1.95-1,1.63ZM150,335.28l.32.33c.31,1.41.61,2.81.9,4.13.09-1.37,1.37-3-.89-4.14l-.32-.32-.33-.33c-.2-.08-.4-.17,0,0-.44,0-.23,0,0,0Zm15.59-9.1.32-.32h0l-.33.33v.32c-.66,2.09-1.33,4.18-2,6.36l-1.2-.61a61.76,61.76,0,0,0-1.25,6.8,12.07,12.07,0,0,0,.72,4.71,1.43,1.43,0,0,0,2.78.08,63.52,63.52,0,0,0,3.3-8.56c.56-2,.39-4.29.54-6.45l-.39,0L167,332.34l-.41-.07-1-5.76ZM71.1,72.93l.32-.33.33-.32.32-.32v0l-.33.33-.32.32-.33.32Zm-1.31,66.88h0l.33.32h0ZM66.87,72.92h0l-.32.32-2.07,2.33L65,76l1.59-2.71ZM76,146.63l.32.32h0ZM67.85,71.3h0Zm6.49-2,.32-.33L75,68.7l4.52-3.53.55.35c-1.58,2.47-2.67,5.58-4.85,7.29-6.23,4.89-13,9.13-19.39,13.78-4.92,3.57-9.7,7.33-14.46,11.12-.82.65-1.19,1.86-1.77,2.81h0a25.07,25.07,0,0,0-1.84,4.07c-1,4,.38,7.62,1.83,11.29a38,38,0,0,1,2.26,8.63c.42,3.11-.09,6.34.39,9.43s1.66,5.91,2.54,8.86c0,.07.13.12.17.16l.58-1.06,6.91,12.74.6-.31c-1.32-2.63-2.63-5.27-3.95-7.91l.85-.42,2.1,4.05.62-.26c-.74-1.74-1.51-3.48-2.22-5.24s-1.38-3.5-2.07-5.25l.63-.22,1,1,.32,1,.65,1.94.65,1c.82,2.59,1.58,5.21,2.48,7.78a33.72,33.72,0,0,0,1.74,3.58,13.21,13.21,0,0,0,.24,2.36c.07.26.69.38,1.06.56l.08.11-.08-.1-1.3-2.93c.38,0,.93-.17,1.11,0,.77.8,1.44,1.71,2.14,2.58l.65,1-.65-1c-.22-.43-.47-.85-.65-1.3q-2.11-5.35-4.22-10.72l.4-.05-.11-.22-.29.28L51.61,144l-.65-1c-.22-.66-.43-1.31-.65-2l-.32-1c.32,0,.84,0,.95.13.67,1.05,1.25,2.17,2,3.47l.88-1.8c.81,1.61,1.49,2.78,2,4,1,2.59,2,5.21,3,7.82l8.77,11.36.32.33.33.33.32.32h0l-.32-.33-.33-.32-.33-.33a17.75,17.75,0,0,0-1-4.06c-.38-.77-1.65-1-2.34-1.7-1.86-1.81-3.62-3.73-5.42-5.6l2-.62c-2.37-3-5.87-11.47-5.44-13.74,3.35,6.13,5.41,12.79,9,18.63l.62-.3-1.55-3.36,12.46,13.2.45-.45a31.66,31.66,0,0,1-2.71-3.34c-1.9-3.08-3.66-6.24-5.47-9.37l-.33-.65-.08-.11.09.11.32.65.41,3.13L67.52,157h0L62.74,147l-.28,1.16-.58.09-3.16-11.3c1.75,2.72,3.28,4.93,4.63,7.25,1.92,3.29,2.92,7.15,6.12,9.62l.32.65.09.1-.09-.1-.32-.65-2.93-5.52,0-.13,0,.13-.33-1.95h0L65,140.6l.34,0,3.81,7.7h0L69.7,150a27.78,27.78,0,0,0-3.85-12.62A45,45,0,0,1,62.67,131c-1.13-2.86-2-5.83-2.94-8.75l-.25-1.34-.45.17.7,1.17a9.2,9.2,0,0,0-.06,2.86c1,3.44,2.24,6.83,3.29,10.27.46,1.52.66,3.12,1,4.68l-.87.3c-.89-1.71-1.79-3.41-2.69-5.12h0c-.11-.24-.06-.12,0,0l-.19,1.27-.72.1c-1.59-5.84-3.19-11.69-4.73-17.34l-.43,1.6h-.4c-.65-3.11-1.31-6.21-2-9.31l-.38.07,1,7.31c-3.67-1.9-2.21-5.89-4.2-8l.84,8.15-.74.09-2.32-10.93-.93.17v3.07l-.63.23-4-6a21,21,0,0,1,.26,3.47,28.43,28.43,0,0,1-.86,3.82l-.47.11-1.63-4.61.73-.25h0l.49-6.7.63,0,.51,1.15c.54.79,1.08,1.52,1.62,0,.19.14.52.27.54.43.14,1.45.23,2.91.34,4.36,2.37-9,3.41-7.34,7.35-10.27,1.08-.8,2.34-1.38,3.33-2.27,5.34-4.75,11.54-6,18.4-4.7a17.62,17.62,0,0,0,3.06.36c9.13,0,15.23,5.31,20.56,11.82,1.43,1.76,1.84,4.46,3.43,6,3.19,3,3.82,6.93,4.54,10.83a60.32,60.32,0,0,1,.52,6.6l-.74.09-2.31-9.4a8.85,8.85,0,0,0,.23,3.06c.53,5,1.49,10,1.34,14.92-.12,4.07.28,8.5-2.13,12.2-4.33,6.64-6.46,14.1-8.19,21.69a12.5,12.5,0,0,1-4.59,7.24,35.77,35.77,0,0,1-5.7,4,30.4,30.4,0,0,1-12.76,3.81c-6.42.3-12.69.25-18.53-2.91a4,4,0,0,0-1.22-.22h0a15.81,15.81,0,0,0-1.16-1.73c-2.07-2.38-4.19-4.73-6.26-7.12-.72-.84-1.35-1.77-2-2.66l-.36.2.78,2.37c-2.35-3.25-4.43-6.58-4.37-10.77l1.74,3.78c-.38-3.6-1.26-7-1.54-10.53-.18-2.21-1.18-3.12-3-3.46-4.22-.76-8.23-1.86-10.72-5.8h0l.76,2.17-.77.31-1.94-4.11h.65c-4.71-6.53-5.27-13.81-3.9-21.44.24-.28.61-.54.68-.86a23.38,23.38,0,0,0,.37-2.91,1.17,1.17,0,0,0-.64-.22c-.6.77-1.15,1.58-1.71,2.37l-.32.65L14,123.8l-.69-4c-3.58,6.55-4,13.43-4.71,20.22l-.8-.09L7.37,138l-1.8-1.39c-2.7,2.83-3.1,6.47-2.33,10.41s.91,8,3,11.54L7.42,157a5.05,5.05,0,0,1,.63.59,27.45,27.45,0,0,0,3.08,4.21C19,169,24.84,177.72,30.38,186.69c4.11,6.66,8.9,12.56,15.7,16.7a82,82,0,0,1,7.6,5.72c2.32,1.8,4.68,3.56,6.86,5.53s4.68,4.22,5,7.64h-.32l-3.9-4.87h0l.86,7.09-4.06-4.81v7.09l-2.9-5.93c1.31,4.28,2.35,8.73,6.73,11.91a32.49,32.49,0,0,0,0-4.9,28.3,28.3,0,0,0-1.51-4.38,5.52,5.52,0,0,1,.59.57c2.94,4.35,2.67,9.27,2.61,14.18,0,1,0,2.35.6,2.82a45.5,45.5,0,0,0,5.46,3.37c.17-1.37.33-2.63.52-4.11l-1.17.88v-8l.57-.05,1.11,6.55.68-5.23.57,0v12.63l.65,0v-4.85l.78,0-.11,2.39,1.23-1.37v3.21a6.39,6.39,0,0,0,.64-2.18c.12-.66.26-1.32.4-2l.64.12v4.79h.19l1.65-9,1,.17-.69,7.67,1.12-.29.5,5.69.44-.06.51-6.33.78,0v5.59h.68v-8.3a2.71,2.71,0,0,1,1.11,1.9c.16,2.05.14,4.11.39,6.15a28.36,28.36,0,0,0,1,3.86c1.87-1,1.56-2.74,1.38-4.41,0-.11,0-.22,0-.32-.07-3.67-.7-7.43-.1-11,1.36-8,3.33-15.93,5.06-23.88.05-.2.27-.36.65-.85a13,13,0,0,1,.11,2c-.42,3.64-.86,7.29-1.35,10.92-.54,4-1.36,8-1.64,12a61.18,61.18,0,0,0,.43,9c0,.57.55,1.11,1,2l1.34-3.15c-.34,4-.55,8.14-2.13,11.65-1.9,4.25-1.42,8.47-1.47,12.73,0,3.1,2,5.1,5.09,5.53.58.08,1.14.35,1.71.48q5.31,1.15,10.61,2.29c.19,0,.44-.16.78-.3-.93-.74-2.07-1.22-2.42-2s.29-1.82.41-2.76c.24-1.87.38-3.76.63-5.63.19-1.33.5-2.63.75-4l.51.06q-.19,2.85-.37,5.7l.53,0,.4-2h.45l1,7.41,1-.14c-.34-2.9-.61-5.82-1-8.72-.5-3.46-1.54-6.9-1.59-10.35-.06-3.64,1-7.27,1.17-10.92.36-6.53.46-13.07.68-19.61a8.58,8.58,0,0,1,.3-1.56c.48-2,1.4-3.95,1.36-5.91-.12-5.24-.29-10.39,2.64-15.09a8.5,8.5,0,0,0,.91-2.89c1.8-9,1.11-18.35,3.85-27.23,1.28-4.14,1.14-8.36.53-12.68-.44-3.07.16-6.29.38-9.44.2-2.94.49-5.87.8-8.8.47-4.55.92-9.11,1.54-13.64a11.74,11.74,0,0,1,1.44-3c.45.41.51.66.49.9-.4,4.19-.72,8.38-1.25,12.55s-1.31,8.06-1.84,12.11a42.64,42.64,0,0,0-.45,7.22c.16,4,1.47,8.11.77,11.89-1.34,7.25-3.84,14.22-3.56,21.8a30.35,30.35,0,0,1-2.89,14.24c-1.58,3.4-1.17,7.7-1.74,11.59-.26,1.85-.72,3.68-1.1,5.52a45.78,45.78,0,0,0-1.37,7c-.27,6.06-.13,12.15-.35,18.22-.21,5.64-1.56,11.39,1.18,16.75a19.24,19.24,0,0,1,2.29,10c-.08,1.63-.06,3,2.15,3.12.48,0,1,.59,1.37,1,2.47,3.49,4.89,7,7.34,10.51,0,.06.19.07.8.27l-.31-4.29c-.59-.05-1.08.06-1.23-.12-1-1.18-.79-6.18.54-8,1,3.85,1.84,7.33,2.74,10.9-.08,0,.14,0,.33-.05,3.78-1.28,5.45-.56,7,3.06,1,2.45,2.07,4.91,3.1,7.37l.71,0a47.75,47.75,0,0,1,1.79-5.42c.48-1,1.44-2.37,2.36-2.53s1.89,1.16,2.75,1.93a12.79,12.79,0,0,1,1.46,1.85l.69-.22v-7.56l.54,0c.26,2.61.51,5.22.82,8.41a27.6,27.6,0,0,1,2.9-3.21,4.69,4.69,0,0,1,2.89-1.2c.71.07,1.58,1.18,1.9,2,.72,1.82,1.14,3.76,1.72,5.79l1.76-3.45.32-.32,0-.13,0,.13-.32.33c-1-3.16,1.56-4.59,3.27-6.17,2.28-2.11,4.6-.6,6.71.82,1.42-3.33-1.84-6.93,1.1-10.1v8.62c2-2.67,3.94-5,5.58-7.45,1.31-2,2.39-4.06,5.59-3.37-1.63-5.71.48-10.48,2.58-15.37.8-1.88.67-4.22.73-6.36s-.18-4.53-.26-6.8c-.11-3.07-.27-6.15-.27-9.23,0-2.84.2-5.68.32-8.51a9.65,9.65,0,0,1,.87,5.16c-.91,5.35.11,10.5,1.17,15.68a22.26,22.26,0,0,1-.59,12.1,52.39,52.39,0,0,0-1.72,7.38A5.12,5.12,0,0,0,184,274l.64-.1v-5.11h.55c.15,3,.31,5.92.45,8.65l6.17-1.31.3,1-5.86,2.12c4.83-.63,9.55-1.35,14.24-2.28,1.11-.22,2.8-.94,3-1.75.88-3.32,1.28-6.76,1.86-10.15L205,265l-.47,2.62c-1.22-6.58-2.35-12.69-3.48-18.8l.5-.16,3.06,7.68a66.49,66.49,0,0,1,.09-10.09,58.64,58.64,0,0,0,0-7.73,53.78,53.78,0,0,0-1.34-6.47l-1,1.54-.51-.09v-4l.51,0,.5,1,.61-.06V221.6h.79c3.85,10.79,3.67,22,3.16,33.93,4.39-3.62.39-8.42,3.06-12.15l.72,8.48.94-.07v-9.27h.81v9.15c3.72-4.79,1.61-10.35,2.34-15.5l.74,0c.24,2.23.48,4.46.76,7.15l.79-1.66a5.5,5.5,0,0,1-.29,2.79l-.75,2.67.3.08,1-2c.4,1.19.64,1.92.91,2.71v-5.87l.47,0,.83,2.1c4-2.81,3.55-7.09,3.75-11.15l1.07.2q-.31,4.4-.65,8.79h.41c.26-1.75.51-3.5.82-5.57,2,3.22.45,5.45-1.63,7.58l.94.48c1.42-2,2.83-4,4.33-6.07.06.83.14,1.79.21,2.75h0a12.12,12.12,0,0,0,.56-3c-.32-4.94-.61-9.86,1.71-14.49a1.66,1.66,0,0,0,.23-.69l.28.11.92-2.41-.33-.13a20.8,20.8,0,0,0-.77,2.47l-.32.65c-.26-.28-.76-.62-.71-.83a19.25,19.25,0,0,1,.87-2.52l-1.3-.83-.81,1.91-1,1.3-.32.65-.87,1a6.46,6.46,0,0,1,.73-3.34c3.76-6.6,10.19-10.57,16-14.86,5.62-4.18,11.44-7.91,15.39-13.82,3.2-4.8,6.18-9.76,9.45-14.51,4.17-6.06,8.47-12,14.2-16.78h.33c1.09-.56,2.73-.86,3.16-1.74a39.31,39.31,0,0,0,3-8.33c1.11-4.93,1.12-9.85-1.95-14.28l-.09-.1.09.1v5.72L286,136.72l-1.3,3.16-.51-.23c-.17,1.38-.35,2.76-.52,4.14l-.7,0c0-2.12-.09-4.25,0-6.36.11-1.76.95-3.59.63-5.22a107.74,107.74,0,0,0-3.07-11.4,6.43,6.43,0,0,0-1.92-2.94,10.71,10.71,0,0,0-3.19-1.24c-.1,1.28-.2,2.56-.29,3.83l.7,0-.33-2.37.7-.45c.25.47.51.94.77,1.41l-.43-1.91c3.15,1.76,4.39,5,2.62,6.94-.52-1.39-1-2.72-1.54-4.06h0c-.25,1.49-.59,3-.73,4.47-.45,4.57-.82,9.14-1.21,13.71l-.33.65a49.91,49.91,0,0,1-2.93,4.2c-1.75,2-3.67,3.92-5.51,5.87h0c-2.54.89-5,1.94-7.63,2.61a2.69,2.69,0,0,0-2.39,2.72A36,36,0,0,1,249,174.87h-.32a15.31,15.31,0,0,0-1.67,1.54c-3.44,4.21-8.16,6.33-13.22,7.53-2.42.58-5.12.12-7.68-.07-8.51-.6-15.71-4.34-22.26-9.55a5.13,5.13,0,0,1-1.69-2.29c-.88-2.89-1.52-5.85-2.31-8.76-.68-2.53-1.43-5-2.16-7.55l-.32-.65c-.17-.45-.34-.91-.53-1.36-1.31-3.19-3-6.29-3.83-9.6-.75-3.12-2.87-5.83-2.15-9.47.63-3.2.17-6.61.31-9.92.06-1.66.38-3.31.59-5l-.83-.06-1.05,14.09-.65,0c-.16-3.93-.54-7.87-.43-11.79.19-6.64,3.51-12,7.65-16.88.66-.78.83-2,1.47-2.76a22.6,22.6,0,0,1,2.7-2.46h0c1.95-1.57,3.72-3.47,5.88-4.65A39.31,39.31,0,0,1,221,90.42c5.24-.62,10.27-1.17,14.72,2.48a17.25,17.25,0,0,0,1.71.9c4.47,2.84,9.43,5.08,12.24,10l-.15,2.38.51,0-.36-2.37c2.12,1.46,2.72,5.29,1.14,7.19-1.86-2.12-1.68,1.4-3,1-.1-.88-.2-1.8-.37-3.37-.24,1.78-.76,3-.48,4,.85,3-.87,5.25-2,7.7a17.2,17.2,0,0,0-.82,2.67h0c-.85,2.37-.78,5.16-3.33,6.8q1.47-6.5,3-13l-1-.22-1.68,7.75c-.58,2.69-1.26,5.36-1.72,8.06-.67,4-1.59,6.32-3.08,7.14,1.33-6.42,2.64-12.77,4.1-19.8-2,4.16-3.64,7.56-5.25,11-.73,1.55-1.32,3.19-2.18,4.67-.24.41-1.21.41-1.84.6l.63-.91-.32-.17-.31,1.08c-.22.87-.43,1.73-.65,2.6h0a41.14,41.14,0,0,1-2.39,4.38c-1.47,2.08-3.16,4-4.75,6h0c-.54,1.08-1.09,2.16-1.63,3.25h0l-3.76,6,.51.45c3-2.74,6.32-5.24,9-8.3,2-2.25,3.06-5.25,4.65-7.85.86-1.41,1.95-2.68,2.93-4,.77,4.83-1.68,8.51-3.26,12.45l-.32.65L229.14,154c1.09-2.78,2-5.24,3-7.71q1.31-2.76,2.6-5.52l0-.13,0,.13-2.6,5.52c-1.61,3-3.22,6.09-4.87,9.12-.16.29-.64.42-1,.62l.32-.32h0l-.33.32-7.47,8,.38.37,8-7.8.53.46L225,164.16l-.32.65-.33.32-2.92,2.6h0l2.92-2.6.33-.32.32-.65c1.09-1.17,2.27-2.28,3.26-3.53,2.39-3,6-5.13,6.93-9.26a13.53,13.53,0,0,0,0-2.28,10.59,10.59,0,0,0,1.94-2.32c1.28-2.53,2.29-5.21,3.53-7.77.16-.33,1-.34,1.53-.49-.06.12-.11.24,0,0-.08.3,0,.17,0,0,.49-1.07,1-2.13,1.46-3.2l-.49-.15-2.07,1.54-.47-.4,3.65-6.48.69.08c-.17,1.24-.33,2.49-.5,3.74h0c.23.24.7.58.65.72-1.26,3.28-2.54,6.56-3.87,9.81-.83,2-1.74,4-2.62,6l-12.58,16.56a13.28,13.28,0,0,0,3.93-3.21c2.85-3.58,5.61-7.25,8.3-11,.42-.57.25-1.58.35-2.38l6.15-9.31.45.11c-.57,1.71-1.14,3.42-1.64,4.95l.91,1.67,4.2-8.14h0c.94-3.16,2.76-6.36,2.63-9.48a30.5,30.5,0,0,1,3.13-15.79c2-3.85,2.38-7.81.09-11.75h0c-.32-.85-.42-1.93-1-2.52-3.57-3.57-7.23-7-10.9-10.5a13.18,13.18,0,0,0-1.94-1.14c-2-1.33-4-2.68-6-4V84l-.65-.33L232.47,83h0l1.62.65.65.33v.32c-1.84,0-2.92-.79-4.17-2.35-1.51-1.88-4.19-2.76-6.18-4.31a76.47,76.47,0,0,1-9.4-8c-1.39-1.48-1.59-4.07-2.33-6.16a2,2,0,0,0,.84.82l-.6.51,5,5.85.59-.5c-1.67-2-3.35-3.91-5.21-5.7l-.65-1V62.08l8,8.08.58-.6c-.44-.63-.87-1.27-1.55-2.27l1.41.43.33.33.32.32.33.33h0l-.33-.33-.32-.32-.33-.33c-1.26-2.13-2.53-4.25-3.77-6.39a2.29,2.29,0,0,1-.11-.88c.33,0,.86-.14,1,0a54,54,0,0,1,3,4.78c.85,1.61,1.48,3.34,3.44,4a4.73,4.73,0,0,0-.75-2c-1-1.68-2.06-3.36-3.1-5h0A24.73,24.73,0,0,1,228.87,73c-2.54-13.48-12.34-28.25-19.4-29.19l2.8,3.46a3.12,3.12,0,0,1-1.84-.82c-4.72-4-9.57-7.91-14.07-12.17a39.64,39.64,0,0,1-7.26-8.8,14.14,14.14,0,0,0-9.56-7c-2.2-.54-4.35-1.26-6.56-1.76-2.82-.63-5.67-1.56-8.52-1.58-9.77-.06-19.54.32-29.31.32-3.24,0-6.34-.5-9.37,1.43-2.4,1.53-5.2,2.42-7.83,3.6,2.32-3.22,5.87-4.13,9.37-5.23a3.25,3.25,0,0,0-1.95-.35c-5.09,1.45-10.16,3-15.23,4.47a2,2,0,0,0-.91.67c-2.44,3.11-4.86,6.24-7.29,9.37l-.33.32a14.9,14.9,0,0,0-2.46,2c-2.71,3.45-6.3,5.67-10,7.84A65.07,65.07,0,0,0,79.79,46c-5.61,4.78-8.67,11.39-11.72,17.89-1.28,2.74-1.85,5.8-2.75,8.71,2.58-4,4-8.69,8.05-11.64a31,31,0,0,1-1.77,3.5,16.09,16.09,0,0,0-.83,3h0l-1,1.3h0c-.11.86-.21,1.73-.32,2.6h0l4.92-5.63.38.29-.43,1.12L72.72,68.7l-.33.32-.32.33-1.14,1,.35.31.79-1.26.32-.33.32-.32,1.63-1.63,2.85-3,.31.26L75,68.7l-.33.32-.33.32Zm55.85,221.77Zm86-143.84-.32.32-.33.33-.65.32h0l.64-.33.33-.32.32-.33.33-.32c4.08-2.55,6.51-6.53,9.09-10.39a47.94,47.94,0,0,0,7.16-14.49l-.8-.45-.73,1.67-.31-1.73c-.84,1.84-1.62,3.55-2.39,5.26h0l-.32.65-.33.65-.32.65-.33.32-.32.65-3.35,4.76.49.35,3.51-5.11.32-.65.33-.65v-1l2.68-2.17-5.6,10.94L216.56,147ZM59.08,57.34h0Zm-7.8,118.19h0L51,175.2l-.33-.33-.65-.64-1-.66h0l1,.64.64.66.33.33Zm-2.92-.65-.32-.33h0ZM215.91,43.7l.32.32.65.66h0l-.65-.65-.33-.33-.33-.32-4.05-3.94.5-.55,8.43,7.74h0l-1.29.32h0c1.88,2.2,3.76,4.39,5.8,6.79-.58-1.61-1.09-3-1.59-4.36l1-.28L226.5,58l.48-2.67c.73,2,1.21,3.27,1.7,4.57l.24-.11q-1.11-5.32-2.23-10.65l.81-.22a20.54,20.54,0,0,1,1.14,2c1.47,3.53,2.93,7.07,4.32,10.64a10.55,10.55,0,0,1,.43,2.53c.33,2.64.5,5.32,1,7.93.19,1,1.11,1.88,1.7,2.82.43-.51.47-.84.32-1-2.69-2.84-2-6.7-2.39-10a48.34,48.34,0,0,0-3.94-12.86c-1.45-3.39-2.61-6.89-3.9-10.34l.87-.36c.95,2.21,1.88,4.43,2.86,6.64q2,4.56,4.08,9.1c.43.94,1.26,1.8,1.39,2.77.32,2.33.1,4.75.54,7a73.34,73.34,0,0,0,2.34,8.6c1,3.12,2.14,6.18,3.33,9.57l.75-1.69,2.46,3.8h0v-2h0l-1.88-5.86.81-.39,1.07,1.38c.32,1.17.65,2.34,1,3.51l.73-.33-1.7-3.18L243.37,74l.54-.17,1.5,3.47a1.07,1.07,0,0,0,.18-1c-2.41-5.51-1.52-11.09-.23-16.64.94-4,2-8,3-12h0a19.34,19.34,0,0,0-1.25-11.24c-.89-2.14-2.21-4.19-2.64-6.41-1.18-6.19-2-12.45-3-18.69A8.17,8.17,0,0,0,234,3.78c-7.31-1-13.83.85-20,4.77-6.63,4.2-13.53,7.92-21.43,9.26-1.07.18-2.14.41-3.22.62l0,.42h5.26l-1.6.89,9.76,6-.34.68-4.43-1.23-1-.33h0l1,.33,6.21,4-.22.44-3.72-.88-.65-.33-.13,0,.13,0,.65.33,3.79,1.91-.07.25-5.12-.75-.26.48,7.18,5.25h0l9.75,7.47ZM211.37,272h0ZM223.7,170.65Zm-143.19,100,.32.32.65.32h0l-.65-.32-.32-.33Zm137.35-9.09.32-.33c.84-2,1.69-3.94,2.64-6.18.12.71.39,1.26.25,1.69-.57,1.84-1.26,3.64-1.91,5.46,2.68-1.45,3.48-6.23,1.61-9.6l-2.59,1.81h0c-.21.65-.43,1.3-.65,1.95l-.32,1.29c-.06.12-.12.24,0,0-.07.27,0,.14,0,0l.32-1.31c.22,1.63.43,3.25.65,4.87l-.33.33Zm-7.8-3.58h-.32c-1.45,1.62-2,5.16-.67,7.14.13.19,1.16.09,1.19,0,.53-2.05,1-4.13,1.41-6.2l-.71-.15-1.23,5.65-.87-.18,1.2-5.92.33-.32,1.46-.61-.4-.56L210.39,258ZM73.37,148.57h0l.32.32.33.33h0l-.33-.33C73.58,148.78,73.48,148.67,73.37,148.57Zm162,14h0l-.32.32-.66.65h0l.65-.66Zm-175-2.6h0Zm179.25-2.59h0Zm-191.26-2h0l-.32-.32-.33-.33-.32-.32-.09-.11.09.11.32.32.33.33Zm172.42-6.17-.33.32-.32.33h0l.33-.33.32-.32ZM61,221.64h0ZM78.56,150.2h0l.33.32h0Zm-8.12-13Zm199.7-5.84h0l-.32.32-.66.33h0l.66-.33Zm-247.43,0h0L22.4,131h0ZM231.17,131l-.32.65-.33.65,0,.13,0-.13.32-.65.33-.65Zm7.79.33,0,.13,0-.14,0-.13ZM60.05,108.31l0-.13,0,.13Zm11,60.07h0l-.65-.32-.86-.93-.22.3,1.08.63ZM23.68,132h0l.64.33h0ZM64.27,57.66l0,.13,0-.13Zm-49.35,60.4.33-.65h0l-.33.65-.32.32c-.12.15-.25.3,0,0-.15.38-.08.2,0,0Zm12.34,15.25h0l.13,0Zm205.21,85.08-.09.1.05,0ZM55.83,219l.08.1-.08-.11-.32-.65-.09-.1.08.11ZM221.75,172l-.64.33h0l.65-.33.33-.32.11-.09-.11.09Zm8.12-38.31-.32.65c-1.2,1.84-2.48,3.63-3.56,5.55a46.51,46.51,0,0,0-2,4.51h0l5.52-10.06Zm40.26,0-.64.32-.65.33-.65.32-.65.33-2.61,1,.25.49,2.36-1.48.65-.33.64-.32.65-.33.66-.32Zm-42.53,37,.65-.33.65-.33-.65.33-.65.32-.11.09ZM68.49,170l.13,0-.13,0-.65-.33-2.92-1.62-.65-.33-1-.65-.65-.33h0l.65.32,1,.65.65.33,2.93,1.62Zm150-3.57-.65.33-.11.08.11-.08.65-.33.65-.32,1.62-1c1.48-.92,3.79-.79,4.21-3.48l-4.21,3.48-1.62,1ZM60.38,72.27l0,.13,0-.13.32-.65c.06-.12.11-.24,0,0,.06-.25,0-.13,0,0Zm204.88,68.18-.65.33-.65.33-5.65,1.45a1.88,1.88,0,0,1,.91-1l7.67-4.31.65-.32h0l-.64.33c-1.9.34-3.5,2.46-5.79,1,2.63-2.25,3.41-4.35,2.33-6.36l3.06-.74-2.53-.72,1.63-.32,1-.32.1-.09-.11.08-1,.33-1.62.32-9.17.42c.13,1.66.34,3.46.41,5.25.07,2.05-.12,4.12.1,6.15.06.58,1.29,1.61,1.71,1.48,2.36-.7,4.64-1.69,7-2.58l.65-.33.65-.32ZM59.4,74.21l0,.14,0-.13Zm-3.57,2-.33.65h0l.33-.65.32-.32,0-.14,0,.13ZM214,168.71l.65-.33.65-.32c.17-.09.35-.19,0,0,.26-.28.13-.13,0,0l-.65.32-.65.32ZM54.21,78.76l-.33.65-.32,1-.33.65,0,.13,0-.13.33-.65.32-1,.33-.65.32-.65h0Zm184.43,1-.09-.1.09.11.08.1Zm-31.5,197.75,0-.13,0,.13-.32.65-.33,1c-.11.22-.21.44-.32.65l-2,1.17.8.73c.39-.63.79-1.26,1.18-1.9.11-.21.21-.43.32-.65l.33-1Zm39.94-124.36,0,.13,0-.13Zm-198.72,1h0l-.09-.1ZM80.83,275.53l.09.11-.09-.11-.08-.1ZM52.58,82.66l0-.13,0,.13ZM24.66,129.09l-.13,0,.12,0,.66.32,1,.32,1,.33-.38,1.4,3,.73-.73.67,1.24,2.28-1.23.44,1.89,1.46-2.56,1.14,4.6,1-2.76,1.87c.76,1.59,3.64-.76,3.46,1.46.89.7,1.42,1.14,2,1.54s.86.77,1.26.74.84-.68.85-1.07c.2-4.32.31-8.64.44-12.72l-11.09-1-1-.33-1-.32Zm22.41,22.08-.09-.1.08.1.09.11Zm1.29.33-.32-.65c0-.13-.07-.26,0,0-.12-.23-.06-.11,0,0l.32.65.33.65.08.1-.08-.1ZM67.52,252.81l.32.32.59,1.26.83-.58-.77-2.3.38-5.11-1.21.08.84,5-.65,1.63-.33-.33a1,1,0,0,0-.68-.58l.32-.07-1-7-.76.14a46.52,46.52,0,0,0,1.76,6.85Zm-3.57-88-.33-.33-1-.64h0l1,.65.33.33Zm195.14-18.19,1-.32,1-.32,2.61-1c.2,0,.4-.07-.07,0,.43-.2.25-.12.06,0l-2.6,1-1,.32-1,.33-1,.32-1,.33-.83.21.09.23.74-.45,1-.32ZM216.56,268.71c.06-.12.11-.24,0,0ZM55.18,215.79h0c-.09-.09-.18-.17,0,0C55,215.67,55.07,215.73,55.18,215.79ZM26.29,133.63h0l-.08-.07Zm4.21,11.7-.12,0,.13,0h0C30.92,145.37,30.71,145.35,30.5,145.33ZM229.55,63.18c0-.21-.06-.42,0,0-.17-.37-.08-.18,0,0s0,.41,0,0C229.72,63.55,229.63,63.37,229.55,63.18ZM237,80.06h0c.09.18.17.35,0,0C237.36,80.27,237.19,80.17,237,80.06Zm-1.29-2h0l-.65-1h0Zm9.41,75.65-.43.74.23.1.21-.83,0-.13Zm-14,10.73.66-.53-.2-.19-.46.71-.32.65-5.2,4.23h0c1.72-.94,3.46-1.84,5.12-2.87.22-.13.06-.88.07-1.35Zm1,3.57-1.64.64h0l1.62-.65Zm-10.72,78.25-.91.56.43.36.48-.92ZM42.84,141.43l.33.65,1.3,2.92,1,3.14.53-.26L44.47,145c-.44-1-.87-1.95-1.3-2.92l-.33-.65-.65-1.62c0-.13-.06-.26,0,0-.11-.23,0-.11,0,0C42.41,140.35,42.63,140.89,42.84,141.43Zm26.63.65.08.11-.08-.11-.29-.82-.25.14ZM76,169l-.13,0,.13,0,2,.65.13,0-.13,0ZM229.22,75.84h0l-.52-1.18-.3.18Zm1.3-14c0,.13.06.25,0,0,.1.23.05.11,0,0l-.23-1.37-.34.11ZM73,261.9h0l-.58-1.4-.36.2ZM234.09,128.44c-.26.55-.53,1.11-.8,1.66l.35.12.45-1.78.33-1c3.94-4.87,3-10.3,2-14.09-.51,3.63-1.25,8.86-2,14.09Zm5.52-46.11,0-.13-.06,0s.09.1.18,0l-.17.09.54,1.25.33-.19A6.36,6.36,0,0,0,239.61,82.33ZM210,273.31l-.35,0,.25,1.11.31-.07Zm-130.17-.38.08.11-.08-.1-.34-1.84-.51.17C79.3,271.82,79.58,272.38,79.86,272.93Zm170.79-132.8.74-2.74-.38-.08-.36,2.82,0,.13Zm9.09,3.9-2.26,1,.25.46,2-1.42c.13,0,.26-.06,0,0C260,143.92,259.86,144,259.74,144ZM92.52,33.63l2.06-.9-.31-.49-1.75,1.39L92.2,34l-2.65-.21a14.65,14.65,0,0,1,2.31-2.09,28.3,28.3,0,0,1,3.65-1.58c-.77-.18-1.44.17-2.07.12a24.28,24.28,0,0,1-3.12-.63A12.21,12.21,0,0,1,92.66,28c2.12-.76,4.29-1.35,6.44-2L99,25.79,89,27.48l-.16-.6,1.37-1,.65-.33,1.8-.24c0-.43-.1-.83,0-.91,1.21-.84,2.46-1.62,3.7-2.42.13,0,.26-.06,0,0,.23-.11.11-.05,0,0L96,20.8a18.45,18.45,0,0,1,2.61-.57c1.13-.1,2.27,0,4.09,0L100,18.81l3.07-.18c-3.37-1-7.12-1.9-10.66-3.3S85.45,12,82,10.29c-5.62-2.87-10.68-7-17.58-6.77-4,.13-8.28-.23-10.62,3.61A22.76,22.76,0,0,0,51.08,16c-.76,6.18-1.16,12.38-4,18.09a23.57,23.57,0,0,0-1.61,16.12c1,4.16,2,8.29,3.07,12.42.28,1.07.93,2,1.27,3.1A11.2,11.2,0,0,1,50,68.07l-.71-1.38V81.1L51.15,79l.32.25L50.64,82h0c3.19-2.47,3.46-6.49,5.19-9.74h0c.65-5.54,1.22-11.09,2-16.61a29.45,29.45,0,0,1,1.52-4.81l.77.25-1.33,5.16c2.65-3.9.46-9.15,5.09-12.24-.22,1-.31,1.61-.47,2.19-.67,2.52-1.36,5-2,7.55l-1.13,1.32.37.24.76-1.56c1.12-2.07,2.38-4.09,3.32-6.24,1.08-2.46,1.84-5.06,2.82-7.56.14-.34.8-.48,1.22-.71.14.35.48.78.38,1-1,2.78-2.19,5.51-3.16,8.3-.69,2-1.14,4-1.69,6l.28.07,2.35-4.8h0c.13.3.44.67.36.9-.5,1.45-1.1,2.86-1.66,4.29l0,.13,0-.13L67,53l.43.23c-.36,1.26-.72,2.52-1,3.62,2.26-2.94,4.44-6.08,6.94-9a35.65,35.65,0,0,1,6.22-5.81C83.65,39.2,88,36.65,92.2,34ZM227.27,72.27l.16.86.32-.12-.47-.74L225.81,70l-.49.42ZM238,78.12l.08.1-.08-.11V75.33l-.84.1Zm-20.78,175-1.15,3.31.51.14c.21-1.15.42-2.3.64-3.45ZM91.87,282.35l-.18,3.44.61,0c-.14-1.14-.28-2.28-.43-3.42Zm-12-19.81-.13-2.43-.56.11.69,2.32,1.62,3.9,1.19,1c.13-.27.41-.59.35-.79-.47-1.4-1-2.76-1.54-4.14l0-.12,0,0,.08.1v3.9ZM226,252.15l1.08-3.26-.77-.15-.3,3.41,0,.13ZM61,60.9l2.73-6.68L63,53.93,61,60.9,61,61ZM74.66,168.06h0L68,163.16l-.47.74Zm147.09-11c-1.4,1.95-2.81,3.89-4.22,5.84h0l4.22-5.84ZM211.36,266.44q1.24-3.54,2.48-7.08l-1-.29-1.5,7.37ZM224,248.26c0,1.17,0,2.34-.05,3.51,0,.75,0,1.49,0,2.24l.32,0c.52-2.52,1-5,1.61-7.76L224,248.26l0,.13ZM187,284l9.35-2.31c-2.69-1.36-5.57.3-8.51,1.19-.36.11-.56.74-.84,1.13Zm45.78-122.41c.6-.26,1.37-.36,1.76-.8a52.19,52.19,0,0,0,4.5-5.48,60.72,60.72,0,0,0,3.17-5.84,69.9,69.9,0,0,0-4.38,6.13c-1.54,2.1-3.35,4-5.05,6l-.74.79.28.19ZM250,145l0,0-2.66,7c2.1-1.13,5.31-9.38,4.46-11.49a14.34,14.34,0,0,1-.9,2.37c-.13.23-.81.13-1.24.18l.54-1L250,142l-.29,1.08-1.18,2.54ZM46.74,153.44a6.13,6.13,0,0,0-.22-1.37q-2.31-5.49-4.67-10.95a8.24,8.24,0,0,0-.54-.9c.64,4.84,1.85,9.44,5.1,13.22ZM75,259.3l.21.82.22-.09L75,259.3v-4.71l.74-.08c.18,2.25.37,4.49.56,6.74-.06.12-.12.24,0,0,0,.25,0,.11,0,0-.07-2.83-.13-5.66-.23-8.5,0-.15-.32-.44-.42-.41-1.34.38-3.32.43-3.82,1.32-.79,1.37-.57,3.32-.78,5l.49.07.43-1.43,2.38,3.6h0l-1.82-5.18.72-.27C73.82,256.75,74.41,258,75,259.3ZM155.51,335c-2.22,1.66-1.81,4.07-1.75,6.34,0,.53.56,1.06.87,1.59a15.78,15.78,0,0,0,1.43-1.13c.38-.37.56-1,1-1.24,2.25-1.21,2.09-3.49,2.42-5.55l-1.08,2.86-.53-.11.43-5.16-4.13,5.6c.64-1.52,1-2.36,1.36-3.2ZM66.87,134.61h0l-2.19-5.27.48-.25,4.74,7.08.64-.32c-3.32-5.71-8.53-10.61-8.23-17.93a11.47,11.47,0,0,0,.06,3.75c.38,2.37.83,4.73,1.25,7.1h0q2.33,5.49,4.63,11l1-.42ZM236,221,234,225.45l-.78-.37,1.31-4.33c-3,4.12-4.19,9.6-2.47,13,1.7-2.87,3.26-5.3,4.62-7.83,1.83-3.39,1.89-4.07,1.57-8.63l-2.67,8.22-.44-.13L236,221c.06-.12.11-.24,0,0Zm-98.38,80.86c.18.89.3,1.8.56,2.67.22.7.44,1.69,1,1.94a29.18,29.18,0,0,0,5,1.76c.31.09,1.18-.53,1.18-.83,0-3.37.81-6.89-1.73-9.84-.93-1.08-1.66-2.33-2.75-3.89-1.19,3-2.21,5.6-3.24,8.18Zm67.21-14.94,4.92-8.76.59.28c-1.61,4.28-3.56,8.47-4.73,12.86s-1.5,8.84-2.21,13.27l.65.19q5.16-14.5,10.3-29l-.67-.23c-1.91,3.22-1.91,3.22-3.75,1-.56,1.09-1,2.1-1.6,3-.25.4-.81.6-1.23.89.06-.12.12-.24,0,0,0-.25,0-.12,0,0l-3.48,8,.63.25.58-1.73Zm-75,8.12a25.26,25.26,0,0,0-1-2.71,3.57,3.57,0,0,0-1.11-1.18c-.16-.12-.78.05-.79.11a9.11,9.11,0,0,0,.12,1.47c.2,1.2.42,2.4.62,3.6-.59,0-.66-.16-.77-.26a4.36,4.36,0,0,0-.52-.3c-.07,4.49-.33,8.81,2.92,11.81l1.55-.53h0l1.9,1.37c.53-.81,1.57-1.66,1.51-2.43-.22-2.8-.81-5.57-1.26-8.36l-.45.06v1.91L129.86,295ZM76.94,270.34l-.27-1.64-.35.1.62,1.54c.77,3.16,1.29,6.42,2.37,9.48,2.12,6,4.57,12,6.86,18,.72,1.9,1.33,3.84,2,5.76a24.67,24.67,0,0,0,.47-5.09,17.19,17.19,0,0,0-3.32-10.56l.12,0-.33-1.33-.27.09a9.37,9.37,0,0,0,.54,1.26v1.31l-.93.08c-.39-3.42-.79-6.84-1.2-10.44l4.62,8.94.47-.24q-3.37-7.38-6.76-14.76l-.42.16,1.91,6.15-.62.24-.77-.87-.29,1.06-.59.14Q78.87,275,76.94,270.34Zm85.72,36.36c1.9.41,3.55-1.44,3.39-3.51-.19-2.54-.13-5.1-.2-7.64,0-1.35-.12-2.7-.19-4.21l-1.44.76-.28-1.31-.59-.13-2.91,9.15-.29-.08.13-2.08-.64-.07c-.39,3.17-.84,6.33-1.14,9.5a1.79,1.79,0,0,0,.94,1.42,3.5,3.5,0,0,0,2.15,0c.16,0,0-1.13.06-1.73.07-.88.17-1.75.25-2.63l.76.08v2.46Zm10.39-16.23a13.59,13.59,0,0,0-.61,2.95c0,3.56.22,7.12.31,10.68a11.2,11.2,0,0,1-.28,1.89h-.74v-8.87c-.79,4.48-1.71,9,1,13.17h0a14.29,14.29,0,0,0,1.34-1.78c1.43-2.66,1.67-5.76,3.56-8.36,1.21-1.67,1.52-4.21,1.68-6.4.26-3.53.07-7.09.07-10.63h-.63l-.44,5.13-.84,0-.29-3.95c-3.42,2.59-1.94,6.79-4.12,9.93v-3.71c.07-.2.14-.4,0,0C173.08,290.05,173.07,290.26,173.05,290.47ZM110.38,336.9h0a38.9,38.9,0,0,0,3.28,5.19c.87,1,2.46,2.24,3.52,2.07s2.19-2.05,2.28-3.25a71.61,71.61,0,0,0-.1-11.25,13.78,13.78,0,0,0-1.93-5c-.82-1.55-2.14-2.86-2.85-4.45a69.1,69.1,0,0,1-2.25-6.64l-.79.26,4.77,14.6a12.79,12.79,0,0,1-2.24-3.59,31.42,31.42,0,0,1-2-3.79c-1.22-3.58.44-7.86-2.63-11a9.27,9.27,0,0,1-.85-1.2c-.27.47-.77.94-.78,1.41-.05,3.91-.19,7.84.07,11.73.28,4.18,1,8.34,1.39,11.88.89.39,1.5.55,1.49.67A23.39,23.39,0,0,1,110.38,336.9Zm65.92,18.84c-.19-.19-.54-.4-.53-.57.28-3-1.36-3.46-3.86-3.16-.74.08-1.57-.54-2.36-.84,8.92,1,11-5.49,13.24-11.67l.64-1.54-.36-.1-.28,1.64c-1.79,3.09-3.52,6.29-6.86,8a8.15,8.15,0,0,1-3.81.78,24,24,0,0,1-4.41-1c-.35-.2-1.05-.94-1.67-.87-2.14.23-4.26.74-6.27,1.12l-.19-3.28c-4.83,2.41-4.83,2.41-7,0l-6.12,1.37c-.79-.4-.68-3-2.49-.94-2.34,2.69-3.09,2.64-5.84.08a1.43,1.43,0,0,0-1.38-.12c-1.81,1.66-3.39,1.69-5.09-.1a6,6,0,0,1-.74-1.59c-2.25,4.87-2.64,5-7.61,3-.26,1.49-.86,1.88-2.07.68a1.65,1.65,0,0,0-1.52-.05c-3.48,1.9-8.86-.8-9.84-4.71a41,41,0,0,0-2.71-6.32h0c-.11-.24,0-.12,0,0,1.19,4,2.27,7.93,5.3,11.11a76.08,76.08,0,0,1,5.95,7.83c.52.72.85,2.2,1.33,2.23,3.18.2,2.6,3.63,4.67,4.69l-.58.58-6.43-6.32v.68l-10.05-15.8c.68,3.38,1.44,6.8,4.77,9a5.31,5.31,0,0,1,2.09,2.4c1.37,4,4.19,6.69,7,9.68,5.35,5.72,12.4,7.07,19.29,7.4a99.06,99.06,0,0,0,15.21-.27c5.43-.58,11-2,14.93-6.55,1.89-2.18,3.8-4.34,5.69-6.51Zm-83-68.57-.3,0a20,20,0,0,0-.78,3.76c-.11,3.66-.18,7.34,0,11,.44,9.23,1,18.46,3.4,27.46a11,11,0,0,0,1.21,3.49c.58.82,1.75,1.23,2.66,1.81a10.49,10.49,0,0,0,1.08-2.65c.38-3.65.49-7.34.92-11,.45-3.8,1.24-7.55,1.7-11.34.4-3.32.58-6.67.78-10,.06-1-.34-2-.16-2.93.56-2.92,1.42-5.79,1.89-8.73.12-.73-.78-1.63-1.21-2.46a17.76,17.76,0,0,0-1.62,1.5c-.87,1.07-1.66,2.21-2.49,3.31l-.61-.48c.88-1.27,2.82-2.15,1.83-4.33l-1.37,1.16-.12-2.17-1.05,1.32-.57-.53c1-.94,1.89-1.89,2.46-2.47l4.45,1.2.27-1.05L95,280.53l-.25.92c.55.18,1.11.34,1.66.54.77.28,1.93.4,2.19.94s-.38,1.51-.74,2.67l-2.34-2.69v5.61l-.29,0-.9-4.44-.44.09c.34,2.5.67,5,1,7.51l-1.19.13Zm97.4-1.31a18.42,18.42,0,0,1-.69,3.61c-1.56,3.82-1.53,7.79-1.11,11.74.79,7.57,1.88,15.11,2.69,22.68.32,3,.16,6,.35,9,0,.65.64,1.25,1,1.87.52-.37,1.25-.64,1.52-1.15a21.54,21.54,0,0,0,2.38-5.23,113.42,113.42,0,0,0,2.71-15.33c.66-8.88.74-17.81,1-26.72a15.27,15.27,0,0,0-.36-2.49l-.56,2.76-.81-.69v10h-.59c-.16-1.37-.33-2.73-.51-4.3l-2.37.39V289l1.23,1.65c.3-2.23.55-4.14.8-6.06l-.43-.08c-.28,1-.56,2-.94,3.39l-1.17-2.27-1.05,2.59-.44-.07c-.14-.81-.27-1.62-.4-2.43Zm-12.53,28.5c-.25,1.25-.46,2.08-.57,2.92a8.51,8.51,0,0,1-3.16,5.75,11.34,11.34,0,0,0-3,4.84,51.78,51.78,0,0,0-1.82,7.54c-.64,3.31.29,6.37,1.74,9.41l1.25-1.46c.1.85.15,1.34.23,2.07a12.54,12.54,0,0,0,1.86-.71,14.18,14.18,0,0,0,6.24-8.54,72.07,72.07,0,0,0,2-12.41c.42-4.68,2.46-9.45-.27-14.08-.24-.41-.52-.79-.79-1.19a4,4,0,0,0-.75,1.1c-.4,1.57-.66,3.18-1.09,4.74a9.11,9.11,0,0,1-1.1,1.9ZM116,304.44c4,1.68.67,5.21,2.72,6.92,2.38-1.58,3.19-14.23,1.13-19.41l.19,2.85c-.83-2.18-1-4.49-1.68-6.59a44.34,44.34,0,0,0-3.16-6.12l-.74.27v9h-.71q-.3-2.82-.58-5.61c-2.38,5.34.26,20.21,4.54,24ZM127.78,342c-.48-.5-.58-.57-.61-.66a1.24,1.24,0,0,1-.1-.47c.07-3.45,1.24-7-.74-10.3-.2-.33,0-.86-.11-1.28-.35-2.23-1.88-3.46-3.91-4.71-.61,6.92-1,13.46,3.16,19.21a2.43,2.43,0,0,0,2.2-.27,7.54,7.54,0,0,0,.11-7.46Zm21.51-34.07a40.71,40.71,0,0,0,4.55-2.56c.36-.26.11-1.33.19-2,0-.29.23-.81.36-.81,1.73-.09,1-1.19.75-1.93-.56-1.89-1.19-3.75-1.86-5.6-.16-.47-.47-1.11-.85-1.21-.93-.26-4.32,2.81-4.37,3.86a56.52,56.52,0,0,0-.14,6.5C148,305.39,148.77,306.56,149.29,307.93ZM130.18,331.2c.89,2.57,1.63,4.65,2.33,6.76.33,1,.56,2,.83,3l.42,1.55c.7-.24,2-.48,2-.71,0-1.83.24-3.92-.57-5.41C134.21,334.62,132.29,333.32,130.18,331.2Zm48.07,19.14.54.49c1.59-1.94,3.78-3.65,4.63-5.87,1.41-3.72,2-7.77,2.89-11.68-1.32,2.92-1.83,6.11-3.09,9S179.93,347.66,178.25,350.34Zm-31.32-6.26c2.75-1.29,4.12-5.8,3-7.46-.11-.16-.42-.38-.49-.34-1.92,1.09-1.94-.43-2.41-1.59a13.61,13.61,0,0,0,.91,3,2.68,2.68,0,0,1,0,1.29C147.67,340.53,147.34,342,146.93,344.08Zm-7-1.15c3.18.32,2.31-1.57,2.26-3,0-1.16-1.06-2.64,1-3.18.15,0,.27-1,.09-1.28a6.87,6.87,0,0,0-1.32-1.32c-.28.35-.73.67-.8,1.06C140.68,337.74,140.31,340.29,139.9,342.93Zm74.22-65.51,1.13.45q2.12-5.53,4.21-11.07l-.63-.25Zm-137.28-1c-.14-5-1.73-8.8-4.15-10.46ZM57,115.15l-.74.12c1.82,4.64-.33,9.92,2.77,15.11C58.33,124.81,57.68,120,57,115.15ZM83.55,266.06l.59-.07v-4.84l-.3,1.61-.63,0c-.12-1.43-.24-2.86-.38-4.58l-1.25-.89Zm105.57,22.67c.29-1.53.44-2.34.63-3.35l-3.62,1ZM86.48,278l-.62.28,1.84,4,.51-.23C87.63,280.67,87.05,279.31,86.48,278ZM232.14,116.05l-.5,0c-.09,1.37-.17,2.73-.26,4.1l.58,0ZM138.25,338.5l.6.12.66-2.91-.79-.16ZM234,125.37l-.63-.28c-.51,1.28-1,2.56-1.54,3.84l.36.16Zm-22.82,150.5.45.08.95-2.72-.54-.17ZM47.56,84.85l.28,0,.16-2.3-.44,0Zm196.19,64.81-.32-.24-1.47,3,.32.15ZM58.48,119.12h.16v-3.81h-.16ZM47.67,79.88h.26l.36-3-.37,0ZM51.6,84.6l-.41-.26-.92,1.44.39.25ZM90.05,251l-.45-.07-.29,1.8.37.06ZM237.87,113h-.11v2.29h.11Zm8.77,34-.3-.08-.44,1.69.3.08C246.34,148.09,246.49,147.53,246.64,147ZM203.91,296.24l.28.05.27-1.35-.36-.06Zm-72.27,43-.25.16.61,1.17.32-.18Zm-72-229.15-.3-.16-.26,1.51.25,0Zm.63,52-.15.32,1,.54.12-.22Zm-21.56,3.79-.36.13.37.75.24-.1Zm203.13-25.39a1,1,0,0,0-.29,0c0,.23-.06.47-.09.71l.23,0ZM80.64,260.28l-.23.1.34.74L81,261ZM233.06,132l-.36-.07-.13.81.25,0ZM200,282.48c-.07,0-.19.09-.21.15a.62.62,0,0,0,.06.28,1.34,1.34,0,0,0,.28-.18S200.07,282.57,200,282.48ZM46.65,146.56l-.18-.23c0,.07-.15.14-.15.2s.1.15.16.23ZM123.27,284h-.11v.64h.11Zm54,67.51-.13,0a1.64,1.64,0,0,0,0,.23s.12,0,.12,0A.91.91,0,0,0,177.29,351.49ZM97.76,24.11V24h-.38s0,.08,0,.12Zm138.07,104.4h.1v-.4l-.12,0C235.81,128.25,235.82,128.38,235.83,128.51ZM198.57,281.76l.05-.13a.85.85,0,0,0-.23,0s0,.07,0,.12Zm-121-133.15a.83.83,0,0,0,0,.27s.11.1.11.09a1.39,1.39,0,0,0,.15-.19ZM59,113.14h-.08c0,.12,0,.25,0,.38H59ZM16.7,116.59l.18-.14s-.06-.09-.07-.09a1.22,1.22,0,0,0-.19.12Zm205.12,19.85a1.56,1.56,0,0,0,.16.2s.11,0,.12-.09a1.18,1.18,0,0,0,0-.26Zm-159.34,8.7,0-.25s-.09.05-.1.08A.7.7,0,0,0,62.48,145.14ZM64,52.74l.08-.11-.19-.07s0,.1,0,.13S63.93,52.72,64,52.74ZM208.69,266.49l0-.13a1.49,1.49,0,0,0-.14.12.7.7,0,0,1,.07.1ZM180,285.82l0,.13h.17a.42.42,0,0,0,0-.13S180,285.83,180,285.82Zm-20.1,47.07a.48.48,0,0,0-.05.14s.07.06.1.08a.23.23,0,0,0,0-.14S159.9,332.92,159.87,332.89ZM40.79,138.34l-.12.24s.11,0,.12,0A1.5,1.5,0,0,0,40.79,138.34Zm22.07-12-.09,0,.06.07Zm180.53-11.36-.09,0,.06.07Zm-149-90.23-.08-.06,0,.09Z"/><path d="M209.09,298.91Z"/><path d="M176,238.84a9.39,9.39,0,0,1-4,5.62A2.32,2.32,0,0,0,171,246c-.71,5.59-4.2,9.55-7.69,13.57-3.14,3.63-7.38,4.64-11.8,5.25-.76.11-1.66-.51-2.45-.89a7.51,7.51,0,0,1-1.31-1c-.33.64-.92,1.28-.94,1.94-.06,2.75.07,5.51.09,8.26,0,3.69,0,7.37,0,11.36-1.74-2.9-1.59-28.05.19-35.92.2,1.85.33,3,.43,3.88v-8.13l-.62-.06a34.77,34.77,0,0,0-1.1,5.17c-.23,3.61-.11,7.25-.29,10.86s-2.82,5.05-6.24,4.41c-7.07-1.33-11.5-5.79-14.65-11.86-.68-1.31-1.07-2.76-1.67-4.12-.69-1.55-1.46-3.08-2.22-4.6-1.93-3.84-3.49-7.73-2.48-12.17.61-2.67,1.61-5.35,1.6-8s1.93-4.32,2.14-6.82a17.11,17.11,0,0,1,2.18-7.21c4.14-6.83,9.48-8.4,17-5.25a10.58,10.58,0,0,0,1,.49c.89.24,1.8.43,2.7.63.08-.86.18-1.73.23-2.6.1-1.56.14-3.12.26-4.68.19-2.36-1.09-2.81-3.12-2.71-3.33.17-6.66.19-10,.21a2.27,2.27,0,0,1-1.7-.93,13.81,13.81,0,0,1,2-.33c3.66,0,7.33.11,11-.06a2.74,2.74,0,0,0,1.87-1.89c.23-6.07.26-12.16.34-18.24.13-8.67.33-17.35.33-26,0-2.89-.71-5.79-.71-8.69,0-8.63.07-17.27.39-25.9a68.16,68.16,0,0,1,1.54-10.09c.92-4.9-.75-9.49-1.36-14.22-.51-3.9.23-8,.41-12h1l.69,16h.41l.9-10.14h.33V95.7l-1-.35c-.35,9.79-.67,19.49-1.05,29.18-.27,6.86-.87,13.71-.88,20.56,0,10.23.36,20.47.57,30.7.1,5.43.19,10.86.33,16.29a17.74,17.74,0,0,0,.43,2.36c.07.4.26,1,.07,1.2-2.48,3-.54,6.43-1,9.62a3.28,3.28,0,0,0,1.8.43c3-.86,5.94-2.37,9-2.65a12.58,12.58,0,0,1,6.83,1.88c5.67,3.24,7.49,8.74,7.89,14.92a11.25,11.25,0,0,0,.81,2.57c1.11,3.41,2.53,6.76,3.2,10.26.37,1.93-.49,4.11-.8,6.17ZM152.59,260l.33-.33h0ZM130.51,257h0l-.32-.33-.33-.32h0l.33.33Zm-1.62-1.94h0Zm36.37-2,.32-.33.66-1h0l-.64,1-.32.33Zm-37.34.31v0l.09.09Zm13,.34-.08-.11.08.11h0C141,254,141,253.9,140.9,253.78Zm14.61,2.59c.13-.14.26-.29,0,0,.14-.35.07-.17,0,0Zm-8.76-29.22v7.23l.93-.09-.93-7.14c.05-.12.11-.24,0,0ZM145,233.66l-.23.07c.64,2.49,1.27,5,1.91,7.45l.48,0c.38-1.85.77-3.7,1.15-5.55l-.47-.11-.93,2.44Zm-4.73,28.17.22-.54L135.05,259l-.23.55Zm11.28-6.13-.5,0v2.69l.5,0Zm-3.12-21.84.14-.06v-1.32h-.14ZM118.2,235.2l.29,0-.18-.81Zm20,21.42.23-.13-.35-.61a1,1,0,0,0-.2.13C138,256.22,138.11,256.42,138.22,256.62Z"/><path d="M172.22,169.44l1.19,2.47.3-.06a17.06,17.06,0,0,1-.34-3.16c.26-3.77,1-7.54.86-11.29-.12-3.06-1.44-6.05-1.81-9.12-.61-5.09-.64-10.25-1.37-15.31-.63-4.29-1.91-8.48-2.89-12.71a.85.85,0,0,1,.3-.93,43.09,43.09,0,0,1,2.78,6.42c1,3.86,1.62,7.81,2.26,11.75a16.66,16.66,0,0,1-.08,3.86A24,24,0,0,0,175,152.49c1.32,3.06.82,6.19.31,9.26-.9,5.44.24,10.55,2.27,15.51a15.71,15.71,0,0,1,1,9.19,15.16,15.16,0,0,0,.29,5.09,99.65,99.65,0,0,0,4.38,16.5c1.44,4.08.68,8.93.92,13.45.13,2.39.3,4.78.45,7.16l-.93.09c-.54-5.25-1-10.51-1.66-15.75a19.74,19.74,0,0,0-1.46-6.4c-2.92-5.89-3.13-12.13-3.26-18.49-.12-5.57-.28-11.24-4.46-15.75-.61-.66-.71-1.79-1.05-2.7Z"/><path d="M78.89,214.49c.14.78.32,1.57.42,2.36a3.22,3.22,0,0,1-.13,1c-.34-.17-.85-.25-1-.52-.59-1.12-1.07-2.29-1.86-4,.55,4.75,1,8.89,1.52,13l-.94.11c-.41-2.3-.81-4.61-1.24-6.9-.58-3.05-.87-6.2-1.88-9.11s1.34-9,3.93-10.7c1.85-1.19,3.16,0,4,1.45,1,1.67,2.11,3.47,2.27,5.3a72.43,72.43,0,0,1-.09,11c0,.72-1.19,1.38-1.83,2.07a18.44,18.44,0,0,1-1.65-2c-.59-1-1-2-1.54-3Z"/><path d="M215.7,217v-1.75l-.33-.06c-.37,2.14-.75,4.27-1.12,6.4l-.84-.15c.13-1,.26-2,.42-3.16-2.38,1.55-3.82,1.18-4.32-1.44-1.1-5.76-.69-11.39,2.93-16.37a2.32,2.32,0,0,1,4-.2c2.68,3.06,4.36,6.54,3.42,10.81-.24,1.11-.34,2.25-.62,3.34-.66,2.59-1.4,5.15-2.11,7.73l-.84-.21,1.45-6.28Z"/><path d="M224.67,221l-1.2.57-.66-.52c1.31-2,2.54-4.13,4-6.06a17.38,17.38,0,0,1,2.75-2.43h0l9.84-6.34L233,208.11l-.2-.54,1.92-1.2h0c3.38-1.51,7.07-2.54,9.42-6l-4.24-.67,6.61-3-.11-.25c2.59-2.43,5.36-5,8.13-7.59h0c-1.65,2.15-3.36,4.26-4.92,6.47a20.3,20.3,0,0,0-1.66,3.41c-.19.43-.13,1.3-.32,1.34a6.21,6.21,0,0,1-2-.26,77.34,77.34,0,0,1-5.84,6.84c-2.46,2.32-5.47,4-8,6.31-2.25,2-4.13,4.48-6.18,6.73h0l2-1.84c-1.55,3.62-3.15,7.37-4.76,11.12h-.35c.29-1.47.58-2.93.86-4.4l-.52-.17c-.38,1.26-.77,2.52-1.17,3.79-1.08-1.27-.08-4.92,1.39-5.63.63-.31,1.06-1,1.58-1.58ZM245,198.88c-.09,0-.19.07-.23.13s.06.14.09.21.18-.06.22-.12S245,199,245,198.88Z"/><path d="M61.68,200l13.6-4.56L75,194.5c-1.18.45-2.33,1-3.54,1.32a15,15,0,0,1-4.11.74,24.78,24.78,0,0,1-4.44-.88l8.86-2c.42-.09.87-.06,1.27-.19,2-.64,4.09-2.25,5.38-.22,1.23-.42,2-1,2.65-.86,3.41.59,4.88-.1,6.69-3.1,1.67-2.77,3.39-5.54,5.3-8.15,1.28-1.75,2.85-3.37,5.57-3.53a5.52,5.52,0,0,1-.44,1c-2.58,3.29-5.34,6.46-7.72,9.88a15.33,15.33,0,0,1-6.83,5.94c-1.11.44-2.62-.16-3.79.22-2.63.85-5.13,2.13-7.76,3-3,1-6.12,1.87-9.2,2.72C62.53,200.54,62.07,200.15,61.68,200Z"/><path d="M177,243.71a7.53,7.53,0,0,1-.34-2.57c.4-1.88,1.07-3.7,1.63-5.55l0-.13,0,.14a2.67,2.67,0,0,1-.56-.23c1.27-6.52,0-12.7-2.09-18.88-.82-2.43-.62-5.2-.88-7.82l.6-.2a16.82,16.82,0,0,1,.65,1.75c.89,3.7,1.42,7.52,2.69,11.07,2.25,6.28,3,12.43.36,18.76a25.2,25.2,0,0,0-.54,3.11,6.1,6.1,0,0,1-1,1.52l-.57-1Z"/><path d="M115.9,242.74c-.69-2.13-2-4.28-2-6.39.22-7.18.88-14.35,4.25-20.93.23-.43.55-.82,1.07-1.6-.87,4.29-1.54,8.1-2.43,11.85-1.47,6.15-1.9,12.18.84,18.16a23.08,23.08,0,0,1,1.1,4.91l-.78.33c-.44-1-1-2-1.31-3s-.53-2.23-.78-3.34Z"/><path d="M254.55,102.46v7.23c-.15.12.1-.09.34-.31l.56.32a47.54,47.54,0,0,0-3.09,6.13,55,55,0,0,0-1.46,6.93c-.47,2.27-1,4.52-1.48,6.78l-.69-.15c.31-1.9.67-3.79.93-5.69.48-3.53.76-7.09,1.39-10.58.42-2.29,1.43-4.46,1.9-6.74.2-1-.34-2.08-.47-3.13a5.07,5.07,0,0,1,.38-3,10.54,10.54,0,0,0,.63,2c.11.21.69.18,1.06.27Z"/><path d="M52.58,191.76l1.3-.65h0l-2.65-.93.27-.9c1.73.61,3.47,1.19,5.18,1.85,1.23.48,2.46,1.58,3.62,1.5,3.79-.26,7.55-.95,11.33-1.46a6.9,6.9,0,0,1,.91,0c-1.26,3.55-17.6,5.26-23,.59h3.08l1,.32,1.66.56.08-.43-1.74-.12Z"/><path d="M103.89,156l.6,1.72,3-5.72c1.76,3-4.83,13.31-9,14.06l2.48-1.94h-.67c.28-7,5.12-11.68,8.21-17.28l.74.46c-1.19,1.82-2.42,3.63-3.58,5.48-.65,1-1.18,2.15-1.77,3.22Zm-.65,4.56v0Z"/><path d="M69.85,225.59c-1.43-8.56-7.76-12.9-14.44-17.39.81-.2,1-.31,1.1-.26,4.57,2.84,10.05,4.46,12.85,9.64.57,1,1.11,2.11,1.63,3.18C72.12,223.1,72.11,223.1,69.85,225.59Z"/><path d="M280.2,150.52l-.64.33c0-2.41,0-4.83,0-7.24a4.32,4.32,0,0,0-.53-2c-1.45-2.45-.42-4.92-.12-7.39,0-.18.52-.31.91-.54l-.83-8,.72,0a50.38,50.38,0,0,1,.85,23.89h0Zm0-14.36-.13-.11v2.53h.33Zm-.36,4.61-.07-.11-.09.08a.88.88,0,0,0,.12.15Z"/><path d="M146.28,74.65a29.38,29.38,0,0,1-.69-13.19,50.89,50.89,0,0,0,.53-6.55,119.51,119.51,0,0,1,1.14-12.36C149,53.31,146,63.93,146.28,74.65Z"/><path d="M193.47,174.52a5.52,5.52,0,0,1,1.44.78c4.29,4.19,8.26,8.6,10.86,14.14.93,2,2.7,3.56,4.09,5.32l.6-.42c-1.09-.3-2.2-.56-3.29-.9-1.59-.5-5.69-6.53-5.75-8.21a2.66,2.66,0,0,0-.8-1.43c-2.54-2.89-5.11-5.75-7.67-8.63Z"/><path d="M194.15,159.29q1,3.5,2,7l-.95.37q-2.52-6-5.05-12.05l.47-.34,2.8,3.78c-.93-2.24-1.73-4.18-2.54-6.12l1-.52c2.38,4.16,4.77,8.31,7.35,12.81l-1.65.17a31.81,31.81,0,0,0-1.64-4.1c-.29-.51-1.21-.67-1.85-1Z"/><path d="M198.38,266l1.35,4.18.5-.12c-.4-2.87-.79-5.73-1.19-8.6,2.45,3.06,2.35,6.59,2.19,10.1a17.13,17.13,0,0,1-.6,3.61c-.14.52-.61,1.28-1,1.34a1.81,1.81,0,0,1-1.51-.84C196.8,272.5,195.85,269.32,198.38,266Zm1.21,7.71-.22,0,.06.8h.16Z"/><path d="M38,176.17V172.8l2.28,4h0l1.18,3.11c-4.49-2.93-8.05-6.1-9.29-11.23h0v-4.16l.94-.19c.68,2.62,1.36,5.25,2.18,8.44V168l.65-.15c.46,2.22.91,4.44,1.41,6.65a13.7,13.7,0,0,0,.66,1.71c.09.18.18.35,0,0C38.33,176.38,38.15,176.27,38,176.17Z"/><path d="M115.07,20l-8.14,4.68.4.78,8.08-3.6.43.87c-3.5,3.13-7.86,4.79-12.18,6.68C103.57,25.38,109.09,20.82,115.07,20Z"/><path d="M99,153.77a7.78,7.78,0,0,1,0-1.6,15.09,15.09,0,0,1,.64-2h0q2-4.17,4-8.34l1.25.45c-.76,2.79-1.07,5.83-2.4,8.32-2,3.76-4.75,7.14-7.18,10.68l-.61-.29c1-1.83,2-3.67,3-5.48A16.93,16.93,0,0,1,99,153.77l.32-.65,2-2.92,1.2-2.73-.63-.18-.57,2.91-2,2.92Z"/><path d="M201.9,220.27q-3.22-10.46-6.46-20.93C199.91,205.55,202.44,212.4,201.9,220.27Z"/><path d="M12.32,130.07l1.93-6.26-1.6,25c-2.2-6.24-.63-12.51-.33-18.76Z"/><path d="M12.32,159.62l1.91-1.6L22,170.81l.6-3.53c.61,1.62,1.26,2.64,1.31,3.7a8.74,8.74,0,0,1-.88,2.84L12.32,159.61Z"/><path d="M281.63,154.65c-1.83,8-8.46,13.26-12,20.4a10.08,10.08,0,0,1,.76-3.09c1.92-3,4.11-5.92,6.06-8.94,1.53-2.38,2.85-4.89,4.29-7.33A8.51,8.51,0,0,1,281.63,154.65Z"/><path d="M87,46.94c-2.45,1.94-4.9,3.88-7.37,5.79-.15.13-.49,0-.78,0,1.23-3.09,14.45-13,17.91-13.25L87,46.94Z"/><path d="M186.54,131.25c.43,3.33,1.72,6.84,1.08,10a16.86,16.86,0,0,0,1,10.19c.17.43.28.88.47,1.47-2.41-1.28-3.78-5.69-3.27-8.3a33.15,33.15,0,0,0,.27-7c0-2.05-.34-4.1-.52-6.15Z"/><path d="M219.8,58.31,209.42,48.25c6.7,2.91,14.91,11.6,14,14.78-1.83-.55-4.13-3.56-3.61-4.72l.32.32.33.32.32.33.33.32h0l-.32-.33-.33-.32-.32-.33Z"/><path d="M154,200.8c0,.54,0,1.57-.16,1.58-1.39.18-2.8.21-4.21.28l-.05-.72,3.4-1.13-4.16-1.29L149,199h14.15C160.21,202,156.79,199.79,154,200.8Z"/><path d="M155.27,120.19l1.48,2.17.59-2.1c-.42,3.91,4,5.63,3.74,9.59l-3.09-4-.53.15c.39,1.39.77,2.78,1.36,4.9-3.34-3.25-2.64-7.2-4.2-10.3Z"/><path d="M174.72,245.36c-.57,1.83-1.1,3.55-1.62,5.27-.08.24-.24.64-.13.75,2.25,2.21.25,3.59-.94,5.19a53.81,53.81,0,0,1-4.82,6.09,5.74,5.74,0,0,1,.41-2c1.37-2.18,2.92-4.26,4.28-6.46a2.54,2.54,0,0,0,.24-2C171.4,250.31,173,245.66,174.72,245.36Z"/><path d="M96.62,168.51c.2-6.4,1.58-12.31,6.38-16.65Z"/><path d="M93,95.14l-15.36-7C80.51,86.65,90.86,91.1,93,95.14Z"/><path d="M185.75,152.71c3.07,2,5.74,10.79,4.39,13.25C186,162.41,188.64,156.69,185.75,152.71Z"/><path d="M203.25,92.4a15,15,0,0,0,2.28-1.11,22.71,22.71,0,0,1,10.77-3.65l.3.78-14.3,6,.62-1.68h0l.33-.33Z"/><path d="M187.57,273.28c.55-1,.75-1.44,1-1.91,1,2.47.57,3.21-2.76,3.95l.78-14.74,1,0Z"/><path d="M137.86,201.41l1.64-.41v-.31h-7.67l-.19-.57c.54-.28,1.07-.8,1.61-.81,3.23-.08,6.47,0,9.7,0C143,202.93,142,203.43,137.86,201.41Z"/><path d="M93.22,273.58l-.9,2.19c-.77-2.75.54-6,3.54-9.46l.74.17c-.66,2.74-1.3,5.5-2,8.23,0,.21-.59.3-.9.44Z"/><path d="M96.09,209c-.82,2.33-1.65,4.66-2.49,7-1.18-2-1.2-6.61.11-8l.1,1.75,3.54-7L98,203c-.63,2-1.25,4-1.88,5.94Z"/><path d="M182.14,24.21l3.08,1.95a4.1,4.1,0,0,1-5.08-2.32c-.08-.28-.66-.42-1-.61-2.13-1.15-4.28-2.26-6.37-3.48a2.23,2.23,0,0,1-.88-1.89c.74.36,1.49.69,2.21,1.08,2.59,1.43,5.19,2.86,7.75,4.33.21.13.21.62.31.94Z"/><path d="M228.23,198.51l-8.35-4.78-.41.84,4.53,2.05-.27.7-5.42-2.14c.37-.79.61-2.16,1.14-2.28C222,192.3,226.82,195.28,228.23,198.51Z"/><path d="M144.45,37.75c.81,1.49-2.06,12.55-3.4,13.83C139.94,46.47,142.72,42.38,144.45,37.75Z"/><path d="M40.25,176.82l-.46-2.48.36-.15a9,9,0,0,0,1.57,2.61c1.26,1,2.84,1.64,4.18,2.57A16,16,0,0,1,50,183.29c-3.72-1.52-7.48-2.92-9.79-6.47Z"/><path d="M169.46,190.61c1.09,1.85,2.3,3.63,3.19,5.56a6.83,6.83,0,0,1,.19,3.14c0,.32-.61.61-.93.91a6.93,6.93,0,0,1-.59-1.19c-.37-1.25.58-3.31-2-3.17-.16,0-.49-.23-.49-.35,0-1.58,0-3.16,0-4.75Z"/><path d="M201.62,191.76l-.17,1.29-6.82-10.69,1-.68,8.13,11.47-.48.39-1.66-1.78Z"/><path d="M185.57,191.3c-.43-1.72-1-3.61-1.36-5.55a4.21,4.21,0,0,1,.55-2.36c.17-.35.88-.45,1.34-.65a6.31,6.31,0,0,0-.12,1.36,5.35,5.35,0,0,0,1.17,3v-2.69l.89-.14c.1,1.07.59,2.31.22,3.18A22.18,22.18,0,0,1,185.57,191.3Z"/><path d="M94.28,258.63q-1.45,7.1-2.92,14.2l-.78-.16a29.69,29.69,0,0,1,3-14.15Z"/><path d="M143.53,85.29l-5.36,13.95-.72-.26c.54-5.1,3.22-9.43,5.1-14Z"/><path d="M94.78,248.8l-5,16.12-1.06-.33q2.51-8,5-16.07Z"/><path d="M17.38,140.89l-2-6.22-.5,2.17-.79-.1,1.18-10,2.68,14Z"/><path d="M51,92.73c-.07-.27-.28-.73-.21-.78,3.64-2.5,7.06-5.46,11.74-5.9.82-.08,1.66,0,2.86,0l-6.27,2.48h0l-6.25,2.4.21.72h1l.16.71L51,92.72Z"/><path d="M62.54,186.71l17.19-4.64C79.45,184,65.27,187.74,62.54,186.71Z"/><path d="M154.31,126.74c.9,2,2.33,3.62.79,6-.7,1.07-.44,2.76-.66,4.16a3.14,3.14,0,0,1-.94,1.9c-.14-.75-.27-1.49-.43-2.35l-.63.21C153,133.51,153.64,130.31,154.31,126.74Z"/><path d="M37.28,192.6c-2.89-1.11-7.79-9.59-6.79-12.83Z"/><path d="M168.2,273.76c-2.1-3.59,1.15-8.25,3.93-9.73Z"/><path d="M149.23,18.63c2.32-2.09,12-2,14.13,0Z"/><path d="M115.41,216.13c1.2-4,2.39-7.92,3.62-12C120.46,205.3,118,214.23,115.41,216.13Z"/><path d="M143.06,198.36H131.29l0-.89H143Z"/><path d="M122.72,191.11l1.24-1.45.5.11c-.36,1.36-.77,2.71-1.07,4.08-.35,1.58-.58,3.18-.94,4.75a9.44,9.44,0,0,1-.8,2c-.05.1-.7.06-.71,0a4.53,4.53,0,0,1-.22-1.8c.61-2.59,1.33-5.15,2-7.72Z"/><path d="M52.87,138.6q-1.53-6.28-3-12.56l1.17-.29,3.09,12.55Z"/><path d="M56.8,203.77,62,205.58c-3.85,1.95-12.17-4.42-11.73-7.77l6.56,6Z"/><path d="M124.74,270.16c-.55-1.64-1.14-3.27-1.63-4.92s-.82-3.07-1.16-4.62a4.35,4.35,0,0,1,.1-1.23c.31.11.85.14.91.33,1.07,3.33,2.07,6.67,3.09,10Z"/><path d="M113.85,181.9l-1.14,14.54-1.07-.08,1.09-14.54Z"/><path d="M199.59,199.71l-6.7-12.44,1.21-.61q3.14,6.34,6.26,12.67Z"/><path d="M163.59,195.73H151.48v-.81h12.11Z"/><path d="M182.17,196.19c-1.72-2.13-1.63-10.44,0-11.63Z"/><path d="M112.25,88.18c-.93,3.5-1.85,7-2.73,10.34C107.65,96.6,108.38,92.35,112.25,88.18Z"/><path d="M113.87,156.78l-5.57,10.69C107.5,164.92,110.53,158.72,113.87,156.78Z"/><path d="M182.9,154.76c1.43,3.34,2.86,6.67,4.42,10.34C185,164.6,182,157.82,182.9,154.76Z"/><path d="M259.45,165.33c.67,3.64,2.06,7.4-1.79,10.34Z"/><path d="M141.08,82.49A12.48,12.48,0,0,0,140,84.84a6.41,6.41,0,0,0,.24,1.75,1.53,1.53,0,0,1-.05.77c-.71,1.73-1.45,3.44-2.17,5.14C136.13,89.62,137.39,84.8,141.08,82.49Z"/><path d="M108.77,198.54c-1.52-2.32-.86-12.9.75-14Z"/><path d="M159.15,107.5c.28,1.44.57,2.88.89,4.49l3.47-1.2.55.68L160.29,115l-.77-.47c-.46-2.29-.91-4.58-1.37-6.87Z"/><path d="M130.82,17.64h12l0,1.25-12-.66Z"/><path d="M121.34,249.4c1.08,4.48,4.81,7.77,5.62,12.37l-1,.43-5.55-12.44Z"/><path d="M122.72,191.11c-.38,0-1,.28-1.1.11-1.53-1.65-.32-6.52,2.48-7.88-.51,2.85-.94,5.31-1.38,7.77Z"/><path d="M202.21,266.94c-.89-4.71-1.77-9.31-2.64-13.88C201.66,254.22,203.49,263.49,202.21,266.94Z"/><path d="M202.58,92.42l-2,1.26C201.1,90.63,206.9,86,209,87l-6,5.09h0l-.29.3Z"/><path d="M186.65,247.69c-1.82-2.8-1.46-8.86.77-11.51Z"/><path d="M113.16,101.84c-1.65-4.62-.34-8.24,1.21-11.84l.67.1C114.44,93.82,113.85,97.54,113.16,101.84Z"/><path d="M142.51,34.58c.05,0-.34-.12-.73-.27l.27-.57,2.07.14a6.1,6.1,0,0,1-.46,2c-.86,1.36-1.94,2.59-2.85,3.93s-1.69,2.7-2.53,4.06l-.6-.31C139.22,40.69,140.76,37.82,142.51,34.58Z"/><path d="M138.28,141.61c.64-3.65,1.24-7.1,1.89-10.85C141.87,134,140.9,139.8,138.28,141.61Z"/><path d="M108.92,81.08c-.45,1.51-1,3-1.35,4.54s-.6,2.92-1,4.35c-.07.26-.63.38-1,.56-.27-.55-.91-1.22-.77-1.63.94-2.77,2-5.48,3.09-8.21Z"/><path d="M137.56,291l-4.21-.51.05-.95,2.78-.31-.58-1.59c1-.9,1.93-1.77,3.16-2.91C138.36,286.78,138,288.58,137.56,291Z"/><path d="M247.73,178.45l2.49-3c1.59,2.47-2.53,7.3-6.24,7.83l3.72-4.12.06-.08,1.6-1.7-.14-.11-1.49,1.21Z"/><path d="M136.44,270.41c.65-2,2-2.17,3.54-2,2.19.32,1.09,2.26,1.4,3.38s-.33,2.36-.55,3.55l-.64,0a10.89,10.89,0,0,1-.4-2.9c.31-2.54.07-2.82-2.45-2.21C137.14,270.36,136.93,270.36,136.44,270.41Z"/><path d="M107.78,159.94l1.46-1.94c1,1.89-1.86,6.08-5.22,7.25,1-2,1.79-3.73,2.68-5.4.06-.13.71.05,1.08.09l0,.13Z"/><path d="M253.25,176.17l4.07-4.86c.26,2.46-1.29,4.32-2.78,6.21a1.88,1.88,0,0,1-.72.63c-.62.24-1.28.38-1.91.56a12.35,12.35,0,0,1,.06-2.36c.06-.33.62-.55,1-.83l.32.65-.73.78.38.23Z"/><path d="M223.18,85.74c2.69-2.06,8.3-1.59,10.55,1.23Z"/><path d="M135.62,25.41c2.78-2.08,5.77-1.43,8.72-1.38C142.89,26,138.23,26.76,135.62,25.41Z"/><path d="M113.33,241.78v10.8h-.76V241.75Z"/><path d="M43.2,122.2c-.93-4.23-3-7.66,0-11.93Z"/><path d="M58.1,141.13l-3.84-13,.75-.23q2.1,6.44,4.18,12.87Z"/><path d="M265.63,165.11V154.2C267.8,156.6,267.68,161.6,265.63,165.11Z"/><path d="M152.51,147c-.36-3-.72-5.93-1.07-8.87l.75-.08C153.69,140.64,154.88,145.8,152.51,147Z"/><path d="M197.4,155.07l.33.65c.06.46.12.92.25,1.83l-3.17-4.1h0c-1.1-2.21-2.25-4.41-3.28-6.66a10.62,10.62,0,0,1-.52-2.41Z"/><path d="M70.65,61.94c1.81-3.35,3.74-6.57,7.37-8l.55.57Z"/><path d="M81.47,46.39l9.65-6.47.63.93-9.69,6.4Z"/><path d="M118.88,112.51,116.56,123C114.75,120,116.34,113.82,118.88,112.51Z"/><path d="M154.16,266.24l10.93-3.76C163.6,265.2,156.75,267.86,154.16,266.24Z"/><path d="M154.38,101.44c1.36,3.34,2.48,6.07,3.7,9.08C155.52,110.15,153.74,105.59,154.38,101.44Z"/><path d="M139.4,266.45c-2.24,1.4-7.34-.25-9.59-3.31Z"/><path d="M184.05,27.82c2.17,1,4.36,2,6.5,3.15.35.18.45.84.66,1.28-.49,0-1.09.3-1.45.11-2.08-1.14-4.11-2.37-6.15-3.57Z"/><path d="M184.1,188.07l1.5,9.86-1.2.17c-.5-3.3-1-6.59-1.49-9.89Z"/><path d="M24.7,158.52c-.46-1.41-.85-2.84-1.39-4.21-.34-.86-1-1.61-1.34-2.46-.09-.19.3-.59,1-.67l.18-1.68.44-.05q1,4.41,2.05,8.82Z"/><path d="M176.27,45.69a51.3,51.3,0,0,1,5.6-1.79c.39-.08,1.11,1.06,1.54,1.72.13.2-.23.71-.36,1.07a5.78,5.78,0,0,0-1.63-.7,11,11,0,0,0-2.49.1c-.78.08-1.55.26-2.32.39Z"/><path d="M261.79,184.34l5.4-11.5.84.39q-2.7,5.75-5.39,11.5Z"/><path d="M150.71,197.38h8.5C158,198.85,152.9,199,150.71,197.38Z"/><path d="M106.64,93.89c.7-3.22,1.27-5.79,1.83-8.36A6.38,6.38,0,0,1,106.64,93.89Z"/><path d="M215.93,233.7c-.4-3.38-.51-6.72.93-9.88l.73.08-.94,9.86Z"/><path d="M59.73,207l3.71.44,0,.58-2.32.14,2.32.95c-1.52,1.18-5.68-.58-7.41-3.41l2,1.06a6.88,6.88,0,0,0,2.29.85l-.56-.61Z"/><path d="M250.94,197.74c2.07-2.51,3.53-5.6,6.93-7.35-.24,1.41-.41,2.36-.61,3.52l-1.28-.42Z"/><path d="M27,153.46l1.15,9.45-1.26.15L26,153.59Z"/><path d="M125.5,128.52l3.3-7.91c1,3.41-.64,5.84-2.59,8.17Z"/><path d="M126.7,121q-1.28,4.44-2.54,8.89l-1.17-.33c.87-3,1.73-5.92,2.6-8.88Z"/><path d="M191.21,102.17l-5.51,5.94c.23-1.29.11-2.29.56-2.81,1.42-1.66,3.06-3.15,4.64-4.68.08-.07.43.14.66.23h0l-.31,1.27Z"/><path d="M71.23,86.08l-9.81-.55C63.86,83.57,67.47,83.59,71.23,86.08Z"/><path d="M246.56,124.84c-1-3.06.69-8.67,3.07-10.54C248.58,117.88,247.63,121.14,246.56,124.84Z"/><path d="M100.82,213c-.29,3.68-.54,7-.83,10.73C98.33,220.67,98.77,215.32,100.82,213Z"/><path d="M196.54,35.58q2.44,2.82,4.9,5.62C198.4,40.69,196.12,39.44,196.54,35.58Z"/><path d="M98.19,172.86c1.75-2.17,3.14-4,4.66-5.71.28-.32,1-.22,1.58-.32-.11.51-.07,1.16-.37,1.51a42.47,42.47,0,0,1-3.66,3.81C100,172.55,99.16,172.57,98.19,172.86Z"/><path d="M49.07,129l2.44,8.51-1,.31q-1.32-4.23-2.62-8.47Z"/><path d="M158.43,20.88c-1.55.24-3.1.5-4.65.73-.69.1-1.39.19-2.08.22s-1.14,0-1.72-.06c.39-.38.72-1,1.17-1.1,1.16-.25,2.38-.26,3.57-.42a14.91,14.91,0,0,1,1.68-.37,12,12,0,0,1,2.06.26Z"/><path d="M138.56,175.11l5.19,6.12C140.93,181.52,138.19,178.48,138.56,175.11Z"/><path d="M78.71,234.87c.32-3,.63-6,1-9l1.13.12c-.32,3-.63,6-1,9Z"/><path d="M28.92,179.36,27.5,180.5c-1.21-2.55-2.36-5-3.52-7.46l.78-.4Z"/><path d="M193.59,215.38v8.38l-.31,0c-.6-1.71-1.51-3.39-1.66-5.14C191.54,217.67,192.78,216.62,193.59,215.38Z"/><path d="M109.15,260.51l.39-8.19.87,0v8.21Z"/><path d="M133.6,122.79,129.74,131l-1.07-.53,4-8.14Z"/><path d="M224,150.2c.64-1.22,1.29-2.44,2.06-3.89.31.35.86.78.8.92-1.49,3.11-2.93,6.26-6.23,8l3.37-4.74h0v-.32Z"/><path d="M171,173.28a6.75,6.75,0,0,1-3.91-5.21,1.2,1.2,0,0,1,.61-1,1.32,1.32,0,0,1,1.11.59C169.56,169.31,170.18,171.07,171,173.28Z"/><path d="M198.15,169.35c.12.92,2.11,1.8-.18,2.84a2.73,2.73,0,0,0,.27,1.58,11,11,0,0,1,1.39,3.26c-1-1.14-2.52-2.13-2.92-3.45s.41-2.84.69-4.29Z"/><path d="M103.71,98.1l4.73,8.7-.86.46-4.81-8.71Z"/><path d="M86.54,183.47l-4.89,6.84C81.21,187.77,83.39,184.55,86.54,183.47Z"/><path d="M136.79,84,140,77.88C141.37,79.66,139.44,83.32,136.79,84Z"/><path d="M142.68,175.25l-3-8,.82-.35,3.41,7.81Z"/><path d="M198.51,82.43l2.52-7,1.17.41-2.43,7.06Z"/><path d="M163.93,128.37l-2.78-7.75C163.64,122.17,165.07,126.22,163.93,128.37Z"/><path d="M138.47,20.47l-4.07.39c-.42,0-.85,0-1.27,0s-1.07.16-1.61.24c.45-.64.87-1.82,1.35-1.85a46.31,46.31,0,0,1,5.62.34Z"/><path d="M150.21,177.59l1.3-9.18,1,.15q-.63,4.58-1.28,9.16Z"/><path d="M73.78,199.28l-9,3.51-.3-.77,8.91-3.87Z"/><path d="M152.87,157.71,151,150.36l1.23-.29,1.69,7.38Z"/><path d="M247.7,179.13c-2.23,1.56-4.45,3.12-6.68,4.66a1.72,1.72,0,0,1-1.3.24c1.92-2.91,5.16-4,8-5.58h0l0,.6Z"/><path d="M46.36,121.12c-.41-2.24-.84-4.48-1.19-6.73,0-.28.33-.71.62-.93a1,1,0,0,1,.77.28c.26,2.42.47,4.85.69,7.28Z"/><path d="M102.92,108.29c-1.22-2.59-2.44-5.17-3.67-7.76l.89-.44,3.81,7.69Z"/><path d="M100.55,184.88l-5,8.28-.83-.51,5-8.3Z"/><path d="M53,129.66q-.63-4.39-1.25-8.79l1-.14c.42,2.93.83,5.86,1.25,8.79Z"/><path d="M137.15,125.38l-3.93,6.4-.93-.51q1.83-3.26,3.67-6.51Z"/><path d="M85.7,68.63l2.79,7.19C85.22,73.67,84.11,69.79,85.7,68.63Z"/><path d="M124.28,272.07c.2,2.83.39,5.66.59,8.49l-1.1.06-.48-8.49Z"/><path d="M131.12,114c-1-.42-1.76-.7-2.49-1.11s-1.47-1.61-2.54-.37c0,.06-.49-.21-.75-.32.21-.45.31-1.08.66-1.3C127.52,109.92,130.83,111.72,131.12,114Z"/><path d="M10.32,135.67l.48,9.09C9.14,143.34,8.9,138,10.32,135.67Z"/><path d="M226.24,195.61a6.87,6.87,0,0,1,8.18,1.81Z"/><path d="M154.07,24c-1.44.31-2.87.67-4.33.86-.24,0-.58-.7-.88-1.08.39-.29.76-.79,1.17-.82,1.28-.11,2.57,0,3.86,0Z"/><path d="M13.56,146.42c.56-2.78,1.11-5.55,1.71-8.52C16.47,139.65,15.66,144.2,13.56,146.42Z"/><path d="M233.87,88.27l7.69,3.39-.48,1-7.6-3.62Z"/><path d="M224.25,191.58l7,1.25-.16,1-7-1.1Z"/><path d="M285.76,155.67c.38-2.62.75-5.25,1.13-7.87l.87.1c-.27,2.64-.54,5.27-.8,7.91Z"/><path d="M267.87,156.27l-1-3.68,1.7,1.18c.08-1.35.16-2.74.24-4.13l1.2.18c-.41,2.16-.82,4.31-1.24,6.47Z"/><path d="M100.84,194.66l-4,8.54-.83-.38,4-8.52Z"/><path d="M168.82,128.15c-1.28-2.32-2.35-4.26-3.7-6.69A5.73,5.73,0,0,1,168.82,128.15Z"/><path d="M91.22,91.75,87.8,88.13l.6-.62c1.72,1.54,3.45,3.08,5.14,4.65.09.08,0,.57-.16.67a.89.89,0,0,1-.75,0c-.5-.31-.94-.71-1.41-1.07Z"/><path d="M171.75,167.41c-1.91-1.73-3.15-5.48-1.75-7.39.58,2.46,1.17,4.93,1.75,7.39Z"/><path d="M104.33,249.31q.58-3.88,1.16-7.77l1.07.16q-.63,3.88-1.28,7.75Z"/><path d="M92.73,238.81c-.54,2.54-1.09,5.08-1.63,7.62L90,246.19q.9-3.8,1.81-7.58Z"/><path d="M206.87,201.67c-1.15-2.27-2.12-4.55.81-6.78C207.38,197.42,207.12,199.54,206.87,201.67Z"/><path d="M86.27,51.61q2.64-2.27,5.3-4.51l.76.91-5.4,4.36Z"/><path d="M189.89,238.63l-.62,6.75-1.06-.1.6-6.79Z"/><path d="M185.89,168.5l2.7,6.6-.91.38L184.82,169Z"/><path d="M123.83,165.1q-1,2.73-2,5.46l-1.06-.37,1.78-5.53Z"/><path d="M280.53,149.55c.46-.89.93-1.77,1.44-2.73,1.26,1.62-.2,5.26-2.32,5.71.2-.74.38-1.37.55-2l.33-1Z"/><path d="M262,162.36c1.33,1.92.55,7.17-1,8.64C261.25,168.17,261.58,165.47,262,162.36Z"/><path d="M234,147.61l2.34-6C238,143.54,236.83,145,234,147.61Z"/><path d="M179,107.68l1.47,6.64-1,.22L178,107.91Z"/><path d="M231.05,140.7l3.7-7,1,.52-4,6.85Z"/><path d="M138.8,126.53,136,132.89l-1.09-.48c1-2.07,2-4.13,3-6.2Z"/><path d="M129,28l-5.41,2.18-.43-1,5.3-2.44Z"/><path d="M31.25,158.64l-1.7-5.7c2.64,1.17,2.33,3.39,2.56,5.41Z"/><path d="M135.78,179.36c.61.43,1.23.84,1.83,1.28s1.07.85,1.62,1.24.91.56,1.32.89c0,0-.29.72-.46.73-.6,0-1.42.07-1.77-.27a44.18,44.18,0,0,1-2.9-3.48Z"/><path d="M93,200.79l3.68-6.14.89.54-3.71,6.12Z"/><path d="M154,190.39h6.29l.05.73-6.3.3Z"/><path d="M41.87,102.79l-1.3-.32c0-2.75,2-4.23,3.8-5.93Z"/><path d="M202,81.69c.38-1.92.76-3.84,1.23-6.19C205,77.6,204.25,80,202,81.68Z"/><path d="M191.67,160.29l2.77,7.14-1,.37L191,160.57Z"/><path d="M95.54,80.19l-2-6.77C95.56,74.3,95.83,75.24,95.54,80.19Z"/><path d="M48,196.77l2.53,5.89-1,.44-2.43-5.93Z"/><path d="M139.49,193.5h-6.18v-.75h6.14Z"/><path d="M182.42,164.81l-3.33-6.42.91-.46c1.07,2.17,2.13,4.33,3.19,6.5Z"/><path d="M89.68,72.13l1.37,5.45-1,.29c-.55-1.79-1.11-3.57-1.66-5.36Z"/><path d="M226.94,186l6.87-.68.12.75-6.85,1.11Z"/><path d="M181.68,100.82c.42,1.86.83,3.72,1.25,5.59l-1,.22-1.5-5.57Z"/><path d="M209.76,189.89l-3.28-5.69,1-.54q1.57,2.88,3.14,5.76Z"/><path d="M214.23,235.4v-7.66h.47v7.68Z"/><path d="M19.2,151.81,18,145.58l1.05-.19,1.13,6.24Z"/><path d="M32.13,168.7,32,170.89l-.75.09-1-6.44.82-.2c.36,1.45.71,2.91,1.07,4.37Z"/><path d="M133.44,112.21l.74-1.42c.31.39.87.77.88,1.17a2.86,2.86,0,0,1-.74,1.37c-.34.47-.77.87-1.34,1.51l-.85-2.63h1.31Z"/><path d="M62.05,204.47l7-2.24.28.87-7,2.19Z"/><path d="M236.94,194.38l-5.33-.54C234,191.63,235.5,192.57,236.94,194.38Z"/><path d="M115.11,39.75l6-1.49.26,1-5.94,1.53Z"/><path d="M187.55,133.94q-.35-3.27-.67-6.54l.94-.11c.24,2.17.49,4.33.73,6.5Z"/><path d="M174.68,254a30,30,0,0,1-.58-3.5c0-.31.67-.65,1-1,.28.33.82.69.8,1-.1,1.17-.39,2.32-.6,3.49Z"/><path d="M222.64,235.45l-1.32,6-.85-.17c.33-2,.67-4,1-6Z"/><path d="M156.27,192.94h5.38v.66h-5.42Z"/><path d="M98.31,276.48l1.47-6.41.62.12q-.45,3.26-.88,6.51Z"/><path d="M275.33,138.83l.32-.65.93.61.09.1-2.43,5.33-.73-.33C274.11,142.2,274.72,140.52,275.33,138.83Z"/><path d="M151.54,182.46l1.49-6.09.86.18-1.38,6.13Z"/><path d="M93.09,233.35l-1.86,5.73-.86-.26c.59-1.92,1.17-3.85,1.75-5.77Z"/><path d="M124.9,17.65l6.41-1.86.26.91-6.43,1.77Z"/><path d="M195.76,222.35v-6.63h.64v6.61Z"/><path d="M168.05,26.46l5.18,1.36-.11.74-5.33-.75Z"/><path d="M178.23,218c-.25-2-.49-4-.74-6l1-.11.63,6Z"/><path d="M81.87,234.55v-5.14l.68,0L83,234.5Z"/><path d="M106.26,185.9l1.17-5.13,1,.24-1.14,5.12Z"/><path d="M210.71,184.62c2.07,1,3,3.07,2,5.81-.79-2.31-1.4-4.06-2-5.81Z"/><path d="M139.79,191.47l-5.08-.45.1-1.05,5.08.39Z"/><path d="M153.44,287.68l1.86-5.08C156.38,284.67,155.58,287.19,153.44,287.68Z"/><path d="M107.22,146.11v-4.8C108.94,143.56,108.77,145.65,107.22,146.11Z"/><path d="M186.85,125.69l-.45-7.4.81-.05.39,7.42Z"/><path d="M193.83,200.41l-1.36-5.4.74-.23c.57,1.76,1.15,3.53,1.73,5.29Z"/><path d="M166.68,173.36c-.7-1.79-1.39-3.57-2.08-5.36l.62-.29,2.51,5.13Z"/><path d="M225,200.64l-4.82-2.48.5-.94,4.76,2.61Z"/><path d="M190.49,173.8q-1.38-2.25-2.75-4.5l.73-.46q1.49,2.19,2.95,4.4Z"/><path d="M97.83,216l-.53,5.58-.93-.08.57-5.57Z"/><path d="M139.15,151.37l1.61-4.6.77.18-1.15,4.74Z"/><path d="M96.69,173.89v2.53l-2.81.24-.62-.73L96,173.22Z"/><path d="M174,39.48l1,.64h0l1.8,2a4.53,4.53,0,0,1-1.54.09c-1.33-.43-2.19-1.18-1.24-2.71Z"/><path d="M54.15,131.13,56,136.56l-1,.3c-.53-1.84-1.07-3.67-1.61-5.51Z"/><path d="M158.06,269.2h-5v-.63h5Z"/><path d="M245.62,139.78l1.53-6.15.73.17L246.51,140Z"/><path d="M228.25,223.26l.32-.65,1-1.3c-.31,2-.61,4.09-.91,6.13l-1-.14C227.86,226,228.06,224.6,228.25,223.26Z"/><path d="M119,280.87l-1-3.39a4.79,4.79,0,0,1,.9-.23c.48,1,.91,2.11,1.34,3.17Z"/><path d="M105.86,54.56c-.47-.88-1-1.54-.88-1.73a3.39,3.39,0,0,1,1.57-1.2c.22-.08,1.06.79,1,.85A20.05,20.05,0,0,1,105.86,54.56Z"/><path d="M136,184.85l3.29.79c-.15.33-.34,1-.47.94-1.07-.09-2.13-.3-3.2-.47Z"/><path d="M195.79,275.66l-1.46-4.55.87-.29,1.65,4.48Z"/><path d="M124.47,171.27l-2.41,3.42-.91-.65,2.44-3.41Z"/><path d="M67,235.71l.59,5.52-.93.09-.48-5.53Z"/><path d="M15.57,120.65l.32-.65,1.6-1.08-.3,2.7L15.4,124Z"/><path d="M10.55,146.61l1,5.29-.87.15-1-5.28Z"/><path d="M5.61,152.23l-.32-4.65C7.14,148.34,7.3,150.22,5.61,152.23Z"/><path d="M128.42,158.43l-1.59-3.86,1-.39,1.44,3.93Z"/><path d="M158.49,284.67l2.86-1.07c.13.41.25.82.38,1.22l-2.89.87Z"/><path d="M91.8,74.46c.38,1.37.75,2.75,1.13,4.12l-1.11.27L91,74.67Z"/><path d="M109.27,74.55l-3,4.6-.74-.5,3.13-4.58Z"/><path d="M262.63,153.61v4.86l-.92,0,.32-4.85Z"/><path d="M190.33,219.75l.48,3.94-1.1.12c-.12-1.32-.23-2.64-.35-4Z"/><path d="M159.27,289.23c-1.25,2.18-2.79,2.33-3.91.43Z"/><path d="M263.31,167.73v-6.18a5.31,5.31,0,0,1,0,6.19Z"/><path d="M202.83,246.68v-5.17l.45,0v5.19Z"/><path d="M151.11,36.26l-1.79-1.6c.44-.22,1-.7,1.31-.6a7,7,0,0,1,1.79,1Z"/><path d="M92,174.61l2.16-4.27.78.37c-.69,1.45-1.39,2.89-2.08,4.34Z"/><path d="M137.24,149.07l1-3.48,1,.29-1,3.5Z"/><path d="M136.71,77.57c.35-1.12.68-2.25,1.09-3.35.06-.17.51-.2.78-.29.1.34.39.75.29,1-.41,1-.93,2-1.42,2.95Z"/><path d="M258.13,156.65l1.88-4,.86.42-1.93,4Z"/><path d="M152.78,60.92c.25,1.46.5,2.92.74,4.38l-.81.16-.85-4.36Z"/><path d="M276.58,138.79l.75-4.94c.24,1.77,1.68,3.78-.67,5Z"/><path d="M63.3,221l2,1.3h0c.08,1.85.16,3.69.27,6.09L63.3,221Z"/><path d="M178.67,118.23c-.38-1.06-.76-2.12-1.13-3.17l1-.38,1.12,3.21Z"/><path d="M189.91,77.23c.61-1.26,1.22-2.52,1.84-3.78l.74.32c-.53,1.28-1.07,2.57-1.6,3.86Z"/><path d="M71.65,203.68l-4.45,2.79-.44-.7,4.54-2.65Z"/><path d="M190.44,271.21v-4.5H191v4.52Z"/><path d="M7.89,150.74v4.75l-.49,0v-4.78Z"/><path d="M142.76,32.25c-.11.11-.22.29-.34.31-1,.12-2.07.21-3.1.31a4,4,0,0,1,0-.83c1.11-.16,2.22-.26,3.33-.38Z"/><path d="M186.86,89.64v-4l.54,0v4Z"/><path d="M91.76,200.53l1.89-4.3.8.35-2,4.28Z"/><path d="M277.7,147.78c-.2-1.2-.41-2.4-.61-3.6l1-.16c.24,1.23.47,2.46.71,3.69Z"/><path d="M109.41,127.29l-.38,4-.82-.06.23-4Z"/><path d="M184.45,115.67l.24,4.24-.88,0c-.09-1.42-.19-2.84-.29-4.26Z"/><path d="M193.83,73.86l-2.53-2c.26-.31.66-.91.75-.87a7.1,7.1,0,0,1,2,1.28C194.25,72.48,194,73.17,193.83,73.86Z"/><path d="M278.1,140c-.29,1.06-.58,2.11-.86,3.17l-1-.26.81-3.16Z"/><path d="M167.25,279.39c.11-.94.2-1.88.36-2.82a5.75,5.75,0,0,1,.92.1c0,.92-.09,1.84-.16,2.76Z"/><path d="M181.59,251.64v3.9H181v-3.88Z"/><path d="M137,295.46c-.28-.84-.61-1.67-.83-2.54-.06-.26.17-.6.26-.91.35.16,1,.29,1,.49a30,30,0,0,1,0,3Z"/><path d="M9.27,153.33l-.71-3.64,1-.17.62,3.64Z"/><path d="M211.94,232.6v-4.51l.45,0c.09,1.5.19,3,.29,4.51Z"/><path d="M167.68,17.52l-3.31-.38.06-.89,3.33.18Z"/><path d="M105.55,35.56,102,37.34l-.4-.78,3.58-1.76Z"/><path d="M112.3,45.48c-.79.08-1.58.2-2.37.21a7.14,7.14,0,0,1-.18-1.07l2.43-.23Z"/><path d="M87.42,199.52c.59-1.2,1.17-2.41,1.75-3.61l.72.33-1.58,3.64Z"/><path d="M279.42,162.18l1.64-3.13.86.48c-.59,1-1.19,2-1.79,3Z"/><path d="M183.78,149.24c.46,1.18.92,2.35,1.37,3.52l-.78.32c-.48-1.17-1-2.33-1.43-3.49Z"/><path d="M275.37,159.65l2.13-4.38.7.36L276,160Z"/><path d="M142.14,27.89h-3.81l0-.49h3.8Z"/><path d="M114.56,117.89c.07,1.29.13,2.59.2,3.88l-.78,0v-3.9Z"/><path d="M108.07,60.45l-3.43.65-.17-.84,3.45-.71Z"/><path d="M273.28,149.27c.2-1.3.39-2.59.59-3.89l.71.09-.41,3.91Z"/><path d="M187.18,24l2.14,3.41-.53.38-2.4-3.25Z"/><path d="M152.23,191.36l1.45,1.32c-.39.17-.83.54-1.15.46a5,5,0,0,1-1.4-.86Z"/><path d="M104.2,104.37l1.93,3.7-.61.34-2-3.63Z"/><path d="M183.2,137.65l.39,3.17-1,.1-.27-3.2Z"/><path d="M155.71,188.69l-2.7.16c0-.28,0-.78.1-.8.84-.14,1.68-.2,2.53-.28Z"/><path d="M108.49,29l-3.33,1.92-.34-.52L108,28.19Z"/><path d="M250.91,103.27c-.19-1.26-.38-2.53-.56-3.79l.83-.12.43,3.81Z"/><path d="M152.69,68.62c.09.78.18,1.56.26,2.34a4.58,4.58,0,0,1-1,0c-.12-.75-.14-1.51-.19-2.26Z"/><path d="M92.2,189.49l-1,3.95-1-.39,2-3.56Z"/><path d="M231.49,151.5l.33-.65c.49,2-.3,3.39-2,4.43Z"/><path d="M142.33,138.22l-1.3,3.33-.74-.28,1.32-3.33Z"/><path d="M169.45,78.55l-1.29-2.37,1-.47c.33.84.67,1.68,1,2.51Z"/><path d="M285.93,146.43c.05,1.06.11,2.12.16,3.18l-.7.07-.31-3.18Z"/><path d="M186.71,49.68l2.42.48-.13.78-2.41-.28Z"/><path d="M82.6,65.19l-.33,2.45-.9-.09L81.68,65Z"/><path d="M105.14,65.18l-2.39.65c-.07-.29-.21-.82-.19-.82.79-.24,1.59-.44,2.38-.63Z"/><path d="M59.27,226.9l-.84-3.14.8-.19.63,3.11Z"/><path d="M108.32,57l-2.63.73-.24-.81,2.62-.74Z"/><path d="M98.77,100.9l1,3.2-.59.19L98,101.15Z"/><path d="M153.29,185.18l2.37-.25.13.77-2.4.43Z"/><path d="M184.56,121.3c0,.76-.09,1.53-.13,2.29l-.7,0v-2.28Z"/><path d="M114.19,269.77c.38.94.75,1.88,1.13,2.83l-.68.27L113.52,270Z"/><path d="M91.61,209.58l-.34,3.16-.68-.06.28-3.17Z"/><path d="M12.32,159.61l.21,2.15-.47.15-1.56-3.47,1.82,1.18Z"/><path d="M163.69,151.48,165,153a5.23,5.23,0,0,1-.67.55c-.46-.45-.87-.95-1.3-1.44Z"/><path d="M207.17,75.67l-.56,2.48-.7-.14.43-2.52Z"/><path d="M180,248l-1.3,2.18-.71-.44,1.33-2.15Z"/><path d="M128.83,202.29l-2.35,1.1-.3-.59,2.2-1.3Z"/><path d="M107.37,132.35l-.25,2.07-.82-.11.29-2.06Z"/><path d="M137.4,59.36l-1.29,1.75-.68-.46,1.18-1.82Z"/><path d="M201.3,83.52l-.22,2.89-.7,0,.21-2.88Z"/><path d="M75.69,53l2-2.3.48.4-1.95,2.44Z"/><path d="M102.62,172.67l-1.39,2.05-.6-.37,1.3-2.17Z"/><path d="M265.66,174.69l-1.54,2.08-.54-.38c.5-.73,1-1.45,1.51-2.17Z"/><path d="M202.72,238.94V235.5h.35v3.44Z"/><path d="M104.27,269.4l-.23,3-.76-.08.4-3Z"/><path d="M143.23,285.61l.18,2.76-.62,0V285.6Z"/><path d="M155.28,182.94l-1,1.08c-.21-.24-.65-.58-.59-.72a5.7,5.7,0,0,1,.8-1.2Z"/><path d="M105.75,41.64l-1.87-.21.05-.6h1.93Z"/><path d="M163,273.5l.3-2.24.47,0v2.29Z"/><path d="M99.44,105.68l1.19,2.29-.65.31-1.18-2.44Z"/><path d="M124,200.15l1.37-1.44.58.53-1.31,1.49Z"/><path d="M137.79,70.73l-.92,2.06-.73-.35,1.05-2Z"/><path d="M140.29,22.33l-2.12.52-.18-.73,2.13-.5Z"/><path d="M212.18,193.33l2.15-.15,0,.71H212.2Z"/><path d="M134.84,268.84c.42.54.79.81.82,1.12s-.45.73-.63.69a1.31,1.31,0,0,1-.91-.66C134,269.79,134.47,269.4,134.84,268.84Z"/><path d="M105.71,140.67l.17-2,.73.06-.13,1.95Z"/><path d="M64.67,237.73v2.43l-.54,0L64,237.76Z"/><path d="M192.41,76.92l-.72,2.44-.56-.15.64-2.47Z"/><path d="M119.28,244l1.82,1.62-.52.56-1.77-1.7Z"/><path d="M160.52,281.41l-.54,1.65c-.25-.13-.73-.31-.72-.38a12,12,0,0,1,.5-1.54Z"/><path d="M187.35,40.91l1.35,1.46L188,43l-1.32-1.47Z"/><path d="M102.54,237.72l.31,2.32-.69.08-.22-2.35Z"/><path d="M191.56,100.85l1.48-.63-1.3,2.58-.53-.63,0-.06.31-1.27Z"/><path d="M45.6,197.64l1.71,2-.5.45-1.71-2Z"/><path d="M112.07,168.09c-.53.37-.83.7-1.16.75s-.44-.42-.67-.65a3.77,3.77,0,0,1,.88-.78C111.27,167.35,111.6,167.74,112.07,168.09Z"/><path d="M95.11,185.9c-.44.77-.89,1.53-1.34,2.29l-.55-.3,1.34-2.29Z"/><path d="M203,204.61l-.65-2.54.59-.16c.22.85.44,1.7.67,2.54Z"/><path d="M110,181.82l.25-2,.66.07-.21,2.07Z"/><path d="M142.58,23.19,141.14,22l.37-.49,1.56,1.11Z"/><path d="M190.14,169.89l-.89-1.5.62-.38.91,1.49Z"/><path d="M261,183l-.89.63-.32-.23,1.13-2.18.41.14v1h0l-.32.65Z"/><path d="M125.28,156.79l-.62-1.54.62-.29.73,1.5Z"/><path d="M192.84,37.83c-.44-.53-.87-1.07-1.3-1.61l.5-.42,1.31,1.61Z"/><path d="M162.39,276.85c-.43.5-.85,1-1.27,1.51l-.49-.4,1.16-1.56Z"/><path d="M133.17,147.46v2h-.47v-2Z"/><path d="M190.25,105.84l1.37-2.1.46.28c-.4.73-.81,1.46-1.22,2.19Z"/><path d="M99.74,39.88l-1.83.58-.19-.56,1.79-.68Z"/><path d="M126.14,182.11l1.24-.87.38.6-1.31.78Z"/><path d="M229.88,157.31l-.81,1.33-.57-.3.74-1.43Z"/><path d="M120.24,57.52l1.28-.82.35.48-1.23.93Z"/><path d="M183.34,183.8l.2,2-.51.06c-.09-.66-.17-1.31-.25-2Z"/><path d="M170.16,145.05l.36,1.51-.63.16-.43-1.49Z"/><path d="M79.92,219l.39,2.13-.39.09-.61-2.09Z"/><path d="M96.63,170.56l-.49,2.4-.42-.09.48-2.4Z"/><path d="M216.37,184.94l-1.5-.29.1-.61,1.49.19Z"/><path d="M109,123.47l-.31,1.45-.64-.13.26-1.44Z"/><path d="M126,69.24l.08-1.46.51,0v1.46Z"/><path d="M187.24,51.8c.26.37.51.58.55.82s-.26.36-.41.55c-.19-.21-.46-.38-.55-.62S187,52.16,187.24,51.8Z"/><path d="M102.93,31.23l-1.61,1.14-.32-.43,1.57-1.14Z"/><path d="M242.89,187.94l2-1,.21.39-1.93,1.1Z"/><path d="M189.65,38.66l-1.25-.84.32-.51,1.31.83Z"/><path d="M95.19,246.44l.68-1.38.47.19-.58,1.46Z"/><path d="M201,197.81l-.72-2.17.5-.16.65,2.17Z"/><path d="M165.79,128.92l1.22,1-.35.42-1.18-1Z"/><path d="M102,73.09l.6-1,.5.29-.61,1Z"/><path d="M89.77,180.52l-.66,1-.44-.26.54-1.05Z"/><path d="M175.83,187.13v1.54h-.3v-1.53Z"/><path d="M196.73,207.27l-.8-1.23.37-.28.93,1.12Z"/><path d="M196.11,256l-1.07.77c-.14-.2-.4-.41-.38-.58a.7.7,0,0,1,.5-.47C195.39,255.64,195.65,255.81,196.11,256Z"/><path d="M166.59,138.93l.65,1.19-.44.25-.69-1.16Z"/><path d="M173.09,201.79l.53,1.19-.45.23-.65-1.15Z"/><path d="M215.62,192.05l-1,.24-.13-.5,1-.25Z"/><path d="M26.33,150.38l-1.42-1,.23-.35,1.44,1Z"/><path d="M145.62,93.64l-.46-1,.45-.21.46,1Z"/><path d="M14.44,152.56l.28,1.18-.44.11L14,152.67Z"/><path d="M169.45,64.81c.19.3.37.48.4.69s-.34.36-.39.33a1.09,1.09,0,0,1-.43-.5C169,65.24,169.23,65.06,169.45,64.81Z"/><path d="M214.37,51.31l-1-1,.47-.5,1.08.95Z"/><path d="M140.71,175.81l-.62-1.1.36-.23.72,1.08Z"/><path d="M37.55,187.59c-.42-.69-.64-.93-.6-1a1.66,1.66,0,0,1,.53-.39c.1.17.26.33.28.5A3.55,3.55,0,0,1,37.55,187.59Z"/><path d="M226,223.61l-.58,1.41-.4-.15.5-1.43Z"/><path d="M58.06,201.91l-1.1-.2,0-.37,1.11.07Z"/><path d="M210.26,65.56l-.62-.68.28-.28.7.58Z"/><path d="M53.62,183.57,52,182.85l.14-.34,1.61.68Z"/><path d="M189.38,251.52l.11,1.37-.42,0-.14-1.37Z"/><path d="M252.59,175.46v-1.12H253v1.19Z"/><path d="M154.11,98.77v1.15l-.29,0-.16-1.15Z"/><path d="M76.82,62.93l.81-.84.3.24-.76.93Z"/><path d="M46.08,133.79l.31-1.34a4.34,4.34,0,0,1,.42.54S46.62,133.2,46.08,133.79Z"/><path d="M58.93,144.66l.49,1-.38.14c-.16-.33-.3-.66-.44-1Z"/><path d="M179.22,207.3a1.6,1.6,0,0,1-.44.38c-.05,0-.3-.2-.28-.26a1.72,1.72,0,0,1,.3-.44Z"/><path d="M264.11,151c.17.21.36.35.33.41a1.8,1.8,0,0,1-.33.45c-.1-.09-.3-.2-.29-.28A2.58,2.58,0,0,1,264.11,151Z"/><path d="M228.66,205c-.18.08-.33.2-.43.17s-.22-.19-.33-.29a1.35,1.35,0,0,1,.45-.25C228.42,204.64,228.53,204.85,228.66,205Z"/><path d="M193.39,257.29l-.12-.7.27,0,.13.7Z"/><path d="M165,111.71l.08.64h-.38l0-.62Z"/><path d="M47.46,93.2l.88-.44.14.23-.83.53Z"/><path d="M33,154.22c-.13-.17-.3-.32-.27-.38s.23-.23.35-.34c.07.12.2.25.2.37S33.09,154.07,33,154.22Z"/><path d="M199.24,167.93l-.31-.93.26-.11.4.91Z"/><path d="M215.18,226.06l.09-.83h.21l0,.84Z"/><path d="M248.71,139.48l-.62-.55.38-.27.23.82Z"/><path d="M209.78,66.89a1.9,1.9,0,0,1-.13-.38.42.42,0,0,1,.22-.11,2.3,2.3,0,0,1,.21.33Z"/><path d="M108.68,115.8l-.23.23a1.26,1.26,0,0,1-.21-.32s.12-.12.18-.19Z"/><path d="M198.28,159.87c-.09-.22-.18-.44-.25-.67a1.7,1.7,0,0,1,.24-.14l.36.64Z"/><path d="M120.54,173l.36-.64.24.11-.29.73Z"/><path d="M108.66,117.51c-.08.07-.16.17-.23.17s-.18-.18-.16-.2a2.31,2.31,0,0,1,.29-.24Z"/><path d="M168,174.92l-.44-.57.18-.15.45.57Z"/><path d="M87,179.42l-.33,1-.37-.22.7-.76Z"/><path d="M113.78,211.5l.21.2-.27.22c0-.08-.14-.16-.13-.24S113.71,211.56,113.78,211.5Z"/><path d="M166.88,142.7a1.8,1.8,0,0,1-.21-.18,1.78,1.78,0,0,1,.23-.31c0,.09.14.18.14.26S166.94,142.62,166.88,142.7Z"/><path d="M214.48,54l.25.55-.21.12-.37-.5Z"/><path d="M73.23,56.23l.38-.49.2.13-.27.54Z"/><path d="M203.36,196.45l-.22.15c0-.09-.12-.18-.12-.27s.13-.1.2-.15Z"/><path d="M41.54,172.6l.56.68-.26.15-.3-.83Z"/><path d="M19.8,144.09c.09,0,.2-.11.24-.08s.1.16.14.24-.19.12-.23.1S19.85,144.19,19.8,144.09Z"/><path d="M120.3,219.75l-.26.16c0-.09-.1-.2-.08-.28s.16-.11.24-.16Z"/><path d="M263.32,167.74l-.23.85-.27-.13c.16-.25.33-.49.49-.73Z"/><path d="M194.81,153.45h0c-.45-.21-.23-.11,0,0Z"/><path d="M213.14,68.75v.14a1,1,0,0,1-.23,0s0-.08,0-.13Z"/><path d="M81.43,47.89l.12.06a2.12,2.12,0,0,1-.11.21l-.11-.06Z"/><path d="M132.13,112.21l-.48-.19.07-.12.42.3Z"/><path d="M261.37,182.34h.56l-.56.66h0v-.65Z"/><path d="M208.49,93.09l0-.12.18.11a.42.42,0,0,1-.12.08A.23.23,0,0,1,208.49,93.09Z"/><path d="M49.51,128l.09.11-.17.13a.36.36,0,0,1,0-.14S49.47,128,49.51,128Z"/><polygon points="209.13 46.56 209.13 46.67 209.03 46.62 209.13 46.56"/><path d="M180.45,192.39l0,.14-.15-.16.11-.09Z"/><path d="M44.52,98.29s.06.08,0,.12,0,.07-.08.11l-.1-.19Z"/><polygon points="126.68 118.04 126.61 118.12 126.58 118.02 126.68 118.04"/><path d="M41.54,172.6Z"/><polygon points="48.43 203.11 48.36 203.19 48.32 203.09 48.43 203.11"/><path d="M161.18,286.8v-.14l.22.08s-.05.1-.09.11S161.23,286.82,161.18,286.8Z"/><polygon points="163.32 114.22 163.24 114.15 163.34 114.11 163.32 114.22"/><polygon points="106.52 109.55 106.53 109.66 106.43 109.61 106.52 109.55"/><polygon points="208.27 203.02 208.23 202.92 208.33 202.93 208.27 203.02"/><polygon points="177.59 246.57 177.53 246.64 177.5 246.55 177.59 246.57"/><polygon points="204.79 206.04 204.79 205.95 204.87 205.99 204.79 206.04"/><polygon points="17.02 142.3 16.98 142.2 17.07 142.21 17.02 142.3"/><path d="M20.11,142.73l-.32-.65h0l.32.65Z"/><path d="M92.2,189.49l0-.14,0,.14Z"/><path d="M28.88,160.91l-.09-.11.09.11Z"/><path d="M234.74,206.37l-.13,0,.13,0Z"/><path d="M96.09,209l.09.11-.09-.11Z"/><path d="M229.54,212.54l-.08-.11.09.11Z"/><path d="M70.77,67.4l.32-.65h0l-.32.65Z"/><path d="M71.09,66.75l0-.13,0,.13Z"/><path d="M171.75,167.41l.09.1-.09-.1Z"/><polygon points="65.57 222.28 65.66 222.39 65.61 222.42 65.57 222.28"/><path d="M221.75,152.15h0Z"/><path d="M28.88,160.91,29,161l-.09-.11Z"/><path d="M115.9,242.74l0,.13,0-.13Z"/><path d="M175,40.12l.11-.08-.11.08Z"/><path d="M244.16,122.92Z"/><path d="M12.32,130.07Z"/><path d="M242.21,206.37Z"/><path d="M242.21,206.37Z"/><path d="M59.73,207Z"/><path d="M224,150.52v-.32h0v.32Z"/><path d="M63.3,221Z"/><path d="M222.08,152.15h0Z"/><path d="M230.52,156Z"/><path d="M230.52,156Z"/><path d="M67.52,157Z"/><path d="M223.38,148.9Z"/><path d="M283.45,160.91h0Z"/><path d="M20.11,142.73l.33.33h0l-.33-.32Z"/><path d="M19.79,142.08Z"/><path d="M101.94,29.74v0Z"/><path d="M101.61,29.73h0Z"/><path d="M174,39.47h0Z"/><path d="M69.14,148.25Z"/><path d="M87,46.94Z"/><path d="M176,238.84Z"/><path d="M248.72,174.88h0Z"/><path d="M87,179.42Z"/><path d="M220.78,62.2Z"/><path d="M225.33,65.12h0Z"/><path d="M49.34,180.39v.33h0v-.32Z"/><path d="M225.32,65.13h0Z"/><path d="M49.34,180.72Z"/><path d="M261.37,183h0Z"/><path d="M210.71,184.62Z"/><path d="M254.55,188.84Z"/><path d="M202,81.68h0Z"/><path d="M59.08,88.51h0Z"/><path d="M91.22,91.75Z"/><path d="M202.92,92.07l.33.33h-.33v-.32Z"/><path d="M202.92,92.72l-.34-.3,0,0,.29,0h0v.33Z"/><path d="M39.59,100.52h0Z"/><path d="M40.57,102.46l-.33.33Z"/><path d="M41.22,117.4Z"/><path d="M41.22,117.4Z"/><path d="M233.44,14.47l-4.72-4.22.45-.65,5.9,3.9h0l-3.32-4.8.71-.43c5.79,5.26,7.54,12.81,10.79,19.51l-.64.35q-1.67-3.25-3.32-6.51L239,21h0l.33.65-.65.32h0l1.72,3.45-.47.32L237,22.27l-.08-.11.09.1c.4.93.79,1.87,1.22,2.78.26.55.6,1.07.91,1.6l-.6.51c-1.47-1.6-2.93-3.21-4.42-4.8-2-2.17-4.17-4.25-6.1-6.51a17.18,17.18,0,0,1-1.8-3.4l.65-.35,4.29,4,.33.33.32.32.32.66.33.32h0l-.32-.33-.33-.64-.33-.33-.32-.32.65-.65.32.32h0l-.33-.33-1.92-2.53,3.54,1.56.33.33c1.08,1.51,2.16,3,3.25,4.54h0l-3.24-4.54ZM235.39,20l-.08-.11.08.11h0C235.61,20.11,235.5,20.05,235.39,20Z"/><path d="M240.59,69.67a4.54,4.54,0,0,1,0,1c-.15.78-.37,1.55-.56,2.32-.72-.6-1.9-1.08-2.09-1.82-.7-2.62-1.06-5.32-1.54-8l.72-.21,1,1.78.57,0c-.55-6.17-1.09-12.34-1.68-19.07,2.71,5.3,2.18,10.84,3.84,15.92l-.65-12.21,1,0v9.21l.32.05q1-5.87,1.93-11.73l.88,0a46.75,46.75,0,0,1-.07,7.3c-.75,4.79-1.86,9.51-2.88,14.25-.1.48-.55.87-.84,1.3,0-.2-.06-.41,0,0C240.41,69.29,240.5,69.48,240.59,69.67Z"/><path d="M243.51,61.82c.64-2.94,1.49-5.86,1.86-8.83a19.75,19.75,0,0,0-.22-7c-.67-2.66-2.19-5.1-3.14-7.7A45,45,0,0,1,240.78,33C246.25,38.44,247.7,53.79,243.51,61.82Z"/><path d="M231.68,43.77c4,5.48,6.25,11,6.08,17.42l-.74.22-1.76-6.86-.53.7c-.17-.18-.45-.34-.5-.55-.83-3.32-1.63-6.64-2.44-10A9.3,9.3,0,0,1,231.68,43.77Z"/><path d="M233.11,26.15c-2.22-2.8-4.37-5.65-6.68-8.37-.5-.59-1.56-.69-1.92-1.45,4.15-.21,11.4,8.58,11.16,12.72l-2.54-2.88Z"/><path d="M203.65,16.52l10.06-4.71C212.72,14.24,206.45,17.48,203.65,16.52Z"/><path d="M233.47,7.35c3.2,1.35,6.37,6.59,5.79,8.85Z"/><path d="M239.65,35.79c1.1,3,2,5.59,3.09,8.44C240.25,43.2,238.41,38.42,239.65,35.79Z"/><path d="M235.4,38.17,234.88,36l.67-.21,2.36,6.41-.62.34c-.87-1.11-1.76-2.21-2.56-3.37-.08-.12.42-.63.66-1Zm.82,1.41-.06.08.09,0Z"/><path d="M229.38,30.36l3.35,8.4-.9.36-3.41-8.4Z"/><path d="M223.53,22.22c1.18.91,2.41,1.77,3.53,2.76.92.82,1.7,1.8,2.54,2.71l-.59.55-5.92-5.41Z"/><path d="M227.6,21.29c-1.86-1.66-3.73-3.31-5.56-5-.15-.13-.09-.49-.21-1.42l4.76,4.44.06.05.95,1.93Z"/><path d="M230.93,45.33l2.87,8.17-1,.32-2.7-8.22Z"/><path d="M229.92,22.81l3.81,6.06-.71.45-4.11-5.86Z"/><path d="M237.5,6.59l2.55,3.91-.57.38-2.89-3.69Z"/><path d="M224.68,42.07l1.92,3.43-.71.36-2.19-3.79h1Z"/><path d="M246,35.35c.39,1.24.79,2.48,1.18,3.72l-.59.19-1.31-3.69Z"/><path d="M220.17,9.09l-2.67.8-.25-.69,2.63-1Z"/><path d="M206.17,35.58l-.77-1.17.34-.41,2.42,1.6-.35.62-1.64-.64Z"/><path d="M220.13,45.32l2.73,3.1-.63.52c-.59-.78-1.18-1.55-1.78-2.32h0l-.33-1.3Z"/><path d="M223.7,42.07l-2.53-1.54.72-.79,1.81,2.33Z"/><path d="M224.71,34.41l-1-1.85.62-.35,1,1.87Z"/><path d="M218.53,6.76l2.06-1,.24.47-2,1Z"/><path d="M226.5,34.4l.95,1.93-.39.21-1-1.94Z"/><path d="M215.21,24.45l-.61-1,.41-.29.71.9Z"/><path d="M241.15,20.88a4.26,4.26,0,0,1-.34-.49,8.05,8.05,0,0,1-.2-1.11l.74,1.49Z"/><path d="M198.26,20.13l-.23-.07,0-.11.23,0Z"/><polygon points="210.42 12.31 210.41 12.21 210.5 12.25 210.42 12.31"/><path d="M226.59,19.31l.07-.13s.06,0,.06.05-.05.09-.07.13Z"/><path d="M248.38,47.59l-.09-.11.09.11Z"/><path d="M227.6,21.29Z"/><path d="M233.13,26.17l0,0Z"/><path d="M206.17,35.58l-.33.32h0l.33-.32Z"/><path d="M220.13,45.32Z"/><path d="M52.26,58.31c.29-2.35.59-4.69.86-7,.14-1.2.11-2.42.36-3.59.11-.54.69-1,1.46-2-.34,3.9-.62,7.11-.9,10.41l1.16-1.46a40.31,40.31,0,0,1,1,6.38c0,3.54-.35,7.08-.55,10.63a2.83,2.83,0,0,0,.13.63h0L53.16,74.1V69.16l-.55-.07-2,5.06.83-12.32c-.74-.06-1.43,0-1.47-.13a10,10,0,0,1-.31-2.31c0-.85.19-1.71.14-2.55-.18-3.06-.48-6.11-.62-9.16a2.51,2.51,0,0,1,.43-1.3l2.7,11.93.5,2.35.65-.25Z"/><path d="M58.43,17.39l5.62-4.15.66.76-4.89,5.93.53.51c1.91-2,3.8-4.05,5.75-6a17.43,17.43,0,0,1,2.57-2.21c.33-.22,1,0,1.45,0h0L54.93,26.25l-.74-.65L57.13,21h0a12.77,12.77,0,0,0-2.27,1.42,22.11,22.11,0,0,1-2.94,2.85c1.51-1.7-.25-4.56,2.42-5.92.74-.38.8-2.12,1.17-3.23h0l.66-1,.32-.32h0l1.62-2.27h0l.65-1h0l.33-.33h0L63.26,8.5l.36.42-1,2.49L65,10.35l.3.33c-.89.85-1.78,1.68-2.65,2.54-1.41,1.38-2.79,2.78-4.19,4.17l-.65,1h0Zm.65-3.24.32-.33.33-.32.32-.33.33-.32L61,12.2l.32-.32h0l-.32.32-.64.66-.33.32-.32.33-.33.32-.33.32Z"/><path d="M59.4,8.3l1.24.43a9.26,9.26,0,0,1-.49.94c-.34.53-.71,1-1.07,1.56h0l-.33.33h0l-.65,1h0l-1.62,2.27h0l-.32.32-.66,1h0l-2.39,2.73-.38-.23c.58-1.28,1.1-2.59,1.75-3.83s1.42-2.35,2.29-3.79l-3.09,2.6-.38-.36c.56-.65,1.17-1.27,1.67-2,.83-1.17,1.39-2.62,2.44-3.51.9-.77,2.31-.92,3.5-1.35l.34.57L59.4,8.3Z"/><path d="M50.39,37.66a6.19,6.19,0,0,1,.2,2c-.58,1.73-1.41,3.39-1.91,5.14a13.9,13.9,0,0,0-.63,4.51c.14,2.49.63,5,1.05,8C45.83,53.49,46.65,42.54,50.39,37.66Z"/><path d="M87.65,16.42A39.72,39.72,0,0,1,75.27,9.9l.28-.57c1,.53,2.06,1.08,3.1,1.59,2.38,1.16,4.81,2.22,7.14,3.48a8.62,8.62,0,0,1,1.86,2Z"/><path d="M58.75,23.89,62,20.63l.85.72-5.73,7.81-.83-.49,2.44-4.78Z"/><path d="M57.13,40.12,54.53,43h0c1.16-3,1.52-6.42,4.16-8.85.84-.77,1-2.31,1.43-3.49l.72.28L57.13,39.8h0v.33Z"/><path d="M72.69,23.24l-6.54,3.29-.52-1L72,22.09Z"/><path d="M59.62,47.13,56.78,55.3l-1-.34,3-8.18Z"/><path d="M50.41,43.16l2.83-5.63,1,.49-2.88,5.69Z"/><path d="M60.43,26.57l4.81-6,.57.45-4.6,6.13Z"/><path d="M62.56,34l2.64-3.45,1,.75-2.64,3.44Z"/><path d="M57.13,6.36l-4.22,5.85v0a8.71,8.71,0,0,1,4.23-5.84Z"/><path d="M68.37,17.72l2-3.56.75.37-1.8,3.69Z"/><path d="M85,16.37,88,18l-.36.7-3-1.58Z"/><path d="M62.89,36.14l-1.47,3.39-.65-.28,1.5-3.38Z"/><path d="M46.67,41.1l1-3.6.66.19-1.06,3.53Z"/><path d="M65.43,19.69l2.18-1.53.45.62-2.13,1.56Z"/><path d="M50.06,27.26l.6-2.65.65.14-.56,2.7Z"/><path d="M64,28.45l1.63-1.54.78.76-1.53,1.61Z"/><path d="M54.89,51,55,48.94l.53,0V51Z"/><path d="M87.19,19.71l1.76.63-.2.58L87,20.27Z"/><path d="M50.81,75.65l-.53,1.24-.47-.17.46-1.28Z"/><path d="M64.08,25.45l1.16-.85.28.34-1.13,1Z"/><path d="M62.87,42.66l.36-1.24.46.1-.22,1.28Z"/><path d="M87.65,16.42l1.32.45-.26.46-1.06-.91Z"/><path d="M90.9,25.51l-.65.33-.31-.58Z"/><path d="M51.76,33.17l-.1.12a1.07,1.07,0,0,1-.18-.19s.05-.08.09-.12Z"/><path d="M57.45,6l.11-.09L57.45,6Z"/><path d="M54.53,43l0,.14,0-.13Z"/><path d="M57.45,6l-.32.33h0L57.45,6Z"/><path d="M52.91,12.21v0Z"/><path d="M70.12,12.2Z"/><path d="M58.75,23.89Z"/><path d="M57.13,39.8v.32h0V39.8Z"/><path d="M66.87,49.86h0Z"/><path d="M155.67,351.17a6.15,6.15,0,0,0,0,2.19c.71,1.72.22,2.39-1.58,2.51-.27,0-.44,1.07-.7,1.62s-.46.79-.69,1.18c-.26-.27-.75-.56-.74-.82.1-3.21.24-6.43.47-9.63,0-.41.64-.77,1.19-1.39.23,1.12.4,1.93.59,2.89,2.67-1.61,3.49.34,4.28,2.16.14.31-.22.84-.35,1.27a3.81,3.81,0,0,1-1.23-.66,7.21,7.21,0,0,1-.78-1.6Z"/><path d="M163.16,356c-.08-1.06-.12-2.13-.26-3.18a1.84,1.84,0,0,0-.56-1.05,8.53,8.53,0,0,0-1.44-.75l.06-.67c1-.05,2.3-.51,3-.05C165.36,351.26,165.16,354.57,163.16,356Z"/><path d="M145.64,348.09c0,2.56,0,4.87,0,7.19,0,.25-.42.54-.71.71-.08,0-.55-.29-.55-.44,0-2,.08-4.09.26-6.12C144.64,349,145.24,348.58,145.64,348.09Z"/><path d="M142.14,352.05c0,2.4,0,4.47,0,6.53a3.51,3.51,0,0,1-.38,1.13c-.32-.14-.81-.2-1-.45-.8-1.39-1.73-2.76-.25-4.38A14.11,14.11,0,0,0,142.14,352.05Z"/><path d="M131.3,362.94c1.38-1.7,2.58-1.23,3.85-.15.73.62,1.6,1.08,2.37,1.66.22.16.3.51.44.78-.27.12-.6.42-.78.34C135.23,364.74,133.31,363.86,131.3,362.94Z"/><path d="M151.45,348.26l-5.22,3.18.51,1c.13-1-.07-2.27.48-2.81a17.15,17.15,0,0,1,3.68-2.17Z"/><path d="M129.8,353.64l1.89-4.81C134.21,352,133.82,353,129.8,353.64Z"/><path d="M168.47,361.86c.32-3.93,2.8-4.45,5.92-4.9Z"/><path d="M136.36,351.48,135,355.23l-1.67-.7,1.68-3.61Z"/><path d="M165.56,353.44c-.16-1.15-.37-2.29-.43-3.44,0-.27.48-.57.73-.86.22.27.63.54.63.81,0,1.15-.07,2.3-.12,3.45Z"/><path d="M123.61,353c-.1-1.07-.23-2.14-.27-3.22,0-.17.48-.54.65-.49s.79.41.79.64c0,1-.13,2-.21,3.06Z"/><path d="M137,352.81l.54-3.67,1.14.17-.57,3.74-1.11-.24Z"/><path d="M165.51,361.21c0-.95,0-1.9.05-2.85,0-.13.59-.22.9-.33v3.17Z"/><path d="M146.37,359.16v-3.88H147v3.88Z"/><path d="M125.38,353.58c.06-1.18.12-2.37.17-3.55l.83,0v3.57Z"/><path d="M145.83,361.62l-.25,4.35-.93-.05c.15-1.44.31-2.88.47-4.33Z"/><path d="M140.94,350c-.51.2-.81.43-1,.36a1.76,1.76,0,0,1-.69-.69c0-.07.33-.53.39-.5A8.23,8.23,0,0,1,140.94,350Z"/><path d="M171.78,355.73l.92-.19.09.46-.92.19Z"/><path d="M155,356.9h.16a1.09,1.09,0,0,1,0,.25h-.14Z"/><path d="M137,352.81l-.13.83-.25-.08.39-.75Z"/><path d="M134.64,359.72l.1-.12a1.37,1.37,0,0,1,.16.18s-.05.07-.08.1Z"/><polygon points="128.58 353.85 128.5 353.78 128.6 353.75 128.58 353.85"/><polygon points="150.97 350.57 150.91 350.65 150.87 350.56 150.97 350.57"/><polygon points="146.42 345.67 146.31 345.76 146.29 345.71 146.42 345.67"/><path d="M97.75,330c-1.69-2.64-2.33-6.46-1.12-8.2.66,2.85,1.25,5.47,1.85,8.08Z"/><path d="M102,305.92l-1.71,9C99.11,312.94,99.82,308.35,102,305.92Z"/><path d="M102.22,301.6c-.66,1.42-1.31,2.84-2,4.27l-1-.41q.87-2.18,1.76-4.35Z"/><path d="M96.8,288.59v3.93l-.4,0v-3.93Z"/><path d="M103.82,290.28c.16-1,.31-2.1.47-3.15l.89.13c-.14,1.06-.29,2.12-.43,3.18Z"/><path d="M95.71,305.91c-.13.89-.27,1.78-.4,2.66l-.69-.08.28-2.67Z"/><path d="M101.78,295.46l.39-2,.69.11-.27,2.13Z"/><path d="M102.25,300.22c-.36-.33-.76-.58-.72-.69a1.5,1.5,0,0,1,.61-.75c.1-.06.62.3.61.46S102.49,299.8,102.25,300.22Z"/><path d="M189.65,301.77l1.36.65.46-2.81.65,0v12.78l-.67.14C190.87,309.11,190.3,305.67,189.65,301.77Z"/><path d="M195.9,321.11c1.19,3.09.2,5.75-1.18,8.49C193.45,328.2,194.21,323.21,195.9,321.11Z"/><path d="M193.19,314.05l-.36-6.9.91,0c.12,2.3.25,4.6.37,6.91Z"/><path d="M196.41,305.29v6.09h-.62v-6.1Z"/><path d="M197.18,324v-.42h.13c0,.14,0,.28,0,.41Z"/><path d="M174,329.56a17,17,0,0,1,.85-3.76c.58-1.23,1.78-2.16,2.44-3.36a26.57,26.57,0,0,0,1.43-3.86l.91.4q-2.49,5.36-5,10.7Z"/><path d="M179,328.73l1-8.86,1,.09-.75,8.89Z"/><path d="M173.47,331.18c-.7,1.8-1.38,3.6-2.12,5.39-.06.16-.54.24-.8.19s-.3-.49-.23-.67c.69-1.77,1.42-3.51,2.14-5.26Z"/><path d="M177.21,335.35l-.43,5.78-1.16-.07.36-5.75Z"/><path d="M172.4,341.3v-4.48H173v4.47Z"/><polygon points="182.36 309.14 182.27 309.19 182.28 309.09 182.36 309.14"/><path d="M111.62,320.42l.91,9.67-1,.09q-.5-4.85-1-9.69Z"/><path d="M117.65,329c.35,1.59.69,3.17,1,4.76l-1,.21-1-4.8Z"/><path d="M113.72,339l-.3-3.94,1-.08.26,3.9Z"/><path d="M118,335.46l.18,3.21-.76.07-.28-3.22Z"/><polygon points="113.52 318.23 113.44 318.28 113.44 318.18 113.52 318.23"/><ellipse cx="117.87" cy="292.72" rx="0.46" ry="3.97"/><path d="M120.77,301c-2.86-.82-1.65-2.32-1.59-3.5l.77-.18Z"/><path d="M114.21,294.46l.2,4.27-.86.06-.3-4.24Z"/><path d="M116.87,299c0,1,0,1.93,0,2.89a4.34,4.34,0,0,1-.8.08c-.14-1-.24-1.94-.34-2.91Z"/><path d="M116,284.58l1.31,2.61-.7.35-1.35-2.61Z"/><polygon points="174.78 291.28 174.86 291.23 174.86 291.33 174.78 291.28"/><path d="M34.67,140.35l.35-1.74a6.08,6.08,0,0,1,.79.19c-.05.59-.16,1.17-.26,1.75Z"/><polygon points="37.45 137.73 37.48 137.63 37.53 137.71 37.45 137.73"/><path d="M256.58,138.59l-.47-4.69.81-.09.69,4.67Z"/><path d="M258.85,134.39c.49,0,1-.08,1.46-.08a3.19,3.19,0,0,1,.06.54c-.48.09-1,.15-1.44.22Z"/><path d="M162.4,299.05l-.35,1-.42-.11.26-1Z"/><polygon points="161.43 308.11 161.36 308.05 161.45 308.01 161.43 308.11"/><path d="M129.38,303.73v-1.51a7.53,7.53,0,0,1,.81,0,14.82,14.82,0,0,1,0,1.49Z"/><path d="M130.84,307l.3-1.09.59.32-.89.77Z"/><path d="M206.7,291.13c.39-1.44.79-2.87,1.19-4.31l.73.19-1,4.35Z"/><path d="M204.87,286.9Z"/><path d="M123.85,326.07c.18,2,.37,4,.55,6l-1,.1-.66-6Z"/><path d="M142.88,305.06l-1.22-.32.06-.45,1.29.12Z"/><path d="M163.64,339.32l-.61,2.06-.69-.19.54-2.09Z"/><path d="M150,297.23l-.36,5.14-1-.06.29-5.18Z"/><path d="M153,301.66l.12-2.54.69,0-.16,2.54Z"/><path d="M153.08,297.07l.1.52-.34,0v-.52Z"/><polygon points="235.27 226.7 235.18 226.68 235.24 226.6 235.27 226.7"/><path d="M66.87,134.61l0,.14,0-.14Z"/><path d="M154.75,341.1l.87-2.6c.23.33.72.73.66,1a8.88,8.88,0,0,1-.91,1.79Z"/><path d="M156.4,336.26c.11.15.25.26.24.33a1.56,1.56,0,0,1-.25.34c-.1-.08-.28-.17-.27-.23S156.26,336.46,156.4,336.26Z"/><path d="M134.49,340.69l-.36-3.26.84-.09.38,3.27Z"/><path d="M133.62,335.31l.2.8-.33.11-.29-.81Z"/><path d="M72.32,254.07l0,.14-.15-.14.09-.1Z"/><path d="M218.18,254.43c.11.08.22.15,0,0,.15.21.07.1,0,0Z"/><path d="M228.58,126.82h0Z"/><path d="M225.65,136.56l-.33-.33Z"/><path d="M46.74,153.45h0Z"/><path d="M250,145l0-.14.06,0L250,145Z"/><path d="M210.07,258v.33l-.33-.33Z"/><path d="M227.27,129.09h.33v.65h-.33Z"/><path d="M227,129.74h0Z"/><path d="M56.16,82.66h-.33v-.33Z"/><path d="M228.25,128.12v.32l-.33-.32Z"/><path d="M227.6,129.09v-.32l.32.32Z"/></svg>