<svg id="Layer_1" data-name="Layer 1" xmlns="http://www.w3.org/2000/svg" viewBox="0 0 143 143"><defs><style>.cls-1{fill:#301111;}.cls-2{fill:#f89a1c;}</style></defs><title>All, PNG &amp;amp; SVG- pixelbones</title><path class="cls-1" d="M0,51.75C0,33.64,0,24.58,3.53,17.66A32.27,32.27,0,0,1,17.66,3.53C24.58,0,33.64,0,51.75,0h39.5c18.11,0,27.17,0,34.09,3.53a32.27,32.27,0,0,1,14.13,14.13c3.53,6.92,3.53,16,3.53,34.09v39.5c0,18.11,0,27.17-3.53,34.09a32.27,32.27,0,0,1-14.13,14.13c-6.92,3.53-16,3.53-34.09,3.53H51.75c-18.11,0-27.17,0-34.09-3.53A32.27,32.27,0,0,1,3.53,125.34C0,118.42,0,109.36,0,91.25Z"/><path class="cls-2" d="M69.3,89.87H47.14l-4.51,14.36a1.15,1.15,0,0,1-1.15.89H30.25c-.64,0-.86-.36-.67-1.09L48.77,47.36q.28-.88.57-2a22.29,22.29,0,0,0,.39-4,.61.61,0,0,1,.67-.69H65.65c.45,0,.7.17.77.49l21.78,63c.19.66,0,1-.58,1H75.15a.89.89,0,0,1-1-.69ZM50.59,77.47H65.75C63.26,69,60.45,60.56,58.17,52,55.71,60.58,53,69.13,50.59,77.47Z"/><path class="cls-2" d="M101.14,51.1a6.86,6.86,0,0,1-2.86-.5,7,7,0,0,1-2.41-1.66,7.82,7.82,0,0,1-1.55-2.6,7.91,7.91,0,0,1-.47-3,7.5,7.5,0,0,1,.51-3,7.32,7.32,0,0,1,7-4.61,7,7,0,0,1,5.42,2.12,7.71,7.71,0,0,1,2,5.46,7.74,7.74,0,0,1-2.06,5.61,7.29,7.29,0,0,1-5.52,2.16Zm-6.61,53v-47c0-.59.25-.88.76-.88h11.8c.51,0,.77.29.77.88v47c0,.66-.26,1-.77,1H95.39C94.81,105.12,94.53,104.79,94.53,104.13Z"/></svg>