<svg id="Layer_1" data-name="Layer 1" xmlns="http://www.w3.org/2000/svg" viewBox="0 0 107.01 107"><defs><style>.cls-1{fill:#fff;}</style></defs><title>All, PNG &amp;amp; SVG- pixelbones</title><path d="M7.26,0H99.79a2.38,2.38,0,0,0,.45.15A7.65,7.65,0,0,1,107,7.77q0,45.75,0,91.51a7.47,7.47,0,0,1-.19,1.76,7.81,7.81,0,0,1-7.69,6H8.56a13.9,13.9,0,0,1-1.71-.11A7.68,7.68,0,0,1,.27,101c-.08-.34-.18-.67-.27-1V7a1.66,1.66,0,0,0,.14-.31,7.65,7.65,0,0,1,6-6.45ZM57,46.94v-.59c0-1.88,0-3.77,0-5.65,0-.51-.13-.68-.66-.67q-7,0-14,0c-.58,0-.73.18-.73.74q0,24.89,0,49.77c0,.62.2.76.79.75,4.8,0,9.59,0,14.39,0,.92,0,.92,0,.92-1V66.61a28,28,0,0,1,.63-7c.7-2.7,2-4.9,4.75-6A11.26,11.26,0,0,1,67.93,53a6.59,6.59,0,0,1,6.14,4.12,15.34,15.34,0,0,1,1.16,6.19c0,9,0,18.08,0,27.12,0,.88,0,.88.86.88H90.44c.92,0,.92,0,.92-1,0-7.84,0-15.69,0-23.54,0-3.36-.15-6.73-.33-10.09a26.15,26.15,0,0,0-1.53-7.46,14.18,14.18,0,0,0-8.74-9.11,23.3,23.3,0,0,0-12.38-1,16.07,16.07,0,0,0-9.25,5.1C58.37,45.06,57.74,46,57,46.94ZM15.77,65.62q0,12.47,0,24.91c0,.59.14.77.75.76q7.32,0,14.63,0c.61,0,.76-.18.76-.77q0-24.84,0-49.69c0-.79,0-.79-.79-.79H16.71c-.94,0-.94,0-.94.91Zm8-32.39a9.3,9.3,0,1,0,.06-18.59,9.3,9.3,0,0,0-.06,18.59Z"/><path class="cls-1" d="M57,46.94c.72-.94,1.35-1.88,2.1-2.7a16.07,16.07,0,0,1,9.25-5.1,23.3,23.3,0,0,1,12.38,1,14.18,14.18,0,0,1,8.74,9.11A26.15,26.15,0,0,1,91,56.7c.18,3.36.31,6.73.33,10.09.05,7.85,0,15.7,0,23.54,0,1,0,1-.92,1H76.11c-.85,0-.85,0-.86-.88,0-9,0-18.08,0-27.12a15.34,15.34,0,0,0-1.16-6.19A6.59,6.59,0,0,0,67.93,53a11.26,11.26,0,0,0-4.85.64c-2.71,1.09-4,3.29-4.75,6a28,28,0,0,0-.63,7V90.33c0,1,0,1-.92,1-4.8,0-9.59,0-14.39,0-.59,0-.79-.13-.79-.75q0-24.89,0-49.77c0-.56.15-.75.73-.74q7,0,14,0c.53,0,.66.16.66.67,0,1.88,0,3.77,0,5.65Z"/><path class="cls-1" d="M15.77,65.62V41c0-.91,0-.91.94-.91H31.1c.79,0,.79,0,.79.79q0,24.84,0,49.69c0,.59-.15.78-.76.77q-7.32,0-14.63,0c-.61,0-.75-.17-.75-.76Q15.79,78.08,15.77,65.62Z"/><path class="cls-1" d="M23.77,33.23A9.3,9.3,0,1,1,33.12,24,9.22,9.22,0,0,1,23.77,33.23Z"/></svg>