<svg id="Layer_1" data-name="Layer 1" xmlns="http://www.w3.org/2000/svg" viewBox="0 0 297.9 474.03"><title>All, PNG &amp;amp; SVG- pixelbones</title><path d="M253,27.51c4.62,2.26,9.25,4.49,13.84,6.82.32.17.32,1,.46,1.5-.87-.06-1.74-.07-2.6-.19a10,10,0,0,1-3.07-.67c-1.16-.58-2.07-1.61-3.18-2.31-1.61-1-3.37-1.81-4.89-2.94-.47-.35-.37-1.48-.52-2.25Z"/><path d="M208.54,7.78c3.19,1.15,6.4,2.24,9.55,3.5A51,51,0,0,1,223.64,14c.43.24.62.9.92,1.37-.6.19-1.38.74-1.78.53-4.45-2.25-8.85-4.61-13.24-7-.41-.23-.64-.78-1-1.18Z"/><path d="M241,23.71c-3.18-1.41-6.42-2.81-9.62-4.29a38.19,38.19,0,0,1-3.84-2.17,4.06,4.06,0,0,1-.86-1.08c.46-.08,1-.36,1.37-.21q6.87,3,13.68,6.09c.35.16.55.66.83,1Z"/><path d="M246.46,51.32l-9.85,21.41-.83-.38,9.78-21.44Z"/><path d="M220.14,57.29,209,82.51l0,0q4.89-11.55,9.8-23.09a15.18,15.18,0,0,1,1.38-2.13Z"/><path d="M176.28,66.56q3.78-9.7,7.58-19.4l1.11.46c-1.7,4-3.41,8-5.1,12-.42,1-.74,2.07-1.11,3.11l0,0c-.68,1.29-1.36,2.58-2.05,3.87l.05,0h-.53Z"/><path d="M247.05,54.23l6.36-13.62,0,0q-3.19,6.8-6.37,13.61Z"/><path d="M211.86,45l5.88-17.62,1,.36q-3.44,8.61-6.88,17.23Z"/><path d="M201.93,26.2q-3,6.56-6,13.11l-1.27-.68L202,26.23Z"/><path d="M159.47,76l4.38-9.48,0,0q-2.19,4.74-4.39,9.48Z"/><path d="M136.92,88.13l6.33-14.66,0,0L136.89,88.1Z"/><path d="M169.23,43.43l-7.37,14.69,0,0,7.38-14.69Z"/><path d="M290.26,71l-5.43,9,.05,0-1.56,1.11,0,0-.59-.55.05.06c0-.37,0-.74-.05-1.1l0,0,.55-.59-.05,0,5.51-7.49,0,0,0-.59,0,0,1-1,0,0,.59,1Z"/><path d="M193.06,11.44q-2.46,5.88-4.93,11.74l-.66-.25,4.84-11.79Z"/><path d="M148.48,60.26q-2.17,5.48-4.36,11l0,0,4.36-11Z"/><path d="M230.24,64.74l4.37-7.13c-.47,1.82-.67,2.62-.88,3.42l0-.06-5.43,9,0,0,0-1.08,0,.06.51-1.12,0,.07.52-1.12,0,.06,1-2.17Z"/><path d="M253,27.47c-1-.17-1.92-.29-2.86-.52-1.4-.36-2.79-.81-4.18-1.21.71-1.93,2.57-1.68,7,1.77Z"/><path d="M226.28,52.83a6.67,6.67,0,0,1-.74-.34,25.12,25.12,0,0,1,3.82-7.75q-1.56,4.07-3.13,8.12Z"/><path d="M208.69,86.83l4.89-9.51,0,0-4.89,9.51Z"/><path d="M240.86,54.48q1.83-4.74,3.67-9.47l.84.36q-2.26,4.55-4.54,9.08Z"/><path d="M225.42,40.36l-2.5,7.28-.62-.2,2.46-7.36Z"/><path d="M151.32,52.8l2.43-7.73.88.33c-1.11,2.45-2.23,4.91-3.34,7.37Z"/><path d="M174.35,42.13l3-6.69.84.46-3.87,6.2Z"/><path d="M177.37,25.51l-1.9,2.36-.6-.29q1.53-2.59,3-5.21l0,0c-.19,1.06-.37,2.13-.55,3.19Z"/><path d="M220.89,34.32l1.86-7.14.88.27c-.93,2.28-1.85,4.56-2.78,6.83Z"/><path d="M237.49,48.82l3-6.21,0,0-3,6.2Z"/><path d="M268.31,37.44l1-2.16,1.55.88L269,37.78Z"/><path d="M224.63,66.48l2.25-5.84.63.24-1.92,5.05,0,0-1,.57Z"/><path d="M247.87,62.53l4-7.29,0,0-4,7.29Z"/><path d="M183.73,12.17l3.45-7.79,0,0-3.46,7.79Z"/><path d="M220,24.46l1.5-6,.92.31L220,24.43Z"/><path d="M224.79,26.9l1.4-5.54,1,.36-2.4,5.15Z"/><path d="M208.47,52.54l2.12-2.67,0,0-1.5,4.5-.64-.11.09-1.72Z"/><path d="M171,49.58l-1.23,4.24-1.06-.49q1.16-1.86,2.33-3.71Z"/><path d="M224.76,26.87c-.79,2.45-1.57,4.9-2.36,7.35l0,0c.78-2.45,1.57-4.9,2.35-7.36Z"/><path d="M206.44,14.07l-1.92,4-.63-.29,2-4.05Z"/><path d="M187.13,18.81q-1,3.14-1.94,6.29l0,0c.65-2.12,1.29-4.25,1.94-6.37Z"/><path d="M243,72.05l3-5.71,0,0L243,72Z"/><path d="M229.26,65.3c.23-1.4.46-2.79.68-4.18l.89.14c-.2,1.16-.4,2.32-.59,3.48l0,0-1.06.57Z"/><path d="M186.24,53.79q-.84,2.24-1.66,4.48l-.76-.37,2.45-4.08Z"/><path d="M187.89,42.72l1.62-5.51.84.32-2.5,5.16Z"/><path d="M228,82.48,226,86l-.57-.3,2-3.63Z"/><path d="M191.52,71.29,189,77l0,0,2.49-5.68Z"/><path d="M233.73,61l2.48-3.51.37.2-2.8,4.73,0,0c0-.5,0-1,0-1.51Z"/><path d="M189.78,66.14l-2.42,5.79,0,0q1.22-2.89,2.41-5.78Z"/><path d="M231.33,79.82l1.35-4.22.91.39c-.76,1.27-1.53,2.53-2.29,3.79Z"/><path d="M295.1,59.89l2-4.17.75.48c-.94,1.22-1.89,2.43-2.84,3.65Z"/><path d="M239.16,81.59l.18-4,.88.12c-.37,1.29-.73,2.58-1.1,3.87Z"/><path d="M220.6,56.17,222,51.58l.8.3-2.22,4.26Z"/><path d="M223.2,71.71q-1.23,2.37-2.44,4.74l0,0c.46-1.59.93-3.18,1.39-4.77l0,0,1.08,0Z"/><path d="M225.77,55l-1.65,3.53-.76-.48c.81-1,1.63-2,2.45-3Z"/><path d="M179.05,42.5l2-4.65,0,0-2,4.66Z"/><path d="M232.68,30.25l1.26-4.32.64.23-1.93,4.06Z"/><path d="M151.29,52.77l-1.46,3.67,0,0c.49-1.22,1-2.44,1.46-3.67Z"/><path d="M179.27,18.57l1.2-3.89.66.26-1.9,3.6Z"/><path d="M187.31,39.7,186,43.77l-.72-.29,2.1-3.75Z"/><path d="M164.67,63.31c-.29,1.06-.57,2.13-.86,3.2l0,0c.29-1.07.57-2.14.86-3.21Z"/><path d="M254.18,49.82l1.2-3.07.69.41-1.93,2.63Z"/><path d="M197.45,18.46l1.05-4,.75.27-1.83,3.73Z"/><path d="M231.84,39.27c-.29.83-.59,1.66-.89,2.49l-.53-.19c.31-.86.62-1.72.92-2.58Z"/><path d="M196.08,70l1.15-3,.67.41c-.61.85-1.23,1.69-1.85,2.54Z"/><path d="M168.59,70.49l-1.08,3-.67-.34,1.79-2.61Z"/><path d="M174.45,29.7l-1.19,3-.59-.31,1.81-2.64Z"/><path d="M206,41.06l1.18-3.41.62.29L206,41Z"/><path d="M220.14,73.41l2-2.66,0,0,0,1.06,0,0c-.67,1.08-1.33,2.16-2,3.23l0-1.6Z"/><path d="M191.15,45.3l-.57,2.5-.71-.28,1.31-2.19Z"/><path d="M225.15,68l-2,3.71,0,0L225.19,68Z"/><path d="M139.83,98c.21.41.43.63.38.77a6.68,6.68,0,0,1-.55,1.06c-.16-.2-.48-.42-.44-.57A6.34,6.34,0,0,1,139.83,98Z"/><path d="M160.54,77.55c-.68,1.21-1.35,2.42-2,3.63l0,0,0-1.07,0,.06.52-1.12,0,.06,1.59-1.55Z"/><path d="M203.9,6.47l-.47-.94c.22-.08.46-.26.64-.21a2.61,2.61,0,0,1,.75.49Z"/><path d="M198.79,3.18l-1.67.06,0-.46,1.7-.2Z"/><path d="M248.11,55.27l-2,3.15,0,0,2-3.16Z"/><path d="M232.91,50.12l-.76,2.38-.65-.33c.48-.67,1-1.35,1.45-2Z"/><path d="M244.63,37.56c-.31.72-.63,1.43-.95,2.15l-.48-.21,1-2.13Z"/><path d="M182.54,22.63l1.19-3,.61.32-1.84,2.62Z"/><path d="M149.83,56.44l-1.35,3.81,0,0c.45-1.27.9-2.54,1.34-3.81Z"/><path d="M156.12,39.73l-.7,2.85-.57-.22,1.3-2.59Z"/><path d="M222.4,34.22l-.54,2.9-.51-.16,1.09-2.7Z"/><path d="M173.91,43.28l-1.52,3,0,0c.51-1,1-2,1.52-3Z"/><path d="M126.35,112c0,.85,0,1.71,0,2.57l0,0-1.1,0,0,0c.33-.86.67-1.71,1-2.57Z"/><path d="M160.57,77.58,162,73.89l0,0c-.47,1.22-1,2.45-1.43,3.68Z"/><path d="M182.3,29.44l1.45-3.63,0,0-1.46,3.63Z"/><path d="M168.63,70.52l1.42-3.19,0,0c-.48,1.06-1,2.12-1.43,3.19Z"/><path d="M251.85,55.24c.48-1.06,1-2.12,1.43-3.18l0,0-1.44,3.19Z"/><path d="M245,23.66l-.75,1-.43-.55,1.22-.42Z"/><path d="M170.18,41.25l1.47-3.11,0,0-1.47,3.11Z"/><path d="M202,42.86c-.23.79-.45,1.58-.68,2.37l-.53-.21L202,42.89Z"/><path d="M172.09,81.75l.59-2.4.58.23-1.21,2.14Z"/><path d="M233.11,56.3c.17-.68.33-1.37.49-2l.59.25-1.11,1.77Z"/><path d="M170.61,84.91c.5-1,1-2.1,1.48-3.16l0,0-1.47,3.16Z"/><path d="M161.46,59.31l-.83,1.91-1.17-.94,2-.94Z"/><path d="M211.83,45c-.31,1.05-.61,2.11-.92,3.16l0,0,.93-3.16Z"/><path d="M233.78,62.45c-.5.87-1,1.75-1.49,2.63l0,0,1.5-2.63Z"/><path d="M234.23,43.76l.72-1.85.43.24-1.19,1.58Z"/><path d="M192.28,47.87l1.49-2.63,0,0c-.5.87-1,1.75-1.49,2.63Z"/><path d="M187.16,18.76l-1.06,1c0-.21-.12-.57-.07-.6a10,10,0,0,1,1.1-.33Z"/><path d="M171,49.62l1-2.08,0,0-1,2.08Z"/><path d="M243,72c-.23.66-.46,1.32-.68,2l-.49-.27L243,72.05Z"/><path d="M176.73,66.59l1.13-.51,0,0-1.52,2.62,0,0c.14-.71.29-1.43.43-2.15Z"/><path d="M233,50.15l.51-2,.48.17-1,1.83Z"/><path d="M247.83,62.5l-1.49,2.64,0,0c.49-.88,1-1.76,1.49-2.64Z"/><path d="M181,37.85c.5-.88,1-1.75,1.51-2.62l0,0L181,37.81Z"/><path d="M193.74,1a5.65,5.65,0,0,1-.69.48s-.18-.2-.28-.31l1-.14Z"/><path d="M157.56,35.2c.1.22.22.35.21.47a1.82,1.82,0,0,1-.21.45,1.56,1.56,0,0,1-.31-.18A6.64,6.64,0,0,1,157.56,35.2Z"/><path d="M183.07,68.88c.31-.88.63-1.76.94-2.63l0,0c-.31.88-.62,1.76-.94,2.63Z"/><path d="M203.94,69.32c.33-.7.66-1.39,1-2.09l0,0-1,2.08Z"/><path d="M183.67,71l.38-1.73.5.2-.92,1.5Z"/><path d="M143.25,73.47l.91-2.22,0,0-.9,2.22Z"/><path d="M178.32,21.2c.32-.87.64-1.75,1-2.63l0,0c-.31.87-.63,1.75-.94,2.63Z"/><path d="M211.72,70.55l-.47,1.31-.21-.1.71-1.18Z"/><path d="M169.27,43.46c.3-.74.6-1.47.91-2.21l0,0c-.31.73-.61,1.47-.91,2.21Z"/><path d="M136,90.33l-.51,1.28-.2-.11.74-1.13Z"/><path d="M289.74,70l1.47-2.16,0,0c0,.36,0,.72,0,1.08l0-.05-.54.58v0l-1,.59Z"/><path d="M214.47,75.13l-.93,2.15,0,0c.31-.72.62-1.44.92-2.16Z"/><path d="M231.83,58.51l.23-.42c.11.08.32.15.32.23s-.12.27-.19.41Z"/><path d="M199.89,59l-.95,2.6,0,0L198.91,60l0,.06L199.4,59l0,.05.57,0Z"/><path d="M191.16,62.36l.4-1.64.39.16c-.27.48-.55,1-.82,1.45Z"/><path d="M225.81,55.05c.15-.74.31-1.48.46-2.22l0,0c-.15.72-.31,1.44-.46,2.16Z"/><path d="M205.59,42.2c-.34.84-.69,1.67-1,2.51l0,0c.35-.84.69-1.67,1-2.51Z"/><path d="M178.15,45.17l.9-2.67,0,0-.89,2.67Z"/><path d="M118,129.93l-.5.42c-.08-.12-.27-.29-.24-.35a3.21,3.21,0,0,1,.42-.49Z"/><path d="M189.81,66.18l.94-2.65,0,0-.94,2.64Z"/><path d="M295.06,59.85l-.7,1.54-1.06-.91,1.8-.59Z"/><path d="M200.87,4.65l-.25-.29c.06-.05.16-.13.17-.12a2.4,2.4,0,0,1,.27.28Z"/><path d="M222.65,69.66l.95-2.09,0,0c-.32.71-.65,1.41-1,2.12Z"/><path d="M208.58,7.74l-.77-.53.27-.26.46.83Z"/><path d="M231.39,67.31c-.1.45-.2.89,0,.14l.07-.11Z"/><path d="M228.82,80.38c-.08,0-.18,0-.22-.07s0-.16,0-.24l.34.11Z"/><path d="M227.7,34.69c-.11.44-.22.88,0,.14-.42.64-.17.26.08-.11Z"/><path d="M208.92,77.48l1-2.09,0,0c-.34.7-.67,1.39-1,2.09Z"/><path d="M190.5,27.61l0,.15c-.38.66-.15.27.07-.12Z"/><path d="M156.52,53.13c.11-.43.22-.86,0-.14.39-.64.16-.26-.07.11Z"/><path d="M191.09,29.65,190.83,31l-.38-.15.67-1.17Z"/><path d="M231.43,67.34c.3-.74.6-1.48.89-2.23l0,0-.9,2.23Z"/><path d="M188.15,79.21c.31-.74.61-1.47.91-2.21l0,0c-.31.73-.61,1.47-.92,2.2Z"/><path d="M237.62,83.51l-.36.19a1.84,1.84,0,0,1,0-.41c0-.05.11-.08.17-.12Z"/><path d="M233.72,69.1l-.29.07V69Z"/><path d="M193.05,87.3l-.11,1-.19,0,.33-.92Z"/><path d="M159.28,71.35l-1.11,1.43,0,0,1.1-1.44Z"/><path d="M180.61,26.36l.41-.82.16.1-.6.69Z"/><path d="M231.81,48.09l1-1.58,0,0-1,1.57Z"/><path d="M255.92,32.92l-.29.16-.06-.21Z"/><path d="M172,34.46l-.37.84-.17-.09.57-.72Z"/><path d="M234.19,43.73l-1,1.57,0,0c.34-.53.68-1.05,1-1.58Z"/><path d="M179.9,66l-.44.81-.16-.11.63-.67Z"/><path d="M191.54,26.06c-.35.51-.69,1-1,1.55l0,0c.35-.51.69-1,1-1.55Z"/><path d="M126.74,110.34l-.39,1.64,0,0c.14-.55.27-1.1.4-1.65Z"/><path d="M204.67,61.91l.54-1.47,0,0c-.19.49-.37,1-.55,1.46Z"/><path d="M210.59,49.87l.36-1.71,0,0-.36,1.71Z"/><path d="M194.58,23.87l-.15.66.18-.63Z"/><path d="M157.82,74.46l.39-1.64,0,0-.39,1.65Z"/><path d="M220,24.43l-.06.68c0-.22.06-.43.1-.65Z"/><polygon points="206.92 55.88 206.8 55.97 206.8 55.8 206.92 55.88"/><path d="M168.11,56l-.21.58c0-.06-.05-.14,0-.18a3.17,3.17,0,0,1,.28-.36Z"/><path d="M209.91,75.39l.07-.7c0,.06.09.13.07.18a4.84,4.84,0,0,1-.18.49Z"/><path d="M232.28,31.88c.14-.54.27-1.08.41-1.63l0,0-.39,1.64Z"/><path d="M150.21,64.88l-.55,1.46,0,0,.55-1.45Z"/><path d="M187.85,42.69l0,.69c0-.22,0-.44.07-.66Z"/><path d="M198,64.72c0-.53,0-1.07,0-1.61l0,0L198,64.69Z"/><polygon points="189.51 0.12 189.33 0 189.48 0.15 189.51 0.12"/><path d="M189.48.15h.22l-.19,0Z"/><path d="M176.24,4.67l.06-.16-.09.14Z"/><path d="M187.18,4.38V4.14c0,.07,0,.14,0,.21Z"/><path d="M183.69,12.14v.21c0-.06,0-.12,0-.18Z"/><path d="M203.09,14.17l0-.2-.06.17Z"/><path d="M197.42,18.43l0,0Z"/><path d="M178.29,21.17c-.14.39-.28.78-.41,1.17l0,0c.14-.39.28-.78.41-1.17Z"/><path d="M182.09,23.72l.45-1.09,0,0c-.15.37-.3.73-.44,1.1Z"/><path d="M194.61,23.9l0-.19a.75.75,0,0,0,0,.16Z"/><path d="M183.75,25.81l.09-.36a.43.43,0,0,1,0,.16,1.77,1.77,0,0,1-.12.17Z"/><path d="M184.72,26.17c.16-.35.33-.69.5-1l0,0c-.17.34-.34.69-.5,1Z"/><path d="M191.57,26.09,192,25l0,0-.42,1.12Z"/><path d="M202,26.23l.43-1.1,0,0-.45,1.09Z"/><path d="M184.69,26.14c0,.06,0,.13,0,.19a0,0,0,0,1,0,0l.07-.18Z"/><path d="M187.94,28.67l.06-.18-.1.15Z"/><path d="M187.9,28.64l0,.25.06-.22Z"/><path d="M182.52,35.23V35a1.16,1.16,0,0,1,0,.18Z"/><path d="M227.74,34.72v-.25a1.7,1.7,0,0,0,0,.22Z"/><path d="M220.85,34.28v.25a1.6,1.6,0,0,0,0-.21Z"/><path d="M156.55,38.58l.06-.2-.09.16Z"/><path d="M198.64,37.67l.06-.22-.09.19Z"/><path d="M156.52,38.54c-.13.4-.27.8-.4,1.19l0,0c.14-.4.27-.79.4-1.19Z"/><path d="M198.16,38.73l.48-1.06,0,0-.48,1.06Z"/><path d="M187.35,39.73v-.24l0,.21Z"/><path d="M219.45,38.51l.08-.17-.11.13Z"/><path d="M198.13,38.7l-.5,1,0,0c.17-.34.34-.69.5-1Z"/><path d="M219.42,38.47a1.48,1.48,0,0,1,0,.21l0,0a1.54,1.54,0,0,1,.08-.19Z"/><path d="M197.63,39.74V40a.85.85,0,0,1,0-.17Z"/><path d="M253.81,39.42l.08-.19-.11.16Z"/><path d="M173.94,43.31c.14-.39.28-.78.41-1.17l0,0c-.14.39-.27.79-.41,1.18Z"/><path d="M206,41l-.42,1.17,0,0,.42-1.17Z"/><path d="M253.41,40.61c.13-.4.27-.79.4-1.19l0,0c-.14.39-.27.79-.4,1.18Z"/><path d="M192.07,43.09l.07-.2-.11.17Z"/><path d="M193.67,43.09l0-.2-.07.17Z"/><path d="M202,42.89l0,0Z"/><path d="M159.87,44.7l.07-.19-.1.16Z"/><path d="M191.58,44.15c.16-.36.33-.71.49-1.06l0,0-.48,1Z"/><path d="M240.48,42.61l.44-1.1,0,0c-.15.36-.3.73-.44,1.1Z"/><path d="M159.84,44.67v.22a1.29,1.29,0,0,0,0-.19Z"/><path d="M195.22,44.53l.53-1,0,0-.53,1Z"/><path d="M191.18,45.33l.4-1.18,0,0c-.14.4-.27.79-.4,1.19Z"/><path d="M194.18,44.11c-.15.36-.3.73-.44,1.1l0,0c.15-.37.29-.74.44-1.1Z"/><path d="M195.19,44.5a1.62,1.62,0,0,1,0,.22l-.05,0,.09-.21Z"/><path d="M204.56,44.71v.22h-.06l.09-.2Z"/><path d="M172.39,46.33c-.14.39-.28.78-.41,1.17l0,0,.41-1.17Z"/><path d="M200,47.5l.07-.21-.1.17Z"/><path d="M232.81,46.51c.14-.39.28-.78.41-1.17l0,0c-.14.39-.27.78-.41,1.18Z"/><path d="M262.34,45.38l.06-.2a1.4,1.4,0,0,1-.1.16Z"/><path d="M199.51,48.53l.51-1,0,0-.51,1Z"/><path d="M261.93,46.56c.14-.4.27-.79.41-1.18l0,0c-.13.4-.27.79-.4,1.18Z"/><path d="M264.48,46.42l.51,0,0,0-.57,0Z"/><path d="M199.48,48.5l0,0Z"/><path d="M237.46,48.78V49c0-.06,0-.11,0-.17Z"/><path d="M216.77,51.08l.06-.18-.1.15Z"/><path d="M156.49,53.1v.21c0-.06,0-.12,0-.17Z"/><path d="M208.5,52.51l0,0Z"/><path d="M216.73,51.05l0,0Z"/><path d="M253.68,50.87l.5-1,0,0-.49,1.05Z"/><path d="M186.27,53.82v-.21a1.21,1.21,0,0,1-.05.18Z"/><path d="M200.79,53.76l0-.2-.07.17Z"/><path d="M253.28,52.06l.41-1.19,0,0-.4,1.18Z"/><path d="M168.15,56v-.23c0,.06,0,.13,0,.19Z"/><path d="M247,54.19l-.09.36s0-.11,0-.15a.55.55,0,0,1,.13-.17Z"/><path d="M161.5,59.34c.13-.4.26-.79.4-1.19l0,0c-.13.39-.27.79-.4,1.19Z"/><path d="M220.17,57.32c.14-.38.29-.76.43-1.15l0,0-.42,1.15Z"/><path d="M166.7,60.13l0-.23-.07.2Z"/><path d="M199.85,57.94c0,.35,0,.7,0,1.06h0l-.05-1.09Z"/><path d="M169.32,61.07l.05-.17-.08.14Z"/><path d="M205.21,60.44v-.25a1.43,1.43,0,0,1,0,.22Z"/><path d="M150.64,63.73l.09-.2-.12.17Z"/><path d="M174.08,63l0-.22-.06.19Z"/><path d="M208.86,61.8l0-.18-.08.15Z"/><path d="M198.94,61.6h-.5l0,0,.57,0Z"/><path d="M150.24,64.92c.13-.4.27-.79.4-1.19l0,0c-.14.39-.27.79-.4,1.18Z"/><path d="M178.76,62.76l0,0Z"/><path d="M188.68,63.61v-.23a1.77,1.77,0,0,1,0,.2Z"/><path d="M190.75,63.53c.14-.39.28-.78.41-1.17l0,0c-.14.39-.28.78-.41,1.17Z"/><path d="M204.25,63.07l.42-1.16,0,0c-.13.39-.27.78-.41,1.17Z"/><path d="M177.86,66.08l0,0Z"/><path d="M179.93,66a1.48,1.48,0,0,1,0-.21s0,0,0,0a1.19,1.19,0,0,0-.08.2Z"/><path d="M149.66,66.34v.22c0-.06,0-.13,0-.19Z"/><path d="M198,64.69a1.85,1.85,0,0,1,0,.23h-.06a2,2,0,0,0,.1-.21Z"/><path d="M204.94,67.23l0,0Z"/><path d="M225.59,65.93h.54l0,0-.46,1,0,0,0-1.07Z"/><path d="M246,66.34l.42-1.17,0,0c-.13.38-.27.77-.41,1.16Z"/><path d="M294.13,63.58c-.14.34-.28.68-.43,1l0,0,.44-1Z"/><path d="M163.85,69.53l.06-.19-.1.15Z"/><path d="M225.64,66.92,225.15,68l0,0,.48-1.06Z"/><path d="M163.36,70.58l.49-1,0,0-.48,1.06Z"/><path d="M183,68.84l-.49,1,0,0c.17-.34.33-.69.5-1Z"/><path d="M159.31,71.38v-.22a1.16,1.16,0,0,0,0,.18Z"/><path d="M292.65,65.71c0,.35,0,.69.07,1h0l-.56,0,0,0,.45-1Z"/><path d="M163.33,70.55l-.49,1,0,0,.48-1.06Z"/><path d="M182.54,69.89v.21c0-.06,0-.12,0-.18Z"/><path d="M191.55,71.32a1.7,1.7,0,0,1,0-.22h0a1.19,1.19,0,0,0-.08.2Z"/><path d="M162.84,71.6l-.49,1.05,0,0,.5-1Z"/><path d="M183.63,70.92c-.14.38-.29.76-.43,1.15l0,0c.14-.38.28-.76.43-1.15Z"/><path d="M196.25,71.68l-.15-1.07,0,0,.15,1Z"/><path d="M222.16,70.75l.49-1.09h0l-.48,1.06Z"/><path d="M292.22,67.81c-.16.34-.31.69-.47,1l0,0,0-1.08,0,0h.56Z"/><path d="M162.35,72.65l-.39,1.2,0,0c.14-.4.27-.8.4-1.2Z"/><path d="M162.62,77l.07-.34a.66.66,0,0,1,0,.14c0,.06-.08.11-.11.17Z"/><path d="M155.76,78.07l0,0Z"/><path d="M220.76,76.45l-.48,1.08,0,0,.49-1.06Z"/><path d="M174.64,79.61h.49l0,0h-.56Z"/><path d="M209,82.51v.22l-.05,0a1.8,1.8,0,0,0,.08-.21Z"/><path d="M170.2,86.07l.42-1.16,0,0c-.14.38-.28.77-.41,1.16Z"/><path d="M136.89,88.1c-.16.35-.32.7-.49,1.05l0,0,.48-1.05Z"/><path d="M236.24,85.91v-.2c0,.05,0,.11-.05.17Z"/><path d="M136,90.37l.41-1.19,0,0-.4,1.18Z"/><path d="M193.77,1l0,0Z"/><path d="M176.21,4.65l0,0Z"/><path d="M187.29,8.46l0,0Z"/><path d="M187.26,8.43l0,0Z"/><path d="M203.06,14.14l0,0Z"/><path d="M182.06,23.69l0,0Z"/><path d="M178.08,25.5l0,0Z"/><path d="M192,25l0,0Z"/><path d="M235.65,23.46l0,0Z"/><path d="M177.33,25.53l.75,0,0,0-.67,0Z"/><path d="M202.39,25.13l0,0Z"/><path d="M235.62,23.43l0,0Z"/><path d="M214.5,75.16l0,0Z"/><path d="M288.16,71.08l.58,0,0,0c0,.2,0,.39,0,.59l0,0-.56-.53Z"/><path d="M237.86,73.29l0,0Z"/><path d="M290.29,71l0,0Z"/><path d="M193.08,87.33l0,0Z"/><path d="M157.78,74.43l0,0Z"/><path d="M291.24,69.4h-.52v0h.57Z"/><path d="M291.75,68.84l-.51.56,0,0,0-.57,0,.05.56,0Z"/><path d="M292.74,67.28l-.52.53,0,0,0-.57,0,0,.56,0Z"/><path d="M291.21,67.86l.5-.53,0,0,0,.55,0,0-.56,0Z"/><path d="M211.75,70.58l0,0Z"/><path d="M179.57,71.63l0,0Z"/><path d="M292.72,66.74c0,.18,0,.36,0,.54h0v-.56Z"/><path d="M291.71,67.33l.52-.56,0,0v.56l0,0-.56,0Z"/><path d="M196.1,70.61c0-.21,0-.41,0-.62l0,0c0,.23,0,.46,0,.69Z"/><path d="M293.16,65.18l-.51.53,0,0,.51-.53Z"/><path d="M293.19,65.21l.54-.58,0,0-.54.58Z"/><path d="M223.6,67.57l.51-.53,0,0-.51.53Z"/><path d="M170.17,87.57l0,0Z"/><path d="M224.11,67l.52-.56,0,0-.5.54Z"/><path d="M292.58,63.64l0,0Z"/><path d="M291.08,64.23l0,0Z"/><path d="M294.17,63.61l.5-.53,0,0c-.17.18-.34.35-.5.53Z"/><path d="M292.61,63.67l.54-.53,0,0-.54.53Z"/><path d="M226.62,65.36l-.52.54,0,0,.52-.54Z"/><path d="M294.67,63.08l.5-.54,0,0-.5.54Z"/><path d="M293.15,63.14l0,0Z"/><path d="M226.65,65.39l0,0Z"/><path d="M176.25,66.53l0,0Z"/><path d="M170.05,67.33l0,0Z"/><path d="M295.17,62.54l.52-.54,0,0-.52.54Z"/><path d="M295.69,62l0,0Z"/><path d="M245.72,60.56v.51l0,0v-.56Z"/><path d="M245.23,61.09l0-.51v0l0,.56Z"/><path d="M208.83,61.77l0,0Z"/><path d="M174.05,63l0,0Z"/><path d="M245.19,60.58l.53,0,0,0-.56,0Z"/><path d="M164.71,63.34l0,0Z"/><path d="M246.16,58.42l0,0Z"/><path d="M169.29,61l0,0Z"/><path d="M166.66,60.1l0,0Z"/><path d="M206.07,57.73l0,0Z"/><path d="M170.25,59l0,0Z"/><path d="M233.08,56.27l0,0Z"/><path d="M206.1,57.76l0,0Z"/><path d="M170.28,59l0,0Z"/><path d="M248.15,55.3l0,0Z"/><path d="M174.61,79.58l0,0Z"/><path d="M240.83,54.45l0,0Z"/><path d="M200.76,53.73l0,0Z"/><path d="M189.17,50l0,0Z"/><path d="M178.12,45.14l0,0Z"/><path d="M189.21,50l0,0Z"/><path d="M156.48,80.74l0,0Z"/><path d="M154.85,80.28l0,0Z"/><path d="M261.21,42.87l0,0Z"/><path d="M194.21,44.14l0,0Z"/><path d="M195.75,43.56l0,0Z"/><path d="M193.64,43.06l0,0Z"/><path d="M240.92,41.51l0,0Z"/><path d="M168.12,42.39l0,0Z"/><path d="M168.15,42.42l0,0Z"/><path d="M154.88,80.31l0,0Z"/><path d="M171.65,38.14l0,0Z"/><path d="M231.33,81.84l0,0Z"/><path d="M232.26,31.86l0,0Z"/><path d="M172,34.49l0,0Z"/><path d="M126.78,110.37l0,0Z"/><path d="M191.12,29.68l0,0Z"/><path d="M182.26,29.41l0,0Z"/><path d="M174.48,29.73l0,0Z"/><path d="M180.58,26.33l0,0Z"/><path d="M245,23.69l0,0Z"/><path d="M145.65,168.41a27.66,27.66,0,0,0-2.74,1,10.53,10.53,0,0,0-1.67,1.18c.2-1,.18-2.67.65-2.82a12.88,12.88,0,0,1,4-.08Z"/><path d="M136.61,170.86c-.24-.81-.48-1.62-.9-3l2.11-.71a23,23,0,0,1,.53,3.36c0,.42-.7.84-1.08,1.26l-.69-.94.53-.34c-.07,0-.16,0-.19,0S136.72,170.74,136.61,170.86Z"/><path d="M140.84,183.53l-1.73-.52.13-.62,1.82.38Z"/><path d="M142.54,178.9l-.39,1.66,0-.05-1.81.15,2.2-1.73Z"/><path d="M140,174.17a5.62,5.62,0,0,1,.62,1.07c0,.15-.17.37-.26.56a4.32,4.32,0,0,1-.53-.76C139.8,174.89,139.93,174.66,140,174.17Z"/><path d="M141.16,166.06l-1.65.56-.16-.93,1.85.41Z"/><path d="M140.4,158.55a8.3,8.3,0,0,1-1.16.73c-.1,0-.33-.2-.51-.31a5.64,5.64,0,0,1,.87-.76C139.7,158.14,140,158.37,140.4,158.55Z"/><path d="M184.76,177.49l-1.6-1.47,0,0,1.61,1.53Z"/><path d="M158.4,152.45l1.31-1.53.18,1.5,0,0-1.56,0Z"/><path d="M182.85,189.65c-.4.29-.62.5-.68.47a1.26,1.26,0,0,1-.47-.53c0-.16.09-.38.14-.58Z"/><path d="M142.15,180.56l1,.71-.5.49-.45-1.25Z"/><path d="M130,189.82l-2.14-.45Z"/><path d="M135.71,166.53c-.1.13-.2.35-.28.35a1.71,1.71,0,0,1-.49-.24c.11-.09.22-.24.35-.25S135.56,166.48,135.71,166.53Z"/><path d="M182.69,163.58l-.52.55c-.16-.23-.5-.53-.44-.68s.44-.38.69-.56Z"/><path d="M140.24,172l-.38.28-.28-.5c.14-.05.3-.16.42-.13S140.16,171.87,140.24,172Z"/><path d="M134.08,172.46c-.09.12-.17.3-.27.31s-.23-.12-.35-.2c.09-.1.16-.28.26-.3S134,172.39,134.08,172.46Z"/><path d="M162,153.89l.91-1,.18,1Z"/><path d="M147.77,192.81l1.64,1Z"/><path d="M199.1,171.85l-.52.56-1.59,0v0Z"/><path d="M135.1,125.65l-.14-.05c-.6-.48-.25-.2.11.08Z"/><path d="M138.82,142.71l1.55-1,0,0-1.54,1Z"/><path d="M142.64,175.33l.33.19a2.09,2.09,0,0,1-.4.19s-.13-.05-.2-.08Z"/><path d="M168.39,157.31l1-.94.07.91Z"/><path d="M145.57,171.67l-.9.06,0-.21.9.19Z"/><path d="M140.09,168.84l-.17.09a2.79,2.79,0,0,1-.1-.39s.11-.06.17-.09C140,168.58,140.06,168.71,140.09,168.84Z"/><polygon points="144.38 187.77 144.5 187.64 144.56 187.8 144.38 187.77"/><path d="M142.58,178.93c.34-.14.69-.28.08,0,.66,0,.27,0-.12,0Z"/><polygon points="184.01 191.64 184.13 191.5 184.2 191.67 184.01 191.64"/><path d="M201.75,173.85l-.51.56-.58-1.08,1.13.09,0,0A2.48,2.48,0,0,0,201.75,173.85Z"/><path d="M167.05,163.09l.44-.56-.47.52Z"/><path d="M137.11,163.78l-.05.22a2.46,2.46,0,0,1-.38-.14s0-.13,0-.2Z"/><polygon points="176.58 180.39 176.47 180.52 176.41 180.37 176.58 180.39"/><polygon points="143.44 160.25 143.56 160.11 143.63 160.28 143.44 160.25"/><path d="M171,158.75l1.12.53Z"/><polygon points="143.53 173.13 143.54 173.3 143.4 173.24 143.53 173.13"/><path d="M146.73,145.09l.07-1,.17,0c-.09.3-.18.61-.28.92Z"/><path d="M209.87,169.36c0,.07,0,.19-.08.21s-.15,0-.23,0l.12-.35Z"/><path d="M188,167l1,0,0,0L188,167Z"/><path d="M129.8,137.29l.47-.46-.51.43Z"/><path d="M183.45,186.4l-.42-.23.39.26Z"/><polygon points="136.26 187 136.13 186.89 136.28 186.84 136.26 187"/><path d="M157.11,157.77l-.06-.62s.16.1.15.13a3.5,3.5,0,0,1-.14.46Z"/><polygon points="131.81 166.3 131.61 166.32 131.69 166.14 131.81 166.3"/><path d="M145.89,165.82l-.65-.22.61.26Z"/><path d="M141.2,166.1l.27-.57c0,.06,0,.14,0,.18a2.59,2.59,0,0,1-.31.35Z"/><path d="M137.69,127.18l-.18-.08.14.11Z"/><path d="M137.65,127.21l.22,0-.18,0Z"/><path d="M133.44,138.73l-1,.51v0l1-.49Z"/><path d="M140.37,141.67v-.26a1.85,1.85,0,0,0,0,.23Z"/><path d="M161,153.9l1.11,0Z"/><path d="M136.66,157.28l.05-1,0,0-.05,1Z"/><path d="M165.76,155.3l-.32.22c0-.06.06-.14.12-.16a.9.9,0,0,1,.24,0Z"/><path d="M136.63,157.24l0,.21a1.09,1.09,0,0,0,0-.17Z"/><path d="M167.34,157.32l1.11,0Z"/><path d="M145.13,162.17l0,.24.06-.21Z"/><path d="M142.58,162.86l-.05.16.08-.14Z"/><path d="M166.56,165.15l1.1-.05,0,.55,0,0Z"/><path d="M174,169.06l1.11,0Z"/><path d="M184,171.85l.19-.18-.22.14Z"/><path d="M180.86,172.46l1.09-.05,0,.57Z"/><path d="M204.35,175.32l1.11,0Z"/><path d="M203.31,175.33l1.11,0Z"/><path d="M208.1,176.75l.05-.21-.1.17Z"/><path d="M207.08,177.3l1-.55,0,0c0,.2,0,.39,0,.59l0-.05-1.06,0Z"/><path d="M209.67,178.76l1.1,0Z"/><path d="M124.22,186.89l-1.11,0Z"/><path d="M124.72,187.93c0-.19,0-.38,0-.58C124.71,187.55,124.71,187.74,124.72,187.93Z"/><path d="M95.2,190.44c0,.19,0,.38,0,.57C95.21,190.82,95.21,190.63,95.2,190.44Z"/><polygon points="138.84 189.52 139.04 189.61 138.86 189.5 138.84 189.52"/><path d="M205.51,190.81l-.35-.06a.34.34,0,0,1,.14,0,1.08,1.08,0,0,1,.18.11Z"/><path d="M135.07,125.68l0,0Z"/><polygon points="127.14 135.31 127.19 135.21 127.09 135.27 127.14 135.31"/><path d="M127.09,135.27l0,0Z"/><path d="M129.76,137.26l0,0Z"/><path d="M133.48,138.77l0,0Z"/><path d="M132.44,139.24v0Z"/><path d="M136.1,140.66l0,0Z"/><path d="M138.79,142.68l0,0Z"/><path d="M149.33,147l0,0Z"/><polygon points="155.69 150.42 155.63 150.53 155.73 150.46 155.69 150.42"/><path d="M158.37,152.41l0,0Z"/><path d="M186.47,153c0,.19,0,.39,0,.59C186.49,153.4,186.48,153.2,186.47,153Z"/><path d="M136.71,156.26l0,0Z"/><path d="M160.7,159.67l0,0Z"/><path d="M161.76,160.15l0,0Z"/><path d="M142.61,162.88l0,0Z"/><path d="M203.43,161.8v.58l-.58-.55Z"/><path d="M166.59,164.6c0,.2,0,.4,0,.6C166.6,165,166.59,164.8,166.59,164.6Z"/><path d="M167.62,165.65l0,0Z"/><path d="M169.22,166.07l0,0Z"/><path d="M170.28,166.56l0,0Z"/><path d="M175,167l-.57,0c0-.19,0-.38,0-.57Z"/><polygon points="187.97 166.99 187.92 167.11 188 167.03 187.97 166.99"/><path d="M176.12,169.48c0,.2,0,.39,0,.59C176.13,169.87,176.12,169.68,176.12,169.48Z"/><path d="M181.92,172.93l.59.55Z"/><path d="M197,172.39l0,0Z"/><polygon points="183.16 176.02 183.06 175.98 183.12 176.01 183.16 176.02"/><path d="M207.05,177.27l0,0Z"/><path d="M179.07,179.84l0,0Z"/><path d="M212.85,180.74l.6,0Z"/><path d="M124.75,187.41l-.6-.56Z"/><path d="M183.42,186.43l0,0Z"/><path d="M175.72,187.72l0,0Z"/><path d="M138.86,189.5l0,0Z"/><path d="M136.77,190.61l0,0Z"/><path d="M135.92,195.81l0,0Z"/><path d="M223.23,179.34l.48-1.06c.33.48,1,1.1.92,1.42a5,5,0,0,1-2.24,2.59Z"/><path d="M219.25,188.42c.15.12.35.23.34.28a4.17,4.17,0,0,1-.29.65c-.13-.1-.4-.23-.38-.29A2.44,2.44,0,0,1,219.25,188.42Z"/><path d="M204.56,210.62l0,0Z"/><path d="M206.47,207l0,0Z"/><path d="M203.06,213.84l0,0Z"/><path d="M200.15,219.66l0,0Z"/><path d="M268.74,49.92l-.06-1.6,1.05-.52,0,0C269.38,48.49,269.06,49.2,268.74,49.92Z"/><path d="M272.77,44.11l0-.23-.06.2Z"/><path d="M269.73,47.8l0,0Z"/><path d="M111.57,199.28l0,0Z"/><path d="M162.35,182.84l0-.24.34.11c-.05.06-.08.16-.15.18S162.43,182.86,162.35,182.84Z"/><path d="M283.81,63.91l0,1.09-.6-1.07Z"/><path d="M284.35,63.92l-.6,0Z"/><path d="M258.82,93.38l0,0Z"/><path d="M152.17,196.78H152l.17,0Z"/><path d="M173.53,154.51l-.58.72-.2-.3.81-.38Z"/><path d="M179.48,158.4l-.23.43a1.56,1.56,0,0,1-.23-.28s.06-.19.1-.19A1.17,1.17,0,0,1,179.48,158.4Z"/><path d="M258,83.54l-1.54,1.64,1-2.45Z"/><path d="M201.79,173.42l0,0Z"/><path d="M219.2,76.56l1-1.65Z"/><path d="M263.91,105.67l0,.56-.56,0,0-.56Z"/><path d="M264.41,105.12l0,.57h-.57C264,105.51,264.23,105.32,264.41,105.12Z"/><path d="M289,48.7l-1.12-1.05Z"/><path d="M289.43,46.55l0,0Z"/><path d="M208.88,77.45l0,.1.07-.07Z"/><path d="M188.65,63.58l-.12.31.15-.28Z"/><path d="M187.36,71.93l-.05.18.09-.15Z"/><path d="M204.22,63c-.08.26-.17.52-.26.78l.29-.75Z"/><path d="M196.22,71.65c0,.09-.05.18-.07.27l.1-.24Z"/><path d="M188.11,79.17l-.05.21.09-.17Z"/><path d="M203.91,69.28l-.15.43.18-.39Z"/><path d="M208.65,86.79l0,.1.06-.06Z"/><path d="M183.2,72.07l-.09.24a2.39,2.39,0,0,1,.13-.21Z"/><path d="M158.52,81.18l0,.09.07-.07Z"/><path d="M170.17,86v.06l0,0Z"/><path d="M162.58,76.94l-.21.51c.09-.16.17-.32.25-.48Z"/><path d="M176.32,68.66c-.12.27-.24.54-.35.82.13-.26.25-.52.38-.79Z"/><path d="M192.25,47.84a2.39,2.39,0,0,0-.13.28l.16-.25Z"/><path d="M184,66.25v-.11l0,.07Z"/><path d="M231.77,48.05l-.54,1.12c.2-.36.39-.72.58-1.08Z"/><path d="M155.79,78.1h0l0,0Z"/><path d="M158.52,80.13l0,.06h0Z"/><path d="M159.42,76v0l.05,0Z"/><path d="M136.14,140.7l0-.13-.07.09Z"/><path d="M145.85,165.86l.05,0v0Z"/><path d="M179,179.81v.06l0,0Z"/><path d="M145.17,162.2h.06l-.1,0Z"/><path d="M272.73,44.08l0,.19.08-.16Z"/><path d="M17.94,473.65a31.93,31.93,0,0,0,16.7-10.73c7.89-9.73,15.64-19.6,22.9-29.79a306.41,306.41,0,0,0,17-26.64C80,396.8,85,386.78,89.63,376.65c9.35-20.43,18.16-41.12,27.51-61.55,4.73-10.35,9.36-20.88,15.43-30.45,12-18.92,29.89-29.52,51.88-33.35,2.12-.36,4.46-.44,6.26-1.44a29.11,29.11,0,0,0,11.58-12.5c6.41-12.44,13-24.8,19.44-37.23,5.13-9.89,10.05-19.88,15.25-29.73,6.61-12.53,13.27-25,20.17-37.39,4.58-8.22,9.65-16.17,14.47-24.26,4.26-7.15,8.55-14.29,12.7-21.51,3.29-5.71,6.38-11.55,9.55-17.33l-.81-.47L284.83,80l.05,0-7.47,11,5.91-9.88,0,0-.54-.51c0-.35,0-.71-.05-1.07.18-.18.35-.36.52-.55l-.05,0,4.95-8,0,0L291,64.34l-5.16,6.35c3-4.65,6-9.28,9-13.95,2.47-3.89,1.92-6.9-2-9.27-5.58-3.33-11.34-6.36-17-9.54-2.14-1.2-3.64-1-4.91,1.39-.76,1.44-2.18,2.52-3.32,3.76l.63-3.2-.58-.17Q266.29,43,265,46.36l-.56,0,0,0c-.62,1.68-1.15,3.4-1.89,5-1.16,2.54-2.43,5-3.73,7.51-1.59,3-3.24,6.07-4.87,9.09.83-1.93,1.71-3.84,2.42-5.81.2-.57-.17-1.34-.29-2l0,0q2.79-6.63,5.59-13.26l-3.66,6.78-.78-.28q2-5.3,3.95-10.59l0,0c.8-2.13,1.61-4.27,2.42-6.4a160.14,160.14,0,0,0-8.16,14.12c-2.58,5-5,10-7.48,15l0,0c-1.32,2.68-2.65,5.36-4,8h0l-4.94,8,0,0-3,4.29,0,0-4.85,7.56c2-4.52,4-9,6-13.55q4.15-9.4,8.28-18.83l-.49,0-7.39,12.21,0,0c-1.91,3.74-3.73,7.52-5.8,11.16-.36.63-1.72.7-2.65,1l2-3.64,0,0,0-2-12.07,21.06a34.24,34.24,0,0,1,3.35-9.14c.44-.92.79-1.88,1.17-2.82-.68.72-1.37,1.44-2.06,2.15-.45.46-.92.91-1.38,1.36a22.76,22.76,0,0,1,1-3.1c2.58-5.57,5.24-11.1,7.8-16.68.12-.24-.41-.77-.67-1.18v0L228.34,70l-1.41,1.39,1.4-2.49c.17-.36.33-.71.49-1.07l0,.07c.16-.36.33-.71.49-1.06l-.06-1.53c-.66.54-1.54,1-1.92,1.67-1.79,3.19-3.4,6.49-5.15,9.71A36.61,36.61,0,0,1,219.88,80c.13-.81.25-1.61.38-2.41l-1.94,2.44c.31-1.18.61-2.36.92-3.54l-1,.49,1.92-3.64c1-2.45,1.9-4.94,3-7.33,2.64-5.65,5.37-11.25,8.06-16.86-2.58,4.86-5.13,9.75-7.79,14.57a60.61,60.61,0,0,1-3.47,5h0q-3.4,6.85-6.8,13.7v0c-1.14,2.45-2.27,4.91-3.4,7.36h0c-.59.88-1.2,1.76-2.2,3.24.44-2.61.74-4.41,1-6.21a16,16,0,0,0-1.34,1.76c-2,3.53-4,7.09-6,10.64.21-.87.37-1.75.66-2.59q3.42-9.58,6.89-19.15a9,9,0,0,0-2,2.08c-1.27,2.62-2.18,5.43-3.57,8-.49.91-2,1.29-3,1.91-.08-.7-.42-1.49-.21-2.08,1.3-3.57,2.79-7.07,4.09-10.63,1.15-3.2,2.14-6.45,3.21-9.68a172,172,0,0,0-7.08,16.16c-2.65,6.52-5.37,13-8.07,19.52,1.29-3.88,2.55-7.77,3.9-11.63,2.5-7.17,5.07-14.32,7.61-21.48q-1.78,3.69-3.55,7.38l-.56-.24q2.16-6.51,4.31-13l-7.5,19.29h0q-2.59,6.19-5.21,12.4c.16-2.62,0-5.31.59-7.83,1.22-5.3,2.83-10.51,4.29-15.76L190.1,85.18l-.56-.24q4.25-10.92,8.51-21.83l0,0,.42-1.53,0,0c.17-.53.33-1.06.49-1.59.17-.37.33-.73.5-1.09l0,.05c.18-.37.35-.74.52-1.11l0,0c.06-.73.13-1.45.31-3.28-4.89,12.2-9.36,23.36-13.82,34.52l-.93-.31q1.32-4.74,2.65-9.49-3.23,6-6.44,12.05l-.26-.13q3-9.6,5.95-19.19c-.46.74-.95,1.45-1.33,2.22-1.49,3-2.94,6-4.4,9,.24-.92.43-1.85.75-2.73,2-5.57,4.13-11.13,6.2-16.7-1,1.86-2,3.68-2.9,5.59-2.39,5.22-4.69,10.47-7,15.7l4.5-12.87c-1,1.87-2.06,3.75-3.13,5.59a5.26,5.26,0,0,1-1,1c-.14-.52-.53-1.14-.37-1.54,1.74-4.18,3.58-8.33,5.39-12.48,0,.42,0,.84,0,1.26q1.47-3.14,3-6.25l0,0q2.59-5.89,5.18-11.8c-2.21,3.49-4.62,6.88-6.55,10.52-2.24,4.22-4,8.67-6,13l0,0-4.44,8,0,0c-1.65,4.25-3.29,8.5-5,12.74-.13.34-.54.57-.82.85-.16-.27-.5-.58-.45-.8.38-1.62.84-3.22,1.27-4.82l0,0V86.1l-1.5,1.39c.38-1.19.7-2.42,1.18-3.57,2-4.83,4.07-9.63,6.12-14.44q-3.69,7.47-7.36,15c-1.9,3.88-3.76,7.77-5.64,11.65l-.61-.25c.63-1.9,1.26-3.8,2-6l-2.07,1.74c.84-4.7,1.61-9,2.38-13.35l-.81-.29-2.6,6.27h0l-4.8,8.15,5.93-14.93Q157.68,86.9,153,96.34l-.12,0q2.82-7.5,5.65-15l-.92.85.93-1.93.51-1.12,0,.06c.14-1,.29-2,.44-3.08l-3.62,2,1.65,1.11-1,1.56,0,0-2,3.74-.95,0,.27-2-.44-.09-10.51,22.45-.94-.44,12-28.93-.28-.12-14.68,28.91c-.15-1.37-.21-1.89-.37-3.31l-5.86,12.55a5,5,0,0,1-.16-2.6c0-1.22-.09-2.43-.16-3.65a32.92,32.92,0,0,0-2.32,2.41c-1.25,1.57-2.4,3.22-3.59,4.84l-1.09,0,0,0c-.35,1.09-.72,2.18-1,3.28-.11.37,0,.84-.14,1.17-1.67,3.34-2.95,7-5.19,9.9s-1.1,8-6,9c-.13,0-.16.54-.23.83-.57,2.15-.79,4.47-1.76,6.42-5.22,10.48-10.67,20.84-15.92,31.3-1.78,3.53-3.16,7.26-4.85,10.83a3.12,3.12,0,0,1-1.83,1.24c-1.08.31-3,.06-3.23.57-.88,2.32-2.37,5.23-1.63,7.17,2.31,6.08,6,11.65,8.24,17.74,1.54,4.1,1.67,8.74,2.39,13.14,2.33,14.36,2.29,28.68-3.84,42.06C85.21,280.36,79,291,73,301.69c-5.16,9.1-10.81,17.91-16.25,26.85l0,0c-.65,1.07-1.3,2.13-1.94,3.2l0,0,0,1.07-.55,0,0,0C49.63,340.4,45,348,40.34,355.57c-11,17.72-19.42,36.68-26.76,56.16C8,426.56,2.51,441.4.12,457.2-1.23,466.09,9.13,476.12,17.94,473.65ZM187.05,58.25s-.05.06-.08.09l.07-.27C187,58.13,187.07,58.2,187.05,58.25Zm-.14.29c0,.46,0,.93,0,1.39l-1.85,2.46Zm-2.78,6.05a.28.28,0,0,1-.07.09l.07-.25C184.14,64.49,184.16,64.55,184.13,64.59Zm-22.25,20.3-.19.14-.34-.69ZM114.73,200.7h0l6.4,3.49v0a17.39,17.39,0,0,1,3.35.6,17.77,17.77,0,0,1,2.93,1.78l0,0c-.11.27-.35.75-.33.76,3.11,1.6,6.23,3.16,9.36,4.72l0,0,3,2.35c-7.92-3.93-15.85-7.83-23.74-11.82-3.41-1.72-6.72-3.61-10.07-5.44l6,2.22,0,0Zm.1,0,.21-.09a.67.67,0,0,1-.14.09Zm1.23-3.24,0-.23.32.1c0,.06-.08.15-.14.17S116.13,197.43,116.06,197.42Zm51.42,19.87-.09-.06.25.05A.3.3,0,0,1,167.48,217.29Zm2.38,12.76-.09-.05.08,0,.17.09Zm-7-42c-1.49,0-3-1-4.41-1.67-.17-.08-.2-1,0-1.26,1.5-1.43,3.08-2.77,4.64-4.14l1.52,3.94C164.12,186,163.48,188.07,162.9,188.06Zm3.2-.81s-.12.05-.19.07l-.13-.19.31-.1C166.1,187.1,166.13,187.19,166.1,187.25Zm10.59,46.24,0,0,.09.05Zm2.47-40.89.08-.15.07.17Zm4.59,27.49,6.5,4.95L183,221.26Zm-3.49-26.26a.74.74,0,0,1,.56-.39c.17,0,.36.22.54.35l-.84.71C180.41,194.26,180.21,194,180.26,193.83Zm7.92,34.56,1.79.43-.33.64Zm43.08-99.48s0-.11,0-.15l.05-.07Zm-.74-30.4v.18l-.15-.07ZM242.44,148l0,0Zm-4.31-32.35.53-.56-.36.68Zm6.57-2.81c.21.2.6.57.59.58-.95,1.08-1.94,2.14-2.92,3.2a.2.2,0,0,1,0-.08C243.17,115.28,243.94,114.05,244.7,112.82Zm8.05-40s-.54-.1-.83-.15l1.76-4C253.38,70.13,253.09,71.5,252.75,72.86Zm19.77-15.13c-.55,1.26-1.11,2.53-1.66,3.8l-.71-.42Zm-22.73,45.36c-.1.16-.37.22-.56.32l-.13-.49.55-.39C249.7,102.72,249.86,103,249.79,103.09ZM259.39,81l-1.47,2.55-1.87,3.57c.14-.65.28-1.29.41-1.94L254.3,87C255.72,84.05,255.61,80.92,259.39,81Zm.55-1.3.2.09-.6,1C259.67,80.35,259.8,80,259.94,79.65Zm-.89-3.3,1.1-1.66c-.13.65-.27,1.3-.4,2Zm-1,38.84a3.9,3.9,0,0,1-.51.48c-.05-.12-.18-.26-.15-.35a4.07,4.07,0,0,1,.4-.76C258,115,258.09,115.13,258.05,115.19Zm-3.56-12.5c.19-.76.39-1.52.59-2.28l.61.27Zm-1.79-6.2c-.1-.18-.33-.41-.29-.53a4,4,0,0,1,.55-.77l.42.53Zm1.63,6.52-.29.72-.19-.09Zm-2,3.5.18-.36.4.4Zm4,11.08.19.07-.45.66Zm-6.13-22.25c1.1-2.29,2.2-4.58,3.61-7.54C254.46,90.56,254.46,90.56,250.25,95.34Zm11.28,13.37c.06-.12.22-.18.33-.27.06.11.19.26.16.32s-.22.19-.35.29C261.62,108.92,261.5,108.77,261.53,108.71Zm12.6-20.34c-.1.23-.2.46-.31.69l-.18-.1Zm-6.49-14.13-.05.07.05-.22S267.66,74.2,267.64,74.24Zm-1-5.83s0-.09,0-.13l0-.06Zm.48,31.32-2.28,4.38,0,0c-.17.36-.34.71-.5,1.07l0,.54-.51.53-.36,1.07-.12-1,0-.53c1-2.11,1.95-4.23,2.93-6.34Zm1.66-35.32.09-.39.22.12Zm-2.18-2,.06-.14.1.12ZM263.78,68c.58-1.51,1.16-3,1.75-4.52l.86.45Zm-.51,1.06-.29-.22.61-.53C263.49,68.58,263.38,68.83,263.27,69.08Zm-.38,5.81-.18-.13.56-.57C263.15,74.43,263,74.66,262.89,74.89ZM264.06,82q-2.64,5.7-5.27,11.39l0,0L258,95.76A25.38,25.38,0,0,1,264.06,82Zm-3.81-7.54a.66.66,0,0,1,0-.15l1.41-2.68c.21.21.61.6.6.61C261.63,73,260.94,73.75,260.25,74.48ZM246.54,89.85a2.5,2.5,0,0,1-.23.23c.08-.14.15-.28.22-.43C246.53,89.72,246.57,89.81,246.54,89.85ZM244.6,106.5l-.68,1.77-.5-.29C243.81,107.48,244.2,107,244.6,106.5Zm-2.28,10.35.69,1.28-.42.16Zm3.7-7.38c.62-1.37,1.24-2.75,1.85-4.12l.62.25-1.59,4.3Zm37.15-34.64.39-.92c0,.31,0,.61.05.92Zm10.9-18.66-.57.61.27-.78Zm-2.32-4.12c-2.43,4-4.95,7.89-7.44,11.83L283.8,65q-2.31,4.71-4.61,9.43L283.28,64c2.21-4.4,4.37-8.83,6.67-13.18.25-.47,1.3-.51,2-.74C291.88,50.71,292.06,51.53,291.75,52.05Zm-7.05-2.71,0-.21.16.13Zm3.23-1.67,1.49-1.05c-.15.68-.3,1.36-.44,2l-.65,2.51-.69-.1C287.73,49.93,287.83,48.8,287.93,47.67Zm-1.09-.91s.08.12.12.18-.1.19-.11.18a2.16,2.16,0,0,1-.34-.17A2.79,2.79,0,0,1,286.84,46.76Zm-3.15-3.13a2.66,2.66,0,0,1,.59.28,22.86,22.86,0,0,1-.9,3.09,5.24,5.24,0,0,1-1.18,1.28,6.81,6.81,0,0,1,.14-2A18.08,18.08,0,0,1,283.69,43.63Zm-3.07.71c.56,1.45,0,3.34-.11,5l-1-.12c.13-.67.27-1.35.46-2.26l-4.27,5.07,2.85-6.32-.32-.25-3.38,5.23-.45-.26c.82-2.52,1.65-5,2.47-7.56C278.17,43.36,280.29,43.5,280.62,44.34Zm-11.9,4c.91-2.66,1.81-5.33,2.76-8a2.55,2.55,0,0,1,.75-.87c1.55,1.11,3.07,2.27,4.59,3.43h0q-2.94,4.67-5.89,9.33c.59-2.66,1.17-5.31,1.76-8L266.5,57.44c.76-2.53,1.51-5.06,2.27-7.58l-2.38,3.61-.59-.34Q267.26,50.73,268.72,48.33ZM265.89,59c-.24.59-.49,1.17-.73,1.75l-.46-.3Zm-1.6,4-3,6q1.15-3.13,2.32-6.27Zm-.86-4.32-.51.57c.11-.23.22-.46.34-.68ZM260.36,65l-.33.63-.16-.1Zm-2.89-15.57Zm-.12.21h0l.06-.11Zm-1.56,3c-.22.6-.45,1.2-.67,1.79l-.51-.31C255,53.57,255.4,53.08,255.79,52.58Zm-2.1,3.66.44.18-.89,2.13-.47-.19ZM253,60.33l0,0Zm-.76,2-1.14,1.58c.16-.62.33-1.24.49-1.85Zm.3,4q-1.44,2.61-2.9,5.22l-.94-.67Zm-2.69,12.1s.3.2.45.31l-.69.84c-.18-.22-.41-.43-.38-.48A2.63,2.63,0,0,1,249.85,78.4Zm-3.8-.7-1.23.55c.17-.38.33-.76.49-1.15Zm-4.74,13.72.51.31-1.2,1.56Zm-3.79,4.31-2.38,3.39,1.62-3.81Zm0,22.29L235.86,120l1.16-2.29Zm-8.19-32.4c0,.47-.09.93-.13,1.4l-.43-.13C229,86.47,229.14,86,229.33,85.62Zm-.49,3.53-2.67,5.11q.83-2.74,1.63-5.49Zm-4.55,9.19,0,.22c-.07,0-.15.09-.21.07s-.07-.12-.1-.18Zm-4.13-5.57c-.5,1.29-1,2.57-1.51,3.86l-.8-.4Zm-2.24-3.6s0-.2.08-.22a1.2,1.2,0,0,1,.38,0l-.13.46A1.5,1.5,0,0,1,217.92,89.17Zm9.45-15.34c-.63,1.14-1.25,2.28-1.87,3.42l0-1.46C226.1,75.14,226.73,74.48,227.37,73.83Zm-2,3.57-.87,1.52c0-.34,0-.67,0-1Zm-5.63,2.83-.45,1.92-.68-.3ZM221.18,68a.39.39,0,0,1-.08.1l.07-.27A.34.34,0,0,1,221.18,68Zm-.19.24-.94,1.89c0-.46,0-.93,0-1.39Zm-3.85,11.32-3.37,9.78-1.28-.52ZM224.83,175c.27-.67.83-1.22,1-1.89a13.53,13.53,0,0,0,.38-2.39c.37.49.72,1,1.12,1.46a.82.82,0,0,0,.65.23c5.22-1.64,2.35,1.55,1.65,2.95q-16.65,33-33.48,65.86c-.31.61-2,1.24-2.35,1-1.1-.81-2.86-2.57-2.61-3.07,1.84-3.63,1.91-8.37,6.22-10.53a1.09,1.09,0,0,0,.49-.85c-.61-3.09.9-5.58,2.23-8.13l0,0,2.95-5.85,0,0c.52-1.08,1-2.17,1.54-3.25l0,0,1.95-3.69,0,0c2.53-4.47,4.95-9,7.62-13.38,2.93-4.81,6.11-9.47,9.17-14.2.16-.36.32-.73.49-1.09C224.1,177.2,224.41,176.09,224.83,175Zm-9.05,3.16a12.78,12.78,0,0,1-2.36,1.94,5.54,5.54,0,0,1,.27-1.17c.38-.87.83-1.71,1.25-2.56C215.24,177,216,178,215.78,178.19Zm.79,4.55-.29.21c0-.06,0-.14.09-.16A.42.42,0,0,1,216.57,182.74Zm1.23-4.19s.16-.12.2-.1a2,2,0,0,1,.3.29l-.42.23A2.07,2.07,0,0,1,217.8,178.55Zm-.17,5,.45-.29-.3.43ZM211.44,88.6l-.54,1.14c0-.43.09-.85.14-1.28Zm-1.63,1.26,1,0-1.26,3.29-.42-.11C209.38,92,209.6,90.93,209.81,89.86Zm10.45,76.89-.54,1-3-2.15Zm-15.81-66.18a1.88,1.88,0,0,1,.24.25s-.08.11-.12.17l-.28-.23Zm-5.21,3.26c0,.26-.07.52-.11.78l-.19,0Zm-1.88,4.84-.38.62.21-.69Zm-6.17-12.92c-.15.68-.31,1.35-.47,2l-.69-.31Zm.8,7.77-.15.8-.31-.11ZM178,87l-.14.21L178,87Zm-.2.31Zm-13.35,9.61-.57.57c.13-.24.26-.47.4-.7Zm-2.95,2.45Zm-.08.13-.11.18h0Zm-9.45-12a4.13,4.13,0,0,1,.57-.71c.09.19.3.41.25.55a5,5,0,0,1-.66,1C152,87.87,151.86,87.64,151.93,87.5Zm-.42,2.17c.08-.06.38.16.76.33a4.36,4.36,0,0,1-.83.72c-.1,0-.34-.2-.53-.32A4,4,0,0,1,151.51,89.67Zm-14.07,16.38-.38,1.11-.22-.1Zm-9.28,13.88.17.13c0,.06,0,.16-.09.19s-.14,0-.21,0Zm-35,68.79q8.79-18,17.77-36c2.67-5.33,5.49-10.58,8.29-15.84,2.58-4.86,5.1-9.76,8-14.47a3.91,3.91,0,0,1,3.68-1c16,8.17,31.94,16.51,47.87,24.84a3.2,3.2,0,0,1,.71.67l-1.89-.13-.27.61,9.15,5.56,0,.55,1.08.49,0,0,15.36,7.83.53-.05v.55l13,6.85-.31.7-5.92-2-.51.6,8,6.24c-9.82-4.72-19.71-9.3-29.44-14.19-14.82-7.46-29.54-15.11-44.27-22.74-5.52-2.86-11-5.9-16.45-8.82-1-.55-2.64-2.12-1.93,1.07.33,1.49-.21,3.17.08,5a25.38,25.38,0,0,1,.8-2.42,5.23,5.23,0,0,1,.94-1.13c.41.38,1.19.78,1.17,1.15a40.19,40.19,0,0,0-.22,4.5,15.67,15.67,0,0,1,1.4-2.81,6.81,6.81,0,0,1,1.93-1.27l0,0-.29,6c.53-.9,1-1.67,1.42-2.47s.64-1.43.95-2.14c.11.53.18,1.08.33,1.6.35,1.23.74,2.46,1.18,3.9l1.27-4,.77.19-1.17,4.31,2.18-2.9c-.2,1.55-.37,2.82-.64,4.79.71-1.06,1.18-1.68,1.55-2.35s.74-1.51,1.1-2.27c.38.72,1.08,1.44,1.08,2.17a26.33,26.33,0,0,0-.23,4.06l2.27-4.68c-.06,1.9-.09,3.05-.16,5.19.4-1.78.58-2.62.77-3.46l.7.09c-.18.94-.34,1.89-.54,2.83-.11.51-.31,1-.47,1.5a5.33,5.33,0,0,0,1.57-1c.34-.43.27-1.15.51-1.69a16.34,16.34,0,0,1,1-1.82,6.86,6.86,0,0,1,.89,2.26c0,.58-.7,1.16-1.09,1.74l0,0c0,.67-.09,1.34-.14,2,.52-.07,1.38,0,1.51-.23.59-1.2,1-2.5,1.71-4.48a29.2,29.2,0,0,1,1.37,3.74c0,.16-1.18.6-1.81.91l0,0,1.19,2c.79-1.13,1.59-2.25,2.57-3.64a20.65,20.65,0,0,0-.39,2.86c0,.28.56.56.9.84l-.3,1.7a13.06,13.06,0,0,0,2-1.65,24.64,24.64,0,0,0,1.79-2.8l0,0c-.1.34-.17.69-.29,1-.18.5,2.11,1.63-.42,1.59-.21,0-.43,1-.65,1.6l0,0,1.33,1.89,2.5-4.06c1.86.85,2.16,2.28.37,4.17l0,0,1.08,1.56,1.43-4.55c1.46,1.26,3,2.52.63,4.44,0,.55,0,1.11,0,1.66.54-.32,1.39-.51,1.56-1a24.61,24.61,0,0,0,.84-3.68c2.56,2.92,2.59,3.43.29,4.5l0,0c.54.69,1.07,1.38,1.61,2.06.5-1.49,1-3,1.56-4.62,1.53,1.3,3.12,2.55.5,4.51l-.42,1.6,2.06,0c1.36-1.1-1-4.38,2.45-4.25-.48,1.56-1,3.13-1.43,4.69l.51,1.53c.51-.26,1.28-.38,1.48-.78a20.55,20.55,0,0,1,1.74-3.53c-.16,1.32-.28,2.64-.48,3.95-.25,1.73.11,2.7,2.1,1.82h0l1,.46.27,1.59a5.36,5.36,0,0,0,1.78-.79,5.09,5.09,0,0,0,.86-1.85c.28-.75.48-1.53.72-2.29.49,1.12,1,2.23,1.41,3.38.06.16-.53.54-.83.82l-.53.57c-.14.53-.29,1.07-.44,1.6l2.1-.06v0h2.07l-.72,1.75c.71-.31,1.8-.45,2-1a22.51,22.51,0,0,0,1.06-4.05l1.15,0c-.13,1.54-.25,3.08-.38,4.62l0,0c-.26.7-.51,1.41-.77,2.12l2.3,0v0c.59,2.49,2.56,1.89,4.25,1.9,0,.52,0,1,0,1.55.88-.81,2.05-1.49,2.56-2.49s.24-2.57,2.13-1.75l-.51,3.51-.54.58-.79,1.46,3-.47c.13-1.26.26-2.51.41-4,2.14,1.46,2.69,2.81.61,4.45l-.51.56c-.59,3.11,1.48.54,2.13,1l1.23-4.69.92,0-.06,4.61-1.32,2c.2.13.5.41.58.36.76-.5,1.76-.9,2.14-1.62a13.71,13.71,0,0,0,.83-3.38c2.31,1.91,2.44,3,.44,4.61-.25.67-.51,1.34-.77,2l2.37-.48c.25-.54.51-1.07.74-1.62.34-.83.67-1.67,1-2.51.38.6,1.21,1.37,1.06,1.78a9.54,9.54,0,0,1-1.79,2.3c-.27,1.74-.41,3.34,2.17,2l.49-.53,0,.51-2.49,3.14-3.14-.41,0,0-17.5-8.8,0,0-6.42-2.95,0,0-5.82-3.47,0,0-1.09-.52,0,0-1.1-.52,0,0-1.07-.52-.55,0c0-.18,0-.35,0-.52l-1.08-.51,0,0-1.09-.52,0,0-2.69-1.5,0,0-2.69-1,0,0-2.68-1.48.09,0-.06-.07-2.67-1.45,0,0-1.09-.51,0,0-3.63-1.93,0,0q-15.17-7.65-30.32-15.3a3.13,3.13,0,0,0-2.67-.35l42.43,22.52,1.1.5,1.6,1,0,0,1.09.51,0,0,3.72,2.53,1.07,0,1,.44,0,.56,1.08.49,0,0,1.08.52,0,0c.89.51,1.79,1,2.69,1.51l0-.55,1,.5.53,1q11.92,6.27,23.85,12.57a3.83,3.83,0,0,1,2.1,2.6c-3.58-1.75-7.14-3.55-10.74-5.23-4.18-2-8.4-3.82-12.6-5.71,3.89,2.39,7.74,4.85,11.69,7.14s7.81,4.27,11.72,6.39l-3-.37c-.86,2-2.38,3.74-.87,6.28.58,1,.1,2.93-.44,4.2-2.63,6.19-5.54,12.26-8.15,18.45-1.18,2.78-2.55,4.06-5.37,2a3.37,3.37,0,0,0-.46-.25c-7-3.62-7-3.62-6-11.21l0,0c-.18-2.25.34-4.91-.7-6.66-1.37-2.31-.18-3.17,1.26-3.58,3.55-1-.85-2.82.54-3.92-.74,0-1.48.1-2.22.13-.29,0-.78.11-.84,0-.19-.39-.45-1-.28-1.26,1.27-2.19.3-3.09-1.8-3.68-2.37-.67-3.11-1.72-1-3.93.52-.55-.59-2.62-1-4l0,0,1-2.17,0,0c0-.51-.07-1-.1-1.51a32.87,32.87,0,0,0-3,3.41c-.25.37.16,1.33.48,1.91a8.47,8.47,0,0,0,1.34,1.55l-2.21,1,0,0a34.42,34.42,0,0,1-3.07,2.33c-.24.14-1-.33-1.37-.66s-.71-1.13-1.22-1.4a9.05,9.05,0,0,0-2.24-.53c.34-.46.68-1.3,1-1.31a8.5,8.5,0,0,1,2.32.59c.08-2.7,6.08-3.12,3.21-7.29h0c2.23-3.73.12-6.27-5.46-6.56l0,0-2.43-.3c-.78-1.08-1.25-2.39-2.15-2.87-4.78-2.48-9.66-4.76-14.51-7.1l0,0-4.67-.4c2.24.81,3.92,1.74.67,3.63,2.12,2.06.57,3.95-.31,5.87l0,0c0,1,.07,2.05.08,2.6l4.63.31c.8,1,1.93,1.93,2.25,3.09.21.71-.85,1.78-1.34,2.7l-1.06-1c.36-.89.71-1.78,1.07-2.68l-.4-.28a9.85,9.85,0,0,0-1.46,1.73c-.77,1.46-1.38,2.92-3.29,1.12-.19-.18-1,.29-1.51.46l1.35,3.3,0,0a10.75,10.75,0,0,0,1.89,9.85c1.37-.87,2.45-1,3,1,.14.52,1,.8,1.29,1.33a4,4,0,0,1,.12,1.65c-.4.17-1.07.49-1.08.46-.6-1.14-1.13-2.32-1.67-3.49-1.66,1-3.28,2-5,2.89-.6.3-1.48,0-2.23,0l0,0-2.68-2c-1.11-1-2.24-2-3.3-3.07-.07-.07.38-.65.59-1l0,0c-1.09-2-2.1-1.09-3.1.08l0,0-3.72-.94.46,1-2.53-1.46-3.15-1.44c-.54-.34-1.08-.68-1.63-1l-14.41-6.5-.3.56,11.43,6.18,16.1,8.71,0,0,9,4.95,0,0,1.08.51,0,0,14.48,8a29,29,0,0,1,6.86,4.65l-14.17-6.77c-1-.47-2-.89-3.07-1.27-.77-.27-1.59-.43-2.38-.64a11.51,11.51,0,0,0,2.17,2.23c5.26,3.08,10.57,6.06,15.86,9.06-4.37-2-8.77-4-13.09-6.1-9.36-4.58-18.63-9.33-28-13.81-3.28-1.56-7-2.19-10.22-3.9-3-1.63-5.59-4.15-8.41-6.21a10.52,10.52,0,0,0-2.14-.91l0,0a13.21,13.21,0,0,0-3.07-1.76c-4-1-5.86,1.24-5.62,6.76,0,.18,0,.36,0,.54l2.66,1,0,0,4.58,3.36c-3-1.36-6-2.66-8.9-4.18C93.07,190.89,92.87,189.35,93.18,188.72Zm106.41-20.55-.1-.5c0,.05.14.09.14.13S199.6,168.05,199.59,168.17Zm-4.21,2.2h0c-.51-.28-1.43-.62-1.39-.8a21.07,21.07,0,0,1,1-3.05c.44.22,1.28.5,1.26.65A29.81,29.81,0,0,1,195.38,170.37ZM193.05,167c-.25.68-1.54,1-2.4,1.42.1-.39.18-.8.31-1.18.3-.94.62-1.86.94-2.79C192.33,165.32,193.28,166.38,193.05,167Zm-7.25-5.14L187,162c-.36,1.15-.71,2.3-1.07,3.45Zm-1.94,3.55c.39-1.45.79-2.89,1.18-4.34l.81.3C185.18,162.72,184.52,164.06,183.86,165.41Zm-6.4-3.24c.26-.88.49-1.76.78-2.63.24-.7.57-1.38.87-2.07.4.65,1.14,1.32,1.11,1.94s-.73,1.36-1.28,1.91A5.78,5.78,0,0,1,177.46,162.17Zm-.43-2.64-.75,0c0-.85,0-1.7.07-2.56l.78.09C177.1,157.86,177.06,158.69,177,159.53Zm-22.75-13.16c-.21.83-.43,1.67-.65,2.5,0-.87,0-1.74-.08-2.61Zm-9.55-6.85-.15,0,.09-.12Zm42.93,35.76-.22-.08c.05,0,.11,0,.15,0A.27.27,0,0,1,187.66,175.28Zm-4,23.63a1.5,1.5,0,0,1,.34-.4c.06,0,.25.15.39.25-.1.12-.18.31-.29.32S183.83,199,183.68,198.91ZM167.56,174a3.42,3.42,0,0,1,.13-.34l.35.22a2.45,2.45,0,0,1-.31.23S167.56,174,167.56,174Zm1.73,1.42.49-.44.72,1.42Zm4.35,3.21.19-.13.42.8Zm-21.55-11.9,0,.6a14.18,14.18,0,0,1-1.6-.13c-.08,0-.1-.42-.14-.65ZM151,165.1s0-.11.06-.16.15,0,.16.07,0,.11-.06.17S151,165.14,151,165.1Zm-.72,3.83-.14.06,0-.15Zm-1.69-4.57c.13-.06.28-.2.4-.18s.24.19.36.3c-.12.11-.31.32-.34.3A2.09,2.09,0,0,1,148.58,164.36Zm1.93,9.76.19.19-.38.19Zm-2.62-2.92,0,.16-.09-.13Zm.81,14.29-.08.18c-.06,0-.15,0-.17-.08s.05-.11.07-.17Zm-1.94-.66a.37.37,0,0,1,0,.21l-.26-.08.1-.18C146.66,184.79,146.75,184.8,146.76,184.83Zm-7.31,9.94-.09.53-.21-.1ZM27.23,407c2.75-5.78,5.21-11.75,8.54-17.18,5.23-8.54,11-16.75,16.7-25,1.55-2.24,3.19-4.42,4.88-6.56,4.69-8.85,8.9-17,11.57-22.4,8.88-18.12,31.23-67,36.83-88.75.12-.63.23-1.25.36-1.87.17-.82.39-1.61.58-2.41.19-1.05.32-2.07.43-3.06a6.25,6.25,0,0,0-.53-2.47c-.17-.38.29-1,.45-1.57l.31.13c.19-14.16-7.13-21.18-7.13-21.18l59.53,30.42S126,271.78,113.54,299.66s-31.42,74.8-54.1,109.08c-17.5,26.47-25.42,12-28.13,4l-.14.07C26.44,412.93,25.25,411.15,27.23,407Zm-1.4,18.73a6,6,0,0,0-.71-2c4.31-1.37,9.36-.34,11.36,2.59a7.48,7.48,0,0,1,0,9c-1.29,1.73-3.83,3.75-5.62,3.59a7.42,7.42,0,0,1-5.32-4.29C24.76,431.89,25.73,428.7,25.83,425.72Z"/><path d="M208.07,177.3l0,0v0Z"/><path d="M205.48,190.85h0l0,0Z"/><path d="M291.05,64.2l-.06.14.09-.11Z"/><path d="M184.73,177.53l.35.16-.32-.2Z"/><path d="M245.2,61.11h0v0Z"/><path d="M228.34,68.91h0l0,0Z"/><path d="M229.31,66.8l0,.06h0Z"/><path d="M229.22,65.26v.07l0,0Z"/><path d="M220.28,77.53l0,.08.05-.06Z"/><path d="M220.17,73.35h0l0,0Z"/><path d="M261.9,46.52l-.17.41.2-.37Z"/><path d="M245.72,61.08h0Z"/><path d="M228.34,70v0l0,0Z"/><path d="M231.3,79.78v.1l0-.06Z"/></svg>