<svg id="Layer_1" data-name="Layer 1" xmlns="http://www.w3.org/2000/svg" viewBox="0 0 143 143"><defs><style>.cls-1{fill:#071f35;}.cls-2{fill:#56a1d8;}</style></defs><title>All, PNG &amp;amp; SVG- pixelbones</title><path class="cls-1" d="M0,51.75C0,33.64,0,24.58,3.53,17.66A32.27,32.27,0,0,1,17.66,3.53C24.58,0,33.64,0,51.75,0h39.5c18.11,0,27.17,0,34.09,3.53a32.27,32.27,0,0,1,14.13,14.13c3.53,6.92,3.53,16,3.53,34.09v39.5c0,18.11,0,27.17-3.53,34.09a32.27,32.27,0,0,1-14.13,14.13c-6.92,3.53-16,3.53-34.09,3.53H51.75c-18.11,0-27.17,0-34.09-3.53A32.27,32.27,0,0,1,3.53,125.34C0,118.42,0,109.36,0,91.25Z"/><path class="cls-2" d="M30.64,104.78V41.9c0-.43.18-.68.6-.68,6.16,0,12.31-.36,18.47-.36,10,0,20.81,3.41,24.61,13.87a24,24,0,0,1,1.37,7.94q0,7.89-3.58,13c-6.65,9.56-18.19,9.41-28.54,9.41v19.62c.08.58-.41.85-.89.85H31.36C30.88,105.57,30.64,105.33,30.64,104.78ZM43.63,53V73.55c4.1.3,8.39.33,12.34-1,4.35-1.25,6.73-5,6.73-9.53a9.15,9.15,0,0,0-5.54-8.92C53.26,52.5,47.83,52.4,43.63,53Z"/><path class="cls-2" d="M112.85,69.49a21.92,21.92,0,0,0-5.71-2.06c-2.55-.6-12.61-2.7-12.61,2.56.09,2.93,4.75,4.37,6.81,5.21,7.23,2.48,15.41,6.92,15.25,15.84.22,11.11-10.54,15.55-19.76,15.55a32.88,32.88,0,0,1-14.2-2.76,1.29,1.29,0,0,1-.67-1.18V92c0-.43.41-.8.77-.5a28.71,28.71,0,0,0,14.39,3.94c2.2,0,6.55-.21,6.52-3.44s-5.21-4.53-7.29-5.32a34.84,34.84,0,0,1-8.49-4.42A13.85,13.85,0,0,1,82,70.87c0-10.45,9.88-15.15,18.8-15.15,4.17,0,8.65.27,12.53,2,.56.16.68.75.67,1.28V68.9A.72.72,0,0,1,112.85,69.49Z"/></svg>