<svg id="Layer_1" data-name="Layer 1" xmlns="http://www.w3.org/2000/svg" viewBox="0 0 100.78 108.08"><defs><style>.cls-1{fill:#fff;}</style></defs><title>All, PNG &amp;amp; SVG- pixelbones</title><polygon class="cls-1" points="11.89 76.02 4.89 106.02 36.89 93.02 11.89 76.02"/><circle class="cls-1" cx="50.89" cy="50.02" r="49"/><path d="M3.23,108.08l2.42-9.71C7,92.77,8.46,87.18,9.81,81.57a2.07,2.07,0,0,0-.29-1.49C2.75,70.5-.64,59.83.1,48.12c1.2-18.86,10.23-33,26.7-42.2A48.5,48.5,0,0,1,52.68,0C74.91.85,94.54,17.18,99.47,39c5.46,24.15-6.53,48.12-29.21,57.92-12.57,5.43-25.37,5.49-38.21.68a2.8,2.8,0,0,0-1.83,0C21.59,100.92,13,104.3,4.37,107.66Zm3.17-3.62c.47-.17.77-.27,1.07-.39q11.33-4.42,22.65-8.87a2.59,2.59,0,0,1,2.08,0,47.71,47.71,0,0,0,27.54,2.69c27-5.16,44.31-32.66,37.38-59.33A48.2,48.2,0,0,0,40,3.34C18.75,7.84,2.67,27.3,2.22,48.93a48.06,48.06,0,0,0,9.64,30.53,1.89,1.89,0,0,1,.33,1.81C10.26,88.93,8.36,96.6,6.4,104.46Z"/><path d="M15.14,93.5c1.38-4.84,2.65-9.44,4-14a2.24,2.24,0,0,0-.51-2.36,41.32,41.32,0,1,1,39.54,14.2A40.11,40.11,0,0,1,32,87.74,2.28,2.28,0,0,0,30,87.66C25.13,89.6,20.24,91.5,15.14,93.5Zm22-65.25c-1.33-.49-2.58.14-3.7,1.23-.66.64-1.37,1.23-2,1.9A8,8,0,0,0,29,37.86a49.15,49.15,0,0,0,1.41,8.23c2,6.88,6.22,12.45,11.4,17.28s10.87,8.75,17.76,10.71a20.39,20.39,0,0,0,8,.94c3.86-.46,6.1-3.25,8.14-6.21a.9.9,0,0,0,.1-.52c-.1-1.51-.18-3-.34-4.51A1.12,1.12,0,0,0,74.9,63c-3.64-1.45-7.3-2.86-11-4.27a2.36,2.36,0,0,0-2.73.52c-1.1,1.08-2.35,2-3.39,3.16a1.43,1.43,0,0,1-2.26.24,87.85,87.85,0,0,1-7.73-6.35,99.7,99.7,0,0,1-6.6-8.11c-.55-.69-.42-1.27.24-1.91,1.06-1,2-2.2,3-3.21a2.88,2.88,0,0,0,.58-3.6Q43.45,35.55,42,31.57C40.76,28.41,40.79,28.4,37.16,28.25Z"/></svg>